ISO-10303-21;
HEADER;
/* Generated by software containing ST-Developer
 * from STEP Tools, Inc. (www.steptools.com) 
 */

FILE_DESCRIPTION(
/* description */ (''),
/* implementation_level */ '2;1');

FILE_NAME(
/* name */ 'pegboard_mount_bracket.step',
/* time_stamp */ '2026-09-04T11:03:27-05:00',
/* author */ (''),
/* organization */ (''),
/* preprocessor_version */ 'ST-DEVELOPER v20.1',
/* originating_system */ 'Autodesk Translation Framework v15.8.0.0',
/* authorisation */ '');

FILE_SCHEMA (('AUTOMOTIVE_DESIGN { 1 0 10303 214 3 1 1 }'));
ENDSEC;

DATA;
#10=MECHANICAL_DESIGN_GEOMETRIC_PRESENTATION_REPRESENTATION('',(#13),#1201);
#11=SHAPE_REPRESENTATION_RELATIONSHIP('SRR','None',#1208,#12);
#12=ADVANCED_BREP_SHAPE_REPRESENTATION('',(#14),#1200);
#13=STYLED_ITEM('',(#1217),#14);
#14=MANIFOLD_SOLID_BREP('pegboard_mount_bracket',#757);
#15=FACE_BOUND('',#69,.T.);
#16=FACE_BOUND('',#73,.T.);
#17=FACE_BOUND('',#77,.T.);
#18=FACE_BOUND('',#79,.T.);
#19=FACE_BOUND('',#100,.T.);
#20=FACE_BOUND('',#101,.T.);
#21=FACE_OUTER_BOUND('',#59,.T.);
#22=FACE_OUTER_BOUND('',#60,.T.);
#23=FACE_OUTER_BOUND('',#61,.T.);
#24=FACE_OUTER_BOUND('',#62,.T.);
#25=FACE_OUTER_BOUND('',#63,.T.);
#26=FACE_OUTER_BOUND('',#64,.T.);
#27=FACE_OUTER_BOUND('',#65,.T.);
#28=FACE_OUTER_BOUND('',#66,.T.);
#29=FACE_OUTER_BOUND('',#67,.T.);
#30=FACE_OUTER_BOUND('',#68,.T.);
#31=FACE_OUTER_BOUND('',#70,.T.);
#32=FACE_OUTER_BOUND('',#71,.T.);
#33=FACE_OUTER_BOUND('',#72,.T.);
#34=FACE_OUTER_BOUND('',#74,.T.);
#35=FACE_OUTER_BOUND('',#75,.T.);
#36=FACE_OUTER_BOUND('',#76,.T.);
#37=FACE_OUTER_BOUND('',#78,.T.);
#38=FACE_OUTER_BOUND('',#80,.T.);
#39=FACE_OUTER_BOUND('',#81,.T.);
#40=FACE_OUTER_BOUND('',#82,.T.);
#41=FACE_OUTER_BOUND('',#83,.T.);
#42=FACE_OUTER_BOUND('',#84,.T.);
#43=FACE_OUTER_BOUND('',#85,.T.);
#44=FACE_OUTER_BOUND('',#86,.T.);
#45=FACE_OUTER_BOUND('',#87,.T.);
#46=FACE_OUTER_BOUND('',#88,.T.);
#47=FACE_OUTER_BOUND('',#89,.T.);
#48=FACE_OUTER_BOUND('',#90,.T.);
#49=FACE_OUTER_BOUND('',#91,.T.);
#50=FACE_OUTER_BOUND('',#92,.T.);
#51=FACE_OUTER_BOUND('',#93,.T.);
#52=FACE_OUTER_BOUND('',#94,.T.);
#53=FACE_OUTER_BOUND('',#95,.T.);
#54=FACE_OUTER_BOUND('',#96,.T.);
#55=FACE_OUTER_BOUND('',#97,.T.);
#56=FACE_OUTER_BOUND('',#98,.T.);
#57=FACE_OUTER_BOUND('',#99,.T.);
#58=FACE_OUTER_BOUND('',#102,.T.);
#59=EDGE_LOOP('',(#477,#478,#479,#480));
#60=EDGE_LOOP('',(#481,#482,#483,#484));
#61=EDGE_LOOP('',(#485,#486,#487,#488));
#62=EDGE_LOOP('',(#489,#490,#491,#492));
#63=EDGE_LOOP('',(#493,#494,#495,#496));
#64=EDGE_LOOP('',(#497,#498,#499,#500));
#65=EDGE_LOOP('',(#501,#502,#503,#504));
#66=EDGE_LOOP('',(#505,#506,#507,#508));
#67=EDGE_LOOP('',(#509,#510,#511,#512));
#68=EDGE_LOOP('',(#513,#514,#515,#516));
#69=EDGE_LOOP('',(#517,#518,#519,#520));
#70=EDGE_LOOP('',(#521,#522,#523,#524));
#71=EDGE_LOOP('',(#525,#526,#527,#528));
#72=EDGE_LOOP('',(#529,#530,#531,#532));
#73=EDGE_LOOP('',(#533,#534,#535,#536));
#74=EDGE_LOOP('',(#537,#538,#539,#540));
#75=EDGE_LOOP('',(#541,#542,#543,#544));
#76=EDGE_LOOP('',(#545,#546,#547,#548));
#77=EDGE_LOOP('',(#549,#550,#551,#552));
#78=EDGE_LOOP('',(#553,#554,#555,#556));
#79=EDGE_LOOP('',(#557,#558,#559,#560));
#80=EDGE_LOOP('',(#561,#562,#563,#564,#565,#566,#567,#568,#569,#570,#571,
#572));
#81=EDGE_LOOP('',(#573,#574,#575,#576,#577,#578,#579));
#82=EDGE_LOOP('',(#580,#581,#582,#583));
#83=EDGE_LOOP('',(#584,#585,#586,#587));
#84=EDGE_LOOP('',(#588,#589,#590,#591));
#85=EDGE_LOOP('',(#592,#593,#594,#595));
#86=EDGE_LOOP('',(#596,#597,#598,#599));
#87=EDGE_LOOP('',(#600,#601,#602,#603));
#88=EDGE_LOOP('',(#604,#605,#606,#607,#608,#609,#610));
#89=EDGE_LOOP('',(#611,#612,#613,#614,#615,#616,#617));
#90=EDGE_LOOP('',(#618,#619,#620,#621));
#91=EDGE_LOOP('',(#622,#623,#624,#625));
#92=EDGE_LOOP('',(#626,#627,#628,#629));
#93=EDGE_LOOP('',(#630,#631,#632,#633));
#94=EDGE_LOOP('',(#634,#635,#636,#637));
#95=EDGE_LOOP('',(#638,#639,#640,#641));
#96=EDGE_LOOP('',(#642,#643,#644,#645,#646,#647,#648));
#97=EDGE_LOOP('',(#649,#650,#651,#652,#653,#654,#655,#656,#657,#658,#659,
#660));
#98=EDGE_LOOP('',(#661,#662,#663,#664));
#99=EDGE_LOOP('',(#665,#666,#667,#668));
#100=EDGE_LOOP('',(#669,#670,#671,#672));
#101=EDGE_LOOP('',(#673,#674,#675,#676));
#102=EDGE_LOOP('',(#677,#678,#679,#680));
#103=LINE('',#993,#205);
#104=LINE('',#995,#206);
#105=LINE('',#997,#207);
#106=LINE('',#998,#208);
#107=LINE('',#1001,#209);
#108=LINE('',#1003,#210);
#109=LINE('',#1004,#211);
#110=LINE('',#1007,#212);
#111=LINE('',#1009,#213);
#112=LINE('',#1010,#214);
#113=LINE('',#1012,#215);
#114=LINE('',#1013,#216);
#115=LINE('',#1017,#217);
#116=LINE('',#1019,#218);
#117=LINE('',#1021,#219);
#118=LINE('',#1022,#220);
#119=LINE('',#1025,#221);
#120=LINE('',#1027,#222);
#121=LINE('',#1028,#223);
#122=LINE('',#1031,#224);
#123=LINE('',#1033,#225);
#124=LINE('',#1034,#226);
#125=LINE('',#1036,#227);
#126=LINE('',#1037,#228);
#127=LINE('',#1041,#229);
#128=LINE('',#1043,#230);
#129=LINE('',#1045,#231);
#130=LINE('',#1046,#232);
#131=LINE('',#1049,#233);
#132=LINE('',#1051,#234);
#133=LINE('',#1052,#235);
#134=LINE('',#1055,#236);
#135=LINE('',#1057,#237);
#136=LINE('',#1058,#238);
#137=LINE('',#1062,#239);
#138=LINE('',#1064,#240);
#139=LINE('',#1066,#241);
#140=LINE('',#1067,#242);
#141=LINE('',#1070,#243);
#142=LINE('',#1072,#244);
#143=LINE('',#1073,#245);
#144=LINE('',#1076,#246);
#145=LINE('',#1078,#247);
#146=LINE('',#1079,#248);
#147=LINE('',#1082,#249);
#148=LINE('',#1084,#250);
#149=LINE('',#1085,#251);
#150=LINE('',#1088,#252);
#151=LINE('',#1090,#253);
#152=LINE('',#1091,#254);
#153=LINE('',#1094,#255);
#154=LINE('',#1096,#256);
#155=LINE('',#1098,#257);
#156=LINE('',#1099,#258);
#157=LINE('',#1101,#259);
#158=LINE('',#1102,#260);
#159=LINE('',#1105,#261);
#160=LINE('',#1107,#262);
#161=LINE('',#1109,#263);
#162=LINE('',#1110,#264);
#163=LINE('',#1113,#265);
#164=LINE('',#1115,#266);
#165=LINE('',#1116,#267);
#166=LINE('',#1119,#268);
#167=LINE('',#1121,#269);
#168=LINE('',#1123,#270);
#169=LINE('',#1125,#271);
#170=LINE('',#1127,#272);
#171=LINE('',#1128,#273);
#172=LINE('',#1131,#274);
#173=LINE('',#1132,#275);
#174=LINE('',#1135,#276);
#175=LINE('',#1136,#277);
#176=LINE('',#1139,#278);
#177=LINE('',#1140,#279);
#178=LINE('',#1143,#280);
#179=LINE('',#1144,#281);
#180=LINE('',#1147,#282);
#181=LINE('',#1148,#283);
#182=LINE('',#1150,#284);
#183=LINE('',#1154,#285);
#184=LINE('',#1156,#286);
#185=LINE('',#1158,#287);
#186=LINE('',#1160,#288);
#187=LINE('',#1162,#289);
#188=LINE('',#1163,#290);
#189=LINE('',#1166,#291);
#190=LINE('',#1167,#292);
#191=LINE('',#1170,#293);
#192=LINE('',#1171,#294);
#193=LINE('',#1174,#295);
#194=LINE('',#1175,#296);
#195=LINE('',#1178,#297);
#196=LINE('',#1179,#298);
#197=LINE('',#1182,#299);
#198=LINE('',#1183,#300);
#199=LINE('',#1185,#301);
#200=LINE('',#1189,#302);
#201=LINE('',#1191,#303);
#202=LINE('',#1192,#304);
#203=LINE('',#1194,#305);
#204=LINE('',#1196,#306);
#205=VECTOR('',#813,10.);
#206=VECTOR('',#814,10.);
#207=VECTOR('',#815,10.);
#208=VECTOR('',#816,10.);
#209=VECTOR('',#819,10.);
#210=VECTOR('',#820,10.);
#211=VECTOR('',#821,10.);
#212=VECTOR('',#824,10.);
#213=VECTOR('',#825,10.);
#214=VECTOR('',#826,10.);
#215=VECTOR('',#829,10.);
#216=VECTOR('',#830,10.);
#217=VECTOR('',#833,10.);
#218=VECTOR('',#834,10.);
#219=VECTOR('',#835,10.);
#220=VECTOR('',#836,10.);
#221=VECTOR('',#839,10.);
#222=VECTOR('',#840,10.);
#223=VECTOR('',#841,10.);
#224=VECTOR('',#844,10.);
#225=VECTOR('',#845,10.);
#226=VECTOR('',#846,10.);
#227=VECTOR('',#849,10.);
#228=VECTOR('',#850,10.);
#229=VECTOR('',#853,10.);
#230=VECTOR('',#854,10.);
#231=VECTOR('',#855,10.);
#232=VECTOR('',#856,10.);
#233=VECTOR('',#859,10.);
#234=VECTOR('',#860,10.);
#235=VECTOR('',#861,10.);
#236=VECTOR('',#864,10.);
#237=VECTOR('',#865,10.);
#238=VECTOR('',#866,10.);
#239=VECTOR('',#869,10.);
#240=VECTOR('',#870,10.);
#241=VECTOR('',#871,10.);
#242=VECTOR('',#872,10.);
#243=VECTOR('',#875,10.);
#244=VECTOR('',#876,10.);
#245=VECTOR('',#877,10.);
#246=VECTOR('',#880,10.);
#247=VECTOR('',#881,10.);
#248=VECTOR('',#882,10.);
#249=VECTOR('',#885,10.);
#250=VECTOR('',#886,10.);
#251=VECTOR('',#887,10.);
#252=VECTOR('',#890,10.);
#253=VECTOR('',#891,10.);
#254=VECTOR('',#892,10.);
#255=VECTOR('',#893,10.);
#256=VECTOR('',#894,10.);
#257=VECTOR('',#895,10.);
#258=VECTOR('',#896,10.);
#259=VECTOR('',#899,10.);
#260=VECTOR('',#900,10.);
#261=VECTOR('',#901,10.);
#262=VECTOR('',#902,10.);
#263=VECTOR('',#903,10.);
#264=VECTOR('',#904,10.);
#265=VECTOR('',#907,10.);
#266=VECTOR('',#908,10.);
#267=VECTOR('',#909,10.);
#268=VECTOR('',#912,10.);
#269=VECTOR('',#913,10.);
#270=VECTOR('',#914,10.);
#271=VECTOR('',#915,10.);
#272=VECTOR('',#916,10.);
#273=VECTOR('',#917,10.);
#274=VECTOR('',#920,10.);
#275=VECTOR('',#921,10.);
#276=VECTOR('',#924,10.);
#277=VECTOR('',#925,10.);
#278=VECTOR('',#928,10.);
#279=VECTOR('',#929,10.);
#280=VECTOR('',#932,10.);
#281=VECTOR('',#933,10.);
#282=VECTOR('',#936,10.);
#283=VECTOR('',#937,10.);
#284=VECTOR('',#940,10.);
#285=VECTOR('',#945,10.);
#286=VECTOR('',#946,10.);
#287=VECTOR('',#947,10.);
#288=VECTOR('',#948,10.);
#289=VECTOR('',#949,10.);
#290=VECTOR('',#950,10.);
#291=VECTOR('',#953,10.);
#292=VECTOR('',#954,10.);
#293=VECTOR('',#957,10.);
#294=VECTOR('',#958,10.);
#295=VECTOR('',#961,10.);
#296=VECTOR('',#962,10.);
#297=VECTOR('',#965,10.);
#298=VECTOR('',#966,10.);
#299=VECTOR('',#969,10.);
#300=VECTOR('',#970,10.);
#301=VECTOR('',#973,10.);
#302=VECTOR('',#978,10.);
#303=VECTOR('',#979,10.);
#304=VECTOR('',#980,10.);
#305=VECTOR('',#983,10.);
#306=VECTOR('',#986,10.);
#307=VERTEX_POINT('',#991);
#308=VERTEX_POINT('',#992);
#309=VERTEX_POINT('',#994);
#310=VERTEX_POINT('',#996);
#311=VERTEX_POINT('',#1000);
#312=VERTEX_POINT('',#1002);
#313=VERTEX_POINT('',#1006);
#314=VERTEX_POINT('',#1008);
#315=VERTEX_POINT('',#1015);
#316=VERTEX_POINT('',#1016);
#317=VERTEX_POINT('',#1018);
#318=VERTEX_POINT('',#1020);
#319=VERTEX_POINT('',#1024);
#320=VERTEX_POINT('',#1026);
#321=VERTEX_POINT('',#1030);
#322=VERTEX_POINT('',#1032);
#323=VERTEX_POINT('',#1039);
#324=VERTEX_POINT('',#1040);
#325=VERTEX_POINT('',#1042);
#326=VERTEX_POINT('',#1044);
#327=VERTEX_POINT('',#1048);
#328=VERTEX_POINT('',#1050);
#329=VERTEX_POINT('',#1054);
#330=VERTEX_POINT('',#1056);
#331=VERTEX_POINT('',#1060);
#332=VERTEX_POINT('',#1061);
#333=VERTEX_POINT('',#1063);
#334=VERTEX_POINT('',#1065);
#335=VERTEX_POINT('',#1069);
#336=VERTEX_POINT('',#1071);
#337=VERTEX_POINT('',#1075);
#338=VERTEX_POINT('',#1077);
#339=VERTEX_POINT('',#1081);
#340=VERTEX_POINT('',#1083);
#341=VERTEX_POINT('',#1087);
#342=VERTEX_POINT('',#1089);
#343=VERTEX_POINT('',#1092);
#344=VERTEX_POINT('',#1093);
#345=VERTEX_POINT('',#1095);
#346=VERTEX_POINT('',#1097);
#347=VERTEX_POINT('',#1103);
#348=VERTEX_POINT('',#1104);
#349=VERTEX_POINT('',#1106);
#350=VERTEX_POINT('',#1108);
#351=VERTEX_POINT('',#1112);
#352=VERTEX_POINT('',#1114);
#353=VERTEX_POINT('',#1118);
#354=VERTEX_POINT('',#1120);
#355=VERTEX_POINT('',#1122);
#356=VERTEX_POINT('',#1124);
#357=VERTEX_POINT('',#1126);
#358=VERTEX_POINT('',#1130);
#359=VERTEX_POINT('',#1134);
#360=VERTEX_POINT('',#1138);
#361=VERTEX_POINT('',#1142);
#362=VERTEX_POINT('',#1146);
#363=VERTEX_POINT('',#1153);
#364=VERTEX_POINT('',#1155);
#365=VERTEX_POINT('',#1157);
#366=VERTEX_POINT('',#1159);
#367=VERTEX_POINT('',#1161);
#368=VERTEX_POINT('',#1165);
#369=VERTEX_POINT('',#1169);
#370=VERTEX_POINT('',#1173);
#371=VERTEX_POINT('',#1177);
#372=VERTEX_POINT('',#1181);
#373=VERTEX_POINT('',#1188);
#374=VERTEX_POINT('',#1190);
#375=EDGE_CURVE('',#307,#308,#103,.T.);
#376=EDGE_CURVE('',#309,#307,#104,.T.);
#377=EDGE_CURVE('',#310,#309,#105,.T.);
#378=EDGE_CURVE('',#308,#310,#106,.T.);
#379=EDGE_CURVE('',#308,#311,#107,.T.);
#380=EDGE_CURVE('',#312,#310,#108,.T.);
#381=EDGE_CURVE('',#312,#311,#109,.T.);
#382=EDGE_CURVE('',#311,#313,#110,.T.);
#383=EDGE_CURVE('',#314,#312,#111,.T.);
#384=EDGE_CURVE('',#313,#314,#112,.T.);
#385=EDGE_CURVE('',#313,#307,#113,.T.);
#386=EDGE_CURVE('',#309,#314,#114,.T.);
#387=EDGE_CURVE('',#315,#316,#115,.T.);
#388=EDGE_CURVE('',#317,#315,#116,.T.);
#389=EDGE_CURVE('',#318,#317,#117,.T.);
#390=EDGE_CURVE('',#316,#318,#118,.T.);
#391=EDGE_CURVE('',#316,#319,#119,.T.);
#392=EDGE_CURVE('',#320,#318,#120,.T.);
#393=EDGE_CURVE('',#320,#319,#121,.T.);
#394=EDGE_CURVE('',#319,#321,#122,.T.);
#395=EDGE_CURVE('',#322,#320,#123,.T.);
#396=EDGE_CURVE('',#321,#322,#124,.T.);
#397=EDGE_CURVE('',#321,#315,#125,.T.);
#398=EDGE_CURVE('',#317,#322,#126,.T.);
#399=EDGE_CURVE('',#323,#324,#127,.T.);
#400=EDGE_CURVE('',#323,#325,#128,.T.);
#401=EDGE_CURVE('',#326,#325,#129,.T.);
#402=EDGE_CURVE('',#324,#326,#130,.T.);
#403=EDGE_CURVE('',#327,#323,#131,.T.);
#404=EDGE_CURVE('',#327,#328,#132,.T.);
#405=EDGE_CURVE('',#325,#328,#133,.T.);
#406=EDGE_CURVE('',#329,#327,#134,.T.);
#407=EDGE_CURVE('',#330,#329,#135,.T.);
#408=EDGE_CURVE('',#328,#330,#136,.T.);
#409=EDGE_CURVE('',#331,#332,#137,.T.);
#410=EDGE_CURVE('',#331,#333,#138,.T.);
#411=EDGE_CURVE('',#334,#333,#139,.T.);
#412=EDGE_CURVE('',#332,#334,#140,.T.);
#413=EDGE_CURVE('',#335,#331,#141,.T.);
#414=EDGE_CURVE('',#335,#336,#142,.T.);
#415=EDGE_CURVE('',#333,#336,#143,.T.);
#416=EDGE_CURVE('',#337,#335,#144,.T.);
#417=EDGE_CURVE('',#338,#337,#145,.T.);
#418=EDGE_CURVE('',#336,#338,#146,.T.);
#419=EDGE_CURVE('',#339,#334,#147,.T.);
#420=EDGE_CURVE('',#340,#339,#148,.T.);
#421=EDGE_CURVE('',#332,#340,#149,.T.);
#422=EDGE_CURVE('',#341,#329,#150,.T.);
#423=EDGE_CURVE('',#342,#341,#151,.T.);
#424=EDGE_CURVE('',#330,#342,#152,.T.);
#425=EDGE_CURVE('',#343,#344,#153,.T.);
#426=EDGE_CURVE('',#344,#345,#154,.T.);
#427=EDGE_CURVE('',#345,#346,#155,.T.);
#428=EDGE_CURVE('',#346,#343,#156,.T.);
#429=EDGE_CURVE('',#338,#326,#157,.T.);
#430=EDGE_CURVE('',#324,#337,#158,.T.);
#431=EDGE_CURVE('',#347,#348,#159,.T.);
#432=EDGE_CURVE('',#348,#349,#160,.T.);
#433=EDGE_CURVE('',#349,#350,#161,.T.);
#434=EDGE_CURVE('',#350,#347,#162,.T.);
#435=EDGE_CURVE('',#342,#351,#163,.T.);
#436=EDGE_CURVE('',#351,#352,#164,.T.);
#437=EDGE_CURVE('',#352,#339,#165,.T.);
#438=EDGE_CURVE('',#353,#348,#166,.T.);
#439=EDGE_CURVE('',#347,#354,#167,.T.);
#440=EDGE_CURVE('',#354,#355,#168,.T.);
#441=EDGE_CURVE('',#355,#356,#169,.T.);
#442=EDGE_CURVE('',#356,#357,#170,.T.);
#443=EDGE_CURVE('',#357,#353,#171,.T.);
#444=EDGE_CURVE('',#358,#350,#172,.T.);
#445=EDGE_CURVE('',#354,#358,#173,.T.);
#446=EDGE_CURVE('',#359,#358,#174,.T.);
#447=EDGE_CURVE('',#355,#359,#175,.T.);
#448=EDGE_CURVE('',#360,#359,#176,.T.);
#449=EDGE_CURVE('',#356,#360,#177,.T.);
#450=EDGE_CURVE('',#361,#360,#178,.T.);
#451=EDGE_CURVE('',#357,#361,#179,.T.);
#452=EDGE_CURVE('',#362,#361,#180,.T.);
#453=EDGE_CURVE('',#353,#362,#181,.T.);
#454=EDGE_CURVE('',#349,#362,#182,.T.);
#455=EDGE_CURVE('',#363,#344,#183,.T.);
#456=EDGE_CURVE('',#343,#364,#184,.T.);
#457=EDGE_CURVE('',#364,#365,#185,.T.);
#458=EDGE_CURVE('',#365,#366,#186,.T.);
#459=EDGE_CURVE('',#366,#367,#187,.T.);
#460=EDGE_CURVE('',#367,#363,#188,.T.);
#461=EDGE_CURVE('',#368,#346,#189,.T.);
#462=EDGE_CURVE('',#364,#368,#190,.T.);
#463=EDGE_CURVE('',#369,#368,#191,.T.);
#464=EDGE_CURVE('',#365,#369,#192,.T.);
#465=EDGE_CURVE('',#370,#369,#193,.T.);
#466=EDGE_CURVE('',#366,#370,#194,.T.);
#467=EDGE_CURVE('',#371,#370,#195,.T.);
#468=EDGE_CURVE('',#367,#371,#196,.T.);
#469=EDGE_CURVE('',#372,#371,#197,.T.);
#470=EDGE_CURVE('',#363,#372,#198,.T.);
#471=EDGE_CURVE('',#345,#372,#199,.T.);
#472=EDGE_CURVE('',#340,#373,#200,.T.);
#473=EDGE_CURVE('',#373,#374,#201,.T.);
#474=EDGE_CURVE('',#374,#341,#202,.T.);
#475=EDGE_CURVE('',#373,#352,#203,.T.);
#476=EDGE_CURVE('',#374,#351,#204,.T.);
#477=ORIENTED_EDGE('',*,*,#375,.F.);
#478=ORIENTED_EDGE('',*,*,#376,.F.);
#479=ORIENTED_EDGE('',*,*,#377,.F.);
#480=ORIENTED_EDGE('',*,*,#378,.F.);
#481=ORIENTED_EDGE('',*,*,#379,.F.);
#482=ORIENTED_EDGE('',*,*,#378,.T.);
#483=ORIENTED_EDGE('',*,*,#380,.F.);
#484=ORIENTED_EDGE('',*,*,#381,.T.);
#485=ORIENTED_EDGE('',*,*,#382,.F.);
#486=ORIENTED_EDGE('',*,*,#381,.F.);
#487=ORIENTED_EDGE('',*,*,#383,.F.);
#488=ORIENTED_EDGE('',*,*,#384,.F.);
#489=ORIENTED_EDGE('',*,*,#385,.F.);
#490=ORIENTED_EDGE('',*,*,#384,.T.);
#491=ORIENTED_EDGE('',*,*,#386,.F.);
#492=ORIENTED_EDGE('',*,*,#376,.T.);
#493=ORIENTED_EDGE('',*,*,#387,.F.);
#494=ORIENTED_EDGE('',*,*,#388,.F.);
#495=ORIENTED_EDGE('',*,*,#389,.F.);
#496=ORIENTED_EDGE('',*,*,#390,.F.);
#497=ORIENTED_EDGE('',*,*,#391,.F.);
#498=ORIENTED_EDGE('',*,*,#390,.T.);
#499=ORIENTED_EDGE('',*,*,#392,.F.);
#500=ORIENTED_EDGE('',*,*,#393,.T.);
#501=ORIENTED_EDGE('',*,*,#394,.F.);
#502=ORIENTED_EDGE('',*,*,#393,.F.);
#503=ORIENTED_EDGE('',*,*,#395,.F.);
#504=ORIENTED_EDGE('',*,*,#396,.F.);
#505=ORIENTED_EDGE('',*,*,#397,.F.);
#506=ORIENTED_EDGE('',*,*,#396,.T.);
#507=ORIENTED_EDGE('',*,*,#398,.F.);
#508=ORIENTED_EDGE('',*,*,#388,.T.);
#509=ORIENTED_EDGE('',*,*,#399,.F.);
#510=ORIENTED_EDGE('',*,*,#400,.T.);
#511=ORIENTED_EDGE('',*,*,#401,.F.);
#512=ORIENTED_EDGE('',*,*,#402,.F.);
#513=ORIENTED_EDGE('',*,*,#403,.F.);
#514=ORIENTED_EDGE('',*,*,#404,.T.);
#515=ORIENTED_EDGE('',*,*,#405,.F.);
#516=ORIENTED_EDGE('',*,*,#400,.F.);
#517=ORIENTED_EDGE('',*,*,#382,.T.);
#518=ORIENTED_EDGE('',*,*,#385,.T.);
#519=ORIENTED_EDGE('',*,*,#375,.T.);
#520=ORIENTED_EDGE('',*,*,#379,.T.);
#521=ORIENTED_EDGE('',*,*,#406,.F.);
#522=ORIENTED_EDGE('',*,*,#407,.F.);
#523=ORIENTED_EDGE('',*,*,#408,.F.);
#524=ORIENTED_EDGE('',*,*,#404,.F.);
#525=ORIENTED_EDGE('',*,*,#409,.F.);
#526=ORIENTED_EDGE('',*,*,#410,.T.);
#527=ORIENTED_EDGE('',*,*,#411,.F.);
#528=ORIENTED_EDGE('',*,*,#412,.F.);
#529=ORIENTED_EDGE('',*,*,#413,.F.);
#530=ORIENTED_EDGE('',*,*,#414,.T.);
#531=ORIENTED_EDGE('',*,*,#415,.F.);
#532=ORIENTED_EDGE('',*,*,#410,.F.);
#533=ORIENTED_EDGE('',*,*,#394,.T.);
#534=ORIENTED_EDGE('',*,*,#397,.T.);
#535=ORIENTED_EDGE('',*,*,#387,.T.);
#536=ORIENTED_EDGE('',*,*,#391,.T.);
#537=ORIENTED_EDGE('',*,*,#416,.F.);
#538=ORIENTED_EDGE('',*,*,#417,.F.);
#539=ORIENTED_EDGE('',*,*,#418,.F.);
#540=ORIENTED_EDGE('',*,*,#414,.F.);
#541=ORIENTED_EDGE('',*,*,#412,.T.);
#542=ORIENTED_EDGE('',*,*,#419,.F.);
#543=ORIENTED_EDGE('',*,*,#420,.F.);
#544=ORIENTED_EDGE('',*,*,#421,.F.);
#545=ORIENTED_EDGE('',*,*,#407,.T.);
#546=ORIENTED_EDGE('',*,*,#422,.F.);
#547=ORIENTED_EDGE('',*,*,#423,.F.);
#548=ORIENTED_EDGE('',*,*,#424,.F.);
#549=ORIENTED_EDGE('',*,*,#425,.T.);
#550=ORIENTED_EDGE('',*,*,#426,.T.);
#551=ORIENTED_EDGE('',*,*,#427,.T.);
#552=ORIENTED_EDGE('',*,*,#428,.T.);
#553=ORIENTED_EDGE('',*,*,#402,.T.);
#554=ORIENTED_EDGE('',*,*,#429,.F.);
#555=ORIENTED_EDGE('',*,*,#417,.T.);
#556=ORIENTED_EDGE('',*,*,#430,.F.);
#557=ORIENTED_EDGE('',*,*,#431,.T.);
#558=ORIENTED_EDGE('',*,*,#432,.T.);
#559=ORIENTED_EDGE('',*,*,#433,.T.);
#560=ORIENTED_EDGE('',*,*,#434,.T.);
#561=ORIENTED_EDGE('',*,*,#401,.T.);
#562=ORIENTED_EDGE('',*,*,#405,.T.);
#563=ORIENTED_EDGE('',*,*,#408,.T.);
#564=ORIENTED_EDGE('',*,*,#424,.T.);
#565=ORIENTED_EDGE('',*,*,#435,.T.);
#566=ORIENTED_EDGE('',*,*,#436,.T.);
#567=ORIENTED_EDGE('',*,*,#437,.T.);
#568=ORIENTED_EDGE('',*,*,#419,.T.);
#569=ORIENTED_EDGE('',*,*,#411,.T.);
#570=ORIENTED_EDGE('',*,*,#415,.T.);
#571=ORIENTED_EDGE('',*,*,#418,.T.);
#572=ORIENTED_EDGE('',*,*,#429,.T.);
#573=ORIENTED_EDGE('',*,*,#438,.T.);
#574=ORIENTED_EDGE('',*,*,#431,.F.);
#575=ORIENTED_EDGE('',*,*,#439,.T.);
#576=ORIENTED_EDGE('',*,*,#440,.T.);
#577=ORIENTED_EDGE('',*,*,#441,.T.);
#578=ORIENTED_EDGE('',*,*,#442,.T.);
#579=ORIENTED_EDGE('',*,*,#443,.T.);
#580=ORIENTED_EDGE('',*,*,#434,.F.);
#581=ORIENTED_EDGE('',*,*,#444,.F.);
#582=ORIENTED_EDGE('',*,*,#445,.F.);
#583=ORIENTED_EDGE('',*,*,#439,.F.);
#584=ORIENTED_EDGE('',*,*,#445,.T.);
#585=ORIENTED_EDGE('',*,*,#446,.F.);
#586=ORIENTED_EDGE('',*,*,#447,.F.);
#587=ORIENTED_EDGE('',*,*,#440,.F.);
#588=ORIENTED_EDGE('',*,*,#447,.T.);
#589=ORIENTED_EDGE('',*,*,#448,.F.);
#590=ORIENTED_EDGE('',*,*,#449,.F.);
#591=ORIENTED_EDGE('',*,*,#441,.F.);
#592=ORIENTED_EDGE('',*,*,#449,.T.);
#593=ORIENTED_EDGE('',*,*,#450,.F.);
#594=ORIENTED_EDGE('',*,*,#451,.F.);
#595=ORIENTED_EDGE('',*,*,#442,.F.);
#596=ORIENTED_EDGE('',*,*,#451,.T.);
#597=ORIENTED_EDGE('',*,*,#452,.F.);
#598=ORIENTED_EDGE('',*,*,#453,.F.);
#599=ORIENTED_EDGE('',*,*,#443,.F.);
#600=ORIENTED_EDGE('',*,*,#453,.T.);
#601=ORIENTED_EDGE('',*,*,#454,.F.);
#602=ORIENTED_EDGE('',*,*,#432,.F.);
#603=ORIENTED_EDGE('',*,*,#438,.F.);
#604=ORIENTED_EDGE('',*,*,#454,.T.);
#605=ORIENTED_EDGE('',*,*,#452,.T.);
#606=ORIENTED_EDGE('',*,*,#450,.T.);
#607=ORIENTED_EDGE('',*,*,#448,.T.);
#608=ORIENTED_EDGE('',*,*,#446,.T.);
#609=ORIENTED_EDGE('',*,*,#444,.T.);
#610=ORIENTED_EDGE('',*,*,#433,.F.);
#611=ORIENTED_EDGE('',*,*,#455,.T.);
#612=ORIENTED_EDGE('',*,*,#425,.F.);
#613=ORIENTED_EDGE('',*,*,#456,.T.);
#614=ORIENTED_EDGE('',*,*,#457,.T.);
#615=ORIENTED_EDGE('',*,*,#458,.T.);
#616=ORIENTED_EDGE('',*,*,#459,.T.);
#617=ORIENTED_EDGE('',*,*,#460,.T.);
#618=ORIENTED_EDGE('',*,*,#428,.F.);
#619=ORIENTED_EDGE('',*,*,#461,.F.);
#620=ORIENTED_EDGE('',*,*,#462,.F.);
#621=ORIENTED_EDGE('',*,*,#456,.F.);
#622=ORIENTED_EDGE('',*,*,#462,.T.);
#623=ORIENTED_EDGE('',*,*,#463,.F.);
#624=ORIENTED_EDGE('',*,*,#464,.F.);
#625=ORIENTED_EDGE('',*,*,#457,.F.);
#626=ORIENTED_EDGE('',*,*,#464,.T.);
#627=ORIENTED_EDGE('',*,*,#465,.F.);
#628=ORIENTED_EDGE('',*,*,#466,.F.);
#629=ORIENTED_EDGE('',*,*,#458,.F.);
#630=ORIENTED_EDGE('',*,*,#466,.T.);
#631=ORIENTED_EDGE('',*,*,#467,.F.);
#632=ORIENTED_EDGE('',*,*,#468,.F.);
#633=ORIENTED_EDGE('',*,*,#459,.F.);
#634=ORIENTED_EDGE('',*,*,#468,.T.);
#635=ORIENTED_EDGE('',*,*,#469,.F.);
#636=ORIENTED_EDGE('',*,*,#470,.F.);
#637=ORIENTED_EDGE('',*,*,#460,.F.);
#638=ORIENTED_EDGE('',*,*,#470,.T.);
#639=ORIENTED_EDGE('',*,*,#471,.F.);
#640=ORIENTED_EDGE('',*,*,#426,.F.);
#641=ORIENTED_EDGE('',*,*,#455,.F.);
#642=ORIENTED_EDGE('',*,*,#471,.T.);
#643=ORIENTED_EDGE('',*,*,#469,.T.);
#644=ORIENTED_EDGE('',*,*,#467,.T.);
#645=ORIENTED_EDGE('',*,*,#465,.T.);
#646=ORIENTED_EDGE('',*,*,#463,.T.);
#647=ORIENTED_EDGE('',*,*,#461,.T.);
#648=ORIENTED_EDGE('',*,*,#427,.F.);
#649=ORIENTED_EDGE('',*,*,#399,.T.);
#650=ORIENTED_EDGE('',*,*,#430,.T.);
#651=ORIENTED_EDGE('',*,*,#416,.T.);
#652=ORIENTED_EDGE('',*,*,#413,.T.);
#653=ORIENTED_EDGE('',*,*,#409,.T.);
#654=ORIENTED_EDGE('',*,*,#421,.T.);
#655=ORIENTED_EDGE('',*,*,#472,.T.);
#656=ORIENTED_EDGE('',*,*,#473,.T.);
#657=ORIENTED_EDGE('',*,*,#474,.T.);
#658=ORIENTED_EDGE('',*,*,#422,.T.);
#659=ORIENTED_EDGE('',*,*,#406,.T.);
#660=ORIENTED_EDGE('',*,*,#403,.T.);
#661=ORIENTED_EDGE('',*,*,#420,.T.);
#662=ORIENTED_EDGE('',*,*,#437,.F.);
#663=ORIENTED_EDGE('',*,*,#475,.F.);
#664=ORIENTED_EDGE('',*,*,#472,.F.);
#665=ORIENTED_EDGE('',*,*,#475,.T.);
#666=ORIENTED_EDGE('',*,*,#436,.F.);
#667=ORIENTED_EDGE('',*,*,#476,.F.);
#668=ORIENTED_EDGE('',*,*,#473,.F.);
#669=ORIENTED_EDGE('',*,*,#383,.T.);
#670=ORIENTED_EDGE('',*,*,#380,.T.);
#671=ORIENTED_EDGE('',*,*,#377,.T.);
#672=ORIENTED_EDGE('',*,*,#386,.T.);
#673=ORIENTED_EDGE('',*,*,#395,.T.);
#674=ORIENTED_EDGE('',*,*,#392,.T.);
#675=ORIENTED_EDGE('',*,*,#389,.T.);
#676=ORIENTED_EDGE('',*,*,#398,.T.);
#677=ORIENTED_EDGE('',*,*,#476,.T.);
#678=ORIENTED_EDGE('',*,*,#435,.F.);
#679=ORIENTED_EDGE('',*,*,#423,.T.);
#680=ORIENTED_EDGE('',*,*,#474,.F.);
#681=PLANE('',#771);
#682=PLANE('',#772);
#683=PLANE('',#773);
#684=PLANE('',#774);
#685=PLANE('',#775);
#686=PLANE('',#776);
#687=PLANE('',#777);
#688=PLANE('',#778);
#689=PLANE('',#779);
#690=PLANE('',#780);
#691=PLANE('',#781);
#692=PLANE('',#782);
#693=PLANE('',#783);
#694=PLANE('',#784);
#695=PLANE('',#785);
#696=PLANE('',#786);
#697=PLANE('',#787);
#698=PLANE('',#788);
#699=PLANE('',#789);
#700=PLANE('',#790);
#701=PLANE('',#791);
#702=PLANE('',#792);
#703=PLANE('',#793);
#704=PLANE('',#794);
#705=PLANE('',#795);
#706=PLANE('',#796);
#707=PLANE('',#797);
#708=PLANE('',#798);
#709=PLANE('',#799);
#710=PLANE('',#800);
#711=PLANE('',#801);
#712=PLANE('',#802);
#713=PLANE('',#803);
#714=PLANE('',#804);
#715=PLANE('',#805);
#716=PLANE('',#806);
#717=PLANE('',#807);
#718=PLANE('',#808);
#719=ADVANCED_FACE('',(#21),#681,.F.);
#720=ADVANCED_FACE('',(#22),#682,.F.);
#721=ADVANCED_FACE('',(#23),#683,.F.);
#722=ADVANCED_FACE('',(#24),#684,.F.);
#723=ADVANCED_FACE('',(#25),#685,.F.);
#724=ADVANCED_FACE('',(#26),#686,.F.);
#725=ADVANCED_FACE('',(#27),#687,.F.);
#726=ADVANCED_FACE('',(#28),#688,.F.);
#727=ADVANCED_FACE('',(#29),#689,.F.);
#728=ADVANCED_FACE('',(#30,#15),#690,.F.);
#729=ADVANCED_FACE('',(#31),#691,.F.);
#730=ADVANCED_FACE('',(#32),#692,.F.);
#731=ADVANCED_FACE('',(#33,#16),#693,.F.);
#732=ADVANCED_FACE('',(#34),#694,.F.);
#733=ADVANCED_FACE('',(#35),#695,.T.);
#734=ADVANCED_FACE('',(#36,#17),#696,.T.);
#735=ADVANCED_FACE('',(#37,#18),#697,.T.);
#736=ADVANCED_FACE('',(#38),#698,.T.);
#737=ADVANCED_FACE('',(#39),#699,.T.);
#738=ADVANCED_FACE('',(#40),#700,.T.);
#739=ADVANCED_FACE('',(#41),#701,.T.);
#740=ADVANCED_FACE('',(#42),#702,.T.);
#741=ADVANCED_FACE('',(#43),#703,.T.);
#742=ADVANCED_FACE('',(#44),#704,.T.);
#743=ADVANCED_FACE('',(#45),#705,.T.);
#744=ADVANCED_FACE('',(#46),#706,.T.);
#745=ADVANCED_FACE('',(#47),#707,.T.);
#746=ADVANCED_FACE('',(#48),#708,.T.);
#747=ADVANCED_FACE('',(#49),#709,.T.);
#748=ADVANCED_FACE('',(#50),#710,.T.);
#749=ADVANCED_FACE('',(#51),#711,.T.);
#750=ADVANCED_FACE('',(#52),#712,.T.);
#751=ADVANCED_FACE('',(#53),#713,.T.);
#752=ADVANCED_FACE('',(#54),#714,.T.);
#753=ADVANCED_FACE('',(#55),#715,.T.);
#754=ADVANCED_FACE('',(#56),#716,.T.);
#755=ADVANCED_FACE('',(#57,#19,#20),#717,.T.);
#756=ADVANCED_FACE('',(#58),#718,.T.);
#757=CLOSED_SHELL('',(#719,#720,#721,#722,#723,#724,#725,#726,#727,#728,
#729,#730,#731,#732,#733,#734,#735,#736,#737,#738,#739,#740,#741,#742,#743,
#744,#745,#746,#747,#748,#749,#750,#751,#752,#753,#754,#755,#756));
#758=DERIVED_UNIT_ELEMENT(#760,1.);
#759=DERIVED_UNIT_ELEMENT(#1203,-3.);
#760=(
MASS_UNIT()
NAMED_UNIT(*)
SI_UNIT(.KILO.,.GRAM.)
);
#761=DERIVED_UNIT((#758,#759));
#762=MEASURE_REPRESENTATION_ITEM('density measure',
POSITIVE_RATIO_MEASURE(7850.),#761);
#763=PROPERTY_DEFINITION_REPRESENTATION(#768,#765);
#764=PROPERTY_DEFINITION_REPRESENTATION(#769,#766);
#765=REPRESENTATION('material name',(#767),#1200);
#766=REPRESENTATION('density',(#762),#1200);
#767=DESCRIPTIVE_REPRESENTATION_ITEM('Steel','Steel');
#768=PROPERTY_DEFINITION('material property','material name',#1210);
#769=PROPERTY_DEFINITION('material property','density of part',#1210);
#770=AXIS2_PLACEMENT_3D('',#989,#809,#810);
#771=AXIS2_PLACEMENT_3D('',#990,#811,#812);
#772=AXIS2_PLACEMENT_3D('',#999,#817,#818);
#773=AXIS2_PLACEMENT_3D('',#1005,#822,#823);
#774=AXIS2_PLACEMENT_3D('',#1011,#827,#828);
#775=AXIS2_PLACEMENT_3D('',#1014,#831,#832);
#776=AXIS2_PLACEMENT_3D('',#1023,#837,#838);
#777=AXIS2_PLACEMENT_3D('',#1029,#842,#843);
#778=AXIS2_PLACEMENT_3D('',#1035,#847,#848);
#779=AXIS2_PLACEMENT_3D('',#1038,#851,#852);
#780=AXIS2_PLACEMENT_3D('',#1047,#857,#858);
#781=AXIS2_PLACEMENT_3D('',#1053,#862,#863);
#782=AXIS2_PLACEMENT_3D('',#1059,#867,#868);
#783=AXIS2_PLACEMENT_3D('',#1068,#873,#874);
#784=AXIS2_PLACEMENT_3D('',#1074,#878,#879);
#785=AXIS2_PLACEMENT_3D('',#1080,#883,#884);
#786=AXIS2_PLACEMENT_3D('',#1086,#888,#889);
#787=AXIS2_PLACEMENT_3D('',#1100,#897,#898);
#788=AXIS2_PLACEMENT_3D('',#1111,#905,#906);
#789=AXIS2_PLACEMENT_3D('',#1117,#910,#911);
#790=AXIS2_PLACEMENT_3D('',#1129,#918,#919);
#791=AXIS2_PLACEMENT_3D('',#1133,#922,#923);
#792=AXIS2_PLACEMENT_3D('',#1137,#926,#927);
#793=AXIS2_PLACEMENT_3D('',#1141,#930,#931);
#794=AXIS2_PLACEMENT_3D('',#1145,#934,#935);
#795=AXIS2_PLACEMENT_3D('',#1149,#938,#939);
#796=AXIS2_PLACEMENT_3D('',#1151,#941,#942);
#797=AXIS2_PLACEMENT_3D('',#1152,#943,#944);
#798=AXIS2_PLACEMENT_3D('',#1164,#951,#952);
#799=AXIS2_PLACEMENT_3D('',#1168,#955,#956);
#800=AXIS2_PLACEMENT_3D('',#1172,#959,#960);
#801=AXIS2_PLACEMENT_3D('',#1176,#963,#964);
#802=AXIS2_PLACEMENT_3D('',#1180,#967,#968);
#803=AXIS2_PLACEMENT_3D('',#1184,#971,#972);
#804=AXIS2_PLACEMENT_3D('',#1186,#974,#975);
#805=AXIS2_PLACEMENT_3D('',#1187,#976,#977);
#806=AXIS2_PLACEMENT_3D('',#1193,#981,#982);
#807=AXIS2_PLACEMENT_3D('',#1195,#984,#985);
#808=AXIS2_PLACEMENT_3D('',#1197,#987,#988);
#809=DIRECTION('axis',(0.,0.,1.));
#810=DIRECTION('refdir',(1.,0.,0.));
#811=DIRECTION('center_axis',(0.,1.,0.));
#812=DIRECTION('ref_axis',(0.,0.,1.));
#813=DIRECTION('',(0.,0.,1.));
#814=DIRECTION('',(-1.,0.,0.));
#815=DIRECTION('',(0.,0.,-1.));
#816=DIRECTION('',(1.,0.,0.));
#817=DIRECTION('center_axis',(0.,0.,1.));
#818=DIRECTION('ref_axis',(1.,0.,0.));
#819=DIRECTION('',(0.,-1.,0.));
#820=DIRECTION('',(0.,1.,0.));
#821=DIRECTION('',(-1.,0.,0.));
#822=DIRECTION('center_axis',(0.,-1.,0.));
#823=DIRECTION('ref_axis',(0.,0.,-1.));
#824=DIRECTION('',(0.,0.,-1.));
#825=DIRECTION('',(0.,0.,1.));
#826=DIRECTION('',(1.,0.,0.));
#827=DIRECTION('center_axis',(0.,0.,-1.));
#828=DIRECTION('ref_axis',(-1.,0.,0.));
#829=DIRECTION('',(0.,1.,0.));
#830=DIRECTION('',(0.,-1.,0.));
#831=DIRECTION('center_axis',(0.,1.,0.));
#832=DIRECTION('ref_axis',(0.,0.,1.));
#833=DIRECTION('',(0.,0.,1.));
#834=DIRECTION('',(-1.,0.,0.));
#835=DIRECTION('',(0.,0.,-1.));
#836=DIRECTION('',(1.,0.,0.));
#837=DIRECTION('center_axis',(0.,0.,1.));
#838=DIRECTION('ref_axis',(1.,0.,0.));
#839=DIRECTION('',(0.,-1.,0.));
#840=DIRECTION('',(0.,1.,0.));
#841=DIRECTION('',(-1.,0.,0.));
#842=DIRECTION('center_axis',(0.,-1.,0.));
#843=DIRECTION('ref_axis',(0.,0.,-1.));
#844=DIRECTION('',(0.,0.,-1.));
#845=DIRECTION('',(0.,0.,1.));
#846=DIRECTION('',(1.,0.,0.));
#847=DIRECTION('center_axis',(0.,0.,-1.));
#848=DIRECTION('ref_axis',(-1.,0.,0.));
#849=DIRECTION('',(0.,1.,0.));
#850=DIRECTION('',(0.,-1.,0.));
#851=DIRECTION('center_axis',(0.,0.,-1.));
#852=DIRECTION('ref_axis',(-1.,0.,0.));
#853=DIRECTION('',(-1.,0.,0.));
#854=DIRECTION('',(0.,1.,0.));
#855=DIRECTION('',(1.,0.,0.));
#856=DIRECTION('',(0.,1.,0.));
#857=DIRECTION('center_axis',(1.,0.,0.));
#858=DIRECTION('ref_axis',(0.,0.,-1.));
#859=DIRECTION('',(0.,0.,-1.));
#860=DIRECTION('',(0.,1.,0.));
#861=DIRECTION('',(0.,0.,1.));
#862=DIRECTION('center_axis',(0.,0.,1.));
#863=DIRECTION('ref_axis',(1.,0.,0.));
#864=DIRECTION('',(1.,0.,0.));
#865=DIRECTION('',(0.,-1.,0.));
#866=DIRECTION('',(-1.,0.,0.));
#867=DIRECTION('center_axis',(0.,0.,-1.));
#868=DIRECTION('ref_axis',(-1.,0.,0.));
#869=DIRECTION('',(-1.,0.,0.));
#870=DIRECTION('',(0.,1.,0.));
#871=DIRECTION('',(1.,0.,0.));
#872=DIRECTION('',(0.,1.,0.));
#873=DIRECTION('center_axis',(1.,0.,0.));
#874=DIRECTION('ref_axis',(0.,0.,-1.));
#875=DIRECTION('',(0.,0.,-1.));
#876=DIRECTION('',(0.,1.,0.));
#877=DIRECTION('',(0.,0.,1.));
#878=DIRECTION('center_axis',(0.,0.,1.));
#879=DIRECTION('ref_axis',(1.,0.,0.));
#880=DIRECTION('',(1.,0.,0.));
#881=DIRECTION('',(0.,-1.,0.));
#882=DIRECTION('',(-1.,0.,0.));
#883=DIRECTION('center_axis',(-1.,0.,0.));
#884=DIRECTION('ref_axis',(0.,0.,1.));
#885=DIRECTION('',(0.,0.,1.));
#886=DIRECTION('',(0.,1.,0.));
#887=DIRECTION('',(0.,0.,-1.));
#888=DIRECTION('center_axis',(-1.,0.,0.));
#889=DIRECTION('ref_axis',(0.,0.,1.));
#890=DIRECTION('',(0.,0.,-1.));
#891=DIRECTION('',(0.,-1.,0.));
#892=DIRECTION('',(0.,0.,1.));
#893=DIRECTION('',(0.,0.,-1.));
#894=DIRECTION('',(0.,1.,0.));
#895=DIRECTION('',(0.,0.,1.));
#896=DIRECTION('',(0.,-1.,0.));
#897=DIRECTION('center_axis',(-1.,0.,0.));
#898=DIRECTION('ref_axis',(0.,0.,1.));
#899=DIRECTION('',(0.,0.,1.));
#900=DIRECTION('',(0.,0.,-1.));
#901=DIRECTION('',(0.,0.,-1.));
#902=DIRECTION('',(0.,1.,0.));
#903=DIRECTION('',(0.,0.,1.));
#904=DIRECTION('',(0.,-1.,0.));
#905=DIRECTION('center_axis',(0.,1.,0.));
#906=DIRECTION('ref_axis',(0.,0.,1.));
#907=DIRECTION('',(1.,0.,0.));
#908=DIRECTION('',(0.,0.,-1.));
#909=DIRECTION('',(-1.,0.,0.));
#910=DIRECTION('center_axis',(0.,-1.,0.));
#911=DIRECTION('ref_axis',(0.,0.,-1.));
#912=DIRECTION('',(1.,0.,0.));
#913=DIRECTION('',(-1.,0.,0.));
#914=DIRECTION('',(0.,0.,-1.));
#915=DIRECTION('',(1.,0.,0.));
#916=DIRECTION('',(0.707106781186547,0.,0.707106781186548));
#917=DIRECTION('',(0.,0.,1.));
#918=DIRECTION('center_axis',(0.,0.,1.));
#919=DIRECTION('ref_axis',(1.,0.,0.));
#920=DIRECTION('',(1.,0.,0.));
#921=DIRECTION('',(0.,1.,0.));
#922=DIRECTION('center_axis',(-1.,0.,0.));
#923=DIRECTION('ref_axis',(0.,0.,1.));
#924=DIRECTION('',(0.,0.,1.));
#925=DIRECTION('',(0.,1.,0.));
#926=DIRECTION('center_axis',(0.,0.,-1.));
#927=DIRECTION('ref_axis',(-1.,0.,0.));
#928=DIRECTION('',(-1.,0.,0.));
#929=DIRECTION('',(0.,1.,0.));
#930=DIRECTION('center_axis',(0.707106781186548,0.,-0.707106781186547));
#931=DIRECTION('ref_axis',(-0.707106781186547,0.,-0.707106781186548));
#932=DIRECTION('',(-0.707106781186547,0.,-0.707106781186548));
#933=DIRECTION('',(0.,1.,0.));
#934=DIRECTION('center_axis',(1.,0.,0.));
#935=DIRECTION('ref_axis',(0.,0.,-1.));
#936=DIRECTION('',(0.,0.,-1.));
#937=DIRECTION('',(0.,1.,0.));
#938=DIRECTION('center_axis',(0.,0.,-1.));
#939=DIRECTION('ref_axis',(-1.,0.,0.));
#940=DIRECTION('',(-1.,0.,0.));
#941=DIRECTION('center_axis',(0.,1.,0.));
#942=DIRECTION('ref_axis',(0.,0.,1.));
#943=DIRECTION('center_axis',(0.,-1.,0.));
#944=DIRECTION('ref_axis',(0.,0.,-1.));
#945=DIRECTION('',(1.,0.,0.));
#946=DIRECTION('',(-1.,0.,0.));
#947=DIRECTION('',(0.,0.,-1.));
#948=DIRECTION('',(1.,0.,0.));
#949=DIRECTION('',(0.707106781186547,0.,0.707106781186548));
#950=DIRECTION('',(0.,0.,1.));
#951=DIRECTION('center_axis',(0.,0.,1.));
#952=DIRECTION('ref_axis',(1.,0.,0.));
#953=DIRECTION('',(1.,0.,0.));
#954=DIRECTION('',(0.,1.,0.));
#955=DIRECTION('center_axis',(-1.,0.,0.));
#956=DIRECTION('ref_axis',(0.,0.,1.));
#957=DIRECTION('',(0.,0.,1.));
#958=DIRECTION('',(0.,1.,0.));
#959=DIRECTION('center_axis',(0.,0.,-1.));
#960=DIRECTION('ref_axis',(-1.,0.,0.));
#961=DIRECTION('',(-1.,0.,0.));
#962=DIRECTION('',(0.,1.,0.));
#963=DIRECTION('center_axis',(0.707106781186548,0.,-0.707106781186547));
#964=DIRECTION('ref_axis',(-0.707106781186547,0.,-0.707106781186548));
#965=DIRECTION('',(-0.707106781186547,0.,-0.707106781186548));
#966=DIRECTION('',(0.,1.,0.));
#967=DIRECTION('center_axis',(1.,0.,0.));
#968=DIRECTION('ref_axis',(0.,0.,-1.));
#969=DIRECTION('',(0.,0.,-1.));
#970=DIRECTION('',(0.,1.,0.));
#971=DIRECTION('center_axis',(0.,0.,-1.));
#972=DIRECTION('ref_axis',(-1.,0.,0.));
#973=DIRECTION('',(-1.,0.,0.));
#974=DIRECTION('center_axis',(0.,1.,0.));
#975=DIRECTION('ref_axis',(0.,0.,1.));
#976=DIRECTION('center_axis',(0.,-1.,0.));
#977=DIRECTION('ref_axis',(0.,0.,-1.));
#978=DIRECTION('',(1.,0.,0.));
#979=DIRECTION('',(0.,0.,1.));
#980=DIRECTION('',(-1.,0.,0.));
#981=DIRECTION('center_axis',(0.,0.,-1.));
#982=DIRECTION('ref_axis',(-1.,0.,0.));
#983=DIRECTION('',(0.,1.,0.));
#984=DIRECTION('center_axis',(1.,0.,0.));
#985=DIRECTION('ref_axis',(0.,0.,-1.));
#986=DIRECTION('',(0.,1.,0.));
#987=DIRECTION('center_axis',(0.,0.,1.));
#988=DIRECTION('ref_axis',(1.,0.,0.));
#989=CARTESIAN_POINT('',(0.,0.,0.));
#990=CARTESIAN_POINT('Origin',(3.5,7.,59.3));
#991=CARTESIAN_POINT('',(6.,7.,55.8));
#992=CARTESIAN_POINT('',(6.,7.,62.8));
#993=CARTESIAN_POINT('',(6.,7.,62.1775));
#994=CARTESIAN_POINT('',(7.,7.,55.8));
#995=CARTESIAN_POINT('',(-1.,7.,55.8));
#996=CARTESIAN_POINT('',(7.,7.,62.8));
#997=CARTESIAN_POINT('',(7.,7.,66.65));
#998=CARTESIAN_POINT('',(8.,7.,62.8));
#999=CARTESIAN_POINT('Origin',(-1.,0.,62.8));
#1000=CARTESIAN_POINT('',(6.,-7.,62.8));
#1001=CARTESIAN_POINT('',(6.,0.,62.8));
#1002=CARTESIAN_POINT('',(7.,-7.,62.8));
#1003=CARTESIAN_POINT('',(7.,0.,62.8));
#1004=CARTESIAN_POINT('',(8.,-7.,62.8));
#1005=CARTESIAN_POINT('Origin',(3.5,-7.,59.3));
#1006=CARTESIAN_POINT('',(6.,-7.,55.8));
#1007=CARTESIAN_POINT('',(6.,-7.,62.1775));
#1008=CARTESIAN_POINT('',(7.,-7.,55.8));
#1009=CARTESIAN_POINT('',(7.,-7.,66.65));
#1010=CARTESIAN_POINT('',(-1.,-7.,55.8));
#1011=CARTESIAN_POINT('Origin',(8.,0.,55.8));
#1012=CARTESIAN_POINT('',(6.,0.,55.8));
#1013=CARTESIAN_POINT('',(7.,0.,55.8));
#1014=CARTESIAN_POINT('Origin',(3.5,7.,33.9));
#1015=CARTESIAN_POINT('',(6.,7.,30.4));
#1016=CARTESIAN_POINT('',(6.,7.,37.4));
#1017=CARTESIAN_POINT('',(6.,7.,36.7775));
#1018=CARTESIAN_POINT('',(7.,7.,30.4));
#1019=CARTESIAN_POINT('',(-1.,7.,30.4));
#1020=CARTESIAN_POINT('',(7.,7.,37.4));
#1021=CARTESIAN_POINT('',(7.,7.,53.95));
#1022=CARTESIAN_POINT('',(8.,7.,37.4));
#1023=CARTESIAN_POINT('Origin',(-1.,0.,37.4));
#1024=CARTESIAN_POINT('',(6.,-7.,37.4));
#1025=CARTESIAN_POINT('',(6.,0.,37.4));
#1026=CARTESIAN_POINT('',(7.,-7.,37.4));
#1027=CARTESIAN_POINT('',(7.,0.,37.4));
#1028=CARTESIAN_POINT('',(8.,-7.,37.4));
#1029=CARTESIAN_POINT('Origin',(3.5,-7.,33.9));
#1030=CARTESIAN_POINT('',(6.,-7.,30.4));
#1031=CARTESIAN_POINT('',(6.,-7.,36.7775));
#1032=CARTESIAN_POINT('',(7.,-7.,30.4));
#1033=CARTESIAN_POINT('',(7.,-7.,53.95));
#1034=CARTESIAN_POINT('',(-1.,-7.,30.4));
#1035=CARTESIAN_POINT('Origin',(8.,0.,30.4));
#1036=CARTESIAN_POINT('',(6.,0.,30.4));
#1037=CARTESIAN_POINT('',(7.,0.,30.4));
#1038=CARTESIAN_POINT('Origin',(6.,0.,53.545));
#1039=CARTESIAN_POINT('',(6.,-12.,53.545));
#1040=CARTESIAN_POINT('',(0.,-12.,53.545));
#1041=CARTESIAN_POINT('',(4.75,-12.,53.545));
#1042=CARTESIAN_POINT('',(6.,12.,53.545));
#1043=CARTESIAN_POINT('',(6.,0.,53.545));
#1044=CARTESIAN_POINT('',(0.,12.,53.545));
#1045=CARTESIAN_POINT('',(4.75,12.,53.545));
#1046=CARTESIAN_POINT('',(0.,0.,53.545));
#1047=CARTESIAN_POINT('Origin',(6.,0.,65.055));
#1048=CARTESIAN_POINT('',(6.,-12.,65.055));
#1049=CARTESIAN_POINT('',(6.,-12.,51.0275));
#1050=CARTESIAN_POINT('',(6.,12.,65.055));
#1051=CARTESIAN_POINT('',(6.,0.,65.055));
#1052=CARTESIAN_POINT('',(6.,12.,51.0275));
#1053=CARTESIAN_POINT('Origin',(0.,0.,65.055));
#1054=CARTESIAN_POINT('',(0.,-12.,65.055));
#1055=CARTESIAN_POINT('',(1.75,-12.,65.055));
#1056=CARTESIAN_POINT('',(0.,12.,65.055));
#1057=CARTESIAN_POINT('',(0.,0.,65.055));
#1058=CARTESIAN_POINT('',(1.75,12.,65.055));
#1059=CARTESIAN_POINT('Origin',(6.,0.,28.145));
#1060=CARTESIAN_POINT('',(6.,-12.,28.145));
#1061=CARTESIAN_POINT('',(0.,-12.,28.145));
#1062=CARTESIAN_POINT('',(4.75,-12.,28.145));
#1063=CARTESIAN_POINT('',(6.,12.,28.145));
#1064=CARTESIAN_POINT('',(6.,0.,28.145));
#1065=CARTESIAN_POINT('',(0.,12.,28.145));
#1066=CARTESIAN_POINT('',(4.75,12.,28.145));
#1067=CARTESIAN_POINT('',(0.,0.,28.145));
#1068=CARTESIAN_POINT('Origin',(6.,0.,39.655));
#1069=CARTESIAN_POINT('',(6.,-12.,39.655));
#1070=CARTESIAN_POINT('',(6.,-12.,38.3275));
#1071=CARTESIAN_POINT('',(6.,12.,39.655));
#1072=CARTESIAN_POINT('',(6.,0.,39.655));
#1073=CARTESIAN_POINT('',(6.,12.,38.3275));
#1074=CARTESIAN_POINT('Origin',(0.,0.,39.655));
#1075=CARTESIAN_POINT('',(0.,-12.,39.655));
#1076=CARTESIAN_POINT('',(1.75,-12.,39.655));
#1077=CARTESIAN_POINT('',(0.,12.,39.655));
#1078=CARTESIAN_POINT('',(0.,0.,39.655));
#1079=CARTESIAN_POINT('',(1.75,12.,39.655));
#1080=CARTESIAN_POINT('Origin',(0.,0.,0.));
#1081=CARTESIAN_POINT('',(0.,12.,0.));
#1082=CARTESIAN_POINT('',(0.,12.,74.));
#1083=CARTESIAN_POINT('',(0.,-12.,0.));
#1084=CARTESIAN_POINT('',(0.,0.,0.));
#1085=CARTESIAN_POINT('',(0.,-12.,74.));
#1086=CARTESIAN_POINT('Origin',(0.,0.,0.));
#1087=CARTESIAN_POINT('',(0.,-12.,74.));
#1088=CARTESIAN_POINT('',(0.,-12.,74.));
#1089=CARTESIAN_POINT('',(0.,12.,74.));
#1090=CARTESIAN_POINT('',(0.,0.,74.));
#1091=CARTESIAN_POINT('',(0.,12.,74.));
#1092=CARTESIAN_POINT('',(0.,-1.2,72.));
#1093=CARTESIAN_POINT('',(0.,-1.2,67.));
#1094=CARTESIAN_POINT('',(0.,-1.2,31.75));
#1095=CARTESIAN_POINT('',(0.,1.2,67.));
#1096=CARTESIAN_POINT('',(0.,0.,67.));
#1097=CARTESIAN_POINT('',(0.,1.2,72.));
#1098=CARTESIAN_POINT('',(0.,1.2,31.75));
#1099=CARTESIAN_POINT('',(0.,0.,72.));
#1100=CARTESIAN_POINT('Origin',(0.,0.,0.));
#1101=CARTESIAN_POINT('',(0.,12.,74.));
#1102=CARTESIAN_POINT('',(0.,-12.,74.));
#1103=CARTESIAN_POINT('',(0.,-1.2,46.6));
#1104=CARTESIAN_POINT('',(0.,-1.2,41.6));
#1105=CARTESIAN_POINT('',(0.,-1.2,19.05));
#1106=CARTESIAN_POINT('',(0.,1.2,41.6));
#1107=CARTESIAN_POINT('',(0.,0.,41.6));
#1108=CARTESIAN_POINT('',(0.,1.2,46.6));
#1109=CARTESIAN_POINT('',(0.,1.2,19.05));
#1110=CARTESIAN_POINT('',(0.,0.,46.6));
#1111=CARTESIAN_POINT('Origin',(3.5,12.,37.));
#1112=CARTESIAN_POINT('',(7.,12.,74.));
#1113=CARTESIAN_POINT('',(7.,12.,74.));
#1114=CARTESIAN_POINT('',(7.,12.,0.));
#1115=CARTESIAN_POINT('',(7.,12.,0.));
#1116=CARTESIAN_POINT('',(0.,12.,0.));
#1117=CARTESIAN_POINT('Origin',(-4.15,-1.2,38.1));
#1118=CARTESIAN_POINT('',(-3.8,-1.2,41.6));
#1119=CARTESIAN_POINT('',(-3.8,-1.2,41.6));
#1120=CARTESIAN_POINT('',(-8.3,-1.2,46.6));
#1121=CARTESIAN_POINT('',(0.,-1.2,46.6));
#1122=CARTESIAN_POINT('',(-8.3,-1.2,29.6));
#1123=CARTESIAN_POINT('',(-8.3,-1.2,46.6));
#1124=CARTESIAN_POINT('',(-5.3,-1.2,29.6));
#1125=CARTESIAN_POINT('',(-8.3,-1.2,29.6));
#1126=CARTESIAN_POINT('',(-3.8,-1.2,31.1));
#1127=CARTESIAN_POINT('',(-5.3,-1.2,29.6));
#1128=CARTESIAN_POINT('',(-3.8,-1.2,31.1));
#1129=CARTESIAN_POINT('Origin',(-8.3,0.,46.6));
#1130=CARTESIAN_POINT('',(-8.3,1.2,46.6));
#1131=CARTESIAN_POINT('',(0.,1.2,46.6));
#1132=CARTESIAN_POINT('',(-8.3,0.,46.6));
#1133=CARTESIAN_POINT('Origin',(-8.3,0.,29.6));
#1134=CARTESIAN_POINT('',(-8.3,1.2,29.6));
#1135=CARTESIAN_POINT('',(-8.3,1.2,46.6));
#1136=CARTESIAN_POINT('',(-8.3,0.,29.6));
#1137=CARTESIAN_POINT('Origin',(-5.3,0.,29.6));
#1138=CARTESIAN_POINT('',(-5.3,1.2,29.6));
#1139=CARTESIAN_POINT('',(-8.3,1.2,29.6));
#1140=CARTESIAN_POINT('',(-5.3,0.,29.6));
#1141=CARTESIAN_POINT('Origin',(-3.8,0.,31.1));
#1142=CARTESIAN_POINT('',(-3.8,1.2,31.1));
#1143=CARTESIAN_POINT('',(-5.3,1.2,29.6));
#1144=CARTESIAN_POINT('',(-3.8,0.,31.1));
#1145=CARTESIAN_POINT('Origin',(-3.8,0.,41.6));
#1146=CARTESIAN_POINT('',(-3.8,1.2,41.6));
#1147=CARTESIAN_POINT('',(-3.8,1.2,31.1));
#1148=CARTESIAN_POINT('',(-3.8,0.,41.6));
#1149=CARTESIAN_POINT('Origin',(0.,0.,41.6));
#1150=CARTESIAN_POINT('',(-3.8,1.2,41.6));
#1151=CARTESIAN_POINT('Origin',(-4.15,1.2,38.1));
#1152=CARTESIAN_POINT('Origin',(-4.15,-1.2,63.5));
#1153=CARTESIAN_POINT('',(-3.8,-1.2,67.));
#1154=CARTESIAN_POINT('',(-3.8,-1.2,67.));
#1155=CARTESIAN_POINT('',(-8.3,-1.2,72.));
#1156=CARTESIAN_POINT('',(0.,-1.2,72.));
#1157=CARTESIAN_POINT('',(-8.3,-1.2,55.));
#1158=CARTESIAN_POINT('',(-8.3,-1.2,72.));
#1159=CARTESIAN_POINT('',(-5.3,-1.2,55.));
#1160=CARTESIAN_POINT('',(-8.3,-1.2,55.));
#1161=CARTESIAN_POINT('',(-3.8,-1.2,56.5));
#1162=CARTESIAN_POINT('',(-5.3,-1.2,55.));
#1163=CARTESIAN_POINT('',(-3.8,-1.2,56.5));
#1164=CARTESIAN_POINT('Origin',(-8.3,0.,72.));
#1165=CARTESIAN_POINT('',(-8.3,1.2,72.));
#1166=CARTESIAN_POINT('',(0.,1.2,72.));
#1167=CARTESIAN_POINT('',(-8.3,0.,72.));
#1168=CARTESIAN_POINT('Origin',(-8.3,0.,55.));
#1169=CARTESIAN_POINT('',(-8.3,1.2,55.));
#1170=CARTESIAN_POINT('',(-8.3,1.2,72.));
#1171=CARTESIAN_POINT('',(-8.3,0.,55.));
#1172=CARTESIAN_POINT('Origin',(-5.3,0.,55.));
#1173=CARTESIAN_POINT('',(-5.3,1.2,55.));
#1174=CARTESIAN_POINT('',(-8.3,1.2,55.));
#1175=CARTESIAN_POINT('',(-5.3,0.,55.));
#1176=CARTESIAN_POINT('Origin',(-3.8,0.,56.5));
#1177=CARTESIAN_POINT('',(-3.8,1.2,56.5));
#1178=CARTESIAN_POINT('',(-5.3,1.2,55.));
#1179=CARTESIAN_POINT('',(-3.8,0.,56.5));
#1180=CARTESIAN_POINT('Origin',(-3.8,0.,67.));
#1181=CARTESIAN_POINT('',(-3.8,1.2,67.));
#1182=CARTESIAN_POINT('',(-3.8,1.2,56.5));
#1183=CARTESIAN_POINT('',(-3.8,0.,67.));
#1184=CARTESIAN_POINT('Origin',(0.,0.,67.));
#1185=CARTESIAN_POINT('',(-3.8,1.2,67.));
#1186=CARTESIAN_POINT('Origin',(-4.15,1.2,63.5));
#1187=CARTESIAN_POINT('Origin',(3.5,-12.,37.));
#1188=CARTESIAN_POINT('',(7.,-12.,0.));
#1189=CARTESIAN_POINT('',(0.,-12.,0.));
#1190=CARTESIAN_POINT('',(7.,-12.,74.));
#1191=CARTESIAN_POINT('',(7.,-12.,0.));
#1192=CARTESIAN_POINT('',(7.,-12.,74.));
#1193=CARTESIAN_POINT('Origin',(7.,0.,0.));
#1194=CARTESIAN_POINT('',(7.,0.,0.));
#1195=CARTESIAN_POINT('Origin',(7.,0.,74.));
#1196=CARTESIAN_POINT('',(7.,0.,74.));
#1197=CARTESIAN_POINT('Origin',(0.,0.,74.));
#1198=UNCERTAINTY_MEASURE_WITH_UNIT(LENGTH_MEASURE(0.01),#1202,
'DISTANCE_ACCURACY_VALUE',
'Maximum model space distance between geometric entities at asserted c
onnectivities');
#1199=UNCERTAINTY_MEASURE_WITH_UNIT(LENGTH_MEASURE(0.01),#1202,
'DISTANCE_ACCURACY_VALUE',
'Maximum model space distance between geometric entities at asserted c
onnectivities');
#1200=(
GEOMETRIC_REPRESENTATION_CONTEXT(3)
GLOBAL_UNCERTAINTY_ASSIGNED_CONTEXT((#1198))
GLOBAL_UNIT_ASSIGNED_CONTEXT((#1202,#1204,#1205))
REPRESENTATION_CONTEXT('','3D')
);
#1201=(
GEOMETRIC_REPRESENTATION_CONTEXT(3)
GLOBAL_UNCERTAINTY_ASSIGNED_CONTEXT((#1199))
GLOBAL_UNIT_ASSIGNED_CONTEXT((#1202,#1204,#1205))
REPRESENTATION_CONTEXT('','3D')
);
#1202=(
LENGTH_UNIT()
NAMED_UNIT(*)
SI_UNIT(.MILLI.,.METRE.)
);
#1203=(
LENGTH_UNIT()
NAMED_UNIT(*)
SI_UNIT($,.METRE.)
);
#1204=(
NAMED_UNIT(*)
PLANE_ANGLE_UNIT()
SI_UNIT($,.RADIAN.)
);
#1205=(
NAMED_UNIT(*)
SI_UNIT($,.STERADIAN.)
SOLID_ANGLE_UNIT()
);
#1206=SHAPE_DEFINITION_REPRESENTATION(#1207,#1208);
#1207=PRODUCT_DEFINITION_SHAPE('',$,#1210);
#1208=SHAPE_REPRESENTATION('',(#770),#1200);
#1209=PRODUCT_DEFINITION_CONTEXT('part definition',#1214,'design');
#1210=PRODUCT_DEFINITION('2026-09-04-11-03-25-391','(Unsaved)',#1211,#1209);
#1211=PRODUCT_DEFINITION_FORMATION('',$,#1216);
#1212=PRODUCT_RELATED_PRODUCT_CATEGORY('(Unsaved)','(Unsaved)',(#1216));
#1213=APPLICATION_PROTOCOL_DEFINITION('international standard',
'automotive_design',2009,#1214);
#1214=APPLICATION_CONTEXT(
'Core Data for Automotive Mechanical Design Process');
#1215=PRODUCT_CONTEXT('part definition',#1214,'mechanical');
#1216=PRODUCT('2026-09-04-11-03-25-391','(Unsaved)',$,(#1215));
#1217=PRESENTATION_STYLE_ASSIGNMENT((#1218));
#1218=SURFACE_STYLE_USAGE(.BOTH.,#1219);
#1219=SURFACE_SIDE_STYLE('',(#1220));
#1220=SURFACE_STYLE_FILL_AREA(#1221);
#1221=FILL_AREA_STYLE('Steel - Satin',(#1222));
#1222=FILL_AREA_STYLE_COLOUR('Steel - Satin',#1223);
#1223=COLOUR_RGB('Steel - Satin',0.627450980392157,0.627450980392157,0.627450980392157);
ENDSEC;
END-ISO-10303-21;
