ISO-10303-21;
HEADER;
/* Generated by software containing ST-Developer
 * from STEP Tools, Inc. (www.steptools.com) 
 */

FILE_DESCRIPTION(
/* description */ (''),
/* implementation_level */ '2;1');

FILE_NAME(
/* name */ 'skadis_bracket_right.step',
/* time_stamp */ '2026-09-05T18:24:27-05:00',
/* author */ (''),
/* organization */ (''),
/* preprocessor_version */ 'ST-DEVELOPER v20.1',
/* originating_system */ 'Autodesk Translation Framework v15.8.0.0',
/* authorisation */ '');

FILE_SCHEMA (('AUTOMOTIVE_DESIGN { 1 0 10303 214 3 1 1 }'));
ENDSEC;

DATA;
#10=MECHANICAL_DESIGN_GEOMETRIC_PRESENTATION_REPRESENTATION('',(#13),#1287);
#11=SHAPE_REPRESENTATION_RELATIONSHIP('SRR','None',#1294,#12);
#12=ADVANCED_BREP_SHAPE_REPRESENTATION('',(#14),#1286);
#13=STYLED_ITEM('',(#1303),#14);
#14=MANIFOLD_SOLID_BREP('skadis_bracket_right',#795);
#15=FACE_BOUND('',#137,.T.);
#16=FACE_BOUND('',#138,.T.);
#17=FACE_BOUND('',#141,.T.);
#18=FACE_BOUND('',#142,.T.);
#19=PLANE('',#812);
#20=PLANE('',#816);
#21=PLANE('',#820);
#22=PLANE('',#824);
#23=PLANE('',#825);
#24=PLANE('',#826);
#25=PLANE('',#827);
#26=PLANE('',#828);
#27=PLANE('',#829);
#28=PLANE('',#830);
#29=PLANE('',#831);
#30=PLANE('',#832);
#31=PLANE('',#833);
#32=PLANE('',#834);
#33=PLANE('',#835);
#34=PLANE('',#836);
#35=PLANE('',#837);
#36=PLANE('',#838);
#37=PLANE('',#839);
#38=PLANE('',#840);
#39=PLANE('',#841);
#40=PLANE('',#842);
#41=PLANE('',#843);
#42=PLANE('',#844);
#43=PLANE('',#845);
#44=PLANE('',#846);
#45=PLANE('',#847);
#46=PLANE('',#848);
#47=PLANE('',#849);
#48=PLANE('',#850);
#49=PLANE('',#851);
#50=PLANE('',#852);
#51=PLANE('',#853);
#52=PLANE('',#854);
#53=PLANE('',#855);
#54=PLANE('',#856);
#55=PLANE('',#857);
#56=PLANE('',#858);
#57=FACE_OUTER_BOUND('',#99,.T.);
#58=FACE_OUTER_BOUND('',#100,.T.);
#59=FACE_OUTER_BOUND('',#101,.T.);
#60=FACE_OUTER_BOUND('',#102,.T.);
#61=FACE_OUTER_BOUND('',#103,.T.);
#62=FACE_OUTER_BOUND('',#104,.T.);
#63=FACE_OUTER_BOUND('',#105,.T.);
#64=FACE_OUTER_BOUND('',#106,.T.);
#65=FACE_OUTER_BOUND('',#107,.T.);
#66=FACE_OUTER_BOUND('',#108,.T.);
#67=FACE_OUTER_BOUND('',#109,.T.);
#68=FACE_OUTER_BOUND('',#110,.T.);
#69=FACE_OUTER_BOUND('',#111,.T.);
#70=FACE_OUTER_BOUND('',#112,.T.);
#71=FACE_OUTER_BOUND('',#113,.T.);
#72=FACE_OUTER_BOUND('',#114,.T.);
#73=FACE_OUTER_BOUND('',#115,.T.);
#74=FACE_OUTER_BOUND('',#116,.T.);
#75=FACE_OUTER_BOUND('',#117,.T.);
#76=FACE_OUTER_BOUND('',#118,.T.);
#77=FACE_OUTER_BOUND('',#119,.T.);
#78=FACE_OUTER_BOUND('',#120,.T.);
#79=FACE_OUTER_BOUND('',#121,.T.);
#80=FACE_OUTER_BOUND('',#122,.T.);
#81=FACE_OUTER_BOUND('',#123,.T.);
#82=FACE_OUTER_BOUND('',#124,.T.);
#83=FACE_OUTER_BOUND('',#125,.T.);
#84=FACE_OUTER_BOUND('',#126,.T.);
#85=FACE_OUTER_BOUND('',#127,.T.);
#86=FACE_OUTER_BOUND('',#128,.T.);
#87=FACE_OUTER_BOUND('',#129,.T.);
#88=FACE_OUTER_BOUND('',#130,.T.);
#89=FACE_OUTER_BOUND('',#131,.T.);
#90=FACE_OUTER_BOUND('',#132,.T.);
#91=FACE_OUTER_BOUND('',#133,.T.);
#92=FACE_OUTER_BOUND('',#134,.T.);
#93=FACE_OUTER_BOUND('',#135,.T.);
#94=FACE_OUTER_BOUND('',#136,.T.);
#95=FACE_OUTER_BOUND('',#139,.T.);
#96=FACE_OUTER_BOUND('',#140,.T.);
#97=FACE_OUTER_BOUND('',#143,.T.);
#98=FACE_OUTER_BOUND('',#144,.T.);
#99=EDGE_LOOP('',(#533,#534,#535,#536));
#100=EDGE_LOOP('',(#537,#538,#539,#540,#541,#542,#543));
#101=EDGE_LOOP('',(#544,#545,#546,#547));
#102=EDGE_LOOP('',(#548,#549,#550,#551));
#103=EDGE_LOOP('',(#552,#553,#554,#555));
#104=EDGE_LOOP('',(#556,#557,#558,#559,#560,#561,#562));
#105=EDGE_LOOP('',(#563,#564,#565,#566));
#106=EDGE_LOOP('',(#567,#568,#569,#570));
#107=EDGE_LOOP('',(#571,#572,#573,#574,#575,#576,#577));
#108=EDGE_LOOP('',(#578,#579,#580,#581));
#109=EDGE_LOOP('',(#582,#583,#584,#585));
#110=EDGE_LOOP('',(#586,#587,#588,#589));
#111=EDGE_LOOP('',(#590,#591,#592,#593));
#112=EDGE_LOOP('',(#594,#595,#596,#597,#598,#599));
#113=EDGE_LOOP('',(#600,#601,#602,#603,#604,#605,#606));
#114=EDGE_LOOP('',(#607,#608,#609,#610));
#115=EDGE_LOOP('',(#611,#612,#613,#614));
#116=EDGE_LOOP('',(#615,#616,#617,#618));
#117=EDGE_LOOP('',(#619,#620,#621,#622));
#118=EDGE_LOOP('',(#623,#624,#625,#626,#627,#628));
#119=EDGE_LOOP('',(#629,#630,#631,#632,#633,#634,#635));
#120=EDGE_LOOP('',(#636,#637,#638,#639));
#121=EDGE_LOOP('',(#640,#641,#642,#643));
#122=EDGE_LOOP('',(#644,#645,#646,#647));
#123=EDGE_LOOP('',(#648,#649,#650,#651));
#124=EDGE_LOOP('',(#652,#653,#654,#655));
#125=EDGE_LOOP('',(#656,#657,#658,#659));
#126=EDGE_LOOP('',(#660,#661,#662,#663,#664,#665,#666));
#127=EDGE_LOOP('',(#667,#668,#669,#670,#671,#672,#673));
#128=EDGE_LOOP('',(#674,#675,#676,#677));
#129=EDGE_LOOP('',(#678,#679,#680,#681));
#130=EDGE_LOOP('',(#682,#683,#684,#685));
#131=EDGE_LOOP('',(#686,#687,#688,#689));
#132=EDGE_LOOP('',(#690,#691,#692,#693));
#133=EDGE_LOOP('',(#694,#695,#696,#697));
#134=EDGE_LOOP('',(#698,#699,#700,#701,#702,#703,#704));
#135=EDGE_LOOP('',(#705,#706,#707,#708));
#136=EDGE_LOOP('',(#709,#710,#711,#712));
#137=EDGE_LOOP('',(#713,#714,#715,#716));
#138=EDGE_LOOP('',(#717,#718,#719,#720));
#139=EDGE_LOOP('',(#721,#722,#723,#724));
#140=EDGE_LOOP('',(#725,#726,#727,#728));
#141=EDGE_LOOP('',(#729,#730,#731,#732,#733,#734));
#142=EDGE_LOOP('',(#735,#736,#737,#738,#739,#740));
#143=EDGE_LOOP('',(#741,#742,#743,#744));
#144=EDGE_LOOP('',(#745,#746,#747,#748));
#145=LINE('',#1067,#245);
#146=LINE('',#1070,#246);
#147=LINE('',#1073,#247);
#148=LINE('',#1075,#248);
#149=LINE('',#1077,#249);
#150=LINE('',#1079,#250);
#151=LINE('',#1081,#251);
#152=LINE('',#1082,#252);
#153=LINE('',#1088,#253);
#154=LINE('',#1091,#254);
#155=LINE('',#1093,#255);
#156=LINE('',#1094,#256);
#157=LINE('',#1100,#257);
#158=LINE('',#1103,#258);
#159=LINE('',#1106,#259);
#160=LINE('',#1108,#260);
#161=LINE('',#1110,#261);
#162=LINE('',#1112,#262);
#163=LINE('',#1114,#263);
#164=LINE('',#1115,#264);
#165=LINE('',#1121,#265);
#166=LINE('',#1124,#266);
#167=LINE('',#1126,#267);
#168=LINE('',#1127,#268);
#169=LINE('',#1130,#269);
#170=LINE('',#1132,#270);
#171=LINE('',#1134,#271);
#172=LINE('',#1136,#272);
#173=LINE('',#1138,#273);
#174=LINE('',#1139,#274);
#175=LINE('',#1141,#275);
#176=LINE('',#1142,#276);
#177=LINE('',#1144,#277);
#178=LINE('',#1146,#278);
#179=LINE('',#1148,#279);
#180=LINE('',#1152,#280);
#181=LINE('',#1154,#281);
#182=LINE('',#1156,#282);
#183=LINE('',#1158,#283);
#184=LINE('',#1160,#284);
#185=LINE('',#1161,#285);
#186=LINE('',#1163,#286);
#187=LINE('',#1164,#287);
#188=LINE('',#1166,#288);
#189=LINE('',#1168,#289);
#190=LINE('',#1170,#290);
#191=LINE('',#1175,#291);
#192=LINE('',#1177,#292);
#193=LINE('',#1179,#293);
#194=LINE('',#1181,#294);
#195=LINE('',#1183,#295);
#196=LINE('',#1185,#296);
#197=LINE('',#1186,#297);
#198=LINE('',#1189,#298);
#199=LINE('',#1191,#299);
#200=LINE('',#1192,#300);
#201=LINE('',#1195,#301);
#202=LINE('',#1196,#302);
#203=LINE('',#1199,#303);
#204=LINE('',#1200,#304);
#205=LINE('',#1203,#305);
#206=LINE('',#1204,#306);
#207=LINE('',#1207,#307);
#208=LINE('',#1208,#308);
#209=LINE('',#1211,#309);
#210=LINE('',#1212,#310);
#211=LINE('',#1214,#311);
#212=LINE('',#1218,#312);
#213=LINE('',#1220,#313);
#214=LINE('',#1222,#314);
#215=LINE('',#1224,#315);
#216=LINE('',#1226,#316);
#217=LINE('',#1228,#317);
#218=LINE('',#1229,#318);
#219=LINE('',#1232,#319);
#220=LINE('',#1234,#320);
#221=LINE('',#1235,#321);
#222=LINE('',#1238,#322);
#223=LINE('',#1239,#323);
#224=LINE('',#1242,#324);
#225=LINE('',#1243,#325);
#226=LINE('',#1246,#326);
#227=LINE('',#1247,#327);
#228=LINE('',#1250,#328);
#229=LINE('',#1251,#329);
#230=LINE('',#1254,#330);
#231=LINE('',#1255,#331);
#232=LINE('',#1257,#332);
#233=LINE('',#1261,#333);
#234=LINE('',#1263,#334);
#235=LINE('',#1265,#335);
#236=LINE('',#1266,#336);
#237=LINE('',#1269,#337);
#238=LINE('',#1271,#338);
#239=LINE('',#1272,#339);
#240=LINE('',#1275,#340);
#241=LINE('',#1276,#341);
#242=LINE('',#1279,#342);
#243=LINE('',#1280,#343);
#244=LINE('',#1282,#344);
#245=VECTOR('',#865,10.);
#246=VECTOR('',#868,10.);
#247=VECTOR('',#871,10.);
#248=VECTOR('',#872,10.);
#249=VECTOR('',#873,10.);
#250=VECTOR('',#874,10.);
#251=VECTOR('',#875,10.);
#252=VECTOR('',#876,10.);
#253=VECTOR('',#881,10.);
#254=VECTOR('',#884,10.);
#255=VECTOR('',#887,10.);
#256=VECTOR('',#888,10.);
#257=VECTOR('',#893,10.);
#258=VECTOR('',#896,10.);
#259=VECTOR('',#899,10.);
#260=VECTOR('',#900,10.);
#261=VECTOR('',#901,10.);
#262=VECTOR('',#902,10.);
#263=VECTOR('',#903,10.);
#264=VECTOR('',#904,10.);
#265=VECTOR('',#909,10.);
#266=VECTOR('',#912,10.);
#267=VECTOR('',#915,10.);
#268=VECTOR('',#916,10.);
#269=VECTOR('',#919,10.);
#270=VECTOR('',#920,10.);
#271=VECTOR('',#921,10.);
#272=VECTOR('',#922,10.);
#273=VECTOR('',#923,10.);
#274=VECTOR('',#924,10.);
#275=VECTOR('',#927,10.);
#276=VECTOR('',#928,10.);
#277=VECTOR('',#931,10.);
#278=VECTOR('',#934,10.);
#279=VECTOR('',#937,10.);
#280=VECTOR('',#942,10.);
#281=VECTOR('',#943,10.);
#282=VECTOR('',#944,10.);
#283=VECTOR('',#945,10.);
#284=VECTOR('',#946,10.);
#285=VECTOR('',#947,10.);
#286=VECTOR('',#950,10.);
#287=VECTOR('',#951,10.);
#288=VECTOR('',#954,10.);
#289=VECTOR('',#957,10.);
#290=VECTOR('',#960,10.);
#291=VECTOR('',#965,10.);
#292=VECTOR('',#966,10.);
#293=VECTOR('',#967,10.);
#294=VECTOR('',#968,10.);
#295=VECTOR('',#969,10.);
#296=VECTOR('',#970,10.);
#297=VECTOR('',#971,10.);
#298=VECTOR('',#974,10.);
#299=VECTOR('',#975,10.);
#300=VECTOR('',#976,10.);
#301=VECTOR('',#979,10.);
#302=VECTOR('',#980,10.);
#303=VECTOR('',#983,10.);
#304=VECTOR('',#984,10.);
#305=VECTOR('',#987,10.);
#306=VECTOR('',#988,10.);
#307=VECTOR('',#991,10.);
#308=VECTOR('',#992,10.);
#309=VECTOR('',#995,10.);
#310=VECTOR('',#996,10.);
#311=VECTOR('',#999,10.);
#312=VECTOR('',#1002,10.);
#313=VECTOR('',#1003,10.);
#314=VECTOR('',#1004,10.);
#315=VECTOR('',#1005,10.);
#316=VECTOR('',#1006,10.);
#317=VECTOR('',#1007,10.);
#318=VECTOR('',#1008,10.);
#319=VECTOR('',#1011,10.);
#320=VECTOR('',#1012,10.);
#321=VECTOR('',#1013,10.);
#322=VECTOR('',#1016,10.);
#323=VECTOR('',#1017,10.);
#324=VECTOR('',#1020,10.);
#325=VECTOR('',#1021,10.);
#326=VECTOR('',#1024,10.);
#327=VECTOR('',#1025,10.);
#328=VECTOR('',#1028,10.);
#329=VECTOR('',#1029,10.);
#330=VECTOR('',#1032,10.);
#331=VECTOR('',#1033,10.);
#332=VECTOR('',#1036,10.);
#333=VECTOR('',#1039,10.);
#334=VECTOR('',#1040,10.);
#335=VECTOR('',#1041,10.);
#336=VECTOR('',#1042,10.);
#337=VECTOR('',#1045,10.);
#338=VECTOR('',#1046,10.);
#339=VECTOR('',#1047,10.);
#340=VECTOR('',#1050,10.);
#341=VECTOR('',#1051,10.);
#342=VECTOR('',#1054,10.);
#343=VECTOR('',#1055,10.);
#344=VECTOR('',#1058,10.);
#345=CIRCLE('',#810,1.5);
#346=CIRCLE('',#811,1.5);
#347=CIRCLE('',#814,1.5);
#348=CIRCLE('',#815,1.5);
#349=CIRCLE('',#818,1.5);
#350=CIRCLE('',#819,1.5);
#351=CIRCLE('',#822,1.5);
#352=CIRCLE('',#823,1.5);
#353=VERTEX_POINT('',#1063);
#354=VERTEX_POINT('',#1064);
#355=VERTEX_POINT('',#1066);
#356=VERTEX_POINT('',#1068);
#357=VERTEX_POINT('',#1072);
#358=VERTEX_POINT('',#1074);
#359=VERTEX_POINT('',#1076);
#360=VERTEX_POINT('',#1078);
#361=VERTEX_POINT('',#1080);
#362=VERTEX_POINT('',#1084);
#363=VERTEX_POINT('',#1085);
#364=VERTEX_POINT('',#1087);
#365=VERTEX_POINT('',#1089);
#366=VERTEX_POINT('',#1096);
#367=VERTEX_POINT('',#1097);
#368=VERTEX_POINT('',#1099);
#369=VERTEX_POINT('',#1101);
#370=VERTEX_POINT('',#1105);
#371=VERTEX_POINT('',#1107);
#372=VERTEX_POINT('',#1109);
#373=VERTEX_POINT('',#1111);
#374=VERTEX_POINT('',#1113);
#375=VERTEX_POINT('',#1117);
#376=VERTEX_POINT('',#1118);
#377=VERTEX_POINT('',#1120);
#378=VERTEX_POINT('',#1122);
#379=VERTEX_POINT('',#1129);
#380=VERTEX_POINT('',#1131);
#381=VERTEX_POINT('',#1133);
#382=VERTEX_POINT('',#1135);
#383=VERTEX_POINT('',#1137);
#384=VERTEX_POINT('',#1151);
#385=VERTEX_POINT('',#1153);
#386=VERTEX_POINT('',#1155);
#387=VERTEX_POINT('',#1157);
#388=VERTEX_POINT('',#1159);
#389=VERTEX_POINT('',#1173);
#390=VERTEX_POINT('',#1174);
#391=VERTEX_POINT('',#1176);
#392=VERTEX_POINT('',#1178);
#393=VERTEX_POINT('',#1180);
#394=VERTEX_POINT('',#1182);
#395=VERTEX_POINT('',#1184);
#396=VERTEX_POINT('',#1188);
#397=VERTEX_POINT('',#1190);
#398=VERTEX_POINT('',#1194);
#399=VERTEX_POINT('',#1198);
#400=VERTEX_POINT('',#1202);
#401=VERTEX_POINT('',#1206);
#402=VERTEX_POINT('',#1210);
#403=VERTEX_POINT('',#1216);
#404=VERTEX_POINT('',#1217);
#405=VERTEX_POINT('',#1219);
#406=VERTEX_POINT('',#1221);
#407=VERTEX_POINT('',#1223);
#408=VERTEX_POINT('',#1225);
#409=VERTEX_POINT('',#1227);
#410=VERTEX_POINT('',#1231);
#411=VERTEX_POINT('',#1233);
#412=VERTEX_POINT('',#1237);
#413=VERTEX_POINT('',#1241);
#414=VERTEX_POINT('',#1245);
#415=VERTEX_POINT('',#1249);
#416=VERTEX_POINT('',#1253);
#417=VERTEX_POINT('',#1259);
#418=VERTEX_POINT('',#1260);
#419=VERTEX_POINT('',#1262);
#420=VERTEX_POINT('',#1264);
#421=VERTEX_POINT('',#1268);
#422=VERTEX_POINT('',#1270);
#423=VERTEX_POINT('',#1274);
#424=VERTEX_POINT('',#1278);
#425=EDGE_CURVE('',#353,#354,#345,.F.);
#426=EDGE_CURVE('',#354,#355,#145,.T.);
#427=EDGE_CURVE('',#355,#356,#346,.F.);
#428=EDGE_CURVE('',#356,#353,#146,.T.);
#429=EDGE_CURVE('',#354,#357,#147,.T.);
#430=EDGE_CURVE('',#357,#358,#148,.T.);
#431=EDGE_CURVE('',#358,#359,#149,.T.);
#432=EDGE_CURVE('',#359,#360,#150,.T.);
#433=EDGE_CURVE('',#360,#361,#151,.T.);
#434=EDGE_CURVE('',#355,#361,#152,.T.);
#435=EDGE_CURVE('',#362,#363,#347,.F.);
#436=EDGE_CURVE('',#363,#364,#153,.T.);
#437=EDGE_CURVE('',#364,#365,#348,.F.);
#438=EDGE_CURVE('',#365,#362,#154,.T.);
#439=EDGE_CURVE('',#364,#356,#155,.T.);
#440=EDGE_CURVE('',#363,#353,#156,.T.);
#441=EDGE_CURVE('',#366,#367,#349,.F.);
#442=EDGE_CURVE('',#367,#368,#157,.T.);
#443=EDGE_CURVE('',#368,#369,#350,.F.);
#444=EDGE_CURVE('',#369,#366,#158,.T.);
#445=EDGE_CURVE('',#367,#370,#159,.T.);
#446=EDGE_CURVE('',#370,#371,#160,.T.);
#447=EDGE_CURVE('',#371,#372,#161,.T.);
#448=EDGE_CURVE('',#372,#373,#162,.T.);
#449=EDGE_CURVE('',#373,#374,#163,.T.);
#450=EDGE_CURVE('',#368,#374,#164,.T.);
#451=EDGE_CURVE('',#375,#376,#351,.F.);
#452=EDGE_CURVE('',#376,#377,#165,.T.);
#453=EDGE_CURVE('',#377,#378,#352,.F.);
#454=EDGE_CURVE('',#378,#375,#166,.T.);
#455=EDGE_CURVE('',#377,#369,#167,.T.);
#456=EDGE_CURVE('',#376,#366,#168,.T.);
#457=EDGE_CURVE('',#379,#378,#169,.T.);
#458=EDGE_CURVE('',#379,#380,#170,.T.);
#459=EDGE_CURVE('',#380,#381,#171,.T.);
#460=EDGE_CURVE('',#381,#382,#172,.T.);
#461=EDGE_CURVE('',#382,#383,#173,.T.);
#462=EDGE_CURVE('',#383,#375,#174,.T.);
#463=EDGE_CURVE('',#374,#379,#175,.T.);
#464=EDGE_CURVE('',#380,#373,#176,.T.);
#465=EDGE_CURVE('',#381,#372,#177,.T.);
#466=EDGE_CURVE('',#382,#371,#178,.T.);
#467=EDGE_CURVE('',#383,#370,#179,.T.);
#468=EDGE_CURVE('',#384,#365,#180,.T.);
#469=EDGE_CURVE('',#384,#385,#181,.T.);
#470=EDGE_CURVE('',#385,#386,#182,.T.);
#471=EDGE_CURVE('',#386,#387,#183,.T.);
#472=EDGE_CURVE('',#387,#388,#184,.T.);
#473=EDGE_CURVE('',#388,#362,#185,.T.);
#474=EDGE_CURVE('',#361,#384,#186,.T.);
#475=EDGE_CURVE('',#385,#360,#187,.T.);
#476=EDGE_CURVE('',#386,#359,#188,.T.);
#477=EDGE_CURVE('',#387,#358,#189,.T.);
#478=EDGE_CURVE('',#388,#357,#190,.T.);
#479=EDGE_CURVE('',#389,#390,#191,.T.);
#480=EDGE_CURVE('',#391,#390,#192,.T.);
#481=EDGE_CURVE('',#391,#392,#193,.T.);
#482=EDGE_CURVE('',#392,#393,#194,.T.);
#483=EDGE_CURVE('',#393,#394,#195,.T.);
#484=EDGE_CURVE('',#394,#395,#196,.T.);
#485=EDGE_CURVE('',#395,#389,#197,.T.);
#486=EDGE_CURVE('',#396,#391,#198,.T.);
#487=EDGE_CURVE('',#397,#396,#199,.T.);
#488=EDGE_CURVE('',#392,#397,#200,.T.);
#489=EDGE_CURVE('',#398,#397,#201,.T.);
#490=EDGE_CURVE('',#393,#398,#202,.T.);
#491=EDGE_CURVE('',#399,#398,#203,.T.);
#492=EDGE_CURVE('',#394,#399,#204,.T.);
#493=EDGE_CURVE('',#400,#399,#205,.T.);
#494=EDGE_CURVE('',#395,#400,#206,.T.);
#495=EDGE_CURVE('',#401,#400,#207,.T.);
#496=EDGE_CURVE('',#389,#401,#208,.T.);
#497=EDGE_CURVE('',#402,#401,#209,.T.);
#498=EDGE_CURVE('',#390,#402,#210,.T.);
#499=EDGE_CURVE('',#402,#396,#211,.T.);
#500=EDGE_CURVE('',#403,#404,#212,.T.);
#501=EDGE_CURVE('',#405,#404,#213,.T.);
#502=EDGE_CURVE('',#405,#406,#214,.T.);
#503=EDGE_CURVE('',#406,#407,#215,.T.);
#504=EDGE_CURVE('',#407,#408,#216,.T.);
#505=EDGE_CURVE('',#408,#409,#217,.T.);
#506=EDGE_CURVE('',#409,#403,#218,.T.);
#507=EDGE_CURVE('',#410,#405,#219,.T.);
#508=EDGE_CURVE('',#411,#410,#220,.T.);
#509=EDGE_CURVE('',#406,#411,#221,.T.);
#510=EDGE_CURVE('',#412,#411,#222,.T.);
#511=EDGE_CURVE('',#407,#412,#223,.T.);
#512=EDGE_CURVE('',#413,#412,#224,.T.);
#513=EDGE_CURVE('',#408,#413,#225,.T.);
#514=EDGE_CURVE('',#414,#413,#226,.T.);
#515=EDGE_CURVE('',#409,#414,#227,.T.);
#516=EDGE_CURVE('',#415,#414,#228,.T.);
#517=EDGE_CURVE('',#403,#415,#229,.T.);
#518=EDGE_CURVE('',#416,#415,#230,.T.);
#519=EDGE_CURVE('',#404,#416,#231,.T.);
#520=EDGE_CURVE('',#416,#410,#232,.T.);
#521=EDGE_CURVE('',#417,#418,#233,.T.);
#522=EDGE_CURVE('',#418,#419,#234,.T.);
#523=EDGE_CURVE('',#419,#420,#235,.T.);
#524=EDGE_CURVE('',#420,#417,#236,.T.);
#525=EDGE_CURVE('',#421,#418,#237,.T.);
#526=EDGE_CURVE('',#422,#421,#238,.T.);
#527=EDGE_CURVE('',#419,#422,#239,.T.);
#528=EDGE_CURVE('',#423,#422,#240,.T.);
#529=EDGE_CURVE('',#420,#423,#241,.T.);
#530=EDGE_CURVE('',#424,#423,#242,.T.);
#531=EDGE_CURVE('',#417,#424,#243,.T.);
#532=EDGE_CURVE('',#421,#424,#244,.T.);
#533=ORIENTED_EDGE('',*,*,#425,.T.);
#534=ORIENTED_EDGE('',*,*,#426,.T.);
#535=ORIENTED_EDGE('',*,*,#427,.T.);
#536=ORIENTED_EDGE('',*,*,#428,.T.);
#537=ORIENTED_EDGE('',*,*,#426,.F.);
#538=ORIENTED_EDGE('',*,*,#429,.T.);
#539=ORIENTED_EDGE('',*,*,#430,.T.);
#540=ORIENTED_EDGE('',*,*,#431,.T.);
#541=ORIENTED_EDGE('',*,*,#432,.T.);
#542=ORIENTED_EDGE('',*,*,#433,.T.);
#543=ORIENTED_EDGE('',*,*,#434,.F.);
#544=ORIENTED_EDGE('',*,*,#435,.T.);
#545=ORIENTED_EDGE('',*,*,#436,.T.);
#546=ORIENTED_EDGE('',*,*,#437,.T.);
#547=ORIENTED_EDGE('',*,*,#438,.T.);
#548=ORIENTED_EDGE('',*,*,#428,.F.);
#549=ORIENTED_EDGE('',*,*,#439,.F.);
#550=ORIENTED_EDGE('',*,*,#436,.F.);
#551=ORIENTED_EDGE('',*,*,#440,.T.);
#552=ORIENTED_EDGE('',*,*,#441,.T.);
#553=ORIENTED_EDGE('',*,*,#442,.T.);
#554=ORIENTED_EDGE('',*,*,#443,.T.);
#555=ORIENTED_EDGE('',*,*,#444,.T.);
#556=ORIENTED_EDGE('',*,*,#442,.F.);
#557=ORIENTED_EDGE('',*,*,#445,.T.);
#558=ORIENTED_EDGE('',*,*,#446,.T.);
#559=ORIENTED_EDGE('',*,*,#447,.T.);
#560=ORIENTED_EDGE('',*,*,#448,.T.);
#561=ORIENTED_EDGE('',*,*,#449,.T.);
#562=ORIENTED_EDGE('',*,*,#450,.F.);
#563=ORIENTED_EDGE('',*,*,#451,.T.);
#564=ORIENTED_EDGE('',*,*,#452,.T.);
#565=ORIENTED_EDGE('',*,*,#453,.T.);
#566=ORIENTED_EDGE('',*,*,#454,.T.);
#567=ORIENTED_EDGE('',*,*,#444,.F.);
#568=ORIENTED_EDGE('',*,*,#455,.F.);
#569=ORIENTED_EDGE('',*,*,#452,.F.);
#570=ORIENTED_EDGE('',*,*,#456,.T.);
#571=ORIENTED_EDGE('',*,*,#454,.F.);
#572=ORIENTED_EDGE('',*,*,#457,.F.);
#573=ORIENTED_EDGE('',*,*,#458,.T.);
#574=ORIENTED_EDGE('',*,*,#459,.T.);
#575=ORIENTED_EDGE('',*,*,#460,.T.);
#576=ORIENTED_EDGE('',*,*,#461,.T.);
#577=ORIENTED_EDGE('',*,*,#462,.T.);
#578=ORIENTED_EDGE('',*,*,#463,.F.);
#579=ORIENTED_EDGE('',*,*,#449,.F.);
#580=ORIENTED_EDGE('',*,*,#464,.F.);
#581=ORIENTED_EDGE('',*,*,#458,.F.);
#582=ORIENTED_EDGE('',*,*,#464,.T.);
#583=ORIENTED_EDGE('',*,*,#448,.F.);
#584=ORIENTED_EDGE('',*,*,#465,.F.);
#585=ORIENTED_EDGE('',*,*,#459,.F.);
#586=ORIENTED_EDGE('',*,*,#465,.T.);
#587=ORIENTED_EDGE('',*,*,#447,.F.);
#588=ORIENTED_EDGE('',*,*,#466,.F.);
#589=ORIENTED_EDGE('',*,*,#460,.F.);
#590=ORIENTED_EDGE('',*,*,#466,.T.);
#591=ORIENTED_EDGE('',*,*,#446,.F.);
#592=ORIENTED_EDGE('',*,*,#467,.F.);
#593=ORIENTED_EDGE('',*,*,#461,.F.);
#594=ORIENTED_EDGE('',*,*,#467,.T.);
#595=ORIENTED_EDGE('',*,*,#445,.F.);
#596=ORIENTED_EDGE('',*,*,#441,.F.);
#597=ORIENTED_EDGE('',*,*,#456,.F.);
#598=ORIENTED_EDGE('',*,*,#451,.F.);
#599=ORIENTED_EDGE('',*,*,#462,.F.);
#600=ORIENTED_EDGE('',*,*,#438,.F.);
#601=ORIENTED_EDGE('',*,*,#468,.F.);
#602=ORIENTED_EDGE('',*,*,#469,.T.);
#603=ORIENTED_EDGE('',*,*,#470,.T.);
#604=ORIENTED_EDGE('',*,*,#471,.T.);
#605=ORIENTED_EDGE('',*,*,#472,.T.);
#606=ORIENTED_EDGE('',*,*,#473,.T.);
#607=ORIENTED_EDGE('',*,*,#474,.F.);
#608=ORIENTED_EDGE('',*,*,#433,.F.);
#609=ORIENTED_EDGE('',*,*,#475,.F.);
#610=ORIENTED_EDGE('',*,*,#469,.F.);
#611=ORIENTED_EDGE('',*,*,#475,.T.);
#612=ORIENTED_EDGE('',*,*,#432,.F.);
#613=ORIENTED_EDGE('',*,*,#476,.F.);
#614=ORIENTED_EDGE('',*,*,#470,.F.);
#615=ORIENTED_EDGE('',*,*,#476,.T.);
#616=ORIENTED_EDGE('',*,*,#431,.F.);
#617=ORIENTED_EDGE('',*,*,#477,.F.);
#618=ORIENTED_EDGE('',*,*,#471,.F.);
#619=ORIENTED_EDGE('',*,*,#477,.T.);
#620=ORIENTED_EDGE('',*,*,#430,.F.);
#621=ORIENTED_EDGE('',*,*,#478,.F.);
#622=ORIENTED_EDGE('',*,*,#472,.F.);
#623=ORIENTED_EDGE('',*,*,#478,.T.);
#624=ORIENTED_EDGE('',*,*,#429,.F.);
#625=ORIENTED_EDGE('',*,*,#425,.F.);
#626=ORIENTED_EDGE('',*,*,#440,.F.);
#627=ORIENTED_EDGE('',*,*,#435,.F.);
#628=ORIENTED_EDGE('',*,*,#473,.F.);
#629=ORIENTED_EDGE('',*,*,#479,.T.);
#630=ORIENTED_EDGE('',*,*,#480,.F.);
#631=ORIENTED_EDGE('',*,*,#481,.T.);
#632=ORIENTED_EDGE('',*,*,#482,.T.);
#633=ORIENTED_EDGE('',*,*,#483,.T.);
#634=ORIENTED_EDGE('',*,*,#484,.T.);
#635=ORIENTED_EDGE('',*,*,#485,.T.);
#636=ORIENTED_EDGE('',*,*,#486,.F.);
#637=ORIENTED_EDGE('',*,*,#487,.F.);
#638=ORIENTED_EDGE('',*,*,#488,.F.);
#639=ORIENTED_EDGE('',*,*,#481,.F.);
#640=ORIENTED_EDGE('',*,*,#488,.T.);
#641=ORIENTED_EDGE('',*,*,#489,.F.);
#642=ORIENTED_EDGE('',*,*,#490,.F.);
#643=ORIENTED_EDGE('',*,*,#482,.F.);
#644=ORIENTED_EDGE('',*,*,#490,.T.);
#645=ORIENTED_EDGE('',*,*,#491,.F.);
#646=ORIENTED_EDGE('',*,*,#492,.F.);
#647=ORIENTED_EDGE('',*,*,#483,.F.);
#648=ORIENTED_EDGE('',*,*,#492,.T.);
#649=ORIENTED_EDGE('',*,*,#493,.F.);
#650=ORIENTED_EDGE('',*,*,#494,.F.);
#651=ORIENTED_EDGE('',*,*,#484,.F.);
#652=ORIENTED_EDGE('',*,*,#494,.T.);
#653=ORIENTED_EDGE('',*,*,#495,.F.);
#654=ORIENTED_EDGE('',*,*,#496,.F.);
#655=ORIENTED_EDGE('',*,*,#485,.F.);
#656=ORIENTED_EDGE('',*,*,#496,.T.);
#657=ORIENTED_EDGE('',*,*,#497,.F.);
#658=ORIENTED_EDGE('',*,*,#498,.F.);
#659=ORIENTED_EDGE('',*,*,#479,.F.);
#660=ORIENTED_EDGE('',*,*,#497,.T.);
#661=ORIENTED_EDGE('',*,*,#495,.T.);
#662=ORIENTED_EDGE('',*,*,#493,.T.);
#663=ORIENTED_EDGE('',*,*,#491,.T.);
#664=ORIENTED_EDGE('',*,*,#489,.T.);
#665=ORIENTED_EDGE('',*,*,#487,.T.);
#666=ORIENTED_EDGE('',*,*,#499,.F.);
#667=ORIENTED_EDGE('',*,*,#500,.T.);
#668=ORIENTED_EDGE('',*,*,#501,.F.);
#669=ORIENTED_EDGE('',*,*,#502,.T.);
#670=ORIENTED_EDGE('',*,*,#503,.T.);
#671=ORIENTED_EDGE('',*,*,#504,.T.);
#672=ORIENTED_EDGE('',*,*,#505,.T.);
#673=ORIENTED_EDGE('',*,*,#506,.T.);
#674=ORIENTED_EDGE('',*,*,#507,.F.);
#675=ORIENTED_EDGE('',*,*,#508,.F.);
#676=ORIENTED_EDGE('',*,*,#509,.F.);
#677=ORIENTED_EDGE('',*,*,#502,.F.);
#678=ORIENTED_EDGE('',*,*,#509,.T.);
#679=ORIENTED_EDGE('',*,*,#510,.F.);
#680=ORIENTED_EDGE('',*,*,#511,.F.);
#681=ORIENTED_EDGE('',*,*,#503,.F.);
#682=ORIENTED_EDGE('',*,*,#511,.T.);
#683=ORIENTED_EDGE('',*,*,#512,.F.);
#684=ORIENTED_EDGE('',*,*,#513,.F.);
#685=ORIENTED_EDGE('',*,*,#504,.F.);
#686=ORIENTED_EDGE('',*,*,#513,.T.);
#687=ORIENTED_EDGE('',*,*,#514,.F.);
#688=ORIENTED_EDGE('',*,*,#515,.F.);
#689=ORIENTED_EDGE('',*,*,#505,.F.);
#690=ORIENTED_EDGE('',*,*,#515,.T.);
#691=ORIENTED_EDGE('',*,*,#516,.F.);
#692=ORIENTED_EDGE('',*,*,#517,.F.);
#693=ORIENTED_EDGE('',*,*,#506,.F.);
#694=ORIENTED_EDGE('',*,*,#517,.T.);
#695=ORIENTED_EDGE('',*,*,#518,.F.);
#696=ORIENTED_EDGE('',*,*,#519,.F.);
#697=ORIENTED_EDGE('',*,*,#500,.F.);
#698=ORIENTED_EDGE('',*,*,#518,.T.);
#699=ORIENTED_EDGE('',*,*,#516,.T.);
#700=ORIENTED_EDGE('',*,*,#514,.T.);
#701=ORIENTED_EDGE('',*,*,#512,.T.);
#702=ORIENTED_EDGE('',*,*,#510,.T.);
#703=ORIENTED_EDGE('',*,*,#508,.T.);
#704=ORIENTED_EDGE('',*,*,#520,.F.);
#705=ORIENTED_EDGE('',*,*,#521,.T.);
#706=ORIENTED_EDGE('',*,*,#522,.T.);
#707=ORIENTED_EDGE('',*,*,#523,.T.);
#708=ORIENTED_EDGE('',*,*,#524,.T.);
#709=ORIENTED_EDGE('',*,*,#525,.F.);
#710=ORIENTED_EDGE('',*,*,#526,.F.);
#711=ORIENTED_EDGE('',*,*,#527,.F.);
#712=ORIENTED_EDGE('',*,*,#522,.F.);
#713=ORIENTED_EDGE('',*,*,#480,.T.);
#714=ORIENTED_EDGE('',*,*,#498,.T.);
#715=ORIENTED_EDGE('',*,*,#499,.T.);
#716=ORIENTED_EDGE('',*,*,#486,.T.);
#717=ORIENTED_EDGE('',*,*,#501,.T.);
#718=ORIENTED_EDGE('',*,*,#519,.T.);
#719=ORIENTED_EDGE('',*,*,#520,.T.);
#720=ORIENTED_EDGE('',*,*,#507,.T.);
#721=ORIENTED_EDGE('',*,*,#527,.T.);
#722=ORIENTED_EDGE('',*,*,#528,.F.);
#723=ORIENTED_EDGE('',*,*,#529,.F.);
#724=ORIENTED_EDGE('',*,*,#523,.F.);
#725=ORIENTED_EDGE('',*,*,#529,.T.);
#726=ORIENTED_EDGE('',*,*,#530,.F.);
#727=ORIENTED_EDGE('',*,*,#531,.F.);
#728=ORIENTED_EDGE('',*,*,#524,.F.);
#729=ORIENTED_EDGE('',*,*,#457,.T.);
#730=ORIENTED_EDGE('',*,*,#453,.F.);
#731=ORIENTED_EDGE('',*,*,#455,.T.);
#732=ORIENTED_EDGE('',*,*,#443,.F.);
#733=ORIENTED_EDGE('',*,*,#450,.T.);
#734=ORIENTED_EDGE('',*,*,#463,.T.);
#735=ORIENTED_EDGE('',*,*,#468,.T.);
#736=ORIENTED_EDGE('',*,*,#437,.F.);
#737=ORIENTED_EDGE('',*,*,#439,.T.);
#738=ORIENTED_EDGE('',*,*,#427,.F.);
#739=ORIENTED_EDGE('',*,*,#434,.T.);
#740=ORIENTED_EDGE('',*,*,#474,.T.);
#741=ORIENTED_EDGE('',*,*,#531,.T.);
#742=ORIENTED_EDGE('',*,*,#532,.F.);
#743=ORIENTED_EDGE('',*,*,#525,.T.);
#744=ORIENTED_EDGE('',*,*,#521,.F.);
#745=ORIENTED_EDGE('',*,*,#532,.T.);
#746=ORIENTED_EDGE('',*,*,#530,.T.);
#747=ORIENTED_EDGE('',*,*,#528,.T.);
#748=ORIENTED_EDGE('',*,*,#526,.T.);
#749=CYLINDRICAL_SURFACE('',#809,1.5);
#750=CYLINDRICAL_SURFACE('',#813,1.5);
#751=CYLINDRICAL_SURFACE('',#817,1.5);
#752=CYLINDRICAL_SURFACE('',#821,1.5);
#753=ADVANCED_FACE('',(#57),#749,.T.);
#754=ADVANCED_FACE('',(#58),#19,.T.);
#755=ADVANCED_FACE('',(#59),#750,.T.);
#756=ADVANCED_FACE('',(#60),#20,.T.);
#757=ADVANCED_FACE('',(#61),#751,.T.);
#758=ADVANCED_FACE('',(#62),#21,.T.);
#759=ADVANCED_FACE('',(#63),#752,.T.);
#760=ADVANCED_FACE('',(#64),#22,.T.);
#761=ADVANCED_FACE('',(#65),#23,.T.);
#762=ADVANCED_FACE('',(#66),#24,.T.);
#763=ADVANCED_FACE('',(#67),#25,.T.);
#764=ADVANCED_FACE('',(#68),#26,.T.);
#765=ADVANCED_FACE('',(#69),#27,.T.);
#766=ADVANCED_FACE('',(#70),#28,.T.);
#767=ADVANCED_FACE('',(#71),#29,.T.);
#768=ADVANCED_FACE('',(#72),#30,.T.);
#769=ADVANCED_FACE('',(#73),#31,.T.);
#770=ADVANCED_FACE('',(#74),#32,.T.);
#771=ADVANCED_FACE('',(#75),#33,.T.);
#772=ADVANCED_FACE('',(#76),#34,.T.);
#773=ADVANCED_FACE('',(#77),#35,.T.);
#774=ADVANCED_FACE('',(#78),#36,.T.);
#775=ADVANCED_FACE('',(#79),#37,.T.);
#776=ADVANCED_FACE('',(#80),#38,.T.);
#777=ADVANCED_FACE('',(#81),#39,.T.);
#778=ADVANCED_FACE('',(#82),#40,.T.);
#779=ADVANCED_FACE('',(#83),#41,.T.);
#780=ADVANCED_FACE('',(#84),#42,.T.);
#781=ADVANCED_FACE('',(#85),#43,.T.);
#782=ADVANCED_FACE('',(#86),#44,.T.);
#783=ADVANCED_FACE('',(#87),#45,.T.);
#784=ADVANCED_FACE('',(#88),#46,.T.);
#785=ADVANCED_FACE('',(#89),#47,.T.);
#786=ADVANCED_FACE('',(#90),#48,.T.);
#787=ADVANCED_FACE('',(#91),#49,.T.);
#788=ADVANCED_FACE('',(#92),#50,.T.);
#789=ADVANCED_FACE('',(#93),#51,.T.);
#790=ADVANCED_FACE('',(#94,#15,#16),#52,.T.);
#791=ADVANCED_FACE('',(#95),#53,.T.);
#792=ADVANCED_FACE('',(#96,#17,#18),#54,.T.);
#793=ADVANCED_FACE('',(#97),#55,.T.);
#794=ADVANCED_FACE('',(#98),#56,.T.);
#795=CLOSED_SHELL('',(#753,#754,#755,#756,#757,#758,#759,#760,#761,#762,
#763,#764,#765,#766,#767,#768,#769,#770,#771,#772,#773,#774,#775,#776,#777,
#778,#779,#780,#781,#782,#783,#784,#785,#786,#787,#788,#789,#790,#791,#792,
#793,#794));
#796=DERIVED_UNIT_ELEMENT(#798,1.);
#797=DERIVED_UNIT_ELEMENT(#1289,-3.);
#798=(
MASS_UNIT()
NAMED_UNIT(*)
SI_UNIT(.KILO.,.GRAM.)
);
#799=DERIVED_UNIT((#796,#797));
#800=MEASURE_REPRESENTATION_ITEM('density measure',
POSITIVE_RATIO_MEASURE(7850.),#799);
#801=PROPERTY_DEFINITION_REPRESENTATION(#806,#803);
#802=PROPERTY_DEFINITION_REPRESENTATION(#807,#804);
#803=REPRESENTATION('material name',(#805),#1286);
#804=REPRESENTATION('density',(#800),#1286);
#805=DESCRIPTIVE_REPRESENTATION_ITEM('Steel','Steel');
#806=PROPERTY_DEFINITION('material property','material name',#1296);
#807=PROPERTY_DEFINITION('material property','density of part',#1296);
#808=AXIS2_PLACEMENT_3D('',#1061,#859,#860);
#809=AXIS2_PLACEMENT_3D('',#1062,#861,#862);
#810=AXIS2_PLACEMENT_3D('',#1065,#863,#864);
#811=AXIS2_PLACEMENT_3D('',#1069,#866,#867);
#812=AXIS2_PLACEMENT_3D('',#1071,#869,#870);
#813=AXIS2_PLACEMENT_3D('',#1083,#877,#878);
#814=AXIS2_PLACEMENT_3D('',#1086,#879,#880);
#815=AXIS2_PLACEMENT_3D('',#1090,#882,#883);
#816=AXIS2_PLACEMENT_3D('',#1092,#885,#886);
#817=AXIS2_PLACEMENT_3D('',#1095,#889,#890);
#818=AXIS2_PLACEMENT_3D('',#1098,#891,#892);
#819=AXIS2_PLACEMENT_3D('',#1102,#894,#895);
#820=AXIS2_PLACEMENT_3D('',#1104,#897,#898);
#821=AXIS2_PLACEMENT_3D('',#1116,#905,#906);
#822=AXIS2_PLACEMENT_3D('',#1119,#907,#908);
#823=AXIS2_PLACEMENT_3D('',#1123,#910,#911);
#824=AXIS2_PLACEMENT_3D('',#1125,#913,#914);
#825=AXIS2_PLACEMENT_3D('',#1128,#917,#918);
#826=AXIS2_PLACEMENT_3D('',#1140,#925,#926);
#827=AXIS2_PLACEMENT_3D('',#1143,#929,#930);
#828=AXIS2_PLACEMENT_3D('',#1145,#932,#933);
#829=AXIS2_PLACEMENT_3D('',#1147,#935,#936);
#830=AXIS2_PLACEMENT_3D('',#1149,#938,#939);
#831=AXIS2_PLACEMENT_3D('',#1150,#940,#941);
#832=AXIS2_PLACEMENT_3D('',#1162,#948,#949);
#833=AXIS2_PLACEMENT_3D('',#1165,#952,#953);
#834=AXIS2_PLACEMENT_3D('',#1167,#955,#956);
#835=AXIS2_PLACEMENT_3D('',#1169,#958,#959);
#836=AXIS2_PLACEMENT_3D('',#1171,#961,#962);
#837=AXIS2_PLACEMENT_3D('',#1172,#963,#964);
#838=AXIS2_PLACEMENT_3D('',#1187,#972,#973);
#839=AXIS2_PLACEMENT_3D('',#1193,#977,#978);
#840=AXIS2_PLACEMENT_3D('',#1197,#981,#982);
#841=AXIS2_PLACEMENT_3D('',#1201,#985,#986);
#842=AXIS2_PLACEMENT_3D('',#1205,#989,#990);
#843=AXIS2_PLACEMENT_3D('',#1209,#993,#994);
#844=AXIS2_PLACEMENT_3D('',#1213,#997,#998);
#845=AXIS2_PLACEMENT_3D('',#1215,#1000,#1001);
#846=AXIS2_PLACEMENT_3D('',#1230,#1009,#1010);
#847=AXIS2_PLACEMENT_3D('',#1236,#1014,#1015);
#848=AXIS2_PLACEMENT_3D('',#1240,#1018,#1019);
#849=AXIS2_PLACEMENT_3D('',#1244,#1022,#1023);
#850=AXIS2_PLACEMENT_3D('',#1248,#1026,#1027);
#851=AXIS2_PLACEMENT_3D('',#1252,#1030,#1031);
#852=AXIS2_PLACEMENT_3D('',#1256,#1034,#1035);
#853=AXIS2_PLACEMENT_3D('',#1258,#1037,#1038);
#854=AXIS2_PLACEMENT_3D('',#1267,#1043,#1044);
#855=AXIS2_PLACEMENT_3D('',#1273,#1048,#1049);
#856=AXIS2_PLACEMENT_3D('',#1277,#1052,#1053);
#857=AXIS2_PLACEMENT_3D('',#1281,#1056,#1057);
#858=AXIS2_PLACEMENT_3D('',#1283,#1059,#1060);
#859=DIRECTION('axis',(0.,0.,1.));
#860=DIRECTION('refdir',(1.,0.,0.));
#861=DIRECTION('center_axis',(1.,0.,0.));
#862=DIRECTION('ref_axis',(0.,0.707106781186546,0.707106781186549));
#863=DIRECTION('center_axis',(1.,0.,0.));
#864=DIRECTION('ref_axis',(0.,0.707106781186546,0.707106781186549));
#865=DIRECTION('',(-1.,0.,0.));
#866=DIRECTION('center_axis',(-1.,0.,0.));
#867=DIRECTION('ref_axis',(0.,0.707106781186546,0.707106781186549));
#868=DIRECTION('',(1.,0.,0.));
#869=DIRECTION('center_axis',(0.,1.,0.));
#870=DIRECTION('ref_axis',(0.,0.,1.));
#871=DIRECTION('',(0.,0.,1.));
#872=DIRECTION('',(1.,0.,0.));
#873=DIRECTION('',(0.707106781186544,0.,-0.707106781186551));
#874=DIRECTION('',(0.,0.,-1.));
#875=DIRECTION('',(-1.,0.,0.));
#876=DIRECTION('',(0.,0.,-1.));
#877=DIRECTION('center_axis',(-1.,0.,0.));
#878=DIRECTION('ref_axis',(0.,-0.707106781186547,0.707106781186548));
#879=DIRECTION('center_axis',(1.,0.,0.));
#880=DIRECTION('ref_axis',(0.,-0.707106781186547,0.707106781186548));
#881=DIRECTION('',(-1.,0.,0.));
#882=DIRECTION('center_axis',(-1.,0.,0.));
#883=DIRECTION('ref_axis',(0.,-0.707106781186547,0.707106781186548));
#884=DIRECTION('',(1.,0.,0.));
#885=DIRECTION('center_axis',(0.,0.,1.));
#886=DIRECTION('ref_axis',(1.,0.,0.));
#887=DIRECTION('',(0.,1.,0.));
#888=DIRECTION('',(0.,1.,0.));
#889=DIRECTION('center_axis',(1.,0.,0.));
#890=DIRECTION('ref_axis',(0.,0.707106781186547,0.707106781186548));
#891=DIRECTION('center_axis',(1.,0.,0.));
#892=DIRECTION('ref_axis',(0.,0.707106781186547,0.707106781186548));
#893=DIRECTION('',(-1.,0.,0.));
#894=DIRECTION('center_axis',(-1.,0.,0.));
#895=DIRECTION('ref_axis',(0.,0.707106781186547,0.707106781186548));
#896=DIRECTION('',(1.,0.,0.));
#897=DIRECTION('center_axis',(0.,1.,0.));
#898=DIRECTION('ref_axis',(0.,0.,1.));
#899=DIRECTION('',(0.,0.,1.));
#900=DIRECTION('',(1.,0.,0.));
#901=DIRECTION('',(0.707106781186544,0.,-0.707106781186551));
#902=DIRECTION('',(0.,0.,-1.));
#903=DIRECTION('',(-1.,0.,0.));
#904=DIRECTION('',(0.,0.,-1.));
#905=DIRECTION('center_axis',(-1.,0.,0.));
#906=DIRECTION('ref_axis',(0.,-0.707106781186547,0.707106781186548));
#907=DIRECTION('center_axis',(1.,0.,0.));
#908=DIRECTION('ref_axis',(0.,-0.707106781186547,0.707106781186548));
#909=DIRECTION('',(-1.,0.,0.));
#910=DIRECTION('center_axis',(-1.,0.,0.));
#911=DIRECTION('ref_axis',(0.,-0.707106781186547,0.707106781186548));
#912=DIRECTION('',(1.,0.,0.));
#913=DIRECTION('center_axis',(0.,0.,1.));
#914=DIRECTION('ref_axis',(1.,0.,0.));
#915=DIRECTION('',(0.,1.,0.));
#916=DIRECTION('',(0.,1.,0.));
#917=DIRECTION('center_axis',(0.,-1.,0.));
#918=DIRECTION('ref_axis',(0.,0.,-1.));
#919=DIRECTION('',(0.,0.,1.));
#920=DIRECTION('',(1.,0.,0.));
#921=DIRECTION('',(0.,0.,1.));
#922=DIRECTION('',(-0.707106781186544,0.,0.707106781186551));
#923=DIRECTION('',(-1.,0.,0.));
#924=DIRECTION('',(0.,0.,-1.));
#925=DIRECTION('center_axis',(0.,0.,-1.));
#926=DIRECTION('ref_axis',(-1.,0.,0.));
#927=DIRECTION('',(0.,-1.,0.));
#928=DIRECTION('',(0.,1.,0.));
#929=DIRECTION('center_axis',(1.,0.,0.));
#930=DIRECTION('ref_axis',(0.,0.,-1.));
#931=DIRECTION('',(0.,1.,0.));
#932=DIRECTION('center_axis',(0.707106781186551,0.,0.707106781186544));
#933=DIRECTION('ref_axis',(0.707106781186544,0.,-0.707106781186551));
#934=DIRECTION('',(0.,1.,0.));
#935=DIRECTION('center_axis',(0.,0.,1.));
#936=DIRECTION('ref_axis',(1.,0.,0.));
#937=DIRECTION('',(0.,1.,0.));
#938=DIRECTION('center_axis',(-1.,0.,0.));
#939=DIRECTION('ref_axis',(0.,0.,1.));
#940=DIRECTION('center_axis',(0.,-1.,0.));
#941=DIRECTION('ref_axis',(0.,0.,-1.));
#942=DIRECTION('',(0.,0.,1.));
#943=DIRECTION('',(1.,0.,0.));
#944=DIRECTION('',(0.,0.,1.));
#945=DIRECTION('',(-0.707106781186544,0.,0.707106781186551));
#946=DIRECTION('',(-1.,0.,0.));
#947=DIRECTION('',(0.,0.,-1.));
#948=DIRECTION('center_axis',(0.,0.,-1.));
#949=DIRECTION('ref_axis',(-1.,0.,0.));
#950=DIRECTION('',(0.,-1.,0.));
#951=DIRECTION('',(0.,1.,0.));
#952=DIRECTION('center_axis',(1.,0.,0.));
#953=DIRECTION('ref_axis',(0.,0.,-1.));
#954=DIRECTION('',(0.,1.,0.));
#955=DIRECTION('center_axis',(0.707106781186551,0.,0.707106781186544));
#956=DIRECTION('ref_axis',(0.707106781186544,0.,-0.707106781186551));
#957=DIRECTION('',(0.,1.,0.));
#958=DIRECTION('center_axis',(0.,0.,1.));
#959=DIRECTION('ref_axis',(1.,0.,0.));
#960=DIRECTION('',(0.,1.,0.));
#961=DIRECTION('center_axis',(-1.,0.,0.));
#962=DIRECTION('ref_axis',(0.,0.,1.));
#963=DIRECTION('center_axis',(0.,-1.,0.));
#964=DIRECTION('ref_axis',(0.,0.,-1.));
#965=DIRECTION('',(1.,0.,0.));
#966=DIRECTION('',(0.,0.,-1.));
#967=DIRECTION('',(-1.,0.,0.));
#968=DIRECTION('',(0.,0.,-1.));
#969=DIRECTION('',(1.,0.,0.));
#970=DIRECTION('',(0.707106781186549,0.,0.707106781186546));
#971=DIRECTION('',(0.,0.,1.));
#972=DIRECTION('center_axis',(0.,0.,1.));
#973=DIRECTION('ref_axis',(1.,0.,0.));
#974=DIRECTION('',(0.,-1.,0.));
#975=DIRECTION('',(1.,0.,0.));
#976=DIRECTION('',(0.,1.,0.));
#977=DIRECTION('center_axis',(-1.,0.,0.));
#978=DIRECTION('ref_axis',(0.,0.,1.));
#979=DIRECTION('',(0.,0.,1.));
#980=DIRECTION('',(0.,1.,0.));
#981=DIRECTION('center_axis',(0.,0.,-1.));
#982=DIRECTION('ref_axis',(-1.,0.,0.));
#983=DIRECTION('',(-1.,0.,0.));
#984=DIRECTION('',(0.,1.,0.));
#985=DIRECTION('center_axis',(0.707106781186546,0.,-0.707106781186549));
#986=DIRECTION('ref_axis',(-0.707106781186549,0.,-0.707106781186546));
#987=DIRECTION('',(-0.707106781186549,0.,-0.707106781186546));
#988=DIRECTION('',(0.,1.,0.));
#989=DIRECTION('center_axis',(1.,0.,0.));
#990=DIRECTION('ref_axis',(0.,0.,-1.));
#991=DIRECTION('',(0.,0.,-1.));
#992=DIRECTION('',(0.,1.,0.));
#993=DIRECTION('center_axis',(0.,0.,-1.));
#994=DIRECTION('ref_axis',(-1.,0.,0.));
#995=DIRECTION('',(-1.,0.,0.));
#996=DIRECTION('',(0.,1.,0.));
#997=DIRECTION('center_axis',(0.,1.,0.));
#998=DIRECTION('ref_axis',(0.,0.,1.));
#999=DIRECTION('',(0.,0.,1.));
#1000=DIRECTION('center_axis',(0.,-1.,0.));
#1001=DIRECTION('ref_axis',(0.,0.,-1.));
#1002=DIRECTION('',(1.,0.,0.));
#1003=DIRECTION('',(0.,0.,-1.));
#1004=DIRECTION('',(-1.,0.,0.));
#1005=DIRECTION('',(0.,0.,-1.));
#1006=DIRECTION('',(1.,0.,0.));
#1007=DIRECTION('',(0.707106781186549,0.,0.707106781186546));
#1008=DIRECTION('',(0.,0.,1.));
#1009=DIRECTION('center_axis',(0.,0.,1.));
#1010=DIRECTION('ref_axis',(1.,0.,0.));
#1011=DIRECTION('',(0.,-1.,0.));
#1012=DIRECTION('',(1.,0.,0.));
#1013=DIRECTION('',(0.,1.,0.));
#1014=DIRECTION('center_axis',(-1.,0.,0.));
#1015=DIRECTION('ref_axis',(0.,0.,1.));
#1016=DIRECTION('',(0.,0.,1.));
#1017=DIRECTION('',(0.,1.,0.));
#1018=DIRECTION('center_axis',(0.,0.,-1.));
#1019=DIRECTION('ref_axis',(-1.,0.,0.));
#1020=DIRECTION('',(-1.,0.,0.));
#1021=DIRECTION('',(0.,1.,0.));
#1022=DIRECTION('center_axis',(0.707106781186546,0.,-0.707106781186549));
#1023=DIRECTION('ref_axis',(-0.707106781186549,0.,-0.707106781186546));
#1024=DIRECTION('',(-0.707106781186549,0.,-0.707106781186546));
#1025=DIRECTION('',(0.,1.,0.));
#1026=DIRECTION('center_axis',(1.,0.,0.));
#1027=DIRECTION('ref_axis',(0.,0.,-1.));
#1028=DIRECTION('',(0.,0.,-1.));
#1029=DIRECTION('',(0.,1.,0.));
#1030=DIRECTION('center_axis',(0.,0.,-1.));
#1031=DIRECTION('ref_axis',(-1.,0.,0.));
#1032=DIRECTION('',(-1.,0.,0.));
#1033=DIRECTION('',(0.,1.,0.));
#1034=DIRECTION('center_axis',(0.,1.,0.));
#1035=DIRECTION('ref_axis',(0.,0.,1.));
#1036=DIRECTION('',(0.,0.,1.));
#1037=DIRECTION('center_axis',(0.,-1.,0.));
#1038=DIRECTION('ref_axis',(0.,0.,-1.));
#1039=DIRECTION('',(-1.,0.,0.));
#1040=DIRECTION('',(0.,0.,-1.));
#1041=DIRECTION('',(1.,0.,0.));
#1042=DIRECTION('',(0.,0.,1.));
#1043=DIRECTION('center_axis',(-1.,0.,0.));
#1044=DIRECTION('ref_axis',(0.,0.,1.));
#1045=DIRECTION('',(0.,-1.,0.));
#1046=DIRECTION('',(0.,0.,1.));
#1047=DIRECTION('',(0.,1.,0.));
#1048=DIRECTION('center_axis',(0.,0.,-1.));
#1049=DIRECTION('ref_axis',(-1.,0.,0.));
#1050=DIRECTION('',(-1.,0.,0.));
#1051=DIRECTION('',(0.,1.,0.));
#1052=DIRECTION('center_axis',(1.,0.,0.));
#1053=DIRECTION('ref_axis',(0.,0.,-1.));
#1054=DIRECTION('',(0.,0.,-1.));
#1055=DIRECTION('',(0.,1.,0.));
#1056=DIRECTION('center_axis',(0.,0.,1.));
#1057=DIRECTION('ref_axis',(1.,0.,0.));
#1058=DIRECTION('',(1.,0.,0.));
#1059=DIRECTION('center_axis',(0.,1.,0.));
#1060=DIRECTION('ref_axis',(0.,0.,1.));
#1061=CARTESIAN_POINT('',(0.,0.,0.));
#1062=CARTESIAN_POINT('Origin',(6.85,5.3,47.5));
#1063=CARTESIAN_POINT('',(10.2,5.3,49.));
#1064=CARTESIAN_POINT('',(10.2,6.8,47.5));
#1065=CARTESIAN_POINT('Origin',(10.2,5.3,47.5));
#1066=CARTESIAN_POINT('',(5.4,6.8,47.5));
#1067=CARTESIAN_POINT('',(6.85,6.8,47.5));
#1068=CARTESIAN_POINT('',(5.4,5.3,49.));
#1069=CARTESIAN_POINT('Origin',(5.4,5.3,47.5));
#1070=CARTESIAN_POINT('',(6.85,5.3,49.));
#1071=CARTESIAN_POINT('Origin',(8.3,6.8,50.5));
#1072=CARTESIAN_POINT('',(10.2,6.8,56.));
#1073=CARTESIAN_POINT('',(10.2,6.8,56.));
#1074=CARTESIAN_POINT('',(10.6,6.8,56.));
#1075=CARTESIAN_POINT('',(10.6,6.8,56.));
#1076=CARTESIAN_POINT('',(11.2,6.8,55.4));
#1077=CARTESIAN_POINT('',(11.2,6.8,55.4));
#1078=CARTESIAN_POINT('',(11.2,6.8,45.));
#1079=CARTESIAN_POINT('',(11.2,6.8,45.));
#1080=CARTESIAN_POINT('',(5.4,6.8,45.));
#1081=CARTESIAN_POINT('',(5.4,6.8,45.));
#1082=CARTESIAN_POINT('',(5.4,6.8,55.25));
#1083=CARTESIAN_POINT('Origin',(6.85,3.5,47.5));
#1084=CARTESIAN_POINT('',(10.2,2.,47.5));
#1085=CARTESIAN_POINT('',(10.2,3.5,49.));
#1086=CARTESIAN_POINT('Origin',(10.2,3.5,47.5));
#1087=CARTESIAN_POINT('',(5.4,3.5,49.));
#1088=CARTESIAN_POINT('',(6.85,3.5,49.));
#1089=CARTESIAN_POINT('',(5.4,2.,47.5));
#1090=CARTESIAN_POINT('Origin',(5.4,3.5,47.5));
#1091=CARTESIAN_POINT('',(6.85,2.,47.5));
#1092=CARTESIAN_POINT('Origin',(5.4,4.4,49.));
#1093=CARTESIAN_POINT('',(5.4,2.2,49.));
#1094=CARTESIAN_POINT('',(10.2,4.4,49.));
#1095=CARTESIAN_POINT('Origin',(6.85,5.3,7.5));
#1096=CARTESIAN_POINT('',(10.2,5.3,9.));
#1097=CARTESIAN_POINT('',(10.2,6.8,7.5));
#1098=CARTESIAN_POINT('Origin',(10.2,5.3,7.5));
#1099=CARTESIAN_POINT('',(5.4,6.8,7.5));
#1100=CARTESIAN_POINT('',(6.85,6.8,7.5));
#1101=CARTESIAN_POINT('',(5.4,5.3,9.));
#1102=CARTESIAN_POINT('Origin',(5.4,5.3,7.5));
#1103=CARTESIAN_POINT('',(6.85,5.3,9.));
#1104=CARTESIAN_POINT('Origin',(8.3,6.8,10.5));
#1105=CARTESIAN_POINT('',(10.2,6.8,16.));
#1106=CARTESIAN_POINT('',(10.2,6.8,16.));
#1107=CARTESIAN_POINT('',(10.6,6.8,16.));
#1108=CARTESIAN_POINT('',(10.6,6.8,16.));
#1109=CARTESIAN_POINT('',(11.2,6.8,15.4));
#1110=CARTESIAN_POINT('',(11.2,6.8,15.4));
#1111=CARTESIAN_POINT('',(11.2,6.8,5.));
#1112=CARTESIAN_POINT('',(11.2,6.8,5.));
#1113=CARTESIAN_POINT('',(5.4,6.8,5.));
#1114=CARTESIAN_POINT('',(5.4,6.8,5.));
#1115=CARTESIAN_POINT('',(5.4,6.8,35.25));
#1116=CARTESIAN_POINT('Origin',(6.85,3.5,7.5));
#1117=CARTESIAN_POINT('',(10.2,2.,7.5));
#1118=CARTESIAN_POINT('',(10.2,3.5,9.));
#1119=CARTESIAN_POINT('Origin',(10.2,3.5,7.5));
#1120=CARTESIAN_POINT('',(5.4,3.5,9.));
#1121=CARTESIAN_POINT('',(6.85,3.5,9.));
#1122=CARTESIAN_POINT('',(5.4,2.,7.5));
#1123=CARTESIAN_POINT('Origin',(5.4,3.5,7.5));
#1124=CARTESIAN_POINT('',(6.85,2.,7.5));
#1125=CARTESIAN_POINT('Origin',(5.4,4.4,9.));
#1126=CARTESIAN_POINT('',(5.4,2.2,9.));
#1127=CARTESIAN_POINT('',(10.2,4.4,9.));
#1128=CARTESIAN_POINT('Origin',(8.3,2.,10.5));
#1129=CARTESIAN_POINT('',(5.4,2.,5.));
#1130=CARTESIAN_POINT('',(5.4,2.,35.25));
#1131=CARTESIAN_POINT('',(11.2,2.,5.));
#1132=CARTESIAN_POINT('',(5.4,2.,5.));
#1133=CARTESIAN_POINT('',(11.2,2.,15.4));
#1134=CARTESIAN_POINT('',(11.2,2.,5.));
#1135=CARTESIAN_POINT('',(10.6,2.,16.));
#1136=CARTESIAN_POINT('',(11.2,2.,15.4));
#1137=CARTESIAN_POINT('',(10.2,2.,16.));
#1138=CARTESIAN_POINT('',(10.6,2.,16.));
#1139=CARTESIAN_POINT('',(10.2,2.,16.));
#1140=CARTESIAN_POINT('Origin',(11.2,4.4,5.));
#1141=CARTESIAN_POINT('',(5.4,2.2,5.));
#1142=CARTESIAN_POINT('',(11.2,4.4,5.));
#1143=CARTESIAN_POINT('Origin',(11.2,4.4,15.4));
#1144=CARTESIAN_POINT('',(11.2,4.4,15.4));
#1145=CARTESIAN_POINT('Origin',(10.6,4.4,16.));
#1146=CARTESIAN_POINT('',(10.6,4.4,16.));
#1147=CARTESIAN_POINT('Origin',(10.2,4.4,16.));
#1148=CARTESIAN_POINT('',(10.2,4.4,16.));
#1149=CARTESIAN_POINT('Origin',(10.2,4.4,9.));
#1150=CARTESIAN_POINT('Origin',(8.3,2.,50.5));
#1151=CARTESIAN_POINT('',(5.4,2.,45.));
#1152=CARTESIAN_POINT('',(5.4,2.,55.25));
#1153=CARTESIAN_POINT('',(11.2,2.,45.));
#1154=CARTESIAN_POINT('',(5.4,2.,45.));
#1155=CARTESIAN_POINT('',(11.2,2.,55.4));
#1156=CARTESIAN_POINT('',(11.2,2.,45.));
#1157=CARTESIAN_POINT('',(10.6,2.,56.));
#1158=CARTESIAN_POINT('',(11.2,2.,55.4));
#1159=CARTESIAN_POINT('',(10.2,2.,56.));
#1160=CARTESIAN_POINT('',(10.6,2.,56.));
#1161=CARTESIAN_POINT('',(10.2,2.,56.));
#1162=CARTESIAN_POINT('Origin',(11.2,4.4,45.));
#1163=CARTESIAN_POINT('',(5.4,2.2,45.));
#1164=CARTESIAN_POINT('',(11.2,4.4,45.));
#1165=CARTESIAN_POINT('Origin',(11.2,4.4,55.4));
#1166=CARTESIAN_POINT('',(11.2,4.4,55.4));
#1167=CARTESIAN_POINT('Origin',(10.6,4.4,56.));
#1168=CARTESIAN_POINT('',(10.6,4.4,56.));
#1169=CARTESIAN_POINT('Origin',(10.2,4.4,56.));
#1170=CARTESIAN_POINT('',(10.2,4.4,56.));
#1171=CARTESIAN_POINT('Origin',(10.2,4.4,49.));
#1172=CARTESIAN_POINT('Origin',(-4.15,-1.2,24.1));
#1173=CARTESIAN_POINT('',(-3.8,-1.2,27.6));
#1174=CARTESIAN_POINT('',(0.,-1.2,27.6));
#1175=CARTESIAN_POINT('',(-3.8,-1.2,27.6));
#1176=CARTESIAN_POINT('',(0.,-1.2,32.6));
#1177=CARTESIAN_POINT('',(0.,-1.2,12.05));
#1178=CARTESIAN_POINT('',(-8.3,-1.2,32.6));
#1179=CARTESIAN_POINT('',(0.,-1.2,32.6));
#1180=CARTESIAN_POINT('',(-8.3,-1.2,15.6));
#1181=CARTESIAN_POINT('',(-8.3,-1.2,32.6));
#1182=CARTESIAN_POINT('',(-5.3,-1.2,15.6));
#1183=CARTESIAN_POINT('',(-8.3,-1.2,15.6));
#1184=CARTESIAN_POINT('',(-3.8,-1.2,17.1));
#1185=CARTESIAN_POINT('',(-5.3,-1.2,15.6));
#1186=CARTESIAN_POINT('',(-3.8,-1.2,17.1));
#1187=CARTESIAN_POINT('Origin',(-8.3,0.,32.6));
#1188=CARTESIAN_POINT('',(0.,1.2,32.6));
#1189=CARTESIAN_POINT('',(0.,0.,32.6));
#1190=CARTESIAN_POINT('',(-8.3,1.2,32.6));
#1191=CARTESIAN_POINT('',(0.,1.2,32.6));
#1192=CARTESIAN_POINT('',(-8.3,0.,32.6));
#1193=CARTESIAN_POINT('Origin',(-8.3,0.,15.6));
#1194=CARTESIAN_POINT('',(-8.3,1.2,15.6));
#1195=CARTESIAN_POINT('',(-8.3,1.2,32.6));
#1196=CARTESIAN_POINT('',(-8.3,0.,15.6));
#1197=CARTESIAN_POINT('Origin',(-5.3,0.,15.6));
#1198=CARTESIAN_POINT('',(-5.3,1.2,15.6));
#1199=CARTESIAN_POINT('',(-8.3,1.2,15.6));
#1200=CARTESIAN_POINT('',(-5.3,0.,15.6));
#1201=CARTESIAN_POINT('Origin',(-3.8,0.,17.1));
#1202=CARTESIAN_POINT('',(-3.8,1.2,17.1));
#1203=CARTESIAN_POINT('',(-5.3,1.2,15.6));
#1204=CARTESIAN_POINT('',(-3.8,0.,17.1));
#1205=CARTESIAN_POINT('Origin',(-3.8,0.,27.6));
#1206=CARTESIAN_POINT('',(-3.8,1.2,27.6));
#1207=CARTESIAN_POINT('',(-3.8,1.2,17.1));
#1208=CARTESIAN_POINT('',(-3.8,0.,27.6));
#1209=CARTESIAN_POINT('Origin',(0.,0.,27.6));
#1210=CARTESIAN_POINT('',(0.,1.2,27.6));
#1211=CARTESIAN_POINT('',(-3.8,1.2,27.6));
#1212=CARTESIAN_POINT('',(0.,0.,27.6));
#1213=CARTESIAN_POINT('Origin',(-4.15,1.2,24.1));
#1214=CARTESIAN_POINT('',(0.,1.2,12.05));
#1215=CARTESIAN_POINT('Origin',(-4.15,-1.2,49.5));
#1216=CARTESIAN_POINT('',(-3.8,-1.2,53.));
#1217=CARTESIAN_POINT('',(0.,-1.2,53.));
#1218=CARTESIAN_POINT('',(-3.8,-1.2,53.));
#1219=CARTESIAN_POINT('',(0.,-1.2,58.));
#1220=CARTESIAN_POINT('',(0.,-1.2,24.75));
#1221=CARTESIAN_POINT('',(-8.3,-1.2,58.));
#1222=CARTESIAN_POINT('',(0.,-1.2,58.));
#1223=CARTESIAN_POINT('',(-8.3,-1.2,41.));
#1224=CARTESIAN_POINT('',(-8.3,-1.2,58.));
#1225=CARTESIAN_POINT('',(-5.3,-1.2,41.));
#1226=CARTESIAN_POINT('',(-8.3,-1.2,41.));
#1227=CARTESIAN_POINT('',(-3.8,-1.2,42.5));
#1228=CARTESIAN_POINT('',(-5.3,-1.2,41.));
#1229=CARTESIAN_POINT('',(-3.8,-1.2,42.5));
#1230=CARTESIAN_POINT('Origin',(-8.3,0.,58.));
#1231=CARTESIAN_POINT('',(0.,1.2,58.));
#1232=CARTESIAN_POINT('',(0.,0.,58.));
#1233=CARTESIAN_POINT('',(-8.3,1.2,58.));
#1234=CARTESIAN_POINT('',(0.,1.2,58.));
#1235=CARTESIAN_POINT('',(-8.3,0.,58.));
#1236=CARTESIAN_POINT('Origin',(-8.3,0.,41.));
#1237=CARTESIAN_POINT('',(-8.3,1.2,41.));
#1238=CARTESIAN_POINT('',(-8.3,1.2,58.));
#1239=CARTESIAN_POINT('',(-8.3,0.,41.));
#1240=CARTESIAN_POINT('Origin',(-5.3,0.,41.));
#1241=CARTESIAN_POINT('',(-5.3,1.2,41.));
#1242=CARTESIAN_POINT('',(-8.3,1.2,41.));
#1243=CARTESIAN_POINT('',(-5.3,0.,41.));
#1244=CARTESIAN_POINT('Origin',(-3.8,0.,42.5));
#1245=CARTESIAN_POINT('',(-3.8,1.2,42.5));
#1246=CARTESIAN_POINT('',(-5.3,1.2,41.));
#1247=CARTESIAN_POINT('',(-3.8,0.,42.5));
#1248=CARTESIAN_POINT('Origin',(-3.8,0.,53.));
#1249=CARTESIAN_POINT('',(-3.8,1.2,53.));
#1250=CARTESIAN_POINT('',(-3.8,1.2,42.5));
#1251=CARTESIAN_POINT('',(-3.8,0.,53.));
#1252=CARTESIAN_POINT('Origin',(0.,0.,53.));
#1253=CARTESIAN_POINT('',(0.,1.2,53.));
#1254=CARTESIAN_POINT('',(-3.8,1.2,53.));
#1255=CARTESIAN_POINT('',(0.,0.,53.));
#1256=CARTESIAN_POINT('Origin',(-4.15,1.2,49.5));
#1257=CARTESIAN_POINT('',(0.,1.2,24.75));
#1258=CARTESIAN_POINT('Origin',(2.7,-12.,30.));
#1259=CARTESIAN_POINT('',(5.4,-12.,60.));
#1260=CARTESIAN_POINT('',(0.,-12.,60.));
#1261=CARTESIAN_POINT('',(5.4,-12.,60.));
#1262=CARTESIAN_POINT('',(0.,-12.,0.));
#1263=CARTESIAN_POINT('',(0.,-12.,60.));
#1264=CARTESIAN_POINT('',(5.4,-12.,0.));
#1265=CARTESIAN_POINT('',(0.,-12.,0.));
#1266=CARTESIAN_POINT('',(5.4,-12.,0.));
#1267=CARTESIAN_POINT('Origin',(0.,0.,0.));
#1268=CARTESIAN_POINT('',(0.,12.,60.));
#1269=CARTESIAN_POINT('',(0.,0.,60.));
#1270=CARTESIAN_POINT('',(0.,12.,0.));
#1271=CARTESIAN_POINT('',(0.,12.,60.));
#1272=CARTESIAN_POINT('',(0.,0.,0.));
#1273=CARTESIAN_POINT('Origin',(5.4,0.,0.));
#1274=CARTESIAN_POINT('',(5.4,12.,0.));
#1275=CARTESIAN_POINT('',(0.,12.,0.));
#1276=CARTESIAN_POINT('',(5.4,0.,0.));
#1277=CARTESIAN_POINT('Origin',(5.4,0.,60.));
#1278=CARTESIAN_POINT('',(5.4,12.,60.));
#1279=CARTESIAN_POINT('',(5.4,12.,0.));
#1280=CARTESIAN_POINT('',(5.4,0.,60.));
#1281=CARTESIAN_POINT('Origin',(0.,0.,60.));
#1282=CARTESIAN_POINT('',(5.4,12.,60.));
#1283=CARTESIAN_POINT('Origin',(2.7,12.,30.));
#1284=UNCERTAINTY_MEASURE_WITH_UNIT(LENGTH_MEASURE(0.01),#1288,
'DISTANCE_ACCURACY_VALUE',
'Maximum model space distance between geometric entities at asserted c
onnectivities');
#1285=UNCERTAINTY_MEASURE_WITH_UNIT(LENGTH_MEASURE(0.01),#1288,
'DISTANCE_ACCURACY_VALUE',
'Maximum model space distance between geometric entities at asserted c
onnectivities');
#1286=(
GEOMETRIC_REPRESENTATION_CONTEXT(3)
GLOBAL_UNCERTAINTY_ASSIGNED_CONTEXT((#1284))
GLOBAL_UNIT_ASSIGNED_CONTEXT((#1288,#1290,#1291))
REPRESENTATION_CONTEXT('','3D')
);
#1287=(
GEOMETRIC_REPRESENTATION_CONTEXT(3)
GLOBAL_UNCERTAINTY_ASSIGNED_CONTEXT((#1285))
GLOBAL_UNIT_ASSIGNED_CONTEXT((#1288,#1290,#1291))
REPRESENTATION_CONTEXT('','3D')
);
#1288=(
LENGTH_UNIT()
NAMED_UNIT(*)
SI_UNIT(.MILLI.,.METRE.)
);
#1289=(
LENGTH_UNIT()
NAMED_UNIT(*)
SI_UNIT($,.METRE.)
);
#1290=(
NAMED_UNIT(*)
PLANE_ANGLE_UNIT()
SI_UNIT($,.RADIAN.)
);
#1291=(
NAMED_UNIT(*)
SI_UNIT($,.STERADIAN.)
SOLID_ANGLE_UNIT()
);
#1292=SHAPE_DEFINITION_REPRESENTATION(#1293,#1294);
#1293=PRODUCT_DEFINITION_SHAPE('',$,#1296);
#1294=SHAPE_REPRESENTATION('',(#808),#1286);
#1295=PRODUCT_DEFINITION_CONTEXT('part definition',#1300,'design');
#1296=PRODUCT_DEFINITION('2026-09-05-18-11-34-603',
'SKADIS Bracket Right',#1297,#1295);
#1297=PRODUCT_DEFINITION_FORMATION('',$,#1302);
#1298=PRODUCT_RELATED_PRODUCT_CATEGORY('SKADIS Bracket Right',
'SKADIS Bracket Right',(#1302));
#1299=APPLICATION_PROTOCOL_DEFINITION('international standard',
'automotive_design',2009,#1300);
#1300=APPLICATION_CONTEXT(
'Core Data for Automotive Mechanical Design Process');
#1301=PRODUCT_CONTEXT('part definition',#1300,'mechanical');
#1302=PRODUCT('2026-09-05-18-11-34-603','SKADIS Bracket Right',$,(#1301));
#1303=PRESENTATION_STYLE_ASSIGNMENT((#1304));
#1304=SURFACE_STYLE_USAGE(.BOTH.,#1305);
#1305=SURFACE_SIDE_STYLE('',(#1306));
#1306=SURFACE_STYLE_FILL_AREA(#1307);
#1307=FILL_AREA_STYLE('Steel - Satin',(#1308));
#1308=FILL_AREA_STYLE_COLOUR('Steel - Satin',#1309);
#1309=COLOUR_RGB('Steel - Satin',0.627450980392157,0.627450980392157,0.627450980392157);
ENDSEC;
END-ISO-10303-21;
