ISO-10303-21;
HEADER;
/* Generated by software containing ST-Developer
 * from STEP Tools, Inc. (www.steptools.com) 
 */

FILE_DESCRIPTION(
/* description */ (''),
/* implementation_level */ '2;1');

FILE_NAME(
/* name */ 'skadis_bracket_left.step',
/* time_stamp */ '2026-09-05T12:52:48-05:00',
/* author */ (''),
/* organization */ (''),
/* preprocessor_version */ 'ST-DEVELOPER v20.1',
/* originating_system */ 'Autodesk Translation Framework v15.8.0.0',
/* authorisation */ '');

FILE_SCHEMA (('AUTOMOTIVE_DESIGN { 1 0 10303 214 3 1 1 }'));
ENDSEC;

DATA;
#10=MECHANICAL_DESIGN_GEOMETRIC_PRESENTATION_REPRESENTATION('',(#13),#1081);
#11=SHAPE_REPRESENTATION_RELATIONSHIP('SRR','None',#1088,#12);
#12=ADVANCED_BREP_SHAPE_REPRESENTATION('',(#14),#1080);
#13=STYLED_ITEM('',(#1097),#14);
#14=MANIFOLD_SOLID_BREP('skadis_bracket_left',#677);
#15=FACE_BOUND('',#87,.T.);
#16=FACE_BOUND('',#88,.T.);
#17=FACE_BOUND('',#91,.T.);
#18=FACE_BOUND('',#92,.T.);
#19=FACE_OUTER_BOUND('',#55,.T.);
#20=FACE_OUTER_BOUND('',#56,.T.);
#21=FACE_OUTER_BOUND('',#57,.T.);
#22=FACE_OUTER_BOUND('',#58,.T.);
#23=FACE_OUTER_BOUND('',#59,.T.);
#24=FACE_OUTER_BOUND('',#60,.T.);
#25=FACE_OUTER_BOUND('',#61,.T.);
#26=FACE_OUTER_BOUND('',#62,.T.);
#27=FACE_OUTER_BOUND('',#63,.T.);
#28=FACE_OUTER_BOUND('',#64,.T.);
#29=FACE_OUTER_BOUND('',#65,.T.);
#30=FACE_OUTER_BOUND('',#66,.T.);
#31=FACE_OUTER_BOUND('',#67,.T.);
#32=FACE_OUTER_BOUND('',#68,.T.);
#33=FACE_OUTER_BOUND('',#69,.T.);
#34=FACE_OUTER_BOUND('',#70,.T.);
#35=FACE_OUTER_BOUND('',#71,.T.);
#36=FACE_OUTER_BOUND('',#72,.T.);
#37=FACE_OUTER_BOUND('',#73,.T.);
#38=FACE_OUTER_BOUND('',#74,.T.);
#39=FACE_OUTER_BOUND('',#75,.T.);
#40=FACE_OUTER_BOUND('',#76,.T.);
#41=FACE_OUTER_BOUND('',#77,.T.);
#42=FACE_OUTER_BOUND('',#78,.T.);
#43=FACE_OUTER_BOUND('',#79,.T.);
#44=FACE_OUTER_BOUND('',#80,.T.);
#45=FACE_OUTER_BOUND('',#81,.T.);
#46=FACE_OUTER_BOUND('',#82,.T.);
#47=FACE_OUTER_BOUND('',#83,.T.);
#48=FACE_OUTER_BOUND('',#84,.T.);
#49=FACE_OUTER_BOUND('',#85,.T.);
#50=FACE_OUTER_BOUND('',#86,.T.);
#51=FACE_OUTER_BOUND('',#89,.T.);
#52=FACE_OUTER_BOUND('',#90,.T.);
#53=FACE_OUTER_BOUND('',#93,.T.);
#54=FACE_OUTER_BOUND('',#94,.T.);
#55=EDGE_LOOP('',(#425,#426,#427,#428,#429,#430));
#56=EDGE_LOOP('',(#431,#432,#433,#434));
#57=EDGE_LOOP('',(#435,#436,#437,#438));
#58=EDGE_LOOP('',(#439,#440,#441,#442));
#59=EDGE_LOOP('',(#443,#444,#445,#446));
#60=EDGE_LOOP('',(#447,#448,#449,#450));
#61=EDGE_LOOP('',(#451,#452,#453,#454,#455,#456));
#62=EDGE_LOOP('',(#457,#458,#459,#460,#461,#462));
#63=EDGE_LOOP('',(#463,#464,#465,#466));
#64=EDGE_LOOP('',(#467,#468,#469,#470));
#65=EDGE_LOOP('',(#471,#472,#473,#474));
#66=EDGE_LOOP('',(#475,#476,#477,#478));
#67=EDGE_LOOP('',(#479,#480,#481,#482));
#68=EDGE_LOOP('',(#483,#484,#485,#486,#487,#488));
#69=EDGE_LOOP('',(#489,#490,#491,#492,#493,#494,#495));
#70=EDGE_LOOP('',(#496,#497,#498,#499));
#71=EDGE_LOOP('',(#500,#501,#502,#503));
#72=EDGE_LOOP('',(#504,#505,#506,#507));
#73=EDGE_LOOP('',(#508,#509,#510,#511));
#74=EDGE_LOOP('',(#512,#513,#514,#515));
#75=EDGE_LOOP('',(#516,#517,#518,#519));
#76=EDGE_LOOP('',(#520,#521,#522,#523,#524,#525,#526));
#77=EDGE_LOOP('',(#527,#528,#529,#530,#531,#532,#533));
#78=EDGE_LOOP('',(#534,#535,#536,#537));
#79=EDGE_LOOP('',(#538,#539,#540,#541));
#80=EDGE_LOOP('',(#542,#543,#544,#545));
#81=EDGE_LOOP('',(#546,#547,#548,#549));
#82=EDGE_LOOP('',(#550,#551,#552,#553));
#83=EDGE_LOOP('',(#554,#555,#556,#557));
#84=EDGE_LOOP('',(#558,#559,#560,#561,#562,#563,#564));
#85=EDGE_LOOP('',(#565,#566,#567,#568));
#86=EDGE_LOOP('',(#569,#570,#571,#572));
#87=EDGE_LOOP('',(#573,#574,#575,#576));
#88=EDGE_LOOP('',(#577,#578,#579,#580));
#89=EDGE_LOOP('',(#581,#582,#583,#584));
#90=EDGE_LOOP('',(#585,#586,#587,#588));
#91=EDGE_LOOP('',(#589,#590,#591,#592));
#92=EDGE_LOOP('',(#593,#594,#595,#596));
#93=EDGE_LOOP('',(#597,#598,#599,#600));
#94=EDGE_LOOP('',(#601,#602,#603,#604));
#95=LINE('',#895,#185);
#96=LINE('',#897,#186);
#97=LINE('',#899,#187);
#98=LINE('',#901,#188);
#99=LINE('',#903,#189);
#100=LINE('',#904,#190);
#101=LINE('',#907,#191);
#102=LINE('',#909,#192);
#103=LINE('',#910,#193);
#104=LINE('',#913,#194);
#105=LINE('',#914,#195);
#106=LINE('',#917,#196);
#107=LINE('',#918,#197);
#108=LINE('',#921,#198);
#109=LINE('',#922,#199);
#110=LINE('',#925,#200);
#111=LINE('',#926,#201);
#112=LINE('',#928,#202);
#113=LINE('',#932,#203);
#114=LINE('',#934,#204);
#115=LINE('',#936,#205);
#116=LINE('',#938,#206);
#117=LINE('',#940,#207);
#118=LINE('',#941,#208);
#119=LINE('',#944,#209);
#120=LINE('',#946,#210);
#121=LINE('',#947,#211);
#122=LINE('',#950,#212);
#123=LINE('',#951,#213);
#124=LINE('',#954,#214);
#125=LINE('',#955,#215);
#126=LINE('',#958,#216);
#127=LINE('',#959,#217);
#128=LINE('',#962,#218);
#129=LINE('',#963,#219);
#130=LINE('',#965,#220);
#131=LINE('',#969,#221);
#132=LINE('',#971,#222);
#133=LINE('',#973,#223);
#134=LINE('',#975,#224);
#135=LINE('',#977,#225);
#136=LINE('',#979,#226);
#137=LINE('',#980,#227);
#138=LINE('',#983,#228);
#139=LINE('',#985,#229);
#140=LINE('',#986,#230);
#141=LINE('',#989,#231);
#142=LINE('',#990,#232);
#143=LINE('',#993,#233);
#144=LINE('',#994,#234);
#145=LINE('',#997,#235);
#146=LINE('',#998,#236);
#147=LINE('',#1001,#237);
#148=LINE('',#1002,#238);
#149=LINE('',#1005,#239);
#150=LINE('',#1006,#240);
#151=LINE('',#1008,#241);
#152=LINE('',#1012,#242);
#153=LINE('',#1014,#243);
#154=LINE('',#1016,#244);
#155=LINE('',#1018,#245);
#156=LINE('',#1020,#246);
#157=LINE('',#1022,#247);
#158=LINE('',#1023,#248);
#159=LINE('',#1026,#249);
#160=LINE('',#1028,#250);
#161=LINE('',#1029,#251);
#162=LINE('',#1032,#252);
#163=LINE('',#1033,#253);
#164=LINE('',#1036,#254);
#165=LINE('',#1037,#255);
#166=LINE('',#1040,#256);
#167=LINE('',#1041,#257);
#168=LINE('',#1044,#258);
#169=LINE('',#1045,#259);
#170=LINE('',#1048,#260);
#171=LINE('',#1049,#261);
#172=LINE('',#1051,#262);
#173=LINE('',#1055,#263);
#174=LINE('',#1057,#264);
#175=LINE('',#1059,#265);
#176=LINE('',#1060,#266);
#177=LINE('',#1063,#267);
#178=LINE('',#1065,#268);
#179=LINE('',#1066,#269);
#180=LINE('',#1069,#270);
#181=LINE('',#1070,#271);
#182=LINE('',#1073,#272);
#183=LINE('',#1074,#273);
#184=LINE('',#1076,#274);
#185=VECTOR('',#731,10.);
#186=VECTOR('',#732,10.);
#187=VECTOR('',#733,10.);
#188=VECTOR('',#734,10.);
#189=VECTOR('',#735,10.);
#190=VECTOR('',#736,10.);
#191=VECTOR('',#739,10.);
#192=VECTOR('',#740,10.);
#193=VECTOR('',#741,10.);
#194=VECTOR('',#744,10.);
#195=VECTOR('',#745,10.);
#196=VECTOR('',#748,10.);
#197=VECTOR('',#749,10.);
#198=VECTOR('',#752,10.);
#199=VECTOR('',#753,10.);
#200=VECTOR('',#756,10.);
#201=VECTOR('',#757,10.);
#202=VECTOR('',#760,10.);
#203=VECTOR('',#763,10.);
#204=VECTOR('',#764,10.);
#205=VECTOR('',#765,10.);
#206=VECTOR('',#766,10.);
#207=VECTOR('',#767,10.);
#208=VECTOR('',#768,10.);
#209=VECTOR('',#771,10.);
#210=VECTOR('',#772,10.);
#211=VECTOR('',#773,10.);
#212=VECTOR('',#776,10.);
#213=VECTOR('',#777,10.);
#214=VECTOR('',#780,10.);
#215=VECTOR('',#781,10.);
#216=VECTOR('',#784,10.);
#217=VECTOR('',#785,10.);
#218=VECTOR('',#788,10.);
#219=VECTOR('',#789,10.);
#220=VECTOR('',#792,10.);
#221=VECTOR('',#795,10.);
#222=VECTOR('',#796,10.);
#223=VECTOR('',#797,10.);
#224=VECTOR('',#798,10.);
#225=VECTOR('',#799,10.);
#226=VECTOR('',#800,10.);
#227=VECTOR('',#801,10.);
#228=VECTOR('',#804,10.);
#229=VECTOR('',#805,10.);
#230=VECTOR('',#806,10.);
#231=VECTOR('',#809,10.);
#232=VECTOR('',#810,10.);
#233=VECTOR('',#813,10.);
#234=VECTOR('',#814,10.);
#235=VECTOR('',#817,10.);
#236=VECTOR('',#818,10.);
#237=VECTOR('',#821,10.);
#238=VECTOR('',#822,10.);
#239=VECTOR('',#825,10.);
#240=VECTOR('',#826,10.);
#241=VECTOR('',#829,10.);
#242=VECTOR('',#832,10.);
#243=VECTOR('',#833,10.);
#244=VECTOR('',#834,10.);
#245=VECTOR('',#835,10.);
#246=VECTOR('',#836,10.);
#247=VECTOR('',#837,10.);
#248=VECTOR('',#838,10.);
#249=VECTOR('',#841,10.);
#250=VECTOR('',#842,10.);
#251=VECTOR('',#843,10.);
#252=VECTOR('',#846,10.);
#253=VECTOR('',#847,10.);
#254=VECTOR('',#850,10.);
#255=VECTOR('',#851,10.);
#256=VECTOR('',#854,10.);
#257=VECTOR('',#855,10.);
#258=VECTOR('',#858,10.);
#259=VECTOR('',#859,10.);
#260=VECTOR('',#862,10.);
#261=VECTOR('',#863,10.);
#262=VECTOR('',#866,10.);
#263=VECTOR('',#869,10.);
#264=VECTOR('',#870,10.);
#265=VECTOR('',#871,10.);
#266=VECTOR('',#872,10.);
#267=VECTOR('',#875,10.);
#268=VECTOR('',#876,10.);
#269=VECTOR('',#877,10.);
#270=VECTOR('',#880,10.);
#271=VECTOR('',#881,10.);
#272=VECTOR('',#884,10.);
#273=VECTOR('',#885,10.);
#274=VECTOR('',#888,10.);
#275=VERTEX_POINT('',#893);
#276=VERTEX_POINT('',#894);
#277=VERTEX_POINT('',#896);
#278=VERTEX_POINT('',#898);
#279=VERTEX_POINT('',#900);
#280=VERTEX_POINT('',#902);
#281=VERTEX_POINT('',#906);
#282=VERTEX_POINT('',#908);
#283=VERTEX_POINT('',#912);
#284=VERTEX_POINT('',#916);
#285=VERTEX_POINT('',#920);
#286=VERTEX_POINT('',#924);
#287=VERTEX_POINT('',#930);
#288=VERTEX_POINT('',#931);
#289=VERTEX_POINT('',#933);
#290=VERTEX_POINT('',#935);
#291=VERTEX_POINT('',#937);
#292=VERTEX_POINT('',#939);
#293=VERTEX_POINT('',#943);
#294=VERTEX_POINT('',#945);
#295=VERTEX_POINT('',#949);
#296=VERTEX_POINT('',#953);
#297=VERTEX_POINT('',#957);
#298=VERTEX_POINT('',#961);
#299=VERTEX_POINT('',#967);
#300=VERTEX_POINT('',#968);
#301=VERTEX_POINT('',#970);
#302=VERTEX_POINT('',#972);
#303=VERTEX_POINT('',#974);
#304=VERTEX_POINT('',#976);
#305=VERTEX_POINT('',#978);
#306=VERTEX_POINT('',#982);
#307=VERTEX_POINT('',#984);
#308=VERTEX_POINT('',#988);
#309=VERTEX_POINT('',#992);
#310=VERTEX_POINT('',#996);
#311=VERTEX_POINT('',#1000);
#312=VERTEX_POINT('',#1004);
#313=VERTEX_POINT('',#1010);
#314=VERTEX_POINT('',#1011);
#315=VERTEX_POINT('',#1013);
#316=VERTEX_POINT('',#1015);
#317=VERTEX_POINT('',#1017);
#318=VERTEX_POINT('',#1019);
#319=VERTEX_POINT('',#1021);
#320=VERTEX_POINT('',#1025);
#321=VERTEX_POINT('',#1027);
#322=VERTEX_POINT('',#1031);
#323=VERTEX_POINT('',#1035);
#324=VERTEX_POINT('',#1039);
#325=VERTEX_POINT('',#1043);
#326=VERTEX_POINT('',#1047);
#327=VERTEX_POINT('',#1053);
#328=VERTEX_POINT('',#1054);
#329=VERTEX_POINT('',#1056);
#330=VERTEX_POINT('',#1058);
#331=VERTEX_POINT('',#1062);
#332=VERTEX_POINT('',#1064);
#333=VERTEX_POINT('',#1068);
#334=VERTEX_POINT('',#1072);
#335=EDGE_CURVE('',#275,#276,#95,.T.);
#336=EDGE_CURVE('',#277,#276,#96,.T.);
#337=EDGE_CURVE('',#277,#278,#97,.T.);
#338=EDGE_CURVE('',#278,#279,#98,.T.);
#339=EDGE_CURVE('',#279,#280,#99,.T.);
#340=EDGE_CURVE('',#280,#275,#100,.T.);
#341=EDGE_CURVE('',#281,#277,#101,.T.);
#342=EDGE_CURVE('',#282,#281,#102,.T.);
#343=EDGE_CURVE('',#278,#282,#103,.T.);
#344=EDGE_CURVE('',#283,#282,#104,.T.);
#345=EDGE_CURVE('',#279,#283,#105,.T.);
#346=EDGE_CURVE('',#284,#283,#106,.T.);
#347=EDGE_CURVE('',#280,#284,#107,.T.);
#348=EDGE_CURVE('',#285,#284,#108,.T.);
#349=EDGE_CURVE('',#275,#285,#109,.T.);
#350=EDGE_CURVE('',#286,#285,#110,.T.);
#351=EDGE_CURVE('',#276,#286,#111,.T.);
#352=EDGE_CURVE('',#286,#281,#112,.T.);
#353=EDGE_CURVE('',#287,#288,#113,.T.);
#354=EDGE_CURVE('',#289,#288,#114,.T.);
#355=EDGE_CURVE('',#289,#290,#115,.T.);
#356=EDGE_CURVE('',#290,#291,#116,.T.);
#357=EDGE_CURVE('',#291,#292,#117,.T.);
#358=EDGE_CURVE('',#292,#287,#118,.T.);
#359=EDGE_CURVE('',#293,#289,#119,.T.);
#360=EDGE_CURVE('',#294,#293,#120,.T.);
#361=EDGE_CURVE('',#290,#294,#121,.T.);
#362=EDGE_CURVE('',#295,#294,#122,.T.);
#363=EDGE_CURVE('',#291,#295,#123,.T.);
#364=EDGE_CURVE('',#296,#295,#124,.T.);
#365=EDGE_CURVE('',#292,#296,#125,.T.);
#366=EDGE_CURVE('',#297,#296,#126,.T.);
#367=EDGE_CURVE('',#287,#297,#127,.T.);
#368=EDGE_CURVE('',#298,#297,#128,.T.);
#369=EDGE_CURVE('',#288,#298,#129,.T.);
#370=EDGE_CURVE('',#298,#293,#130,.T.);
#371=EDGE_CURVE('',#299,#300,#131,.T.);
#372=EDGE_CURVE('',#301,#300,#132,.T.);
#373=EDGE_CURVE('',#301,#302,#133,.T.);
#374=EDGE_CURVE('',#302,#303,#134,.T.);
#375=EDGE_CURVE('',#303,#304,#135,.T.);
#376=EDGE_CURVE('',#304,#305,#136,.T.);
#377=EDGE_CURVE('',#305,#299,#137,.T.);
#378=EDGE_CURVE('',#306,#301,#138,.T.);
#379=EDGE_CURVE('',#307,#306,#139,.T.);
#380=EDGE_CURVE('',#302,#307,#140,.T.);
#381=EDGE_CURVE('',#308,#307,#141,.T.);
#382=EDGE_CURVE('',#303,#308,#142,.T.);
#383=EDGE_CURVE('',#309,#308,#143,.T.);
#384=EDGE_CURVE('',#304,#309,#144,.T.);
#385=EDGE_CURVE('',#310,#309,#145,.T.);
#386=EDGE_CURVE('',#305,#310,#146,.T.);
#387=EDGE_CURVE('',#311,#310,#147,.T.);
#388=EDGE_CURVE('',#299,#311,#148,.T.);
#389=EDGE_CURVE('',#312,#311,#149,.T.);
#390=EDGE_CURVE('',#300,#312,#150,.T.);
#391=EDGE_CURVE('',#312,#306,#151,.T.);
#392=EDGE_CURVE('',#313,#314,#152,.T.);
#393=EDGE_CURVE('',#315,#314,#153,.T.);
#394=EDGE_CURVE('',#315,#316,#154,.T.);
#395=EDGE_CURVE('',#316,#317,#155,.T.);
#396=EDGE_CURVE('',#317,#318,#156,.T.);
#397=EDGE_CURVE('',#318,#319,#157,.T.);
#398=EDGE_CURVE('',#319,#313,#158,.T.);
#399=EDGE_CURVE('',#320,#315,#159,.T.);
#400=EDGE_CURVE('',#321,#320,#160,.T.);
#401=EDGE_CURVE('',#316,#321,#161,.T.);
#402=EDGE_CURVE('',#322,#321,#162,.T.);
#403=EDGE_CURVE('',#317,#322,#163,.T.);
#404=EDGE_CURVE('',#323,#322,#164,.T.);
#405=EDGE_CURVE('',#318,#323,#165,.T.);
#406=EDGE_CURVE('',#324,#323,#166,.T.);
#407=EDGE_CURVE('',#319,#324,#167,.T.);
#408=EDGE_CURVE('',#325,#324,#168,.T.);
#409=EDGE_CURVE('',#313,#325,#169,.T.);
#410=EDGE_CURVE('',#326,#325,#170,.T.);
#411=EDGE_CURVE('',#314,#326,#171,.T.);
#412=EDGE_CURVE('',#326,#320,#172,.T.);
#413=EDGE_CURVE('',#327,#328,#173,.T.);
#414=EDGE_CURVE('',#328,#329,#174,.T.);
#415=EDGE_CURVE('',#329,#330,#175,.T.);
#416=EDGE_CURVE('',#330,#327,#176,.T.);
#417=EDGE_CURVE('',#331,#328,#177,.T.);
#418=EDGE_CURVE('',#332,#331,#178,.T.);
#419=EDGE_CURVE('',#329,#332,#179,.T.);
#420=EDGE_CURVE('',#333,#332,#180,.T.);
#421=EDGE_CURVE('',#330,#333,#181,.T.);
#422=EDGE_CURVE('',#334,#333,#182,.T.);
#423=EDGE_CURVE('',#327,#334,#183,.T.);
#424=EDGE_CURVE('',#331,#334,#184,.T.);
#425=ORIENTED_EDGE('',*,*,#335,.T.);
#426=ORIENTED_EDGE('',*,*,#336,.F.);
#427=ORIENTED_EDGE('',*,*,#337,.T.);
#428=ORIENTED_EDGE('',*,*,#338,.T.);
#429=ORIENTED_EDGE('',*,*,#339,.T.);
#430=ORIENTED_EDGE('',*,*,#340,.T.);
#431=ORIENTED_EDGE('',*,*,#341,.F.);
#432=ORIENTED_EDGE('',*,*,#342,.F.);
#433=ORIENTED_EDGE('',*,*,#343,.F.);
#434=ORIENTED_EDGE('',*,*,#337,.F.);
#435=ORIENTED_EDGE('',*,*,#343,.T.);
#436=ORIENTED_EDGE('',*,*,#344,.F.);
#437=ORIENTED_EDGE('',*,*,#345,.F.);
#438=ORIENTED_EDGE('',*,*,#338,.F.);
#439=ORIENTED_EDGE('',*,*,#345,.T.);
#440=ORIENTED_EDGE('',*,*,#346,.F.);
#441=ORIENTED_EDGE('',*,*,#347,.F.);
#442=ORIENTED_EDGE('',*,*,#339,.F.);
#443=ORIENTED_EDGE('',*,*,#347,.T.);
#444=ORIENTED_EDGE('',*,*,#348,.F.);
#445=ORIENTED_EDGE('',*,*,#349,.F.);
#446=ORIENTED_EDGE('',*,*,#340,.F.);
#447=ORIENTED_EDGE('',*,*,#349,.T.);
#448=ORIENTED_EDGE('',*,*,#350,.F.);
#449=ORIENTED_EDGE('',*,*,#351,.F.);
#450=ORIENTED_EDGE('',*,*,#335,.F.);
#451=ORIENTED_EDGE('',*,*,#350,.T.);
#452=ORIENTED_EDGE('',*,*,#348,.T.);
#453=ORIENTED_EDGE('',*,*,#346,.T.);
#454=ORIENTED_EDGE('',*,*,#344,.T.);
#455=ORIENTED_EDGE('',*,*,#342,.T.);
#456=ORIENTED_EDGE('',*,*,#352,.F.);
#457=ORIENTED_EDGE('',*,*,#353,.T.);
#458=ORIENTED_EDGE('',*,*,#354,.F.);
#459=ORIENTED_EDGE('',*,*,#355,.T.);
#460=ORIENTED_EDGE('',*,*,#356,.T.);
#461=ORIENTED_EDGE('',*,*,#357,.T.);
#462=ORIENTED_EDGE('',*,*,#358,.T.);
#463=ORIENTED_EDGE('',*,*,#359,.F.);
#464=ORIENTED_EDGE('',*,*,#360,.F.);
#465=ORIENTED_EDGE('',*,*,#361,.F.);
#466=ORIENTED_EDGE('',*,*,#355,.F.);
#467=ORIENTED_EDGE('',*,*,#361,.T.);
#468=ORIENTED_EDGE('',*,*,#362,.F.);
#469=ORIENTED_EDGE('',*,*,#363,.F.);
#470=ORIENTED_EDGE('',*,*,#356,.F.);
#471=ORIENTED_EDGE('',*,*,#363,.T.);
#472=ORIENTED_EDGE('',*,*,#364,.F.);
#473=ORIENTED_EDGE('',*,*,#365,.F.);
#474=ORIENTED_EDGE('',*,*,#357,.F.);
#475=ORIENTED_EDGE('',*,*,#365,.T.);
#476=ORIENTED_EDGE('',*,*,#366,.F.);
#477=ORIENTED_EDGE('',*,*,#367,.F.);
#478=ORIENTED_EDGE('',*,*,#358,.F.);
#479=ORIENTED_EDGE('',*,*,#367,.T.);
#480=ORIENTED_EDGE('',*,*,#368,.F.);
#481=ORIENTED_EDGE('',*,*,#369,.F.);
#482=ORIENTED_EDGE('',*,*,#353,.F.);
#483=ORIENTED_EDGE('',*,*,#368,.T.);
#484=ORIENTED_EDGE('',*,*,#366,.T.);
#485=ORIENTED_EDGE('',*,*,#364,.T.);
#486=ORIENTED_EDGE('',*,*,#362,.T.);
#487=ORIENTED_EDGE('',*,*,#360,.T.);
#488=ORIENTED_EDGE('',*,*,#370,.F.);
#489=ORIENTED_EDGE('',*,*,#371,.T.);
#490=ORIENTED_EDGE('',*,*,#372,.F.);
#491=ORIENTED_EDGE('',*,*,#373,.T.);
#492=ORIENTED_EDGE('',*,*,#374,.T.);
#493=ORIENTED_EDGE('',*,*,#375,.T.);
#494=ORIENTED_EDGE('',*,*,#376,.T.);
#495=ORIENTED_EDGE('',*,*,#377,.T.);
#496=ORIENTED_EDGE('',*,*,#378,.F.);
#497=ORIENTED_EDGE('',*,*,#379,.F.);
#498=ORIENTED_EDGE('',*,*,#380,.F.);
#499=ORIENTED_EDGE('',*,*,#373,.F.);
#500=ORIENTED_EDGE('',*,*,#380,.T.);
#501=ORIENTED_EDGE('',*,*,#381,.F.);
#502=ORIENTED_EDGE('',*,*,#382,.F.);
#503=ORIENTED_EDGE('',*,*,#374,.F.);
#504=ORIENTED_EDGE('',*,*,#382,.T.);
#505=ORIENTED_EDGE('',*,*,#383,.F.);
#506=ORIENTED_EDGE('',*,*,#384,.F.);
#507=ORIENTED_EDGE('',*,*,#375,.F.);
#508=ORIENTED_EDGE('',*,*,#384,.T.);
#509=ORIENTED_EDGE('',*,*,#385,.F.);
#510=ORIENTED_EDGE('',*,*,#386,.F.);
#511=ORIENTED_EDGE('',*,*,#376,.F.);
#512=ORIENTED_EDGE('',*,*,#386,.T.);
#513=ORIENTED_EDGE('',*,*,#387,.F.);
#514=ORIENTED_EDGE('',*,*,#388,.F.);
#515=ORIENTED_EDGE('',*,*,#377,.F.);
#516=ORIENTED_EDGE('',*,*,#388,.T.);
#517=ORIENTED_EDGE('',*,*,#389,.F.);
#518=ORIENTED_EDGE('',*,*,#390,.F.);
#519=ORIENTED_EDGE('',*,*,#371,.F.);
#520=ORIENTED_EDGE('',*,*,#389,.T.);
#521=ORIENTED_EDGE('',*,*,#387,.T.);
#522=ORIENTED_EDGE('',*,*,#385,.T.);
#523=ORIENTED_EDGE('',*,*,#383,.T.);
#524=ORIENTED_EDGE('',*,*,#381,.T.);
#525=ORIENTED_EDGE('',*,*,#379,.T.);
#526=ORIENTED_EDGE('',*,*,#391,.F.);
#527=ORIENTED_EDGE('',*,*,#392,.T.);
#528=ORIENTED_EDGE('',*,*,#393,.F.);
#529=ORIENTED_EDGE('',*,*,#394,.T.);
#530=ORIENTED_EDGE('',*,*,#395,.T.);
#531=ORIENTED_EDGE('',*,*,#396,.T.);
#532=ORIENTED_EDGE('',*,*,#397,.T.);
#533=ORIENTED_EDGE('',*,*,#398,.T.);
#534=ORIENTED_EDGE('',*,*,#399,.F.);
#535=ORIENTED_EDGE('',*,*,#400,.F.);
#536=ORIENTED_EDGE('',*,*,#401,.F.);
#537=ORIENTED_EDGE('',*,*,#394,.F.);
#538=ORIENTED_EDGE('',*,*,#401,.T.);
#539=ORIENTED_EDGE('',*,*,#402,.F.);
#540=ORIENTED_EDGE('',*,*,#403,.F.);
#541=ORIENTED_EDGE('',*,*,#395,.F.);
#542=ORIENTED_EDGE('',*,*,#403,.T.);
#543=ORIENTED_EDGE('',*,*,#404,.F.);
#544=ORIENTED_EDGE('',*,*,#405,.F.);
#545=ORIENTED_EDGE('',*,*,#396,.F.);
#546=ORIENTED_EDGE('',*,*,#405,.T.);
#547=ORIENTED_EDGE('',*,*,#406,.F.);
#548=ORIENTED_EDGE('',*,*,#407,.F.);
#549=ORIENTED_EDGE('',*,*,#397,.F.);
#550=ORIENTED_EDGE('',*,*,#407,.T.);
#551=ORIENTED_EDGE('',*,*,#408,.F.);
#552=ORIENTED_EDGE('',*,*,#409,.F.);
#553=ORIENTED_EDGE('',*,*,#398,.F.);
#554=ORIENTED_EDGE('',*,*,#409,.T.);
#555=ORIENTED_EDGE('',*,*,#410,.F.);
#556=ORIENTED_EDGE('',*,*,#411,.F.);
#557=ORIENTED_EDGE('',*,*,#392,.F.);
#558=ORIENTED_EDGE('',*,*,#410,.T.);
#559=ORIENTED_EDGE('',*,*,#408,.T.);
#560=ORIENTED_EDGE('',*,*,#406,.T.);
#561=ORIENTED_EDGE('',*,*,#404,.T.);
#562=ORIENTED_EDGE('',*,*,#402,.T.);
#563=ORIENTED_EDGE('',*,*,#400,.T.);
#564=ORIENTED_EDGE('',*,*,#412,.F.);
#565=ORIENTED_EDGE('',*,*,#413,.T.);
#566=ORIENTED_EDGE('',*,*,#414,.T.);
#567=ORIENTED_EDGE('',*,*,#415,.T.);
#568=ORIENTED_EDGE('',*,*,#416,.T.);
#569=ORIENTED_EDGE('',*,*,#417,.F.);
#570=ORIENTED_EDGE('',*,*,#418,.F.);
#571=ORIENTED_EDGE('',*,*,#419,.F.);
#572=ORIENTED_EDGE('',*,*,#414,.F.);
#573=ORIENTED_EDGE('',*,*,#372,.T.);
#574=ORIENTED_EDGE('',*,*,#390,.T.);
#575=ORIENTED_EDGE('',*,*,#391,.T.);
#576=ORIENTED_EDGE('',*,*,#378,.T.);
#577=ORIENTED_EDGE('',*,*,#393,.T.);
#578=ORIENTED_EDGE('',*,*,#411,.T.);
#579=ORIENTED_EDGE('',*,*,#412,.T.);
#580=ORIENTED_EDGE('',*,*,#399,.T.);
#581=ORIENTED_EDGE('',*,*,#419,.T.);
#582=ORIENTED_EDGE('',*,*,#420,.F.);
#583=ORIENTED_EDGE('',*,*,#421,.F.);
#584=ORIENTED_EDGE('',*,*,#415,.F.);
#585=ORIENTED_EDGE('',*,*,#421,.T.);
#586=ORIENTED_EDGE('',*,*,#422,.F.);
#587=ORIENTED_EDGE('',*,*,#423,.F.);
#588=ORIENTED_EDGE('',*,*,#416,.F.);
#589=ORIENTED_EDGE('',*,*,#336,.T.);
#590=ORIENTED_EDGE('',*,*,#351,.T.);
#591=ORIENTED_EDGE('',*,*,#352,.T.);
#592=ORIENTED_EDGE('',*,*,#341,.T.);
#593=ORIENTED_EDGE('',*,*,#354,.T.);
#594=ORIENTED_EDGE('',*,*,#369,.T.);
#595=ORIENTED_EDGE('',*,*,#370,.T.);
#596=ORIENTED_EDGE('',*,*,#359,.T.);
#597=ORIENTED_EDGE('',*,*,#423,.T.);
#598=ORIENTED_EDGE('',*,*,#424,.F.);
#599=ORIENTED_EDGE('',*,*,#417,.T.);
#600=ORIENTED_EDGE('',*,*,#413,.F.);
#601=ORIENTED_EDGE('',*,*,#424,.T.);
#602=ORIENTED_EDGE('',*,*,#422,.T.);
#603=ORIENTED_EDGE('',*,*,#420,.T.);
#604=ORIENTED_EDGE('',*,*,#418,.T.);
#605=PLANE('',#691);
#606=PLANE('',#692);
#607=PLANE('',#693);
#608=PLANE('',#694);
#609=PLANE('',#695);
#610=PLANE('',#696);
#611=PLANE('',#697);
#612=PLANE('',#698);
#613=PLANE('',#699);
#614=PLANE('',#700);
#615=PLANE('',#701);
#616=PLANE('',#702);
#617=PLANE('',#703);
#618=PLANE('',#704);
#619=PLANE('',#705);
#620=PLANE('',#706);
#621=PLANE('',#707);
#622=PLANE('',#708);
#623=PLANE('',#709);
#624=PLANE('',#710);
#625=PLANE('',#711);
#626=PLANE('',#712);
#627=PLANE('',#713);
#628=PLANE('',#714);
#629=PLANE('',#715);
#630=PLANE('',#716);
#631=PLANE('',#717);
#632=PLANE('',#718);
#633=PLANE('',#719);
#634=PLANE('',#720);
#635=PLANE('',#721);
#636=PLANE('',#722);
#637=PLANE('',#723);
#638=PLANE('',#724);
#639=PLANE('',#725);
#640=PLANE('',#726);
#641=ADVANCED_FACE('',(#19),#605,.T.);
#642=ADVANCED_FACE('',(#20),#606,.T.);
#643=ADVANCED_FACE('',(#21),#607,.T.);
#644=ADVANCED_FACE('',(#22),#608,.T.);
#645=ADVANCED_FACE('',(#23),#609,.T.);
#646=ADVANCED_FACE('',(#24),#610,.T.);
#647=ADVANCED_FACE('',(#25),#611,.T.);
#648=ADVANCED_FACE('',(#26),#612,.T.);
#649=ADVANCED_FACE('',(#27),#613,.T.);
#650=ADVANCED_FACE('',(#28),#614,.T.);
#651=ADVANCED_FACE('',(#29),#615,.T.);
#652=ADVANCED_FACE('',(#30),#616,.T.);
#653=ADVANCED_FACE('',(#31),#617,.T.);
#654=ADVANCED_FACE('',(#32),#618,.T.);
#655=ADVANCED_FACE('',(#33),#619,.T.);
#656=ADVANCED_FACE('',(#34),#620,.T.);
#657=ADVANCED_FACE('',(#35),#621,.T.);
#658=ADVANCED_FACE('',(#36),#622,.T.);
#659=ADVANCED_FACE('',(#37),#623,.T.);
#660=ADVANCED_FACE('',(#38),#624,.T.);
#661=ADVANCED_FACE('',(#39),#625,.T.);
#662=ADVANCED_FACE('',(#40),#626,.T.);
#663=ADVANCED_FACE('',(#41),#627,.T.);
#664=ADVANCED_FACE('',(#42),#628,.T.);
#665=ADVANCED_FACE('',(#43),#629,.T.);
#666=ADVANCED_FACE('',(#44),#630,.T.);
#667=ADVANCED_FACE('',(#45),#631,.T.);
#668=ADVANCED_FACE('',(#46),#632,.T.);
#669=ADVANCED_FACE('',(#47),#633,.T.);
#670=ADVANCED_FACE('',(#48),#634,.T.);
#671=ADVANCED_FACE('',(#49),#635,.T.);
#672=ADVANCED_FACE('',(#50,#15,#16),#636,.T.);
#673=ADVANCED_FACE('',(#51),#637,.T.);
#674=ADVANCED_FACE('',(#52,#17,#18),#638,.T.);
#675=ADVANCED_FACE('',(#53),#639,.T.);
#676=ADVANCED_FACE('',(#54),#640,.T.);
#677=CLOSED_SHELL('',(#641,#642,#643,#644,#645,#646,#647,#648,#649,#650,
#651,#652,#653,#654,#655,#656,#657,#658,#659,#660,#661,#662,#663,#664,#665,
#666,#667,#668,#669,#670,#671,#672,#673,#674,#675,#676));
#678=DERIVED_UNIT_ELEMENT(#680,1.);
#679=DERIVED_UNIT_ELEMENT(#1083,-3.);
#680=(
MASS_UNIT()
NAMED_UNIT(*)
SI_UNIT(.KILO.,.GRAM.)
);
#681=DERIVED_UNIT((#678,#679));
#682=MEASURE_REPRESENTATION_ITEM('density measure',
POSITIVE_RATIO_MEASURE(7850.),#681);
#683=PROPERTY_DEFINITION_REPRESENTATION(#688,#685);
#684=PROPERTY_DEFINITION_REPRESENTATION(#689,#686);
#685=REPRESENTATION('material name',(#687),#1080);
#686=REPRESENTATION('density',(#682),#1080);
#687=DESCRIPTIVE_REPRESENTATION_ITEM('Steel','Steel');
#688=PROPERTY_DEFINITION('material property','material name',#1090);
#689=PROPERTY_DEFINITION('material property','density of part',#1090);
#690=AXIS2_PLACEMENT_3D('',#891,#727,#728);
#691=AXIS2_PLACEMENT_3D('',#892,#729,#730);
#692=AXIS2_PLACEMENT_3D('',#905,#737,#738);
#693=AXIS2_PLACEMENT_3D('',#911,#742,#743);
#694=AXIS2_PLACEMENT_3D('',#915,#746,#747);
#695=AXIS2_PLACEMENT_3D('',#919,#750,#751);
#696=AXIS2_PLACEMENT_3D('',#923,#754,#755);
#697=AXIS2_PLACEMENT_3D('',#927,#758,#759);
#698=AXIS2_PLACEMENT_3D('',#929,#761,#762);
#699=AXIS2_PLACEMENT_3D('',#942,#769,#770);
#700=AXIS2_PLACEMENT_3D('',#948,#774,#775);
#701=AXIS2_PLACEMENT_3D('',#952,#778,#779);
#702=AXIS2_PLACEMENT_3D('',#956,#782,#783);
#703=AXIS2_PLACEMENT_3D('',#960,#786,#787);
#704=AXIS2_PLACEMENT_3D('',#964,#790,#791);
#705=AXIS2_PLACEMENT_3D('',#966,#793,#794);
#706=AXIS2_PLACEMENT_3D('',#981,#802,#803);
#707=AXIS2_PLACEMENT_3D('',#987,#807,#808);
#708=AXIS2_PLACEMENT_3D('',#991,#811,#812);
#709=AXIS2_PLACEMENT_3D('',#995,#815,#816);
#710=AXIS2_PLACEMENT_3D('',#999,#819,#820);
#711=AXIS2_PLACEMENT_3D('',#1003,#823,#824);
#712=AXIS2_PLACEMENT_3D('',#1007,#827,#828);
#713=AXIS2_PLACEMENT_3D('',#1009,#830,#831);
#714=AXIS2_PLACEMENT_3D('',#1024,#839,#840);
#715=AXIS2_PLACEMENT_3D('',#1030,#844,#845);
#716=AXIS2_PLACEMENT_3D('',#1034,#848,#849);
#717=AXIS2_PLACEMENT_3D('',#1038,#852,#853);
#718=AXIS2_PLACEMENT_3D('',#1042,#856,#857);
#719=AXIS2_PLACEMENT_3D('',#1046,#860,#861);
#720=AXIS2_PLACEMENT_3D('',#1050,#864,#865);
#721=AXIS2_PLACEMENT_3D('',#1052,#867,#868);
#722=AXIS2_PLACEMENT_3D('',#1061,#873,#874);
#723=AXIS2_PLACEMENT_3D('',#1067,#878,#879);
#724=AXIS2_PLACEMENT_3D('',#1071,#882,#883);
#725=AXIS2_PLACEMENT_3D('',#1075,#886,#887);
#726=AXIS2_PLACEMENT_3D('',#1077,#889,#890);
#727=DIRECTION('axis',(0.,0.,1.));
#728=DIRECTION('refdir',(1.,0.,0.));
#729=DIRECTION('center_axis',(0.,-1.,0.));
#730=DIRECTION('ref_axis',(0.,0.,-1.));
#731=DIRECTION('',(-1.,0.,0.));
#732=DIRECTION('',(0.,0.,1.));
#733=DIRECTION('',(1.,0.,0.));
#734=DIRECTION('',(0.,0.,1.));
#735=DIRECTION('',(-1.,0.,0.));
#736=DIRECTION('',(0.,0.,-1.));
#737=DIRECTION('center_axis',(0.,0.,-1.));
#738=DIRECTION('ref_axis',(-1.,0.,0.));
#739=DIRECTION('',(0.,-1.,0.));
#740=DIRECTION('',(-1.,0.,0.));
#741=DIRECTION('',(0.,1.,0.));
#742=DIRECTION('center_axis',(1.,0.,0.));
#743=DIRECTION('ref_axis',(0.,0.,-1.));
#744=DIRECTION('',(0.,0.,-1.));
#745=DIRECTION('',(0.,1.,0.));
#746=DIRECTION('center_axis',(0.,0.,1.));
#747=DIRECTION('ref_axis',(1.,0.,0.));
#748=DIRECTION('',(1.,0.,0.));
#749=DIRECTION('',(0.,1.,0.));
#750=DIRECTION('center_axis',(-1.,0.,0.));
#751=DIRECTION('ref_axis',(0.,0.,1.));
#752=DIRECTION('',(0.,0.,1.));
#753=DIRECTION('',(0.,1.,0.));
#754=DIRECTION('center_axis',(0.,0.,1.));
#755=DIRECTION('ref_axis',(1.,0.,0.));
#756=DIRECTION('',(1.,0.,0.));
#757=DIRECTION('',(0.,1.,0.));
#758=DIRECTION('center_axis',(0.,1.,0.));
#759=DIRECTION('ref_axis',(0.,0.,1.));
#760=DIRECTION('',(0.,0.,-1.));
#761=DIRECTION('center_axis',(0.,-1.,0.));
#762=DIRECTION('ref_axis',(0.,0.,-1.));
#763=DIRECTION('',(-1.,0.,0.));
#764=DIRECTION('',(0.,0.,1.));
#765=DIRECTION('',(1.,0.,0.));
#766=DIRECTION('',(0.,0.,1.));
#767=DIRECTION('',(-1.,0.,0.));
#768=DIRECTION('',(0.,0.,-1.));
#769=DIRECTION('center_axis',(0.,0.,-1.));
#770=DIRECTION('ref_axis',(-1.,0.,0.));
#771=DIRECTION('',(0.,-1.,0.));
#772=DIRECTION('',(-1.,0.,0.));
#773=DIRECTION('',(0.,1.,0.));
#774=DIRECTION('center_axis',(1.,0.,0.));
#775=DIRECTION('ref_axis',(0.,0.,-1.));
#776=DIRECTION('',(0.,0.,-1.));
#777=DIRECTION('',(0.,1.,0.));
#778=DIRECTION('center_axis',(0.,0.,1.));
#779=DIRECTION('ref_axis',(1.,0.,0.));
#780=DIRECTION('',(1.,0.,0.));
#781=DIRECTION('',(0.,1.,0.));
#782=DIRECTION('center_axis',(-1.,0.,0.));
#783=DIRECTION('ref_axis',(0.,0.,1.));
#784=DIRECTION('',(0.,0.,1.));
#785=DIRECTION('',(0.,1.,0.));
#786=DIRECTION('center_axis',(0.,0.,1.));
#787=DIRECTION('ref_axis',(1.,0.,0.));
#788=DIRECTION('',(1.,0.,0.));
#789=DIRECTION('',(0.,1.,0.));
#790=DIRECTION('center_axis',(0.,1.,0.));
#791=DIRECTION('ref_axis',(0.,0.,1.));
#792=DIRECTION('',(0.,0.,-1.));
#793=DIRECTION('center_axis',(0.,-1.,0.));
#794=DIRECTION('ref_axis',(0.,0.,-1.));
#795=DIRECTION('',(1.,0.,0.));
#796=DIRECTION('',(0.,0.,-1.));
#797=DIRECTION('',(-1.,0.,0.));
#798=DIRECTION('',(0.,0.,-1.));
#799=DIRECTION('',(1.,0.,0.));
#800=DIRECTION('',(0.707106781186549,0.,0.707106781186546));
#801=DIRECTION('',(0.,0.,1.));
#802=DIRECTION('center_axis',(0.,0.,1.));
#803=DIRECTION('ref_axis',(1.,0.,0.));
#804=DIRECTION('',(0.,-1.,0.));
#805=DIRECTION('',(1.,0.,0.));
#806=DIRECTION('',(0.,1.,0.));
#807=DIRECTION('center_axis',(-1.,0.,0.));
#808=DIRECTION('ref_axis',(0.,0.,1.));
#809=DIRECTION('',(0.,0.,1.));
#810=DIRECTION('',(0.,1.,0.));
#811=DIRECTION('center_axis',(0.,0.,-1.));
#812=DIRECTION('ref_axis',(-1.,0.,0.));
#813=DIRECTION('',(-1.,0.,0.));
#814=DIRECTION('',(0.,1.,0.));
#815=DIRECTION('center_axis',(0.707106781186546,0.,-0.707106781186549));
#816=DIRECTION('ref_axis',(-0.707106781186549,0.,-0.707106781186546));
#817=DIRECTION('',(-0.707106781186549,0.,-0.707106781186546));
#818=DIRECTION('',(0.,1.,0.));
#819=DIRECTION('center_axis',(1.,0.,0.));
#820=DIRECTION('ref_axis',(0.,0.,-1.));
#821=DIRECTION('',(0.,0.,-1.));
#822=DIRECTION('',(0.,1.,0.));
#823=DIRECTION('center_axis',(0.,0.,-1.));
#824=DIRECTION('ref_axis',(-1.,0.,0.));
#825=DIRECTION('',(-1.,0.,0.));
#826=DIRECTION('',(0.,1.,0.));
#827=DIRECTION('center_axis',(0.,1.,0.));
#828=DIRECTION('ref_axis',(0.,0.,1.));
#829=DIRECTION('',(0.,0.,1.));
#830=DIRECTION('center_axis',(0.,-1.,0.));
#831=DIRECTION('ref_axis',(0.,0.,-1.));
#832=DIRECTION('',(1.,0.,0.));
#833=DIRECTION('',(0.,0.,-1.));
#834=DIRECTION('',(-1.,0.,0.));
#835=DIRECTION('',(0.,0.,-1.));
#836=DIRECTION('',(1.,0.,0.));
#837=DIRECTION('',(0.707106781186549,0.,0.707106781186546));
#838=DIRECTION('',(0.,0.,1.));
#839=DIRECTION('center_axis',(0.,0.,1.));
#840=DIRECTION('ref_axis',(1.,0.,0.));
#841=DIRECTION('',(0.,-1.,0.));
#842=DIRECTION('',(1.,0.,0.));
#843=DIRECTION('',(0.,1.,0.));
#844=DIRECTION('center_axis',(-1.,0.,0.));
#845=DIRECTION('ref_axis',(0.,0.,1.));
#846=DIRECTION('',(0.,0.,1.));
#847=DIRECTION('',(0.,1.,0.));
#848=DIRECTION('center_axis',(0.,0.,-1.));
#849=DIRECTION('ref_axis',(-1.,0.,0.));
#850=DIRECTION('',(-1.,0.,0.));
#851=DIRECTION('',(0.,1.,0.));
#852=DIRECTION('center_axis',(0.707106781186546,0.,-0.707106781186549));
#853=DIRECTION('ref_axis',(-0.707106781186549,0.,-0.707106781186546));
#854=DIRECTION('',(-0.707106781186549,0.,-0.707106781186546));
#855=DIRECTION('',(0.,1.,0.));
#856=DIRECTION('center_axis',(1.,0.,0.));
#857=DIRECTION('ref_axis',(0.,0.,-1.));
#858=DIRECTION('',(0.,0.,-1.));
#859=DIRECTION('',(0.,1.,0.));
#860=DIRECTION('center_axis',(0.,0.,-1.));
#861=DIRECTION('ref_axis',(-1.,0.,0.));
#862=DIRECTION('',(-1.,0.,0.));
#863=DIRECTION('',(0.,1.,0.));
#864=DIRECTION('center_axis',(0.,1.,0.));
#865=DIRECTION('ref_axis',(0.,0.,1.));
#866=DIRECTION('',(0.,0.,1.));
#867=DIRECTION('center_axis',(0.,-1.,0.));
#868=DIRECTION('ref_axis',(0.,0.,-1.));
#869=DIRECTION('',(-1.,0.,0.));
#870=DIRECTION('',(0.,0.,-1.));
#871=DIRECTION('',(1.,0.,0.));
#872=DIRECTION('',(0.,0.,1.));
#873=DIRECTION('center_axis',(-1.,0.,0.));
#874=DIRECTION('ref_axis',(0.,0.,1.));
#875=DIRECTION('',(0.,-1.,0.));
#876=DIRECTION('',(0.,0.,1.));
#877=DIRECTION('',(0.,1.,0.));
#878=DIRECTION('center_axis',(0.,0.,-1.));
#879=DIRECTION('ref_axis',(-1.,0.,0.));
#880=DIRECTION('',(-1.,0.,0.));
#881=DIRECTION('',(0.,1.,0.));
#882=DIRECTION('center_axis',(1.,0.,0.));
#883=DIRECTION('ref_axis',(0.,0.,-1.));
#884=DIRECTION('',(0.,0.,-1.));
#885=DIRECTION('',(0.,1.,0.));
#886=DIRECTION('center_axis',(0.,0.,1.));
#887=DIRECTION('ref_axis',(1.,0.,0.));
#888=DIRECTION('',(1.,0.,0.));
#889=DIRECTION('center_axis',(0.,1.,0.));
#890=DIRECTION('ref_axis',(0.,0.,1.));
#891=CARTESIAN_POINT('',(0.,0.,0.));
#892=CARTESIAN_POINT('Origin',(8.8,-2.4,11.));
#893=CARTESIAN_POINT('',(10.2,-2.4,9.));
#894=CARTESIAN_POINT('',(5.4,-2.4,9.));
#895=CARTESIAN_POINT('',(10.2,-2.4,9.));
#896=CARTESIAN_POINT('',(5.4,-2.4,5.));
#897=CARTESIAN_POINT('',(5.4,-2.4,35.5));
#898=CARTESIAN_POINT('',(12.2,-2.4,5.));
#899=CARTESIAN_POINT('',(5.4,-2.4,5.));
#900=CARTESIAN_POINT('',(12.2,-2.4,17.));
#901=CARTESIAN_POINT('',(12.2,-2.4,5.));
#902=CARTESIAN_POINT('',(10.2,-2.4,17.));
#903=CARTESIAN_POINT('',(12.2,-2.4,17.));
#904=CARTESIAN_POINT('',(10.2,-2.4,17.));
#905=CARTESIAN_POINT('Origin',(12.2,0.,5.));
#906=CARTESIAN_POINT('',(5.4,2.4,5.));
#907=CARTESIAN_POINT('',(5.4,0.,5.));
#908=CARTESIAN_POINT('',(12.2,2.4,5.));
#909=CARTESIAN_POINT('',(5.4,2.4,5.));
#910=CARTESIAN_POINT('',(12.2,0.,5.));
#911=CARTESIAN_POINT('Origin',(12.2,0.,17.));
#912=CARTESIAN_POINT('',(12.2,2.4,17.));
#913=CARTESIAN_POINT('',(12.2,2.4,5.));
#914=CARTESIAN_POINT('',(12.2,0.,17.));
#915=CARTESIAN_POINT('Origin',(10.2,0.,17.));
#916=CARTESIAN_POINT('',(10.2,2.4,17.));
#917=CARTESIAN_POINT('',(12.2,2.4,17.));
#918=CARTESIAN_POINT('',(10.2,0.,17.));
#919=CARTESIAN_POINT('Origin',(10.2,0.,9.));
#920=CARTESIAN_POINT('',(10.2,2.4,9.));
#921=CARTESIAN_POINT('',(10.2,2.4,17.));
#922=CARTESIAN_POINT('',(10.2,0.,9.));
#923=CARTESIAN_POINT('Origin',(5.4,0.,9.));
#924=CARTESIAN_POINT('',(5.4,2.4,9.));
#925=CARTESIAN_POINT('',(10.2,2.4,9.));
#926=CARTESIAN_POINT('',(5.4,0.,9.));
#927=CARTESIAN_POINT('Origin',(8.8,2.4,11.));
#928=CARTESIAN_POINT('',(5.4,2.4,35.5));
#929=CARTESIAN_POINT('Origin',(8.8,-2.4,51.));
#930=CARTESIAN_POINT('',(10.2,-2.4,49.));
#931=CARTESIAN_POINT('',(5.4,-2.4,49.));
#932=CARTESIAN_POINT('',(10.2,-2.4,49.));
#933=CARTESIAN_POINT('',(5.4,-2.4,45.));
#934=CARTESIAN_POINT('',(5.4,-2.4,55.5));
#935=CARTESIAN_POINT('',(12.2,-2.4,45.));
#936=CARTESIAN_POINT('',(5.4,-2.4,45.));
#937=CARTESIAN_POINT('',(12.2,-2.4,57.));
#938=CARTESIAN_POINT('',(12.2,-2.4,45.));
#939=CARTESIAN_POINT('',(10.2,-2.4,57.));
#940=CARTESIAN_POINT('',(12.2,-2.4,57.));
#941=CARTESIAN_POINT('',(10.2,-2.4,57.));
#942=CARTESIAN_POINT('Origin',(12.2,0.,45.));
#943=CARTESIAN_POINT('',(5.4,2.4,45.));
#944=CARTESIAN_POINT('',(5.4,0.,45.));
#945=CARTESIAN_POINT('',(12.2,2.4,45.));
#946=CARTESIAN_POINT('',(5.4,2.4,45.));
#947=CARTESIAN_POINT('',(12.2,0.,45.));
#948=CARTESIAN_POINT('Origin',(12.2,0.,57.));
#949=CARTESIAN_POINT('',(12.2,2.4,57.));
#950=CARTESIAN_POINT('',(12.2,2.4,45.));
#951=CARTESIAN_POINT('',(12.2,0.,57.));
#952=CARTESIAN_POINT('Origin',(10.2,0.,57.));
#953=CARTESIAN_POINT('',(10.2,2.4,57.));
#954=CARTESIAN_POINT('',(12.2,2.4,57.));
#955=CARTESIAN_POINT('',(10.2,0.,57.));
#956=CARTESIAN_POINT('Origin',(10.2,0.,49.));
#957=CARTESIAN_POINT('',(10.2,2.4,49.));
#958=CARTESIAN_POINT('',(10.2,2.4,57.));
#959=CARTESIAN_POINT('',(10.2,0.,49.));
#960=CARTESIAN_POINT('Origin',(5.4,0.,49.));
#961=CARTESIAN_POINT('',(5.4,2.4,49.));
#962=CARTESIAN_POINT('',(10.2,2.4,49.));
#963=CARTESIAN_POINT('',(5.4,0.,49.));
#964=CARTESIAN_POINT('Origin',(8.8,2.4,51.));
#965=CARTESIAN_POINT('',(5.4,2.4,55.5));
#966=CARTESIAN_POINT('Origin',(-4.15,-1.2,24.1));
#967=CARTESIAN_POINT('',(-3.8,-1.2,27.6));
#968=CARTESIAN_POINT('',(0.,-1.2,27.6));
#969=CARTESIAN_POINT('',(-3.8,-1.2,27.6));
#970=CARTESIAN_POINT('',(0.,-1.2,32.6));
#971=CARTESIAN_POINT('',(0.,-1.2,12.05));
#972=CARTESIAN_POINT('',(-8.3,-1.2,32.6));
#973=CARTESIAN_POINT('',(0.,-1.2,32.6));
#974=CARTESIAN_POINT('',(-8.3,-1.2,15.6));
#975=CARTESIAN_POINT('',(-8.3,-1.2,32.6));
#976=CARTESIAN_POINT('',(-5.3,-1.2,15.6));
#977=CARTESIAN_POINT('',(-8.3,-1.2,15.6));
#978=CARTESIAN_POINT('',(-3.8,-1.2,17.1));
#979=CARTESIAN_POINT('',(-5.3,-1.2,15.6));
#980=CARTESIAN_POINT('',(-3.8,-1.2,17.1));
#981=CARTESIAN_POINT('Origin',(-8.3,0.,32.6));
#982=CARTESIAN_POINT('',(0.,1.2,32.6));
#983=CARTESIAN_POINT('',(0.,0.,32.6));
#984=CARTESIAN_POINT('',(-8.3,1.2,32.6));
#985=CARTESIAN_POINT('',(0.,1.2,32.6));
#986=CARTESIAN_POINT('',(-8.3,0.,32.6));
#987=CARTESIAN_POINT('Origin',(-8.3,0.,15.6));
#988=CARTESIAN_POINT('',(-8.3,1.2,15.6));
#989=CARTESIAN_POINT('',(-8.3,1.2,32.6));
#990=CARTESIAN_POINT('',(-8.3,0.,15.6));
#991=CARTESIAN_POINT('Origin',(-5.3,0.,15.6));
#992=CARTESIAN_POINT('',(-5.3,1.2,15.6));
#993=CARTESIAN_POINT('',(-8.3,1.2,15.6));
#994=CARTESIAN_POINT('',(-5.3,0.,15.6));
#995=CARTESIAN_POINT('Origin',(-3.8,0.,17.1));
#996=CARTESIAN_POINT('',(-3.8,1.2,17.1));
#997=CARTESIAN_POINT('',(-5.3,1.2,15.6));
#998=CARTESIAN_POINT('',(-3.8,0.,17.1));
#999=CARTESIAN_POINT('Origin',(-3.8,0.,27.6));
#1000=CARTESIAN_POINT('',(-3.8,1.2,27.6));
#1001=CARTESIAN_POINT('',(-3.8,1.2,17.1));
#1002=CARTESIAN_POINT('',(-3.8,0.,27.6));
#1003=CARTESIAN_POINT('Origin',(0.,0.,27.6));
#1004=CARTESIAN_POINT('',(0.,1.2,27.6));
#1005=CARTESIAN_POINT('',(-3.8,1.2,27.6));
#1006=CARTESIAN_POINT('',(0.,0.,27.6));
#1007=CARTESIAN_POINT('Origin',(-4.15,1.2,24.1));
#1008=CARTESIAN_POINT('',(0.,1.2,12.05));
#1009=CARTESIAN_POINT('Origin',(-4.15,-1.2,49.5));
#1010=CARTESIAN_POINT('',(-3.8,-1.2,53.));
#1011=CARTESIAN_POINT('',(0.,-1.2,53.));
#1012=CARTESIAN_POINT('',(-3.8,-1.2,53.));
#1013=CARTESIAN_POINT('',(0.,-1.2,58.));
#1014=CARTESIAN_POINT('',(0.,-1.2,24.75));
#1015=CARTESIAN_POINT('',(-8.3,-1.2,58.));
#1016=CARTESIAN_POINT('',(0.,-1.2,58.));
#1017=CARTESIAN_POINT('',(-8.3,-1.2,41.));
#1018=CARTESIAN_POINT('',(-8.3,-1.2,58.));
#1019=CARTESIAN_POINT('',(-5.3,-1.2,41.));
#1020=CARTESIAN_POINT('',(-8.3,-1.2,41.));
#1021=CARTESIAN_POINT('',(-3.8,-1.2,42.5));
#1022=CARTESIAN_POINT('',(-5.3,-1.2,41.));
#1023=CARTESIAN_POINT('',(-3.8,-1.2,42.5));
#1024=CARTESIAN_POINT('Origin',(-8.3,0.,58.));
#1025=CARTESIAN_POINT('',(0.,1.2,58.));
#1026=CARTESIAN_POINT('',(0.,0.,58.));
#1027=CARTESIAN_POINT('',(-8.3,1.2,58.));
#1028=CARTESIAN_POINT('',(0.,1.2,58.));
#1029=CARTESIAN_POINT('',(-8.3,0.,58.));
#1030=CARTESIAN_POINT('Origin',(-8.3,0.,41.));
#1031=CARTESIAN_POINT('',(-8.3,1.2,41.));
#1032=CARTESIAN_POINT('',(-8.3,1.2,58.));
#1033=CARTESIAN_POINT('',(-8.3,0.,41.));
#1034=CARTESIAN_POINT('Origin',(-5.3,0.,41.));
#1035=CARTESIAN_POINT('',(-5.3,1.2,41.));
#1036=CARTESIAN_POINT('',(-8.3,1.2,41.));
#1037=CARTESIAN_POINT('',(-5.3,0.,41.));
#1038=CARTESIAN_POINT('Origin',(-3.8,0.,42.5));
#1039=CARTESIAN_POINT('',(-3.8,1.2,42.5));
#1040=CARTESIAN_POINT('',(-5.3,1.2,41.));
#1041=CARTESIAN_POINT('',(-3.8,0.,42.5));
#1042=CARTESIAN_POINT('Origin',(-3.8,0.,53.));
#1043=CARTESIAN_POINT('',(-3.8,1.2,53.));
#1044=CARTESIAN_POINT('',(-3.8,1.2,42.5));
#1045=CARTESIAN_POINT('',(-3.8,0.,53.));
#1046=CARTESIAN_POINT('Origin',(0.,0.,53.));
#1047=CARTESIAN_POINT('',(0.,1.2,53.));
#1048=CARTESIAN_POINT('',(-3.8,1.2,53.));
#1049=CARTESIAN_POINT('',(0.,0.,53.));
#1050=CARTESIAN_POINT('Origin',(-4.15,1.2,49.5));
#1051=CARTESIAN_POINT('',(0.,1.2,24.75));
#1052=CARTESIAN_POINT('Origin',(2.7,-12.,30.));
#1053=CARTESIAN_POINT('',(5.4,-12.,60.));
#1054=CARTESIAN_POINT('',(0.,-12.,60.));
#1055=CARTESIAN_POINT('',(5.4,-12.,60.));
#1056=CARTESIAN_POINT('',(0.,-12.,0.));
#1057=CARTESIAN_POINT('',(0.,-12.,60.));
#1058=CARTESIAN_POINT('',(5.4,-12.,0.));
#1059=CARTESIAN_POINT('',(0.,-12.,0.));
#1060=CARTESIAN_POINT('',(5.4,-12.,0.));
#1061=CARTESIAN_POINT('Origin',(0.,0.,0.));
#1062=CARTESIAN_POINT('',(0.,12.,60.));
#1063=CARTESIAN_POINT('',(0.,0.,60.));
#1064=CARTESIAN_POINT('',(0.,12.,0.));
#1065=CARTESIAN_POINT('',(0.,12.,60.));
#1066=CARTESIAN_POINT('',(0.,0.,0.));
#1067=CARTESIAN_POINT('Origin',(5.4,0.,0.));
#1068=CARTESIAN_POINT('',(5.4,12.,0.));
#1069=CARTESIAN_POINT('',(0.,12.,0.));
#1070=CARTESIAN_POINT('',(5.4,0.,0.));
#1071=CARTESIAN_POINT('Origin',(5.4,0.,60.));
#1072=CARTESIAN_POINT('',(5.4,12.,60.));
#1073=CARTESIAN_POINT('',(5.4,12.,0.));
#1074=CARTESIAN_POINT('',(5.4,0.,60.));
#1075=CARTESIAN_POINT('Origin',(0.,0.,60.));
#1076=CARTESIAN_POINT('',(5.4,12.,60.));
#1077=CARTESIAN_POINT('Origin',(2.7,12.,30.));
#1078=UNCERTAINTY_MEASURE_WITH_UNIT(LENGTH_MEASURE(0.01),#1082,
'DISTANCE_ACCURACY_VALUE',
'Maximum model space distance between geometric entities at asserted c
onnectivities');
#1079=UNCERTAINTY_MEASURE_WITH_UNIT(LENGTH_MEASURE(0.01),#1082,
'DISTANCE_ACCURACY_VALUE',
'Maximum model space distance between geometric entities at asserted c
onnectivities');
#1080=(
GEOMETRIC_REPRESENTATION_CONTEXT(3)
GLOBAL_UNCERTAINTY_ASSIGNED_CONTEXT((#1078))
GLOBAL_UNIT_ASSIGNED_CONTEXT((#1082,#1084,#1085))
REPRESENTATION_CONTEXT('','3D')
);
#1081=(
GEOMETRIC_REPRESENTATION_CONTEXT(3)
GLOBAL_UNCERTAINTY_ASSIGNED_CONTEXT((#1079))
GLOBAL_UNIT_ASSIGNED_CONTEXT((#1082,#1084,#1085))
REPRESENTATION_CONTEXT('','3D')
);
#1082=(
LENGTH_UNIT()
NAMED_UNIT(*)
SI_UNIT(.MILLI.,.METRE.)
);
#1083=(
LENGTH_UNIT()
NAMED_UNIT(*)
SI_UNIT($,.METRE.)
);
#1084=(
NAMED_UNIT(*)
PLANE_ANGLE_UNIT()
SI_UNIT($,.RADIAN.)
);
#1085=(
NAMED_UNIT(*)
SI_UNIT($,.STERADIAN.)
SOLID_ANGLE_UNIT()
);
#1086=SHAPE_DEFINITION_REPRESENTATION(#1087,#1088);
#1087=PRODUCT_DEFINITION_SHAPE('',$,#1090);
#1088=SHAPE_REPRESENTATION('',(#690),#1080);
#1089=PRODUCT_DEFINITION_CONTEXT('part definition',#1094,'design');
#1090=PRODUCT_DEFINITION('2026-09-05-12-52-47-617','(Unsaved)',#1091,#1089);
#1091=PRODUCT_DEFINITION_FORMATION('',$,#1096);
#1092=PRODUCT_RELATED_PRODUCT_CATEGORY('(Unsaved)','(Unsaved)',(#1096));
#1093=APPLICATION_PROTOCOL_DEFINITION('international standard',
'automotive_design',2009,#1094);
#1094=APPLICATION_CONTEXT(
'Core Data for Automotive Mechanical Design Process');
#1095=PRODUCT_CONTEXT('part definition',#1094,'mechanical');
#1096=PRODUCT('2026-09-05-12-52-47-617','(Unsaved)',$,(#1095));
#1097=PRESENTATION_STYLE_ASSIGNMENT((#1098));
#1098=SURFACE_STYLE_USAGE(.BOTH.,#1099);
#1099=SURFACE_SIDE_STYLE('',(#1100));
#1100=SURFACE_STYLE_FILL_AREA(#1101);
#1101=FILL_AREA_STYLE('Steel - Satin',(#1102));
#1102=FILL_AREA_STYLE_COLOUR('Steel - Satin',#1103);
#1103=COLOUR_RGB('Steel - Satin',0.627450980392157,0.627450980392157,0.627450980392157);
ENDSEC;
END-ISO-10303-21;
