ISO-10303-21;
HEADER;
/* Generated by software containing ST-Developer
 * from STEP Tools, Inc. (www.steptools.com) 
 */

FILE_DESCRIPTION(
/* description */ (''),
/* implementation_level */ '2;1');

FILE_NAME(
/* name */ 'skadis_nut_right.step',
/* time_stamp */ '2026-09-06T14:49:46-05:00',
/* author */ (''),
/* organization */ (''),
/* preprocessor_version */ 'ST-DEVELOPER v20.1',
/* originating_system */ 'Autodesk Translation Framework v15.8.0.0',
/* authorisation */ '');

FILE_SCHEMA (('AUTOMOTIVE_DESIGN { 1 0 10303 214 3 1 1 }'));
ENDSEC;

DATA;
#10=MECHANICAL_DESIGN_GEOMETRIC_PRESENTATION_REPRESENTATION('',(#13),#943);
#11=SHAPE_REPRESENTATION_RELATIONSHIP('SRR','None',#950,#12);
#12=ADVANCED_BREP_SHAPE_REPRESENTATION('',(#14),#942);
#13=STYLED_ITEM('',(#959),#14);
#14=MANIFOLD_SOLID_BREP('skadis_nut_right',#591);
#15=FACE_BOUND('',#59,.T.);
#16=FACE_BOUND('',#79,.T.);
#17=FACE_BOUND('',#80,.T.);
#18=FACE_BOUND('',#81,.T.);
#19=FACE_BOUND('',#84,.T.);
#20=FACE_OUTER_BOUND('',#51,.T.);
#21=FACE_OUTER_BOUND('',#52,.T.);
#22=FACE_OUTER_BOUND('',#53,.T.);
#23=FACE_OUTER_BOUND('',#54,.T.);
#24=FACE_OUTER_BOUND('',#55,.T.);
#25=FACE_OUTER_BOUND('',#56,.T.);
#26=FACE_OUTER_BOUND('',#57,.T.);
#27=FACE_OUTER_BOUND('',#58,.T.);
#28=FACE_OUTER_BOUND('',#60,.T.);
#29=FACE_OUTER_BOUND('',#61,.T.);
#30=FACE_OUTER_BOUND('',#62,.T.);
#31=FACE_OUTER_BOUND('',#63,.T.);
#32=FACE_OUTER_BOUND('',#64,.T.);
#33=FACE_OUTER_BOUND('',#65,.T.);
#34=FACE_OUTER_BOUND('',#66,.T.);
#35=FACE_OUTER_BOUND('',#67,.T.);
#36=FACE_OUTER_BOUND('',#68,.T.);
#37=FACE_OUTER_BOUND('',#69,.T.);
#38=FACE_OUTER_BOUND('',#70,.T.);
#39=FACE_OUTER_BOUND('',#71,.T.);
#40=FACE_OUTER_BOUND('',#72,.T.);
#41=FACE_OUTER_BOUND('',#73,.T.);
#42=FACE_OUTER_BOUND('',#74,.T.);
#43=FACE_OUTER_BOUND('',#75,.T.);
#44=FACE_OUTER_BOUND('',#76,.T.);
#45=FACE_OUTER_BOUND('',#77,.T.);
#46=FACE_OUTER_BOUND('',#78,.T.);
#47=FACE_OUTER_BOUND('',#82,.T.);
#48=FACE_OUTER_BOUND('',#83,.T.);
#49=FACE_OUTER_BOUND('',#85,.T.);
#50=FACE_OUTER_BOUND('',#86,.T.);
#51=EDGE_LOOP('',(#373,#374,#375,#376));
#52=EDGE_LOOP('',(#377,#378,#379,#380));
#53=EDGE_LOOP('',(#381,#382,#383,#384));
#54=EDGE_LOOP('',(#385,#386,#387,#388));
#55=EDGE_LOOP('',(#389,#390,#391,#392));
#56=EDGE_LOOP('',(#393,#394,#395,#396));
#57=EDGE_LOOP('',(#397,#398,#399,#400));
#58=EDGE_LOOP('',(#401,#402,#403,#404));
#59=EDGE_LOOP('',(#405,#406,#407,#408));
#60=EDGE_LOOP('',(#409,#410,#411,#412));
#61=EDGE_LOOP('',(#413,#414,#415,#416,#417,#418,#419));
#62=EDGE_LOOP('',(#420,#421,#422,#423));
#63=EDGE_LOOP('',(#424,#425,#426,#427));
#64=EDGE_LOOP('',(#428,#429,#430,#431));
#65=EDGE_LOOP('',(#432,#433,#434,#435));
#66=EDGE_LOOP('',(#436,#437,#438,#439));
#67=EDGE_LOOP('',(#440,#441,#442,#443));
#68=EDGE_LOOP('',(#444,#445,#446,#447,#448,#449,#450));
#69=EDGE_LOOP('',(#451,#452,#453,#454,#455,#456,#457));
#70=EDGE_LOOP('',(#458,#459,#460,#461));
#71=EDGE_LOOP('',(#462,#463,#464,#465));
#72=EDGE_LOOP('',(#466,#467,#468,#469));
#73=EDGE_LOOP('',(#470,#471,#472,#473));
#74=EDGE_LOOP('',(#474,#475,#476,#477));
#75=EDGE_LOOP('',(#478,#479,#480,#481));
#76=EDGE_LOOP('',(#482,#483,#484,#485,#486,#487,#488));
#77=EDGE_LOOP('',(#489,#490,#491,#492));
#78=EDGE_LOOP('',(#493,#494,#495,#496));
#79=EDGE_LOOP('',(#497,#498,#499,#500));
#80=EDGE_LOOP('',(#501,#502,#503,#504));
#81=EDGE_LOOP('',(#505,#506,#507,#508));
#82=EDGE_LOOP('',(#509,#510,#511,#512));
#83=EDGE_LOOP('',(#513,#514,#515,#516));
#84=EDGE_LOOP('',(#517,#518,#519,#520));
#85=EDGE_LOOP('',(#521,#522,#523,#524));
#86=EDGE_LOOP('',(#525,#526,#527,#528));
#87=LINE('',#782,#165);
#88=LINE('',#784,#166);
#89=LINE('',#786,#167);
#90=LINE('',#787,#168);
#91=LINE('',#790,#169);
#92=LINE('',#792,#170);
#93=LINE('',#793,#171);
#94=LINE('',#796,#172);
#95=LINE('',#798,#173);
#96=LINE('',#799,#174);
#97=LINE('',#801,#175);
#98=LINE('',#802,#176);
#99=LINE('',#806,#177);
#100=LINE('',#808,#178);
#101=LINE('',#810,#179);
#102=LINE('',#811,#180);
#103=LINE('',#814,#181);
#104=LINE('',#816,#182);
#105=LINE('',#817,#183);
#106=LINE('',#820,#184);
#107=LINE('',#822,#185);
#108=LINE('',#823,#186);
#109=LINE('',#825,#187);
#110=LINE('',#827,#188);
#111=LINE('',#831,#189);
#112=LINE('',#833,#190);
#113=LINE('',#835,#191);
#114=LINE('',#837,#192);
#115=LINE('',#839,#193);
#116=LINE('',#841,#194);
#117=LINE('',#842,#195);
#118=LINE('',#845,#196);
#119=LINE('',#847,#197);
#120=LINE('',#848,#198);
#121=LINE('',#851,#199);
#122=LINE('',#852,#200);
#123=LINE('',#855,#201);
#124=LINE('',#856,#202);
#125=LINE('',#859,#203);
#126=LINE('',#860,#204);
#127=LINE('',#863,#205);
#128=LINE('',#864,#206);
#129=LINE('',#867,#207);
#130=LINE('',#868,#208);
#131=LINE('',#870,#209);
#132=LINE('',#874,#210);
#133=LINE('',#876,#211);
#134=LINE('',#878,#212);
#135=LINE('',#880,#213);
#136=LINE('',#882,#214);
#137=LINE('',#884,#215);
#138=LINE('',#885,#216);
#139=LINE('',#888,#217);
#140=LINE('',#890,#218);
#141=LINE('',#891,#219);
#142=LINE('',#894,#220);
#143=LINE('',#895,#221);
#144=LINE('',#898,#222);
#145=LINE('',#899,#223);
#146=LINE('',#902,#224);
#147=LINE('',#903,#225);
#148=LINE('',#906,#226);
#149=LINE('',#907,#227);
#150=LINE('',#910,#228);
#151=LINE('',#911,#229);
#152=LINE('',#913,#230);
#153=LINE('',#917,#231);
#154=LINE('',#919,#232);
#155=LINE('',#921,#233);
#156=LINE('',#922,#234);
#157=LINE('',#925,#235);
#158=LINE('',#927,#236);
#159=LINE('',#928,#237);
#160=LINE('',#931,#238);
#161=LINE('',#932,#239);
#162=LINE('',#935,#240);
#163=LINE('',#936,#241);
#164=LINE('',#938,#242);
#165=VECTOR('',#640,10.);
#166=VECTOR('',#641,10.);
#167=VECTOR('',#642,10.);
#168=VECTOR('',#643,10.);
#169=VECTOR('',#646,10.);
#170=VECTOR('',#647,10.);
#171=VECTOR('',#648,10.);
#172=VECTOR('',#651,10.);
#173=VECTOR('',#652,10.);
#174=VECTOR('',#653,10.);
#175=VECTOR('',#656,10.);
#176=VECTOR('',#657,10.);
#177=VECTOR('',#660,10.);
#178=VECTOR('',#661,10.);
#179=VECTOR('',#662,10.);
#180=VECTOR('',#663,10.);
#181=VECTOR('',#666,10.);
#182=VECTOR('',#667,10.);
#183=VECTOR('',#668,10.);
#184=VECTOR('',#671,10.);
#185=VECTOR('',#672,10.);
#186=VECTOR('',#673,10.);
#187=VECTOR('',#676,10.);
#188=VECTOR('',#679,10.);
#189=VECTOR('',#682,10.);
#190=VECTOR('',#683,10.);
#191=VECTOR('',#684,10.);
#192=VECTOR('',#685,10.);
#193=VECTOR('',#686,10.);
#194=VECTOR('',#687,10.);
#195=VECTOR('',#688,10.);
#196=VECTOR('',#691,10.);
#197=VECTOR('',#692,10.);
#198=VECTOR('',#693,10.);
#199=VECTOR('',#696,10.);
#200=VECTOR('',#697,10.);
#201=VECTOR('',#700,10.);
#202=VECTOR('',#701,10.);
#203=VECTOR('',#704,10.);
#204=VECTOR('',#705,10.);
#205=VECTOR('',#708,10.);
#206=VECTOR('',#709,10.);
#207=VECTOR('',#712,10.);
#208=VECTOR('',#713,10.);
#209=VECTOR('',#716,10.);
#210=VECTOR('',#719,10.);
#211=VECTOR('',#720,10.);
#212=VECTOR('',#721,10.);
#213=VECTOR('',#722,10.);
#214=VECTOR('',#723,10.);
#215=VECTOR('',#724,10.);
#216=VECTOR('',#725,10.);
#217=VECTOR('',#728,10.);
#218=VECTOR('',#729,10.);
#219=VECTOR('',#730,10.);
#220=VECTOR('',#733,10.);
#221=VECTOR('',#734,10.);
#222=VECTOR('',#737,10.);
#223=VECTOR('',#738,10.);
#224=VECTOR('',#741,10.);
#225=VECTOR('',#742,10.);
#226=VECTOR('',#745,10.);
#227=VECTOR('',#746,10.);
#228=VECTOR('',#749,10.);
#229=VECTOR('',#750,10.);
#230=VECTOR('',#753,10.);
#231=VECTOR('',#756,10.);
#232=VECTOR('',#757,10.);
#233=VECTOR('',#758,10.);
#234=VECTOR('',#759,10.);
#235=VECTOR('',#762,10.);
#236=VECTOR('',#763,10.);
#237=VECTOR('',#764,10.);
#238=VECTOR('',#767,10.);
#239=VECTOR('',#768,10.);
#240=VECTOR('',#771,10.);
#241=VECTOR('',#772,10.);
#242=VECTOR('',#775,10.);
#243=VERTEX_POINT('',#780);
#244=VERTEX_POINT('',#781);
#245=VERTEX_POINT('',#783);
#246=VERTEX_POINT('',#785);
#247=VERTEX_POINT('',#789);
#248=VERTEX_POINT('',#791);
#249=VERTEX_POINT('',#795);
#250=VERTEX_POINT('',#797);
#251=VERTEX_POINT('',#804);
#252=VERTEX_POINT('',#805);
#253=VERTEX_POINT('',#807);
#254=VERTEX_POINT('',#809);
#255=VERTEX_POINT('',#813);
#256=VERTEX_POINT('',#815);
#257=VERTEX_POINT('',#819);
#258=VERTEX_POINT('',#821);
#259=VERTEX_POINT('',#829);
#260=VERTEX_POINT('',#830);
#261=VERTEX_POINT('',#832);
#262=VERTEX_POINT('',#834);
#263=VERTEX_POINT('',#836);
#264=VERTEX_POINT('',#838);
#265=VERTEX_POINT('',#840);
#266=VERTEX_POINT('',#844);
#267=VERTEX_POINT('',#846);
#268=VERTEX_POINT('',#850);
#269=VERTEX_POINT('',#854);
#270=VERTEX_POINT('',#858);
#271=VERTEX_POINT('',#862);
#272=VERTEX_POINT('',#866);
#273=VERTEX_POINT('',#872);
#274=VERTEX_POINT('',#873);
#275=VERTEX_POINT('',#875);
#276=VERTEX_POINT('',#877);
#277=VERTEX_POINT('',#879);
#278=VERTEX_POINT('',#881);
#279=VERTEX_POINT('',#883);
#280=VERTEX_POINT('',#887);
#281=VERTEX_POINT('',#889);
#282=VERTEX_POINT('',#893);
#283=VERTEX_POINT('',#897);
#284=VERTEX_POINT('',#901);
#285=VERTEX_POINT('',#905);
#286=VERTEX_POINT('',#909);
#287=VERTEX_POINT('',#915);
#288=VERTEX_POINT('',#916);
#289=VERTEX_POINT('',#918);
#290=VERTEX_POINT('',#920);
#291=VERTEX_POINT('',#924);
#292=VERTEX_POINT('',#926);
#293=VERTEX_POINT('',#930);
#294=VERTEX_POINT('',#934);
#295=EDGE_CURVE('',#243,#244,#87,.T.);
#296=EDGE_CURVE('',#245,#243,#88,.T.);
#297=EDGE_CURVE('',#246,#245,#89,.T.);
#298=EDGE_CURVE('',#244,#246,#90,.T.);
#299=EDGE_CURVE('',#244,#247,#91,.T.);
#300=EDGE_CURVE('',#248,#246,#92,.T.);
#301=EDGE_CURVE('',#248,#247,#93,.T.);
#302=EDGE_CURVE('',#247,#249,#94,.T.);
#303=EDGE_CURVE('',#250,#248,#95,.T.);
#304=EDGE_CURVE('',#249,#250,#96,.T.);
#305=EDGE_CURVE('',#249,#243,#97,.T.);
#306=EDGE_CURVE('',#245,#250,#98,.T.);
#307=EDGE_CURVE('',#251,#252,#99,.T.);
#308=EDGE_CURVE('',#253,#251,#100,.T.);
#309=EDGE_CURVE('',#254,#253,#101,.T.);
#310=EDGE_CURVE('',#252,#254,#102,.T.);
#311=EDGE_CURVE('',#252,#255,#103,.T.);
#312=EDGE_CURVE('',#256,#254,#104,.T.);
#313=EDGE_CURVE('',#256,#255,#105,.T.);
#314=EDGE_CURVE('',#255,#257,#106,.T.);
#315=EDGE_CURVE('',#258,#256,#107,.T.);
#316=EDGE_CURVE('',#257,#258,#108,.T.);
#317=EDGE_CURVE('',#253,#258,#109,.T.);
#318=EDGE_CURVE('',#257,#251,#110,.T.);
#319=EDGE_CURVE('',#259,#260,#111,.T.);
#320=EDGE_CURVE('',#261,#260,#112,.T.);
#321=EDGE_CURVE('',#261,#262,#113,.T.);
#322=EDGE_CURVE('',#262,#263,#114,.T.);
#323=EDGE_CURVE('',#263,#264,#115,.T.);
#324=EDGE_CURVE('',#264,#265,#116,.T.);
#325=EDGE_CURVE('',#265,#259,#117,.T.);
#326=EDGE_CURVE('',#266,#261,#118,.T.);
#327=EDGE_CURVE('',#267,#266,#119,.T.);
#328=EDGE_CURVE('',#262,#267,#120,.T.);
#329=EDGE_CURVE('',#268,#267,#121,.T.);
#330=EDGE_CURVE('',#263,#268,#122,.T.);
#331=EDGE_CURVE('',#269,#268,#123,.T.);
#332=EDGE_CURVE('',#264,#269,#124,.T.);
#333=EDGE_CURVE('',#270,#269,#125,.T.);
#334=EDGE_CURVE('',#265,#270,#126,.T.);
#335=EDGE_CURVE('',#271,#270,#127,.T.);
#336=EDGE_CURVE('',#259,#271,#128,.T.);
#337=EDGE_CURVE('',#272,#271,#129,.T.);
#338=EDGE_CURVE('',#260,#272,#130,.T.);
#339=EDGE_CURVE('',#272,#266,#131,.T.);
#340=EDGE_CURVE('',#273,#274,#132,.T.);
#341=EDGE_CURVE('',#275,#274,#133,.T.);
#342=EDGE_CURVE('',#275,#276,#134,.T.);
#343=EDGE_CURVE('',#276,#277,#135,.T.);
#344=EDGE_CURVE('',#277,#278,#136,.T.);
#345=EDGE_CURVE('',#278,#279,#137,.T.);
#346=EDGE_CURVE('',#279,#273,#138,.T.);
#347=EDGE_CURVE('',#280,#275,#139,.T.);
#348=EDGE_CURVE('',#281,#280,#140,.T.);
#349=EDGE_CURVE('',#276,#281,#141,.T.);
#350=EDGE_CURVE('',#282,#281,#142,.T.);
#351=EDGE_CURVE('',#277,#282,#143,.T.);
#352=EDGE_CURVE('',#283,#282,#144,.T.);
#353=EDGE_CURVE('',#278,#283,#145,.T.);
#354=EDGE_CURVE('',#284,#283,#146,.T.);
#355=EDGE_CURVE('',#279,#284,#147,.T.);
#356=EDGE_CURVE('',#285,#284,#148,.T.);
#357=EDGE_CURVE('',#273,#285,#149,.T.);
#358=EDGE_CURVE('',#286,#285,#150,.T.);
#359=EDGE_CURVE('',#274,#286,#151,.T.);
#360=EDGE_CURVE('',#286,#280,#152,.T.);
#361=EDGE_CURVE('',#287,#288,#153,.T.);
#362=EDGE_CURVE('',#288,#289,#154,.T.);
#363=EDGE_CURVE('',#289,#290,#155,.T.);
#364=EDGE_CURVE('',#290,#287,#156,.T.);
#365=EDGE_CURVE('',#291,#288,#157,.T.);
#366=EDGE_CURVE('',#292,#291,#158,.T.);
#367=EDGE_CURVE('',#289,#292,#159,.T.);
#368=EDGE_CURVE('',#293,#292,#160,.T.);
#369=EDGE_CURVE('',#290,#293,#161,.T.);
#370=EDGE_CURVE('',#294,#293,#162,.T.);
#371=EDGE_CURVE('',#287,#294,#163,.T.);
#372=EDGE_CURVE('',#291,#294,#164,.T.);
#373=ORIENTED_EDGE('',*,*,#295,.F.);
#374=ORIENTED_EDGE('',*,*,#296,.F.);
#375=ORIENTED_EDGE('',*,*,#297,.F.);
#376=ORIENTED_EDGE('',*,*,#298,.F.);
#377=ORIENTED_EDGE('',*,*,#299,.F.);
#378=ORIENTED_EDGE('',*,*,#298,.T.);
#379=ORIENTED_EDGE('',*,*,#300,.F.);
#380=ORIENTED_EDGE('',*,*,#301,.T.);
#381=ORIENTED_EDGE('',*,*,#302,.F.);
#382=ORIENTED_EDGE('',*,*,#301,.F.);
#383=ORIENTED_EDGE('',*,*,#303,.F.);
#384=ORIENTED_EDGE('',*,*,#304,.F.);
#385=ORIENTED_EDGE('',*,*,#305,.F.);
#386=ORIENTED_EDGE('',*,*,#304,.T.);
#387=ORIENTED_EDGE('',*,*,#306,.F.);
#388=ORIENTED_EDGE('',*,*,#296,.T.);
#389=ORIENTED_EDGE('',*,*,#307,.F.);
#390=ORIENTED_EDGE('',*,*,#308,.F.);
#391=ORIENTED_EDGE('',*,*,#309,.F.);
#392=ORIENTED_EDGE('',*,*,#310,.F.);
#393=ORIENTED_EDGE('',*,*,#311,.F.);
#394=ORIENTED_EDGE('',*,*,#310,.T.);
#395=ORIENTED_EDGE('',*,*,#312,.F.);
#396=ORIENTED_EDGE('',*,*,#313,.T.);
#397=ORIENTED_EDGE('',*,*,#314,.F.);
#398=ORIENTED_EDGE('',*,*,#313,.F.);
#399=ORIENTED_EDGE('',*,*,#315,.F.);
#400=ORIENTED_EDGE('',*,*,#316,.F.);
#401=ORIENTED_EDGE('',*,*,#317,.T.);
#402=ORIENTED_EDGE('',*,*,#315,.T.);
#403=ORIENTED_EDGE('',*,*,#312,.T.);
#404=ORIENTED_EDGE('',*,*,#309,.T.);
#405=ORIENTED_EDGE('',*,*,#302,.T.);
#406=ORIENTED_EDGE('',*,*,#305,.T.);
#407=ORIENTED_EDGE('',*,*,#295,.T.);
#408=ORIENTED_EDGE('',*,*,#299,.T.);
#409=ORIENTED_EDGE('',*,*,#318,.F.);
#410=ORIENTED_EDGE('',*,*,#316,.T.);
#411=ORIENTED_EDGE('',*,*,#317,.F.);
#412=ORIENTED_EDGE('',*,*,#308,.T.);
#413=ORIENTED_EDGE('',*,*,#319,.T.);
#414=ORIENTED_EDGE('',*,*,#320,.F.);
#415=ORIENTED_EDGE('',*,*,#321,.T.);
#416=ORIENTED_EDGE('',*,*,#322,.T.);
#417=ORIENTED_EDGE('',*,*,#323,.T.);
#418=ORIENTED_EDGE('',*,*,#324,.T.);
#419=ORIENTED_EDGE('',*,*,#325,.T.);
#420=ORIENTED_EDGE('',*,*,#326,.F.);
#421=ORIENTED_EDGE('',*,*,#327,.F.);
#422=ORIENTED_EDGE('',*,*,#328,.F.);
#423=ORIENTED_EDGE('',*,*,#321,.F.);
#424=ORIENTED_EDGE('',*,*,#328,.T.);
#425=ORIENTED_EDGE('',*,*,#329,.F.);
#426=ORIENTED_EDGE('',*,*,#330,.F.);
#427=ORIENTED_EDGE('',*,*,#322,.F.);
#428=ORIENTED_EDGE('',*,*,#330,.T.);
#429=ORIENTED_EDGE('',*,*,#331,.F.);
#430=ORIENTED_EDGE('',*,*,#332,.F.);
#431=ORIENTED_EDGE('',*,*,#323,.F.);
#432=ORIENTED_EDGE('',*,*,#332,.T.);
#433=ORIENTED_EDGE('',*,*,#333,.F.);
#434=ORIENTED_EDGE('',*,*,#334,.F.);
#435=ORIENTED_EDGE('',*,*,#324,.F.);
#436=ORIENTED_EDGE('',*,*,#334,.T.);
#437=ORIENTED_EDGE('',*,*,#335,.F.);
#438=ORIENTED_EDGE('',*,*,#336,.F.);
#439=ORIENTED_EDGE('',*,*,#325,.F.);
#440=ORIENTED_EDGE('',*,*,#336,.T.);
#441=ORIENTED_EDGE('',*,*,#337,.F.);
#442=ORIENTED_EDGE('',*,*,#338,.F.);
#443=ORIENTED_EDGE('',*,*,#319,.F.);
#444=ORIENTED_EDGE('',*,*,#337,.T.);
#445=ORIENTED_EDGE('',*,*,#335,.T.);
#446=ORIENTED_EDGE('',*,*,#333,.T.);
#447=ORIENTED_EDGE('',*,*,#331,.T.);
#448=ORIENTED_EDGE('',*,*,#329,.T.);
#449=ORIENTED_EDGE('',*,*,#327,.T.);
#450=ORIENTED_EDGE('',*,*,#339,.F.);
#451=ORIENTED_EDGE('',*,*,#340,.T.);
#452=ORIENTED_EDGE('',*,*,#341,.F.);
#453=ORIENTED_EDGE('',*,*,#342,.T.);
#454=ORIENTED_EDGE('',*,*,#343,.T.);
#455=ORIENTED_EDGE('',*,*,#344,.T.);
#456=ORIENTED_EDGE('',*,*,#345,.T.);
#457=ORIENTED_EDGE('',*,*,#346,.T.);
#458=ORIENTED_EDGE('',*,*,#347,.F.);
#459=ORIENTED_EDGE('',*,*,#348,.F.);
#460=ORIENTED_EDGE('',*,*,#349,.F.);
#461=ORIENTED_EDGE('',*,*,#342,.F.);
#462=ORIENTED_EDGE('',*,*,#349,.T.);
#463=ORIENTED_EDGE('',*,*,#350,.F.);
#464=ORIENTED_EDGE('',*,*,#351,.F.);
#465=ORIENTED_EDGE('',*,*,#343,.F.);
#466=ORIENTED_EDGE('',*,*,#351,.T.);
#467=ORIENTED_EDGE('',*,*,#352,.F.);
#468=ORIENTED_EDGE('',*,*,#353,.F.);
#469=ORIENTED_EDGE('',*,*,#344,.F.);
#470=ORIENTED_EDGE('',*,*,#353,.T.);
#471=ORIENTED_EDGE('',*,*,#354,.F.);
#472=ORIENTED_EDGE('',*,*,#355,.F.);
#473=ORIENTED_EDGE('',*,*,#345,.F.);
#474=ORIENTED_EDGE('',*,*,#355,.T.);
#475=ORIENTED_EDGE('',*,*,#356,.F.);
#476=ORIENTED_EDGE('',*,*,#357,.F.);
#477=ORIENTED_EDGE('',*,*,#346,.F.);
#478=ORIENTED_EDGE('',*,*,#357,.T.);
#479=ORIENTED_EDGE('',*,*,#358,.F.);
#480=ORIENTED_EDGE('',*,*,#359,.F.);
#481=ORIENTED_EDGE('',*,*,#340,.F.);
#482=ORIENTED_EDGE('',*,*,#358,.T.);
#483=ORIENTED_EDGE('',*,*,#356,.T.);
#484=ORIENTED_EDGE('',*,*,#354,.T.);
#485=ORIENTED_EDGE('',*,*,#352,.T.);
#486=ORIENTED_EDGE('',*,*,#350,.T.);
#487=ORIENTED_EDGE('',*,*,#348,.T.);
#488=ORIENTED_EDGE('',*,*,#360,.F.);
#489=ORIENTED_EDGE('',*,*,#361,.T.);
#490=ORIENTED_EDGE('',*,*,#362,.T.);
#491=ORIENTED_EDGE('',*,*,#363,.T.);
#492=ORIENTED_EDGE('',*,*,#364,.T.);
#493=ORIENTED_EDGE('',*,*,#365,.F.);
#494=ORIENTED_EDGE('',*,*,#366,.F.);
#495=ORIENTED_EDGE('',*,*,#367,.F.);
#496=ORIENTED_EDGE('',*,*,#362,.F.);
#497=ORIENTED_EDGE('',*,*,#303,.T.);
#498=ORIENTED_EDGE('',*,*,#300,.T.);
#499=ORIENTED_EDGE('',*,*,#297,.T.);
#500=ORIENTED_EDGE('',*,*,#306,.T.);
#501=ORIENTED_EDGE('',*,*,#320,.T.);
#502=ORIENTED_EDGE('',*,*,#338,.T.);
#503=ORIENTED_EDGE('',*,*,#339,.T.);
#504=ORIENTED_EDGE('',*,*,#326,.T.);
#505=ORIENTED_EDGE('',*,*,#341,.T.);
#506=ORIENTED_EDGE('',*,*,#359,.T.);
#507=ORIENTED_EDGE('',*,*,#360,.T.);
#508=ORIENTED_EDGE('',*,*,#347,.T.);
#509=ORIENTED_EDGE('',*,*,#367,.T.);
#510=ORIENTED_EDGE('',*,*,#368,.F.);
#511=ORIENTED_EDGE('',*,*,#369,.F.);
#512=ORIENTED_EDGE('',*,*,#363,.F.);
#513=ORIENTED_EDGE('',*,*,#369,.T.);
#514=ORIENTED_EDGE('',*,*,#370,.F.);
#515=ORIENTED_EDGE('',*,*,#371,.F.);
#516=ORIENTED_EDGE('',*,*,#364,.F.);
#517=ORIENTED_EDGE('',*,*,#314,.T.);
#518=ORIENTED_EDGE('',*,*,#318,.T.);
#519=ORIENTED_EDGE('',*,*,#307,.T.);
#520=ORIENTED_EDGE('',*,*,#311,.T.);
#521=ORIENTED_EDGE('',*,*,#371,.T.);
#522=ORIENTED_EDGE('',*,*,#372,.F.);
#523=ORIENTED_EDGE('',*,*,#365,.T.);
#524=ORIENTED_EDGE('',*,*,#361,.F.);
#525=ORIENTED_EDGE('',*,*,#372,.T.);
#526=ORIENTED_EDGE('',*,*,#370,.T.);
#527=ORIENTED_EDGE('',*,*,#368,.T.);
#528=ORIENTED_EDGE('',*,*,#366,.T.);
#529=PLANE('',#605);
#530=PLANE('',#606);
#531=PLANE('',#607);
#532=PLANE('',#608);
#533=PLANE('',#609);
#534=PLANE('',#610);
#535=PLANE('',#611);
#536=PLANE('',#612);
#537=PLANE('',#613);
#538=PLANE('',#614);
#539=PLANE('',#615);
#540=PLANE('',#616);
#541=PLANE('',#617);
#542=PLANE('',#618);
#543=PLANE('',#619);
#544=PLANE('',#620);
#545=PLANE('',#621);
#546=PLANE('',#622);
#547=PLANE('',#623);
#548=PLANE('',#624);
#549=PLANE('',#625);
#550=PLANE('',#626);
#551=PLANE('',#627);
#552=PLANE('',#628);
#553=PLANE('',#629);
#554=PLANE('',#630);
#555=PLANE('',#631);
#556=PLANE('',#632);
#557=PLANE('',#633);
#558=PLANE('',#634);
#559=PLANE('',#635);
#560=ADVANCED_FACE('',(#20),#529,.F.);
#561=ADVANCED_FACE('',(#21),#530,.F.);
#562=ADVANCED_FACE('',(#22),#531,.F.);
#563=ADVANCED_FACE('',(#23),#532,.F.);
#564=ADVANCED_FACE('',(#24),#533,.F.);
#565=ADVANCED_FACE('',(#25),#534,.F.);
#566=ADVANCED_FACE('',(#26),#535,.F.);
#567=ADVANCED_FACE('',(#27,#15),#536,.F.);
#568=ADVANCED_FACE('',(#28),#537,.F.);
#569=ADVANCED_FACE('',(#29),#538,.T.);
#570=ADVANCED_FACE('',(#30),#539,.T.);
#571=ADVANCED_FACE('',(#31),#540,.T.);
#572=ADVANCED_FACE('',(#32),#541,.T.);
#573=ADVANCED_FACE('',(#33),#542,.T.);
#574=ADVANCED_FACE('',(#34),#543,.T.);
#575=ADVANCED_FACE('',(#35),#544,.T.);
#576=ADVANCED_FACE('',(#36),#545,.T.);
#577=ADVANCED_FACE('',(#37),#546,.T.);
#578=ADVANCED_FACE('',(#38),#547,.T.);
#579=ADVANCED_FACE('',(#39),#548,.T.);
#580=ADVANCED_FACE('',(#40),#549,.T.);
#581=ADVANCED_FACE('',(#41),#550,.T.);
#582=ADVANCED_FACE('',(#42),#551,.T.);
#583=ADVANCED_FACE('',(#43),#552,.T.);
#584=ADVANCED_FACE('',(#44),#553,.T.);
#585=ADVANCED_FACE('',(#45),#554,.T.);
#586=ADVANCED_FACE('',(#46,#16,#17,#18),#555,.T.);
#587=ADVANCED_FACE('',(#47),#556,.T.);
#588=ADVANCED_FACE('',(#48,#19),#557,.T.);
#589=ADVANCED_FACE('',(#49),#558,.T.);
#590=ADVANCED_FACE('',(#50),#559,.T.);
#591=CLOSED_SHELL('',(#560,#561,#562,#563,#564,#565,#566,#567,#568,#569,
#570,#571,#572,#573,#574,#575,#576,#577,#578,#579,#580,#581,#582,#583,#584,
#585,#586,#587,#588,#589,#590));
#592=DERIVED_UNIT_ELEMENT(#594,1.);
#593=DERIVED_UNIT_ELEMENT(#945,-3.);
#594=(
MASS_UNIT()
NAMED_UNIT(*)
SI_UNIT(.KILO.,.GRAM.)
);
#595=DERIVED_UNIT((#592,#593));
#596=MEASURE_REPRESENTATION_ITEM('density measure',
POSITIVE_RATIO_MEASURE(7850.),#595);
#597=PROPERTY_DEFINITION_REPRESENTATION(#602,#599);
#598=PROPERTY_DEFINITION_REPRESENTATION(#603,#600);
#599=REPRESENTATION('material name',(#601),#942);
#600=REPRESENTATION('density',(#596),#942);
#601=DESCRIPTIVE_REPRESENTATION_ITEM('Steel','Steel');
#602=PROPERTY_DEFINITION('material property','material name',#952);
#603=PROPERTY_DEFINITION('material property','density of part',#952);
#604=AXIS2_PLACEMENT_3D('',#778,#636,#637);
#605=AXIS2_PLACEMENT_3D('',#779,#638,#639);
#606=AXIS2_PLACEMENT_3D('',#788,#644,#645);
#607=AXIS2_PLACEMENT_3D('',#794,#649,#650);
#608=AXIS2_PLACEMENT_3D('',#800,#654,#655);
#609=AXIS2_PLACEMENT_3D('',#803,#658,#659);
#610=AXIS2_PLACEMENT_3D('',#812,#664,#665);
#611=AXIS2_PLACEMENT_3D('',#818,#669,#670);
#612=AXIS2_PLACEMENT_3D('',#824,#674,#675);
#613=AXIS2_PLACEMENT_3D('',#826,#677,#678);
#614=AXIS2_PLACEMENT_3D('',#828,#680,#681);
#615=AXIS2_PLACEMENT_3D('',#843,#689,#690);
#616=AXIS2_PLACEMENT_3D('',#849,#694,#695);
#617=AXIS2_PLACEMENT_3D('',#853,#698,#699);
#618=AXIS2_PLACEMENT_3D('',#857,#702,#703);
#619=AXIS2_PLACEMENT_3D('',#861,#706,#707);
#620=AXIS2_PLACEMENT_3D('',#865,#710,#711);
#621=AXIS2_PLACEMENT_3D('',#869,#714,#715);
#622=AXIS2_PLACEMENT_3D('',#871,#717,#718);
#623=AXIS2_PLACEMENT_3D('',#886,#726,#727);
#624=AXIS2_PLACEMENT_3D('',#892,#731,#732);
#625=AXIS2_PLACEMENT_3D('',#896,#735,#736);
#626=AXIS2_PLACEMENT_3D('',#900,#739,#740);
#627=AXIS2_PLACEMENT_3D('',#904,#743,#744);
#628=AXIS2_PLACEMENT_3D('',#908,#747,#748);
#629=AXIS2_PLACEMENT_3D('',#912,#751,#752);
#630=AXIS2_PLACEMENT_3D('',#914,#754,#755);
#631=AXIS2_PLACEMENT_3D('',#923,#760,#761);
#632=AXIS2_PLACEMENT_3D('',#929,#765,#766);
#633=AXIS2_PLACEMENT_3D('',#933,#769,#770);
#634=AXIS2_PLACEMENT_3D('',#937,#773,#774);
#635=AXIS2_PLACEMENT_3D('',#939,#776,#777);
#636=DIRECTION('axis',(0.,0.,1.));
#637=DIRECTION('refdir',(1.,0.,0.));
#638=DIRECTION('center_axis',(0.,1.,0.));
#639=DIRECTION('ref_axis',(0.,0.,1.));
#640=DIRECTION('',(0.,0.,-1.));
#641=DIRECTION('',(1.,0.,0.));
#642=DIRECTION('',(0.,0.,1.));
#643=DIRECTION('',(-1.,0.,0.));
#644=DIRECTION('center_axis',(0.,0.,-1.));
#645=DIRECTION('ref_axis',(-1.,0.,0.));
#646=DIRECTION('',(0.,-1.,0.));
#647=DIRECTION('',(0.,1.,0.));
#648=DIRECTION('',(1.,0.,0.));
#649=DIRECTION('center_axis',(0.,-1.,0.));
#650=DIRECTION('ref_axis',(0.,0.,-1.));
#651=DIRECTION('',(0.,0.,1.));
#652=DIRECTION('',(0.,0.,-1.));
#653=DIRECTION('',(-1.,0.,0.));
#654=DIRECTION('center_axis',(0.,0.,1.));
#655=DIRECTION('ref_axis',(1.,0.,0.));
#656=DIRECTION('',(0.,1.,0.));
#657=DIRECTION('',(0.,-1.,0.));
#658=DIRECTION('center_axis',(0.,1.,0.));
#659=DIRECTION('ref_axis',(0.,0.,1.));
#660=DIRECTION('',(0.,0.,-1.));
#661=DIRECTION('',(1.,0.,0.));
#662=DIRECTION('',(0.,0.,1.));
#663=DIRECTION('',(-1.,0.,0.));
#664=DIRECTION('center_axis',(0.,0.,-1.));
#665=DIRECTION('ref_axis',(-1.,0.,0.));
#666=DIRECTION('',(0.,-1.,0.));
#667=DIRECTION('',(0.,1.,0.));
#668=DIRECTION('',(1.,0.,0.));
#669=DIRECTION('center_axis',(0.,-1.,0.));
#670=DIRECTION('ref_axis',(0.,0.,-1.));
#671=DIRECTION('',(0.,0.,1.));
#672=DIRECTION('',(0.,0.,-1.));
#673=DIRECTION('',(-1.,0.,0.));
#674=DIRECTION('center_axis',(-1.,0.,0.));
#675=DIRECTION('ref_axis',(0.,0.,1.));
#676=DIRECTION('',(0.,-1.,0.));
#677=DIRECTION('center_axis',(0.,0.,1.));
#678=DIRECTION('ref_axis',(1.,0.,0.));
#679=DIRECTION('',(0.,1.,0.));
#680=DIRECTION('center_axis',(0.,-1.,0.));
#681=DIRECTION('ref_axis',(0.,0.,-1.));
#682=DIRECTION('',(1.,0.,0.));
#683=DIRECTION('',(0.,0.,-1.));
#684=DIRECTION('',(-1.,0.,0.));
#685=DIRECTION('',(0.,0.,-1.));
#686=DIRECTION('',(1.,0.,0.));
#687=DIRECTION('',(0.707106781186548,0.,0.707106781186547));
#688=DIRECTION('',(0.,0.,1.));
#689=DIRECTION('center_axis',(0.,0.,1.));
#690=DIRECTION('ref_axis',(1.,0.,0.));
#691=DIRECTION('',(0.,-1.,0.));
#692=DIRECTION('',(1.,0.,0.));
#693=DIRECTION('',(0.,1.,0.));
#694=DIRECTION('center_axis',(-1.,0.,0.));
#695=DIRECTION('ref_axis',(0.,0.,1.));
#696=DIRECTION('',(0.,0.,1.));
#697=DIRECTION('',(0.,1.,0.));
#698=DIRECTION('center_axis',(0.,0.,-1.));
#699=DIRECTION('ref_axis',(-1.,0.,0.));
#700=DIRECTION('',(-1.,0.,0.));
#701=DIRECTION('',(0.,1.,0.));
#702=DIRECTION('center_axis',(0.707106781186547,0.,-0.707106781186548));
#703=DIRECTION('ref_axis',(-0.707106781186548,0.,-0.707106781186547));
#704=DIRECTION('',(-0.707106781186548,0.,-0.707106781186547));
#705=DIRECTION('',(0.,1.,0.));
#706=DIRECTION('center_axis',(1.,0.,0.));
#707=DIRECTION('ref_axis',(0.,0.,-1.));
#708=DIRECTION('',(0.,0.,-1.));
#709=DIRECTION('',(0.,1.,0.));
#710=DIRECTION('center_axis',(0.,0.,-1.));
#711=DIRECTION('ref_axis',(-1.,0.,0.));
#712=DIRECTION('',(-1.,0.,0.));
#713=DIRECTION('',(0.,1.,0.));
#714=DIRECTION('center_axis',(0.,1.,0.));
#715=DIRECTION('ref_axis',(0.,0.,1.));
#716=DIRECTION('',(0.,0.,1.));
#717=DIRECTION('center_axis',(0.,-1.,0.));
#718=DIRECTION('ref_axis',(0.,0.,-1.));
#719=DIRECTION('',(1.,0.,0.));
#720=DIRECTION('',(0.,0.,-1.));
#721=DIRECTION('',(-1.,0.,0.));
#722=DIRECTION('',(0.,0.,-1.));
#723=DIRECTION('',(1.,0.,0.));
#724=DIRECTION('',(0.707106781186548,0.,0.707106781186547));
#725=DIRECTION('',(0.,0.,1.));
#726=DIRECTION('center_axis',(0.,0.,1.));
#727=DIRECTION('ref_axis',(1.,0.,0.));
#728=DIRECTION('',(0.,-1.,0.));
#729=DIRECTION('',(1.,0.,0.));
#730=DIRECTION('',(0.,1.,0.));
#731=DIRECTION('center_axis',(-1.,0.,0.));
#732=DIRECTION('ref_axis',(0.,0.,1.));
#733=DIRECTION('',(0.,0.,1.));
#734=DIRECTION('',(0.,1.,0.));
#735=DIRECTION('center_axis',(0.,0.,-1.));
#736=DIRECTION('ref_axis',(-1.,0.,0.));
#737=DIRECTION('',(-1.,0.,0.));
#738=DIRECTION('',(0.,1.,0.));
#739=DIRECTION('center_axis',(0.707106781186547,0.,-0.707106781186548));
#740=DIRECTION('ref_axis',(-0.707106781186548,0.,-0.707106781186547));
#741=DIRECTION('',(-0.707106781186548,0.,-0.707106781186547));
#742=DIRECTION('',(0.,1.,0.));
#743=DIRECTION('center_axis',(1.,0.,0.));
#744=DIRECTION('ref_axis',(0.,0.,-1.));
#745=DIRECTION('',(0.,0.,-1.));
#746=DIRECTION('',(0.,1.,0.));
#747=DIRECTION('center_axis',(0.,0.,-1.));
#748=DIRECTION('ref_axis',(-1.,0.,0.));
#749=DIRECTION('',(-1.,0.,0.));
#750=DIRECTION('',(0.,1.,0.));
#751=DIRECTION('center_axis',(0.,1.,0.));
#752=DIRECTION('ref_axis',(0.,0.,1.));
#753=DIRECTION('',(0.,0.,1.));
#754=DIRECTION('center_axis',(0.,-1.,0.));
#755=DIRECTION('ref_axis',(0.,0.,-1.));
#756=DIRECTION('',(-1.,0.,0.));
#757=DIRECTION('',(0.,0.,-1.));
#758=DIRECTION('',(1.,0.,0.));
#759=DIRECTION('',(0.,0.,1.));
#760=DIRECTION('center_axis',(-1.,0.,0.));
#761=DIRECTION('ref_axis',(0.,0.,1.));
#762=DIRECTION('',(0.,-1.,0.));
#763=DIRECTION('',(0.,0.,1.));
#764=DIRECTION('',(0.,1.,0.));
#765=DIRECTION('center_axis',(0.,0.,-1.));
#766=DIRECTION('ref_axis',(-1.,0.,0.));
#767=DIRECTION('',(-1.,0.,0.));
#768=DIRECTION('',(0.,1.,0.));
#769=DIRECTION('center_axis',(1.,0.,0.));
#770=DIRECTION('ref_axis',(0.,0.,-1.));
#771=DIRECTION('',(0.,0.,-1.));
#772=DIRECTION('',(0.,1.,0.));
#773=DIRECTION('center_axis',(0.,0.,1.));
#774=DIRECTION('ref_axis',(1.,0.,0.));
#775=DIRECTION('',(1.,0.,0.));
#776=DIRECTION('center_axis',(0.,1.,0.));
#777=DIRECTION('ref_axis',(0.,0.,1.));
#778=CARTESIAN_POINT('',(0.,0.,0.));
#779=CARTESIAN_POINT('Origin',(5.5,0.880000000000001,24.));
#780=CARTESIAN_POINT('',(9.,0.880000000000001,26.4));
#781=CARTESIAN_POINT('',(9.,0.880000000000001,21.6));
#782=CARTESIAN_POINT('',(9.,0.880000000000001,22.15));
#783=CARTESIAN_POINT('',(0.,0.880000000000001,26.4));
#784=CARTESIAN_POINT('',(12.,0.880000000000001,26.4));
#785=CARTESIAN_POINT('',(0.,0.880000000000001,21.6));
#786=CARTESIAN_POINT('',(0.,0.880000000000001,12.));
#787=CARTESIAN_POINT('',(-1.,0.880000000000001,21.6));
#788=CARTESIAN_POINT('Origin',(12.,-7.52,21.6));
#789=CARTESIAN_POINT('',(9.,-15.92,21.6));
#790=CARTESIAN_POINT('',(9.,-7.52,21.6));
#791=CARTESIAN_POINT('',(0.,-15.92,21.6));
#792=CARTESIAN_POINT('',(0.,-6.01,21.6));
#793=CARTESIAN_POINT('',(-1.,-15.92,21.6));
#794=CARTESIAN_POINT('Origin',(5.5,-15.92,24.));
#795=CARTESIAN_POINT('',(9.,-15.92,26.4));
#796=CARTESIAN_POINT('',(9.,-15.92,22.15));
#797=CARTESIAN_POINT('',(0.,-15.92,26.4));
#798=CARTESIAN_POINT('',(0.,-15.92,12.));
#799=CARTESIAN_POINT('',(12.,-15.92,26.4));
#800=CARTESIAN_POINT('Origin',(-1.,-7.52,26.4));
#801=CARTESIAN_POINT('',(9.,-7.52,26.4));
#802=CARTESIAN_POINT('',(0.,-6.01,26.4));
#803=CARTESIAN_POINT('Origin',(10.5,2.18,24.));
#804=CARTESIAN_POINT('',(11.,2.18,27.7));
#805=CARTESIAN_POINT('',(11.,2.18,20.3));
#806=CARTESIAN_POINT('',(11.,2.18,36.));
#807=CARTESIAN_POINT('',(9.,2.18,27.7));
#808=CARTESIAN_POINT('',(12.,2.18,27.7));
#809=CARTESIAN_POINT('',(9.,2.18,20.3));
#810=CARTESIAN_POINT('',(9.,2.18,27.7));
#811=CARTESIAN_POINT('',(9.,2.18,20.3));
#812=CARTESIAN_POINT('Origin',(12.,-7.52,20.3));
#813=CARTESIAN_POINT('',(11.,-17.22,20.3));
#814=CARTESIAN_POINT('',(11.,-6.01,20.3));
#815=CARTESIAN_POINT('',(9.,-17.22,20.3));
#816=CARTESIAN_POINT('',(9.,-7.52,20.3));
#817=CARTESIAN_POINT('',(9.,-17.22,20.3));
#818=CARTESIAN_POINT('Origin',(10.5,-17.22,24.));
#819=CARTESIAN_POINT('',(11.,-17.22,27.7));
#820=CARTESIAN_POINT('',(11.,-17.22,36.));
#821=CARTESIAN_POINT('',(9.,-17.22,27.7));
#822=CARTESIAN_POINT('',(9.,-17.22,27.7));
#823=CARTESIAN_POINT('',(12.,-17.22,27.7));
#824=CARTESIAN_POINT('Origin',(9.,-7.52,20.3));
#825=CARTESIAN_POINT('',(9.,-7.52,27.7));
#826=CARTESIAN_POINT('Origin',(9.,-7.52,27.7));
#827=CARTESIAN_POINT('',(11.,-6.01,27.7));
#828=CARTESIAN_POINT('Origin',(-4.15,-1.2,12.1));
#829=CARTESIAN_POINT('',(-3.8,-1.2,15.6));
#830=CARTESIAN_POINT('',(0.,-1.2,15.6));
#831=CARTESIAN_POINT('',(-3.8,-1.2,15.6));
#832=CARTESIAN_POINT('',(0.,-1.2,20.6));
#833=CARTESIAN_POINT('',(0.,-1.2,6.05));
#834=CARTESIAN_POINT('',(-8.3,-1.2,20.6));
#835=CARTESIAN_POINT('',(0.,-1.2,20.6));
#836=CARTESIAN_POINT('',(-8.3,-1.2,3.6));
#837=CARTESIAN_POINT('',(-8.3,-1.2,20.6));
#838=CARTESIAN_POINT('',(-5.3,-1.2,3.6));
#839=CARTESIAN_POINT('',(-8.3,-1.2,3.6));
#840=CARTESIAN_POINT('',(-3.8,-1.2,5.1));
#841=CARTESIAN_POINT('',(-5.3,-1.2,3.6));
#842=CARTESIAN_POINT('',(-3.8,-1.2,5.1));
#843=CARTESIAN_POINT('Origin',(-8.3,0.,20.6));
#844=CARTESIAN_POINT('',(0.,1.2,20.6));
#845=CARTESIAN_POINT('',(0.,-2.25,20.6));
#846=CARTESIAN_POINT('',(-8.3,1.2,20.6));
#847=CARTESIAN_POINT('',(0.,1.2,20.6));
#848=CARTESIAN_POINT('',(-8.3,0.,20.6));
#849=CARTESIAN_POINT('Origin',(-8.3,0.,3.6));
#850=CARTESIAN_POINT('',(-8.3,1.2,3.6));
#851=CARTESIAN_POINT('',(-8.3,1.2,20.6));
#852=CARTESIAN_POINT('',(-8.3,0.,3.6));
#853=CARTESIAN_POINT('Origin',(-5.3,0.,3.6));
#854=CARTESIAN_POINT('',(-5.3,1.2,3.6));
#855=CARTESIAN_POINT('',(-8.3,1.2,3.6));
#856=CARTESIAN_POINT('',(-5.3,0.,3.6));
#857=CARTESIAN_POINT('Origin',(-3.8,0.,5.1));
#858=CARTESIAN_POINT('',(-3.8,1.2,5.1));
#859=CARTESIAN_POINT('',(-5.3,1.2,3.6));
#860=CARTESIAN_POINT('',(-3.8,0.,5.1));
#861=CARTESIAN_POINT('Origin',(-3.8,0.,15.6));
#862=CARTESIAN_POINT('',(-3.8,1.2,15.6));
#863=CARTESIAN_POINT('',(-3.8,1.2,5.1));
#864=CARTESIAN_POINT('',(-3.8,0.,15.6));
#865=CARTESIAN_POINT('Origin',(0.,0.,15.6));
#866=CARTESIAN_POINT('',(0.,1.2,15.6));
#867=CARTESIAN_POINT('',(-3.8,1.2,15.6));
#868=CARTESIAN_POINT('',(0.,-2.25,15.6));
#869=CARTESIAN_POINT('Origin',(-4.15,1.2,12.1));
#870=CARTESIAN_POINT('',(0.,1.2,6.05));
#871=CARTESIAN_POINT('Origin',(-4.15,-1.2,37.5));
#872=CARTESIAN_POINT('',(-3.8,-1.2,41.));
#873=CARTESIAN_POINT('',(0.,-1.2,41.));
#874=CARTESIAN_POINT('',(-3.8,-1.2,41.));
#875=CARTESIAN_POINT('',(0.,-1.2,46.));
#876=CARTESIAN_POINT('',(0.,-1.2,18.75));
#877=CARTESIAN_POINT('',(-8.3,-1.2,46.));
#878=CARTESIAN_POINT('',(0.,-1.2,46.));
#879=CARTESIAN_POINT('',(-8.3,-1.2,29.));
#880=CARTESIAN_POINT('',(-8.3,-1.2,46.));
#881=CARTESIAN_POINT('',(-5.3,-1.2,29.));
#882=CARTESIAN_POINT('',(-8.3,-1.2,29.));
#883=CARTESIAN_POINT('',(-3.8,-1.2,30.5));
#884=CARTESIAN_POINT('',(-5.3,-1.2,29.));
#885=CARTESIAN_POINT('',(-3.8,-1.2,30.5));
#886=CARTESIAN_POINT('Origin',(-8.3,0.,46.));
#887=CARTESIAN_POINT('',(0.,1.2,46.));
#888=CARTESIAN_POINT('',(0.,-2.25,46.));
#889=CARTESIAN_POINT('',(-8.3,1.2,46.));
#890=CARTESIAN_POINT('',(0.,1.2,46.));
#891=CARTESIAN_POINT('',(-8.3,0.,46.));
#892=CARTESIAN_POINT('Origin',(-8.3,0.,29.));
#893=CARTESIAN_POINT('',(-8.3,1.2,29.));
#894=CARTESIAN_POINT('',(-8.3,1.2,46.));
#895=CARTESIAN_POINT('',(-8.3,0.,29.));
#896=CARTESIAN_POINT('Origin',(-5.3,0.,29.));
#897=CARTESIAN_POINT('',(-5.3,1.2,29.));
#898=CARTESIAN_POINT('',(-8.3,1.2,29.));
#899=CARTESIAN_POINT('',(-5.3,0.,29.));
#900=CARTESIAN_POINT('Origin',(-3.8,0.,30.5));
#901=CARTESIAN_POINT('',(-3.8,1.2,30.5));
#902=CARTESIAN_POINT('',(-5.3,1.2,29.));
#903=CARTESIAN_POINT('',(-3.8,0.,30.5));
#904=CARTESIAN_POINT('Origin',(-3.8,0.,41.));
#905=CARTESIAN_POINT('',(-3.8,1.2,41.));
#906=CARTESIAN_POINT('',(-3.8,1.2,30.5));
#907=CARTESIAN_POINT('',(-3.8,0.,41.));
#908=CARTESIAN_POINT('Origin',(0.,0.,41.));
#909=CARTESIAN_POINT('',(0.,1.2,41.));
#910=CARTESIAN_POINT('',(-3.8,1.2,41.));
#911=CARTESIAN_POINT('',(0.,-2.25,41.));
#912=CARTESIAN_POINT('Origin',(-4.15,1.2,37.5));
#913=CARTESIAN_POINT('',(0.,1.2,18.75));
#914=CARTESIAN_POINT('Origin',(5.5,-21.,24.));
#915=CARTESIAN_POINT('',(11.,-21.,48.));
#916=CARTESIAN_POINT('',(0.,-21.,48.));
#917=CARTESIAN_POINT('',(11.,-21.,48.));
#918=CARTESIAN_POINT('',(0.,-21.,0.));
#919=CARTESIAN_POINT('',(0.,-21.,48.));
#920=CARTESIAN_POINT('',(11.,-21.,0.));
#921=CARTESIAN_POINT('',(0.,-21.,0.));
#922=CARTESIAN_POINT('',(11.,-21.,0.));
#923=CARTESIAN_POINT('Origin',(0.,-4.5,0.));
#924=CARTESIAN_POINT('',(0.,12.,48.));
#925=CARTESIAN_POINT('',(0.,-4.5,48.));
#926=CARTESIAN_POINT('',(0.,12.,0.));
#927=CARTESIAN_POINT('',(0.,12.,48.));
#928=CARTESIAN_POINT('',(0.,-4.5,0.));
#929=CARTESIAN_POINT('Origin',(11.,-4.5,0.));
#930=CARTESIAN_POINT('',(11.,12.,0.));
#931=CARTESIAN_POINT('',(0.,12.,0.));
#932=CARTESIAN_POINT('',(11.,-4.5,0.));
#933=CARTESIAN_POINT('Origin',(11.,-4.5,48.));
#934=CARTESIAN_POINT('',(11.,12.,48.));
#935=CARTESIAN_POINT('',(11.,12.,0.));
#936=CARTESIAN_POINT('',(11.,-4.5,48.));
#937=CARTESIAN_POINT('Origin',(0.,-4.5,48.));
#938=CARTESIAN_POINT('',(11.,12.,48.));
#939=CARTESIAN_POINT('Origin',(5.5,12.,24.));
#940=UNCERTAINTY_MEASURE_WITH_UNIT(LENGTH_MEASURE(0.01),#944,
'DISTANCE_ACCURACY_VALUE',
'Maximum model space distance between geometric entities at asserted c
onnectivities');
#941=UNCERTAINTY_MEASURE_WITH_UNIT(LENGTH_MEASURE(0.01),#944,
'DISTANCE_ACCURACY_VALUE',
'Maximum model space distance between geometric entities at asserted c
onnectivities');
#942=(
GEOMETRIC_REPRESENTATION_CONTEXT(3)
GLOBAL_UNCERTAINTY_ASSIGNED_CONTEXT((#940))
GLOBAL_UNIT_ASSIGNED_CONTEXT((#944,#946,#947))
REPRESENTATION_CONTEXT('','3D')
);
#943=(
GEOMETRIC_REPRESENTATION_CONTEXT(3)
GLOBAL_UNCERTAINTY_ASSIGNED_CONTEXT((#941))
GLOBAL_UNIT_ASSIGNED_CONTEXT((#944,#946,#947))
REPRESENTATION_CONTEXT('','3D')
);
#944=(
LENGTH_UNIT()
NAMED_UNIT(*)
SI_UNIT(.MILLI.,.METRE.)
);
#945=(
LENGTH_UNIT()
NAMED_UNIT(*)
SI_UNIT($,.METRE.)
);
#946=(
NAMED_UNIT(*)
PLANE_ANGLE_UNIT()
SI_UNIT($,.RADIAN.)
);
#947=(
NAMED_UNIT(*)
SI_UNIT($,.STERADIAN.)
SOLID_ANGLE_UNIT()
);
#948=SHAPE_DEFINITION_REPRESENTATION(#949,#950);
#949=PRODUCT_DEFINITION_SHAPE('',$,#952);
#950=SHAPE_REPRESENTATION('',(#604),#942);
#951=PRODUCT_DEFINITION_CONTEXT('part definition',#956,'design');
#952=PRODUCT_DEFINITION('2026-09-06-14-40-23-923',
'SKADIS Nut Bracket Right',#953,#951);
#953=PRODUCT_DEFINITION_FORMATION('',$,#958);
#954=PRODUCT_RELATED_PRODUCT_CATEGORY('SKADIS Nut Bracket Right',
'SKADIS Nut Bracket Right',(#958));
#955=APPLICATION_PROTOCOL_DEFINITION('international standard',
'automotive_design',2009,#956);
#956=APPLICATION_CONTEXT(
'Core Data for Automotive Mechanical Design Process');
#957=PRODUCT_CONTEXT('part definition',#956,'mechanical');
#958=PRODUCT('2026-09-06-14-40-23-923','SKADIS Nut Bracket Right',$,(#957));
#959=PRESENTATION_STYLE_ASSIGNMENT((#960));
#960=SURFACE_STYLE_USAGE(.BOTH.,#961);
#961=SURFACE_SIDE_STYLE('',(#962));
#962=SURFACE_STYLE_FILL_AREA(#963);
#963=FILL_AREA_STYLE('Steel - Satin',(#964));
#964=FILL_AREA_STYLE_COLOUR('Steel - Satin',#965);
#965=COLOUR_RGB('Steel - Satin',0.627450980392157,0.627450980392157,0.627450980392157);
ENDSEC;
END-ISO-10303-21;
