ISO-10303-21;
HEADER;
/* Generated by software containing ST-Developer
 * from STEP Tools, Inc. (www.steptools.com) 
 */

FILE_DESCRIPTION(
/* description */ (''),
/* implementation_level */ '2;1');

FILE_NAME(
/* name */ 'skadis_nut_coupon.step',
/* time_stamp */ '2026-09-07T10:57:01-05:00',
/* author */ (''),
/* organization */ (''),
/* preprocessor_version */ 'ST-DEVELOPER v20.1',
/* originating_system */ 'Autodesk Translation Framework v15.8.0.0',
/* authorisation */ '');

FILE_SCHEMA (('AUTOMOTIVE_DESIGN { 1 0 10303 214 3 1 1 }'));
ENDSEC;

DATA;
#10=MECHANICAL_DESIGN_GEOMETRIC_PRESENTATION_REPRESENTATION('',(#13),#744);
#11=SHAPE_REPRESENTATION_RELATIONSHIP('SRR','None',#751,#12);
#12=ADVANCED_BREP_SHAPE_REPRESENTATION('',(#14),#743);
#13=STYLED_ITEM('',(#760),#14);
#14=MANIFOLD_SOLID_BREP('skadis_nut_coupon',#466);
#15=FACE_BOUND('',#49,.T.);
#16=FACE_BOUND('',#52,.T.);
#17=FACE_BOUND('',#55,.T.);
#18=FACE_BOUND('',#68,.T.);
#19=FACE_BOUND('',#71,.T.);
#20=FACE_OUTER_BOUND('',#44,.T.);
#21=FACE_OUTER_BOUND('',#45,.T.);
#22=FACE_OUTER_BOUND('',#46,.T.);
#23=FACE_OUTER_BOUND('',#47,.T.);
#24=FACE_OUTER_BOUND('',#48,.T.);
#25=FACE_OUTER_BOUND('',#50,.T.);
#26=FACE_OUTER_BOUND('',#51,.T.);
#27=FACE_OUTER_BOUND('',#53,.T.);
#28=FACE_OUTER_BOUND('',#54,.T.);
#29=FACE_OUTER_BOUND('',#56,.T.);
#30=FACE_OUTER_BOUND('',#57,.T.);
#31=FACE_OUTER_BOUND('',#58,.T.);
#32=FACE_OUTER_BOUND('',#59,.T.);
#33=FACE_OUTER_BOUND('',#60,.T.);
#34=FACE_OUTER_BOUND('',#61,.T.);
#35=FACE_OUTER_BOUND('',#62,.T.);
#36=FACE_OUTER_BOUND('',#63,.T.);
#37=FACE_OUTER_BOUND('',#64,.T.);
#38=FACE_OUTER_BOUND('',#65,.T.);
#39=FACE_OUTER_BOUND('',#66,.T.);
#40=FACE_OUTER_BOUND('',#67,.T.);
#41=FACE_OUTER_BOUND('',#69,.T.);
#42=FACE_OUTER_BOUND('',#70,.T.);
#43=FACE_OUTER_BOUND('',#72,.T.);
#44=EDGE_LOOP('',(#296,#297,#298,#299,#300));
#45=EDGE_LOOP('',(#301,#302,#303,#304));
#46=EDGE_LOOP('',(#305,#306,#307,#308,#309));
#47=EDGE_LOOP('',(#310,#311,#312));
#48=EDGE_LOOP('',(#313,#314,#315,#316));
#49=EDGE_LOOP('',(#317,#318,#319,#320,#321));
#50=EDGE_LOOP('',(#322,#323,#324,#325));
#51=EDGE_LOOP('',(#326,#327,#328,#329,#330,#331));
#52=EDGE_LOOP('',(#332,#333,#334,#335));
#53=EDGE_LOOP('',(#336,#337,#338,#339));
#54=EDGE_LOOP('',(#340,#341,#342,#343,#344,#345));
#55=EDGE_LOOP('',(#346,#347,#348,#349));
#56=EDGE_LOOP('',(#350,#351,#352,#353));
#57=EDGE_LOOP('',(#354,#355,#356,#357));
#58=EDGE_LOOP('',(#358,#359,#360,#361));
#59=EDGE_LOOP('',(#362,#363,#364,#365));
#60=EDGE_LOOP('',(#366,#367,#368,#369));
#61=EDGE_LOOP('',(#370,#371,#372,#373));
#62=EDGE_LOOP('',(#374,#375,#376,#377));
#63=EDGE_LOOP('',(#378,#379,#380,#381));
#64=EDGE_LOOP('',(#382,#383,#384,#385));
#65=EDGE_LOOP('',(#386,#387,#388,#389));
#66=EDGE_LOOP('',(#390,#391,#392,#393));
#67=EDGE_LOOP('',(#394,#395,#396,#397));
#68=EDGE_LOOP('',(#398,#399,#400,#401));
#69=EDGE_LOOP('',(#402,#403,#404,#405));
#70=EDGE_LOOP('',(#406,#407,#408,#409));
#71=EDGE_LOOP('',(#410,#411,#412,#413));
#72=EDGE_LOOP('',(#414,#415,#416,#417));
#73=LINE('',#619,#134);
#74=LINE('',#621,#135);
#75=LINE('',#623,#136);
#76=LINE('',#625,#137);
#77=LINE('',#626,#138);
#78=LINE('',#629,#139);
#79=LINE('',#631,#140);
#80=LINE('',#632,#141);
#81=LINE('',#635,#142);
#82=LINE('',#636,#143);
#83=LINE('',#637,#144);
#84=LINE('',#642,#145);
#85=LINE('',#644,#146);
#86=LINE('',#646,#147);
#87=LINE('',#647,#148);
#88=LINE('',#649,#149);
#89=LINE('',#651,#150);
#90=LINE('',#652,#151);
#91=LINE('',#656,#152);
#92=LINE('',#657,#153);
#93=LINE('',#658,#154);
#94=LINE('',#661,#155);
#95=LINE('',#663,#156);
#96=LINE('',#664,#157);
#97=LINE('',#667,#158);
#98=LINE('',#669,#159);
#99=LINE('',#671,#160);
#100=LINE('',#672,#161);
#101=LINE('',#675,#162);
#102=LINE('',#676,#163);
#103=LINE('',#679,#164);
#104=LINE('',#680,#165);
#105=LINE('',#683,#166);
#106=LINE('',#685,#167);
#107=LINE('',#687,#168);
#108=LINE('',#688,#169);
#109=LINE('',#690,#170);
#110=LINE('',#694,#171);
#111=LINE('',#696,#172);
#112=LINE('',#697,#173);
#113=LINE('',#700,#174);
#114=LINE('',#702,#175);
#115=LINE('',#703,#176);
#116=LINE('',#706,#177);
#117=LINE('',#707,#178);
#118=LINE('',#710,#179);
#119=LINE('',#711,#180);
#120=LINE('',#714,#181);
#121=LINE('',#715,#182);
#122=LINE('',#717,#183);
#123=LINE('',#720,#184);
#124=LINE('',#721,#185);
#125=LINE('',#723,#186);
#126=LINE('',#726,#187);
#127=LINE('',#728,#188);
#128=LINE('',#729,#189);
#129=LINE('',#732,#190);
#130=LINE('',#733,#191);
#131=LINE('',#736,#192);
#132=LINE('',#737,#193);
#133=LINE('',#739,#194);
#134=VECTOR('',#508,10.);
#135=VECTOR('',#509,10.);
#136=VECTOR('',#510,10.);
#137=VECTOR('',#511,10.);
#138=VECTOR('',#512,10.);
#139=VECTOR('',#515,10.);
#140=VECTOR('',#516,10.);
#141=VECTOR('',#517,10.);
#142=VECTOR('',#520,10.);
#143=VECTOR('',#521,10.);
#144=VECTOR('',#522,10.);
#145=VECTOR('',#527,10.);
#146=VECTOR('',#528,10.);
#147=VECTOR('',#529,10.);
#148=VECTOR('',#530,10.);
#149=VECTOR('',#531,10.);
#150=VECTOR('',#532,10.);
#151=VECTOR('',#533,10.);
#152=VECTOR('',#536,10.);
#153=VECTOR('',#537,10.);
#154=VECTOR('',#538,10.);
#155=VECTOR('',#541,10.);
#156=VECTOR('',#542,10.);
#157=VECTOR('',#543,10.);
#158=VECTOR('',#544,10.);
#159=VECTOR('',#545,10.);
#160=VECTOR('',#546,10.);
#161=VECTOR('',#547,10.);
#162=VECTOR('',#550,10.);
#163=VECTOR('',#551,10.);
#164=VECTOR('',#554,10.);
#165=VECTOR('',#555,10.);
#166=VECTOR('',#556,10.);
#167=VECTOR('',#557,10.);
#168=VECTOR('',#558,10.);
#169=VECTOR('',#559,10.);
#170=VECTOR('',#562,10.);
#171=VECTOR('',#567,10.);
#172=VECTOR('',#568,10.);
#173=VECTOR('',#569,10.);
#174=VECTOR('',#572,10.);
#175=VECTOR('',#573,10.);
#176=VECTOR('',#574,10.);
#177=VECTOR('',#577,10.);
#178=VECTOR('',#578,10.);
#179=VECTOR('',#581,10.);
#180=VECTOR('',#582,10.);
#181=VECTOR('',#585,10.);
#182=VECTOR('',#586,10.);
#183=VECTOR('',#589,10.);
#184=VECTOR('',#592,10.);
#185=VECTOR('',#593,10.);
#186=VECTOR('',#596,10.);
#187=VECTOR('',#599,10.);
#188=VECTOR('',#600,10.);
#189=VECTOR('',#601,10.);
#190=VECTOR('',#604,10.);
#191=VECTOR('',#605,10.);
#192=VECTOR('',#608,10.);
#193=VECTOR('',#609,10.);
#194=VECTOR('',#612,10.);
#195=VERTEX_POINT('',#617);
#196=VERTEX_POINT('',#618);
#197=VERTEX_POINT('',#620);
#198=VERTEX_POINT('',#622);
#199=VERTEX_POINT('',#624);
#200=VERTEX_POINT('',#628);
#201=VERTEX_POINT('',#630);
#202=VERTEX_POINT('',#634);
#203=VERTEX_POINT('',#640);
#204=VERTEX_POINT('',#641);
#205=VERTEX_POINT('',#643);
#206=VERTEX_POINT('',#645);
#207=VERTEX_POINT('',#648);
#208=VERTEX_POINT('',#650);
#209=VERTEX_POINT('',#654);
#210=VERTEX_POINT('',#655);
#211=VERTEX_POINT('',#660);
#212=VERTEX_POINT('',#662);
#213=VERTEX_POINT('',#665);
#214=VERTEX_POINT('',#666);
#215=VERTEX_POINT('',#668);
#216=VERTEX_POINT('',#670);
#217=VERTEX_POINT('',#674);
#218=VERTEX_POINT('',#678);
#219=VERTEX_POINT('',#681);
#220=VERTEX_POINT('',#682);
#221=VERTEX_POINT('',#684);
#222=VERTEX_POINT('',#686);
#223=VERTEX_POINT('',#693);
#224=VERTEX_POINT('',#695);
#225=VERTEX_POINT('',#699);
#226=VERTEX_POINT('',#701);
#227=VERTEX_POINT('',#705);
#228=VERTEX_POINT('',#709);
#229=VERTEX_POINT('',#713);
#230=VERTEX_POINT('',#719);
#231=VERTEX_POINT('',#725);
#232=VERTEX_POINT('',#727);
#233=VERTEX_POINT('',#731);
#234=VERTEX_POINT('',#735);
#235=EDGE_CURVE('',#195,#196,#73,.T.);
#236=EDGE_CURVE('',#197,#195,#74,.T.);
#237=EDGE_CURVE('',#198,#197,#75,.T.);
#238=EDGE_CURVE('',#198,#199,#76,.T.);
#239=EDGE_CURVE('',#196,#199,#77,.T.);
#240=EDGE_CURVE('',#200,#197,#78,.T.);
#241=EDGE_CURVE('',#201,#200,#79,.T.);
#242=EDGE_CURVE('',#201,#198,#80,.T.);
#243=EDGE_CURVE('',#196,#202,#81,.T.);
#244=EDGE_CURVE('',#199,#201,#82,.T.);
#245=EDGE_CURVE('',#202,#200,#83,.T.);
#246=EDGE_CURVE('',#203,#204,#84,.T.);
#247=EDGE_CURVE('',#205,#204,#85,.T.);
#248=EDGE_CURVE('',#205,#206,#86,.T.);
#249=EDGE_CURVE('',#203,#206,#87,.T.);
#250=EDGE_CURVE('',#202,#207,#88,.T.);
#251=EDGE_CURVE('',#207,#208,#89,.T.);
#252=EDGE_CURVE('',#208,#195,#90,.T.);
#253=EDGE_CURVE('',#209,#210,#91,.T.);
#254=EDGE_CURVE('',#208,#209,#92,.T.);
#255=EDGE_CURVE('',#210,#207,#93,.T.);
#256=EDGE_CURVE('',#200,#211,#94,.T.);
#257=EDGE_CURVE('',#211,#212,#95,.T.);
#258=EDGE_CURVE('',#212,#210,#96,.T.);
#259=EDGE_CURVE('',#213,#214,#97,.T.);
#260=EDGE_CURVE('',#215,#213,#98,.T.);
#261=EDGE_CURVE('',#216,#215,#99,.T.);
#262=EDGE_CURVE('',#214,#216,#100,.T.);
#263=EDGE_CURVE('',#197,#217,#101,.T.);
#264=EDGE_CURVE('',#217,#211,#102,.T.);
#265=EDGE_CURVE('',#209,#218,#103,.T.);
#266=EDGE_CURVE('',#218,#217,#104,.T.);
#267=EDGE_CURVE('',#219,#220,#105,.T.);
#268=EDGE_CURVE('',#221,#219,#106,.T.);
#269=EDGE_CURVE('',#222,#221,#107,.T.);
#270=EDGE_CURVE('',#220,#222,#108,.T.);
#271=EDGE_CURVE('',#212,#218,#109,.T.);
#272=EDGE_CURVE('',#222,#223,#110,.T.);
#273=EDGE_CURVE('',#224,#223,#111,.T.);
#274=EDGE_CURVE('',#224,#220,#112,.T.);
#275=EDGE_CURVE('',#213,#225,#113,.T.);
#276=EDGE_CURVE('',#226,#225,#114,.T.);
#277=EDGE_CURVE('',#226,#215,#115,.T.);
#278=EDGE_CURVE('',#227,#221,#116,.T.);
#279=EDGE_CURVE('',#223,#227,#117,.T.);
#280=EDGE_CURVE('',#228,#226,#118,.T.);
#281=EDGE_CURVE('',#216,#228,#119,.T.);
#282=EDGE_CURVE('',#219,#229,#120,.T.);
#283=EDGE_CURVE('',#227,#229,#121,.T.);
#284=EDGE_CURVE('',#229,#224,#122,.T.);
#285=EDGE_CURVE('',#230,#214,#123,.T.);
#286=EDGE_CURVE('',#225,#230,#124,.T.);
#287=EDGE_CURVE('',#230,#228,#125,.T.);
#288=EDGE_CURVE('',#206,#231,#126,.T.);
#289=EDGE_CURVE('',#231,#232,#127,.T.);
#290=EDGE_CURVE('',#232,#203,#128,.T.);
#291=EDGE_CURVE('',#233,#205,#129,.T.);
#292=EDGE_CURVE('',#231,#233,#130,.T.);
#293=EDGE_CURVE('',#234,#233,#131,.T.);
#294=EDGE_CURVE('',#232,#234,#132,.T.);
#295=EDGE_CURVE('',#204,#234,#133,.T.);
#296=ORIENTED_EDGE('',*,*,#235,.F.);
#297=ORIENTED_EDGE('',*,*,#236,.F.);
#298=ORIENTED_EDGE('',*,*,#237,.F.);
#299=ORIENTED_EDGE('',*,*,#238,.T.);
#300=ORIENTED_EDGE('',*,*,#239,.F.);
#301=ORIENTED_EDGE('',*,*,#240,.F.);
#302=ORIENTED_EDGE('',*,*,#241,.F.);
#303=ORIENTED_EDGE('',*,*,#242,.T.);
#304=ORIENTED_EDGE('',*,*,#237,.T.);
#305=ORIENTED_EDGE('',*,*,#243,.F.);
#306=ORIENTED_EDGE('',*,*,#239,.T.);
#307=ORIENTED_EDGE('',*,*,#244,.T.);
#308=ORIENTED_EDGE('',*,*,#241,.T.);
#309=ORIENTED_EDGE('',*,*,#245,.F.);
#310=ORIENTED_EDGE('',*,*,#238,.F.);
#311=ORIENTED_EDGE('',*,*,#242,.F.);
#312=ORIENTED_EDGE('',*,*,#244,.F.);
#313=ORIENTED_EDGE('',*,*,#246,.T.);
#314=ORIENTED_EDGE('',*,*,#247,.F.);
#315=ORIENTED_EDGE('',*,*,#248,.T.);
#316=ORIENTED_EDGE('',*,*,#249,.F.);
#317=ORIENTED_EDGE('',*,*,#235,.T.);
#318=ORIENTED_EDGE('',*,*,#243,.T.);
#319=ORIENTED_EDGE('',*,*,#250,.T.);
#320=ORIENTED_EDGE('',*,*,#251,.T.);
#321=ORIENTED_EDGE('',*,*,#252,.T.);
#322=ORIENTED_EDGE('',*,*,#253,.F.);
#323=ORIENTED_EDGE('',*,*,#254,.F.);
#324=ORIENTED_EDGE('',*,*,#251,.F.);
#325=ORIENTED_EDGE('',*,*,#255,.F.);
#326=ORIENTED_EDGE('',*,*,#245,.T.);
#327=ORIENTED_EDGE('',*,*,#256,.T.);
#328=ORIENTED_EDGE('',*,*,#257,.T.);
#329=ORIENTED_EDGE('',*,*,#258,.T.);
#330=ORIENTED_EDGE('',*,*,#255,.T.);
#331=ORIENTED_EDGE('',*,*,#250,.F.);
#332=ORIENTED_EDGE('',*,*,#259,.F.);
#333=ORIENTED_EDGE('',*,*,#260,.F.);
#334=ORIENTED_EDGE('',*,*,#261,.F.);
#335=ORIENTED_EDGE('',*,*,#262,.F.);
#336=ORIENTED_EDGE('',*,*,#256,.F.);
#337=ORIENTED_EDGE('',*,*,#240,.T.);
#338=ORIENTED_EDGE('',*,*,#263,.T.);
#339=ORIENTED_EDGE('',*,*,#264,.T.);
#340=ORIENTED_EDGE('',*,*,#265,.T.);
#341=ORIENTED_EDGE('',*,*,#266,.T.);
#342=ORIENTED_EDGE('',*,*,#263,.F.);
#343=ORIENTED_EDGE('',*,*,#236,.T.);
#344=ORIENTED_EDGE('',*,*,#252,.F.);
#345=ORIENTED_EDGE('',*,*,#254,.T.);
#346=ORIENTED_EDGE('',*,*,#267,.F.);
#347=ORIENTED_EDGE('',*,*,#268,.F.);
#348=ORIENTED_EDGE('',*,*,#269,.F.);
#349=ORIENTED_EDGE('',*,*,#270,.F.);
#350=ORIENTED_EDGE('',*,*,#253,.T.);
#351=ORIENTED_EDGE('',*,*,#258,.F.);
#352=ORIENTED_EDGE('',*,*,#271,.T.);
#353=ORIENTED_EDGE('',*,*,#265,.F.);
#354=ORIENTED_EDGE('',*,*,#271,.F.);
#355=ORIENTED_EDGE('',*,*,#257,.F.);
#356=ORIENTED_EDGE('',*,*,#264,.F.);
#357=ORIENTED_EDGE('',*,*,#266,.F.);
#358=ORIENTED_EDGE('',*,*,#270,.T.);
#359=ORIENTED_EDGE('',*,*,#272,.T.);
#360=ORIENTED_EDGE('',*,*,#273,.F.);
#361=ORIENTED_EDGE('',*,*,#274,.T.);
#362=ORIENTED_EDGE('',*,*,#260,.T.);
#363=ORIENTED_EDGE('',*,*,#275,.T.);
#364=ORIENTED_EDGE('',*,*,#276,.F.);
#365=ORIENTED_EDGE('',*,*,#277,.T.);
#366=ORIENTED_EDGE('',*,*,#269,.T.);
#367=ORIENTED_EDGE('',*,*,#278,.F.);
#368=ORIENTED_EDGE('',*,*,#279,.F.);
#369=ORIENTED_EDGE('',*,*,#272,.F.);
#370=ORIENTED_EDGE('',*,*,#261,.T.);
#371=ORIENTED_EDGE('',*,*,#277,.F.);
#372=ORIENTED_EDGE('',*,*,#280,.F.);
#373=ORIENTED_EDGE('',*,*,#281,.F.);
#374=ORIENTED_EDGE('',*,*,#268,.T.);
#375=ORIENTED_EDGE('',*,*,#282,.T.);
#376=ORIENTED_EDGE('',*,*,#283,.F.);
#377=ORIENTED_EDGE('',*,*,#278,.T.);
#378=ORIENTED_EDGE('',*,*,#267,.T.);
#379=ORIENTED_EDGE('',*,*,#274,.F.);
#380=ORIENTED_EDGE('',*,*,#284,.F.);
#381=ORIENTED_EDGE('',*,*,#282,.F.);
#382=ORIENTED_EDGE('',*,*,#259,.T.);
#383=ORIENTED_EDGE('',*,*,#285,.F.);
#384=ORIENTED_EDGE('',*,*,#286,.F.);
#385=ORIENTED_EDGE('',*,*,#275,.F.);
#386=ORIENTED_EDGE('',*,*,#262,.T.);
#387=ORIENTED_EDGE('',*,*,#281,.T.);
#388=ORIENTED_EDGE('',*,*,#287,.F.);
#389=ORIENTED_EDGE('',*,*,#285,.T.);
#390=ORIENTED_EDGE('',*,*,#249,.T.);
#391=ORIENTED_EDGE('',*,*,#288,.T.);
#392=ORIENTED_EDGE('',*,*,#289,.T.);
#393=ORIENTED_EDGE('',*,*,#290,.T.);
#394=ORIENTED_EDGE('',*,*,#248,.F.);
#395=ORIENTED_EDGE('',*,*,#291,.F.);
#396=ORIENTED_EDGE('',*,*,#292,.F.);
#397=ORIENTED_EDGE('',*,*,#288,.F.);
#398=ORIENTED_EDGE('',*,*,#280,.T.);
#399=ORIENTED_EDGE('',*,*,#276,.T.);
#400=ORIENTED_EDGE('',*,*,#286,.T.);
#401=ORIENTED_EDGE('',*,*,#287,.T.);
#402=ORIENTED_EDGE('',*,*,#292,.T.);
#403=ORIENTED_EDGE('',*,*,#293,.F.);
#404=ORIENTED_EDGE('',*,*,#294,.F.);
#405=ORIENTED_EDGE('',*,*,#289,.F.);
#406=ORIENTED_EDGE('',*,*,#294,.T.);
#407=ORIENTED_EDGE('',*,*,#295,.F.);
#408=ORIENTED_EDGE('',*,*,#246,.F.);
#409=ORIENTED_EDGE('',*,*,#290,.F.);
#410=ORIENTED_EDGE('',*,*,#279,.T.);
#411=ORIENTED_EDGE('',*,*,#283,.T.);
#412=ORIENTED_EDGE('',*,*,#284,.T.);
#413=ORIENTED_EDGE('',*,*,#273,.T.);
#414=ORIENTED_EDGE('',*,*,#247,.T.);
#415=ORIENTED_EDGE('',*,*,#295,.T.);
#416=ORIENTED_EDGE('',*,*,#293,.T.);
#417=ORIENTED_EDGE('',*,*,#291,.T.);
#418=PLANE('',#480);
#419=PLANE('',#481);
#420=PLANE('',#482);
#421=PLANE('',#483);
#422=PLANE('',#484);
#423=PLANE('',#485);
#424=PLANE('',#486);
#425=PLANE('',#487);
#426=PLANE('',#488);
#427=PLANE('',#489);
#428=PLANE('',#490);
#429=PLANE('',#491);
#430=PLANE('',#492);
#431=PLANE('',#493);
#432=PLANE('',#494);
#433=PLANE('',#495);
#434=PLANE('',#496);
#435=PLANE('',#497);
#436=PLANE('',#498);
#437=PLANE('',#499);
#438=PLANE('',#500);
#439=PLANE('',#501);
#440=PLANE('',#502);
#441=PLANE('',#503);
#442=ADVANCED_FACE('',(#20),#418,.F.);
#443=ADVANCED_FACE('',(#21),#419,.F.);
#444=ADVANCED_FACE('',(#22),#420,.F.);
#445=ADVANCED_FACE('',(#23),#421,.F.);
#446=ADVANCED_FACE('',(#24,#15),#422,.T.);
#447=ADVANCED_FACE('',(#25),#423,.F.);
#448=ADVANCED_FACE('',(#26,#16),#424,.F.);
#449=ADVANCED_FACE('',(#27),#425,.F.);
#450=ADVANCED_FACE('',(#28,#17),#426,.F.);
#451=ADVANCED_FACE('',(#29),#427,.F.);
#452=ADVANCED_FACE('',(#30),#428,.F.);
#453=ADVANCED_FACE('',(#31),#429,.F.);
#454=ADVANCED_FACE('',(#32),#430,.F.);
#455=ADVANCED_FACE('',(#33),#431,.F.);
#456=ADVANCED_FACE('',(#34),#432,.F.);
#457=ADVANCED_FACE('',(#35),#433,.F.);
#458=ADVANCED_FACE('',(#36),#434,.F.);
#459=ADVANCED_FACE('',(#37),#435,.F.);
#460=ADVANCED_FACE('',(#38),#436,.F.);
#461=ADVANCED_FACE('',(#39),#437,.T.);
#462=ADVANCED_FACE('',(#40,#18),#438,.T.);
#463=ADVANCED_FACE('',(#41),#439,.T.);
#464=ADVANCED_FACE('',(#42,#19),#440,.T.);
#465=ADVANCED_FACE('',(#43),#441,.T.);
#466=CLOSED_SHELL('',(#442,#443,#444,#445,#446,#447,#448,#449,#450,#451,
#452,#453,#454,#455,#456,#457,#458,#459,#460,#461,#462,#463,#464,#465));
#467=DERIVED_UNIT_ELEMENT(#469,1.);
#468=DERIVED_UNIT_ELEMENT(#746,-3.);
#469=(
MASS_UNIT()
NAMED_UNIT(*)
SI_UNIT(.KILO.,.GRAM.)
);
#470=DERIVED_UNIT((#467,#468));
#471=MEASURE_REPRESENTATION_ITEM('density measure',
POSITIVE_RATIO_MEASURE(7850.),#470);
#472=PROPERTY_DEFINITION_REPRESENTATION(#477,#474);
#473=PROPERTY_DEFINITION_REPRESENTATION(#478,#475);
#474=REPRESENTATION('material name',(#476),#743);
#475=REPRESENTATION('density',(#471),#743);
#476=DESCRIPTIVE_REPRESENTATION_ITEM('Steel','Steel');
#477=PROPERTY_DEFINITION('material property','material name',#753);
#478=PROPERTY_DEFINITION('material property','density of part',#753);
#479=AXIS2_PLACEMENT_3D('',#615,#504,#505);
#480=AXIS2_PLACEMENT_3D('',#616,#506,#507);
#481=AXIS2_PLACEMENT_3D('',#627,#513,#514);
#482=AXIS2_PLACEMENT_3D('',#633,#518,#519);
#483=AXIS2_PLACEMENT_3D('',#638,#523,#524);
#484=AXIS2_PLACEMENT_3D('',#639,#525,#526);
#485=AXIS2_PLACEMENT_3D('',#653,#534,#535);
#486=AXIS2_PLACEMENT_3D('',#659,#539,#540);
#487=AXIS2_PLACEMENT_3D('',#673,#548,#549);
#488=AXIS2_PLACEMENT_3D('',#677,#552,#553);
#489=AXIS2_PLACEMENT_3D('',#689,#560,#561);
#490=AXIS2_PLACEMENT_3D('',#691,#563,#564);
#491=AXIS2_PLACEMENT_3D('',#692,#565,#566);
#492=AXIS2_PLACEMENT_3D('',#698,#570,#571);
#493=AXIS2_PLACEMENT_3D('',#704,#575,#576);
#494=AXIS2_PLACEMENT_3D('',#708,#579,#580);
#495=AXIS2_PLACEMENT_3D('',#712,#583,#584);
#496=AXIS2_PLACEMENT_3D('',#716,#587,#588);
#497=AXIS2_PLACEMENT_3D('',#718,#590,#591);
#498=AXIS2_PLACEMENT_3D('',#722,#594,#595);
#499=AXIS2_PLACEMENT_3D('',#724,#597,#598);
#500=AXIS2_PLACEMENT_3D('',#730,#602,#603);
#501=AXIS2_PLACEMENT_3D('',#734,#606,#607);
#502=AXIS2_PLACEMENT_3D('',#738,#610,#611);
#503=AXIS2_PLACEMENT_3D('',#740,#613,#614);
#504=DIRECTION('axis',(0.,0.,1.));
#505=DIRECTION('refdir',(1.,0.,0.));
#506=DIRECTION('center_axis',(0.707106781186548,-0.707106781186548,0.));
#507=DIRECTION('ref_axis',(0.707106781186548,0.707106781186548,0.));
#508=DIRECTION('',(-0.707106781186548,-0.707106781186548,0.));
#509=DIRECTION('',(0.,0.,1.));
#510=DIRECTION('',(0.,0.,1.));
#511=DIRECTION('',(-0.707106781186547,-0.707106781186547,0.));
#512=DIRECTION('',(0.,0.,-1.));
#513=DIRECTION('center_axis',(0.,1.,0.));
#514=DIRECTION('ref_axis',(-1.,0.,0.));
#515=DIRECTION('',(1.,0.,0.));
#516=DIRECTION('',(0.,0.,1.));
#517=DIRECTION('',(1.,0.,0.));
#518=DIRECTION('center_axis',(-0.707106781186548,-0.707106781186547,0.));
#519=DIRECTION('ref_axis',(0.707106781186547,-0.707106781186548,0.));
#520=DIRECTION('',(-0.707106781186547,0.707106781186548,0.));
#521=DIRECTION('',(-0.707106781186547,0.707106781186548,0.));
#522=DIRECTION('',(0.,0.,-1.));
#523=DIRECTION('center_axis',(0.,0.,-1.));
#524=DIRECTION('ref_axis',(-1.,0.,0.));
#525=DIRECTION('center_axis',(0.,0.,1.));
#526=DIRECTION('ref_axis',(1.,0.,0.));
#527=DIRECTION('',(0.,1.,0.));
#528=DIRECTION('',(1.,0.,0.));
#529=DIRECTION('',(0.,-1.,0.));
#530=DIRECTION('',(-1.,0.,0.));
#531=DIRECTION('',(0.,1.,0.));
#532=DIRECTION('',(1.,0.,0.));
#533=DIRECTION('',(0.,-1.,0.));
#534=DIRECTION('center_axis',(0.,1.,0.));
#535=DIRECTION('ref_axis',(0.,0.,1.));
#536=DIRECTION('',(-1.,0.,0.));
#537=DIRECTION('',(0.,0.,-1.));
#538=DIRECTION('',(0.,0.,1.));
#539=DIRECTION('center_axis',(-1.,0.,0.));
#540=DIRECTION('ref_axis',(0.,0.,1.));
#541=DIRECTION('',(0.,1.,0.));
#542=DIRECTION('',(0.,0.,1.));
#543=DIRECTION('',(0.,-1.,0.));
#544=DIRECTION('',(0.,0.,1.));
#545=DIRECTION('',(0.,1.,0.));
#546=DIRECTION('',(0.,0.,-1.));
#547=DIRECTION('',(0.,-1.,0.));
#548=DIRECTION('center_axis',(0.,0.,-1.));
#549=DIRECTION('ref_axis',(-1.,0.,0.));
#550=DIRECTION('',(0.,1.,0.));
#551=DIRECTION('',(-1.,0.,0.));
#552=DIRECTION('center_axis',(1.,0.,0.));
#553=DIRECTION('ref_axis',(0.,0.,-1.));
#554=DIRECTION('',(0.,1.,0.));
#555=DIRECTION('',(0.,0.,-1.));
#556=DIRECTION('',(0.,0.,-1.));
#557=DIRECTION('',(0.,1.,0.));
#558=DIRECTION('',(0.,0.,1.));
#559=DIRECTION('',(0.,-1.,0.));
#560=DIRECTION('center_axis',(0.,0.,1.));
#561=DIRECTION('ref_axis',(1.,0.,0.));
#562=DIRECTION('',(1.,0.,0.));
#563=DIRECTION('center_axis',(0.,1.,0.));
#564=DIRECTION('ref_axis',(0.,0.,1.));
#565=DIRECTION('center_axis',(0.,0.,-1.));
#566=DIRECTION('ref_axis',(-1.,0.,0.));
#567=DIRECTION('',(1.,0.,0.));
#568=DIRECTION('',(0.,-1.,0.));
#569=DIRECTION('',(-1.,0.,0.));
#570=DIRECTION('center_axis',(0.,0.,-1.));
#571=DIRECTION('ref_axis',(-1.,0.,0.));
#572=DIRECTION('',(-1.,0.,0.));
#573=DIRECTION('',(0.,1.,0.));
#574=DIRECTION('',(1.,0.,0.));
#575=DIRECTION('center_axis',(0.,-1.,0.));
#576=DIRECTION('ref_axis',(0.,0.,-1.));
#577=DIRECTION('',(-1.,0.,0.));
#578=DIRECTION('',(0.,0.,1.));
#579=DIRECTION('center_axis',(0.,-1.,0.));
#580=DIRECTION('ref_axis',(0.,0.,-1.));
#581=DIRECTION('',(0.,0.,-1.));
#582=DIRECTION('',(-1.,0.,0.));
#583=DIRECTION('center_axis',(0.,0.,1.));
#584=DIRECTION('ref_axis',(1.,0.,0.));
#585=DIRECTION('',(1.,0.,0.));
#586=DIRECTION('',(0.,1.,0.));
#587=DIRECTION('center_axis',(0.,1.,0.));
#588=DIRECTION('ref_axis',(0.,0.,1.));
#589=DIRECTION('',(0.,0.,-1.));
#590=DIRECTION('center_axis',(0.,1.,0.));
#591=DIRECTION('ref_axis',(0.,0.,1.));
#592=DIRECTION('',(1.,0.,0.));
#593=DIRECTION('',(0.,0.,1.));
#594=DIRECTION('center_axis',(0.,0.,1.));
#595=DIRECTION('ref_axis',(1.,0.,0.));
#596=DIRECTION('',(0.,-1.,0.));
#597=DIRECTION('center_axis',(0.,-1.,0.));
#598=DIRECTION('ref_axis',(0.,0.,-1.));
#599=DIRECTION('',(0.,0.,-1.));
#600=DIRECTION('',(1.,0.,0.));
#601=DIRECTION('',(0.,0.,1.));
#602=DIRECTION('center_axis',(-1.,0.,0.));
#603=DIRECTION('ref_axis',(0.,0.,1.));
#604=DIRECTION('',(0.,0.,1.));
#605=DIRECTION('',(0.,1.,0.));
#606=DIRECTION('center_axis',(0.,0.,-1.));
#607=DIRECTION('ref_axis',(-1.,0.,0.));
#608=DIRECTION('',(-1.,0.,0.));
#609=DIRECTION('',(0.,1.,0.));
#610=DIRECTION('center_axis',(1.,0.,0.));
#611=DIRECTION('ref_axis',(0.,0.,-1.));
#612=DIRECTION('',(0.,0.,-1.));
#613=DIRECTION('center_axis',(0.,1.,0.));
#614=DIRECTION('ref_axis',(0.,0.,1.));
#615=CARTESIAN_POINT('',(0.,0.,0.));
#616=CARTESIAN_POINT('Origin',(5.3,-3.88,13.15));
#617=CARTESIAN_POINT('',(7.,-2.18,20.));
#618=CARTESIAN_POINT('',(5.3,-3.88,20.));
#619=CARTESIAN_POINT('',(6.07,-3.11,20.));
#620=CARTESIAN_POINT('',(7.,-2.18,6.3));
#621=CARTESIAN_POINT('',(7.,-2.18,12.7));
#622=CARTESIAN_POINT('',(7.,-2.18,5.3));
#623=CARTESIAN_POINT('',(7.,-2.18,13.15));
#624=CARTESIAN_POINT('',(5.3,-3.88,5.3));
#625=CARTESIAN_POINT('',(7.,-2.18,5.3));
#626=CARTESIAN_POINT('',(5.3,-3.88,13.15));
#627=CARTESIAN_POINT('Origin',(7.,-2.18,13.15));
#628=CARTESIAN_POINT('',(3.6,-2.18,6.3));
#629=CARTESIAN_POINT('',(3.6,-2.18,6.3));
#630=CARTESIAN_POINT('',(3.6,-2.18,5.3));
#631=CARTESIAN_POINT('',(3.6,-2.18,13.15));
#632=CARTESIAN_POINT('',(3.6,-2.18,5.3));
#633=CARTESIAN_POINT('Origin',(3.6,-2.18,13.15));
#634=CARTESIAN_POINT('',(3.6,-2.18,20.));
#635=CARTESIAN_POINT('',(1.03,0.390000000000001,20.));
#636=CARTESIAN_POINT('',(5.3,-3.88,5.3));
#637=CARTESIAN_POINT('',(3.6,-2.18,13.7));
#638=CARTESIAN_POINT('Origin',(5.3,-3.03,5.3));
#639=CARTESIAN_POINT('Origin',(0.,4.5,20.));
#640=CARTESIAN_POINT('',(11.,-12.,20.));
#641=CARTESIAN_POINT('',(11.,21.,20.));
#642=CARTESIAN_POINT('',(11.,4.5,20.));
#643=CARTESIAN_POINT('',(0.,21.,20.));
#644=CARTESIAN_POINT('',(11.,21.,20.));
#645=CARTESIAN_POINT('',(0.,-12.,20.));
#646=CARTESIAN_POINT('',(0.,4.5,20.));
#647=CARTESIAN_POINT('',(11.,-12.,20.));
#648=CARTESIAN_POINT('',(3.6,5.22,20.));
#649=CARTESIAN_POINT('',(3.6,3.01,20.));
#650=CARTESIAN_POINT('',(7.,5.22,20.));
#651=CARTESIAN_POINT('',(2.65,5.22,20.));
#652=CARTESIAN_POINT('',(7.,3.01,20.));
#653=CARTESIAN_POINT('Origin',(5.3,5.22,16.85));
#654=CARTESIAN_POINT('',(7.,5.22,13.7));
#655=CARTESIAN_POINT('',(3.6,5.22,13.7));
#656=CARTESIAN_POINT('',(4.45,5.22,13.7));
#657=CARTESIAN_POINT('',(7.,5.22,12.7));
#658=CARTESIAN_POINT('',(3.6,5.22,21.));
#659=CARTESIAN_POINT('Origin',(3.6,7.52,6.3));
#660=CARTESIAN_POINT('',(3.6,17.22,6.3));
#661=CARTESIAN_POINT('',(3.6,7.52,6.3));
#662=CARTESIAN_POINT('',(3.6,17.22,13.7));
#663=CARTESIAN_POINT('',(3.6,17.22,13.7));
#664=CARTESIAN_POINT('',(3.6,7.52,13.7));
#665=CARTESIAN_POINT('',(3.6,15.92,7.6));
#666=CARTESIAN_POINT('',(3.6,15.92,12.4));
#667=CARTESIAN_POINT('',(3.6,15.92,8.15));
#668=CARTESIAN_POINT('',(3.6,-0.880000000000001,7.6));
#669=CARTESIAN_POINT('',(3.6,7.52,7.6));
#670=CARTESIAN_POINT('',(3.6,-0.880000000000001,12.4));
#671=CARTESIAN_POINT('',(3.6,-0.880000000000001,8.15));
#672=CARTESIAN_POINT('',(3.6,7.52,12.4));
#673=CARTESIAN_POINT('Origin',(7.,7.52,6.3));
#674=CARTESIAN_POINT('',(7.,17.22,6.3));
#675=CARTESIAN_POINT('',(7.,7.52,6.3));
#676=CARTESIAN_POINT('',(3.6,17.22,6.3));
#677=CARTESIAN_POINT('Origin',(7.,7.52,13.7));
#678=CARTESIAN_POINT('',(7.,17.22,13.7));
#679=CARTESIAN_POINT('',(7.,7.52,13.7));
#680=CARTESIAN_POINT('',(7.,17.22,6.3));
#681=CARTESIAN_POINT('',(7.,15.92,12.4));
#682=CARTESIAN_POINT('',(7.,15.92,7.6));
#683=CARTESIAN_POINT('',(7.,15.92,11.85));
#684=CARTESIAN_POINT('',(7.,-0.880000000000001,12.4));
#685=CARTESIAN_POINT('',(7.,7.52,12.4));
#686=CARTESIAN_POINT('',(7.,-0.880000000000001,7.6));
#687=CARTESIAN_POINT('',(7.,-0.880000000000001,11.85));
#688=CARTESIAN_POINT('',(7.,7.52,7.6));
#689=CARTESIAN_POINT('Origin',(3.6,7.52,13.7));
#690=CARTESIAN_POINT('',(7.,17.22,13.7));
#691=CARTESIAN_POINT('Origin',(5.3,17.22,10.));
#692=CARTESIAN_POINT('Origin',(12.,7.52,7.6));
#693=CARTESIAN_POINT('',(11.,-0.880000000000001,7.6));
#694=CARTESIAN_POINT('',(-1.,-0.880000000000001,7.6));
#695=CARTESIAN_POINT('',(11.,15.92,7.6));
#696=CARTESIAN_POINT('',(11.,6.01,7.6));
#697=CARTESIAN_POINT('',(-1.,15.92,7.6));
#698=CARTESIAN_POINT('Origin',(12.,7.52,7.6));
#699=CARTESIAN_POINT('',(0.,15.92,7.6));
#700=CARTESIAN_POINT('',(-1.,15.92,7.6));
#701=CARTESIAN_POINT('',(0.,-0.880000000000001,7.6));
#702=CARTESIAN_POINT('',(0.,6.01,7.6));
#703=CARTESIAN_POINT('',(-1.,-0.880000000000001,7.6));
#704=CARTESIAN_POINT('Origin',(5.5,-0.880000000000001,10.));
#705=CARTESIAN_POINT('',(11.,-0.880000000000001,12.4));
#706=CARTESIAN_POINT('',(12.,-0.880000000000001,12.4));
#707=CARTESIAN_POINT('',(11.,-0.880000000000001,15.));
#708=CARTESIAN_POINT('Origin',(5.5,-0.880000000000001,10.));
#709=CARTESIAN_POINT('',(0.,-0.880000000000001,12.4));
#710=CARTESIAN_POINT('',(0.,-0.880000000000001,5.));
#711=CARTESIAN_POINT('',(12.,-0.880000000000001,12.4));
#712=CARTESIAN_POINT('Origin',(-1.,7.52,12.4));
#713=CARTESIAN_POINT('',(11.,15.92,12.4));
#714=CARTESIAN_POINT('',(12.,15.92,12.4));
#715=CARTESIAN_POINT('',(11.,6.01,12.4));
#716=CARTESIAN_POINT('Origin',(5.5,15.92,10.));
#717=CARTESIAN_POINT('',(11.,15.92,15.));
#718=CARTESIAN_POINT('Origin',(5.5,15.92,10.));
#719=CARTESIAN_POINT('',(0.,15.92,12.4));
#720=CARTESIAN_POINT('',(12.,15.92,12.4));
#721=CARTESIAN_POINT('',(0.,15.92,5.));
#722=CARTESIAN_POINT('Origin',(-1.,7.52,12.4));
#723=CARTESIAN_POINT('',(0.,6.01,12.4));
#724=CARTESIAN_POINT('Origin',(5.5,-12.,10.));
#725=CARTESIAN_POINT('',(0.,-12.,0.));
#726=CARTESIAN_POINT('',(0.,-12.,20.));
#727=CARTESIAN_POINT('',(11.,-12.,0.));
#728=CARTESIAN_POINT('',(0.,-12.,0.));
#729=CARTESIAN_POINT('',(11.,-12.,0.));
#730=CARTESIAN_POINT('Origin',(0.,4.5,0.));
#731=CARTESIAN_POINT('',(0.,21.,0.));
#732=CARTESIAN_POINT('',(0.,21.,20.));
#733=CARTESIAN_POINT('',(0.,4.5,0.));
#734=CARTESIAN_POINT('Origin',(11.,4.5,0.));
#735=CARTESIAN_POINT('',(11.,21.,0.));
#736=CARTESIAN_POINT('',(0.,21.,0.));
#737=CARTESIAN_POINT('',(11.,4.5,0.));
#738=CARTESIAN_POINT('Origin',(11.,4.5,20.));
#739=CARTESIAN_POINT('',(11.,21.,0.));
#740=CARTESIAN_POINT('Origin',(5.5,21.,10.));
#741=UNCERTAINTY_MEASURE_WITH_UNIT(LENGTH_MEASURE(0.01),#745,
'DISTANCE_ACCURACY_VALUE',
'Maximum model space distance between geometric entities at asserted c
onnectivities');
#742=UNCERTAINTY_MEASURE_WITH_UNIT(LENGTH_MEASURE(0.01),#745,
'DISTANCE_ACCURACY_VALUE',
'Maximum model space distance between geometric entities at asserted c
onnectivities');
#743=(
GEOMETRIC_REPRESENTATION_CONTEXT(3)
GLOBAL_UNCERTAINTY_ASSIGNED_CONTEXT((#741))
GLOBAL_UNIT_ASSIGNED_CONTEXT((#745,#747,#748))
REPRESENTATION_CONTEXT('','3D')
);
#744=(
GEOMETRIC_REPRESENTATION_CONTEXT(3)
GLOBAL_UNCERTAINTY_ASSIGNED_CONTEXT((#742))
GLOBAL_UNIT_ASSIGNED_CONTEXT((#745,#747,#748))
REPRESENTATION_CONTEXT('','3D')
);
#745=(
LENGTH_UNIT()
NAMED_UNIT(*)
SI_UNIT(.MILLI.,.METRE.)
);
#746=(
LENGTH_UNIT()
NAMED_UNIT(*)
SI_UNIT($,.METRE.)
);
#747=(
NAMED_UNIT(*)
PLANE_ANGLE_UNIT()
SI_UNIT($,.RADIAN.)
);
#748=(
NAMED_UNIT(*)
SI_UNIT($,.STERADIAN.)
SOLID_ANGLE_UNIT()
);
#749=SHAPE_DEFINITION_REPRESENTATION(#750,#751);
#750=PRODUCT_DEFINITION_SHAPE('',$,#753);
#751=SHAPE_REPRESENTATION('',(#479),#743);
#752=PRODUCT_DEFINITION_CONTEXT('part definition',#757,'design');
#753=PRODUCT_DEFINITION('2026-09-06-14-40-16-018',
'SKADIS Nut Bracket Coupon',#754,#752);
#754=PRODUCT_DEFINITION_FORMATION('',$,#759);
#755=PRODUCT_RELATED_PRODUCT_CATEGORY('SKADIS Nut Bracket Coupon',
'SKADIS Nut Bracket Coupon',(#759));
#756=APPLICATION_PROTOCOL_DEFINITION('international standard',
'automotive_design',2009,#757);
#757=APPLICATION_CONTEXT(
'Core Data for Automotive Mechanical Design Process');
#758=PRODUCT_CONTEXT('part definition',#757,'mechanical');
#759=PRODUCT('2026-09-06-14-40-16-018','SKADIS Nut Bracket Coupon',$,(#758));
#760=PRESENTATION_STYLE_ASSIGNMENT((#761));
#761=SURFACE_STYLE_USAGE(.BOTH.,#762);
#762=SURFACE_SIDE_STYLE('',(#763));
#763=SURFACE_STYLE_FILL_AREA(#764);
#764=FILL_AREA_STYLE('Steel - Satin',(#765));
#765=FILL_AREA_STYLE_COLOUR('Steel - Satin',#766);
#766=COLOUR_RGB('Steel - Satin',0.627450980392157,0.627450980392157,0.627450980392157);
ENDSEC;
END-ISO-10303-21;
