ISO-10303-21;
HEADER;
/* Generated by software containing ST-Developer
 * from STEP Tools, Inc. (www.steptools.com) 
 */

FILE_DESCRIPTION(
/* description */ (''),
/* implementation_level */ '2;1');

FILE_NAME(
/* name */ 'skadis_nut_left.step',
/* time_stamp */ '2026-09-07T10:56:55-05:00',
/* author */ (''),
/* organization */ (''),
/* preprocessor_version */ 'ST-DEVELOPER v20.1',
/* originating_system */ 'Autodesk Translation Framework v15.8.0.0',
/* authorisation */ '');

FILE_SCHEMA (('AUTOMOTIVE_DESIGN { 1 0 10303 214 3 1 1 }'));
ENDSEC;

DATA;
#10=MECHANICAL_DESIGN_GEOMETRIC_PRESENTATION_REPRESENTATION('',(#13),#1226);
#11=SHAPE_REPRESENTATION_RELATIONSHIP('SRR','None',#1233,#12);
#12=ADVANCED_BREP_SHAPE_REPRESENTATION('',(#14),#1225);
#13=STYLED_ITEM('',(#1242),#14);
#14=MANIFOLD_SOLID_BREP('skadis_nut_left',#772);
#15=FACE_BOUND('',#67,.T.);
#16=FACE_BOUND('',#70,.T.);
#17=FACE_BOUND('',#73,.T.);
#18=FACE_BOUND('',#102,.T.);
#19=FACE_BOUND('',#103,.T.);
#20=FACE_BOUND('',#104,.T.);
#21=FACE_BOUND('',#107,.T.);
#22=FACE_OUTER_BOUND('',#62,.T.);
#23=FACE_OUTER_BOUND('',#63,.T.);
#24=FACE_OUTER_BOUND('',#64,.T.);
#25=FACE_OUTER_BOUND('',#65,.T.);
#26=FACE_OUTER_BOUND('',#66,.T.);
#27=FACE_OUTER_BOUND('',#68,.T.);
#28=FACE_OUTER_BOUND('',#69,.T.);
#29=FACE_OUTER_BOUND('',#71,.T.);
#30=FACE_OUTER_BOUND('',#72,.T.);
#31=FACE_OUTER_BOUND('',#74,.T.);
#32=FACE_OUTER_BOUND('',#75,.T.);
#33=FACE_OUTER_BOUND('',#76,.T.);
#34=FACE_OUTER_BOUND('',#77,.T.);
#35=FACE_OUTER_BOUND('',#78,.T.);
#36=FACE_OUTER_BOUND('',#79,.T.);
#37=FACE_OUTER_BOUND('',#80,.T.);
#38=FACE_OUTER_BOUND('',#81,.T.);
#39=FACE_OUTER_BOUND('',#82,.T.);
#40=FACE_OUTER_BOUND('',#83,.T.);
#41=FACE_OUTER_BOUND('',#84,.T.);
#42=FACE_OUTER_BOUND('',#85,.T.);
#43=FACE_OUTER_BOUND('',#86,.T.);
#44=FACE_OUTER_BOUND('',#87,.T.);
#45=FACE_OUTER_BOUND('',#88,.T.);
#46=FACE_OUTER_BOUND('',#89,.T.);
#47=FACE_OUTER_BOUND('',#90,.T.);
#48=FACE_OUTER_BOUND('',#91,.T.);
#49=FACE_OUTER_BOUND('',#92,.T.);
#50=FACE_OUTER_BOUND('',#93,.T.);
#51=FACE_OUTER_BOUND('',#94,.T.);
#52=FACE_OUTER_BOUND('',#95,.T.);
#53=FACE_OUTER_BOUND('',#96,.T.);
#54=FACE_OUTER_BOUND('',#97,.T.);
#55=FACE_OUTER_BOUND('',#98,.T.);
#56=FACE_OUTER_BOUND('',#99,.T.);
#57=FACE_OUTER_BOUND('',#100,.T.);
#58=FACE_OUTER_BOUND('',#101,.T.);
#59=FACE_OUTER_BOUND('',#105,.T.);
#60=FACE_OUTER_BOUND('',#106,.T.);
#61=FACE_OUTER_BOUND('',#108,.T.);
#62=EDGE_LOOP('',(#486,#487,#488,#489,#490));
#63=EDGE_LOOP('',(#491,#492,#493,#494));
#64=EDGE_LOOP('',(#495,#496,#497,#498,#499));
#65=EDGE_LOOP('',(#500,#501,#502));
#66=EDGE_LOOP('',(#503,#504,#505,#506));
#67=EDGE_LOOP('',(#507,#508,#509,#510,#511));
#68=EDGE_LOOP('',(#512,#513,#514,#515));
#69=EDGE_LOOP('',(#516,#517,#518,#519,#520,#521));
#70=EDGE_LOOP('',(#522,#523,#524,#525));
#71=EDGE_LOOP('',(#526,#527,#528,#529));
#72=EDGE_LOOP('',(#530,#531,#532,#533,#534,#535));
#73=EDGE_LOOP('',(#536,#537,#538,#539));
#74=EDGE_LOOP('',(#540,#541,#542,#543));
#75=EDGE_LOOP('',(#544,#545,#546,#547));
#76=EDGE_LOOP('',(#548,#549,#550,#551));
#77=EDGE_LOOP('',(#552,#553,#554,#555));
#78=EDGE_LOOP('',(#556,#557,#558,#559));
#79=EDGE_LOOP('',(#560,#561,#562,#563));
#80=EDGE_LOOP('',(#564,#565,#566,#567));
#81=EDGE_LOOP('',(#568,#569,#570,#571));
#82=EDGE_LOOP('',(#572,#573,#574,#575));
#83=EDGE_LOOP('',(#576,#577,#578,#579));
#84=EDGE_LOOP('',(#580,#581,#582,#583,#584,#585,#586));
#85=EDGE_LOOP('',(#587,#588,#589,#590));
#86=EDGE_LOOP('',(#591,#592,#593,#594));
#87=EDGE_LOOP('',(#595,#596,#597,#598));
#88=EDGE_LOOP('',(#599,#600,#601,#602));
#89=EDGE_LOOP('',(#603,#604,#605,#606));
#90=EDGE_LOOP('',(#607,#608,#609,#610));
#91=EDGE_LOOP('',(#611,#612,#613,#614,#615,#616,#617));
#92=EDGE_LOOP('',(#618,#619,#620,#621,#622,#623,#624));
#93=EDGE_LOOP('',(#625,#626,#627,#628));
#94=EDGE_LOOP('',(#629,#630,#631,#632));
#95=EDGE_LOOP('',(#633,#634,#635,#636));
#96=EDGE_LOOP('',(#637,#638,#639,#640));
#97=EDGE_LOOP('',(#641,#642,#643,#644));
#98=EDGE_LOOP('',(#645,#646,#647,#648));
#99=EDGE_LOOP('',(#649,#650,#651,#652,#653,#654,#655));
#100=EDGE_LOOP('',(#656,#657,#658,#659));
#101=EDGE_LOOP('',(#660,#661,#662,#663));
#102=EDGE_LOOP('',(#664,#665,#666,#667));
#103=EDGE_LOOP('',(#668,#669,#670,#671));
#104=EDGE_LOOP('',(#672,#673,#674,#675));
#105=EDGE_LOOP('',(#676,#677,#678,#679));
#106=EDGE_LOOP('',(#680,#681,#682,#683));
#107=EDGE_LOOP('',(#684,#685,#686,#687));
#108=EDGE_LOOP('',(#688,#689,#690,#691));
#109=LINE('',#1015,#212);
#110=LINE('',#1017,#213);
#111=LINE('',#1019,#214);
#112=LINE('',#1021,#215);
#113=LINE('',#1022,#216);
#114=LINE('',#1025,#217);
#115=LINE('',#1027,#218);
#116=LINE('',#1028,#219);
#117=LINE('',#1031,#220);
#118=LINE('',#1032,#221);
#119=LINE('',#1033,#222);
#120=LINE('',#1038,#223);
#121=LINE('',#1040,#224);
#122=LINE('',#1042,#225);
#123=LINE('',#1043,#226);
#124=LINE('',#1045,#227);
#125=LINE('',#1047,#228);
#126=LINE('',#1048,#229);
#127=LINE('',#1052,#230);
#128=LINE('',#1053,#231);
#129=LINE('',#1054,#232);
#130=LINE('',#1057,#233);
#131=LINE('',#1059,#234);
#132=LINE('',#1060,#235);
#133=LINE('',#1063,#236);
#134=LINE('',#1065,#237);
#135=LINE('',#1067,#238);
#136=LINE('',#1068,#239);
#137=LINE('',#1071,#240);
#138=LINE('',#1072,#241);
#139=LINE('',#1075,#242);
#140=LINE('',#1076,#243);
#141=LINE('',#1079,#244);
#142=LINE('',#1081,#245);
#143=LINE('',#1083,#246);
#144=LINE('',#1084,#247);
#145=LINE('',#1086,#248);
#146=LINE('',#1090,#249);
#147=LINE('',#1092,#250);
#148=LINE('',#1093,#251);
#149=LINE('',#1096,#252);
#150=LINE('',#1098,#253);
#151=LINE('',#1099,#254);
#152=LINE('',#1102,#255);
#153=LINE('',#1103,#256);
#154=LINE('',#1106,#257);
#155=LINE('',#1107,#258);
#156=LINE('',#1110,#259);
#157=LINE('',#1111,#260);
#158=LINE('',#1113,#261);
#159=LINE('',#1116,#262);
#160=LINE('',#1117,#263);
#161=LINE('',#1119,#264);
#162=LINE('',#1123,#265);
#163=LINE('',#1125,#266);
#164=LINE('',#1127,#267);
#165=LINE('',#1129,#268);
#166=LINE('',#1131,#269);
#167=LINE('',#1133,#270);
#168=LINE('',#1134,#271);
#169=LINE('',#1137,#272);
#170=LINE('',#1139,#273);
#171=LINE('',#1140,#274);
#172=LINE('',#1143,#275);
#173=LINE('',#1144,#276);
#174=LINE('',#1147,#277);
#175=LINE('',#1148,#278);
#176=LINE('',#1151,#279);
#177=LINE('',#1152,#280);
#178=LINE('',#1155,#281);
#179=LINE('',#1156,#282);
#180=LINE('',#1159,#283);
#181=LINE('',#1160,#284);
#182=LINE('',#1162,#285);
#183=LINE('',#1166,#286);
#184=LINE('',#1168,#287);
#185=LINE('',#1170,#288);
#186=LINE('',#1172,#289);
#187=LINE('',#1174,#290);
#188=LINE('',#1176,#291);
#189=LINE('',#1177,#292);
#190=LINE('',#1180,#293);
#191=LINE('',#1182,#294);
#192=LINE('',#1183,#295);
#193=LINE('',#1186,#296);
#194=LINE('',#1187,#297);
#195=LINE('',#1190,#298);
#196=LINE('',#1191,#299);
#197=LINE('',#1194,#300);
#198=LINE('',#1195,#301);
#199=LINE('',#1198,#302);
#200=LINE('',#1199,#303);
#201=LINE('',#1202,#304);
#202=LINE('',#1203,#305);
#203=LINE('',#1205,#306);
#204=LINE('',#1208,#307);
#205=LINE('',#1210,#308);
#206=LINE('',#1211,#309);
#207=LINE('',#1214,#310);
#208=LINE('',#1215,#311);
#209=LINE('',#1218,#312);
#210=LINE('',#1219,#313);
#211=LINE('',#1221,#314);
#212=VECTOR('',#830,10.);
#213=VECTOR('',#831,10.);
#214=VECTOR('',#832,10.);
#215=VECTOR('',#833,10.);
#216=VECTOR('',#834,10.);
#217=VECTOR('',#837,10.);
#218=VECTOR('',#838,10.);
#219=VECTOR('',#839,10.);
#220=VECTOR('',#842,10.);
#221=VECTOR('',#843,10.);
#222=VECTOR('',#844,10.);
#223=VECTOR('',#849,10.);
#224=VECTOR('',#850,10.);
#225=VECTOR('',#851,10.);
#226=VECTOR('',#852,10.);
#227=VECTOR('',#853,10.);
#228=VECTOR('',#854,10.);
#229=VECTOR('',#855,10.);
#230=VECTOR('',#858,10.);
#231=VECTOR('',#859,10.);
#232=VECTOR('',#860,10.);
#233=VECTOR('',#863,10.);
#234=VECTOR('',#864,10.);
#235=VECTOR('',#865,10.);
#236=VECTOR('',#866,10.);
#237=VECTOR('',#867,10.);
#238=VECTOR('',#868,10.);
#239=VECTOR('',#869,10.);
#240=VECTOR('',#872,10.);
#241=VECTOR('',#873,10.);
#242=VECTOR('',#876,10.);
#243=VECTOR('',#877,10.);
#244=VECTOR('',#878,10.);
#245=VECTOR('',#879,10.);
#246=VECTOR('',#880,10.);
#247=VECTOR('',#881,10.);
#248=VECTOR('',#884,10.);
#249=VECTOR('',#889,10.);
#250=VECTOR('',#890,10.);
#251=VECTOR('',#891,10.);
#252=VECTOR('',#894,10.);
#253=VECTOR('',#895,10.);
#254=VECTOR('',#896,10.);
#255=VECTOR('',#899,10.);
#256=VECTOR('',#900,10.);
#257=VECTOR('',#903,10.);
#258=VECTOR('',#904,10.);
#259=VECTOR('',#907,10.);
#260=VECTOR('',#908,10.);
#261=VECTOR('',#911,10.);
#262=VECTOR('',#914,10.);
#263=VECTOR('',#915,10.);
#264=VECTOR('',#918,10.);
#265=VECTOR('',#921,10.);
#266=VECTOR('',#922,10.);
#267=VECTOR('',#923,10.);
#268=VECTOR('',#924,10.);
#269=VECTOR('',#925,10.);
#270=VECTOR('',#926,10.);
#271=VECTOR('',#927,10.);
#272=VECTOR('',#930,10.);
#273=VECTOR('',#931,10.);
#274=VECTOR('',#932,10.);
#275=VECTOR('',#935,10.);
#276=VECTOR('',#936,10.);
#277=VECTOR('',#939,10.);
#278=VECTOR('',#940,10.);
#279=VECTOR('',#943,10.);
#280=VECTOR('',#944,10.);
#281=VECTOR('',#947,10.);
#282=VECTOR('',#948,10.);
#283=VECTOR('',#951,10.);
#284=VECTOR('',#952,10.);
#285=VECTOR('',#955,10.);
#286=VECTOR('',#958,10.);
#287=VECTOR('',#959,10.);
#288=VECTOR('',#960,10.);
#289=VECTOR('',#961,10.);
#290=VECTOR('',#962,10.);
#291=VECTOR('',#963,10.);
#292=VECTOR('',#964,10.);
#293=VECTOR('',#967,10.);
#294=VECTOR('',#968,10.);
#295=VECTOR('',#969,10.);
#296=VECTOR('',#972,10.);
#297=VECTOR('',#973,10.);
#298=VECTOR('',#976,10.);
#299=VECTOR('',#977,10.);
#300=VECTOR('',#980,10.);
#301=VECTOR('',#981,10.);
#302=VECTOR('',#984,10.);
#303=VECTOR('',#985,10.);
#304=VECTOR('',#988,10.);
#305=VECTOR('',#989,10.);
#306=VECTOR('',#992,10.);
#307=VECTOR('',#995,10.);
#308=VECTOR('',#996,10.);
#309=VECTOR('',#997,10.);
#310=VECTOR('',#1000,10.);
#311=VECTOR('',#1001,10.);
#312=VECTOR('',#1004,10.);
#313=VECTOR('',#1005,10.);
#314=VECTOR('',#1008,10.);
#315=VERTEX_POINT('',#1013);
#316=VERTEX_POINT('',#1014);
#317=VERTEX_POINT('',#1016);
#318=VERTEX_POINT('',#1018);
#319=VERTEX_POINT('',#1020);
#320=VERTEX_POINT('',#1024);
#321=VERTEX_POINT('',#1026);
#322=VERTEX_POINT('',#1030);
#323=VERTEX_POINT('',#1036);
#324=VERTEX_POINT('',#1037);
#325=VERTEX_POINT('',#1039);
#326=VERTEX_POINT('',#1041);
#327=VERTEX_POINT('',#1044);
#328=VERTEX_POINT('',#1046);
#329=VERTEX_POINT('',#1050);
#330=VERTEX_POINT('',#1051);
#331=VERTEX_POINT('',#1056);
#332=VERTEX_POINT('',#1058);
#333=VERTEX_POINT('',#1061);
#334=VERTEX_POINT('',#1062);
#335=VERTEX_POINT('',#1064);
#336=VERTEX_POINT('',#1066);
#337=VERTEX_POINT('',#1070);
#338=VERTEX_POINT('',#1074);
#339=VERTEX_POINT('',#1077);
#340=VERTEX_POINT('',#1078);
#341=VERTEX_POINT('',#1080);
#342=VERTEX_POINT('',#1082);
#343=VERTEX_POINT('',#1089);
#344=VERTEX_POINT('',#1091);
#345=VERTEX_POINT('',#1095);
#346=VERTEX_POINT('',#1097);
#347=VERTEX_POINT('',#1101);
#348=VERTEX_POINT('',#1105);
#349=VERTEX_POINT('',#1109);
#350=VERTEX_POINT('',#1115);
#351=VERTEX_POINT('',#1121);
#352=VERTEX_POINT('',#1122);
#353=VERTEX_POINT('',#1124);
#354=VERTEX_POINT('',#1126);
#355=VERTEX_POINT('',#1128);
#356=VERTEX_POINT('',#1130);
#357=VERTEX_POINT('',#1132);
#358=VERTEX_POINT('',#1136);
#359=VERTEX_POINT('',#1138);
#360=VERTEX_POINT('',#1142);
#361=VERTEX_POINT('',#1146);
#362=VERTEX_POINT('',#1150);
#363=VERTEX_POINT('',#1154);
#364=VERTEX_POINT('',#1158);
#365=VERTEX_POINT('',#1164);
#366=VERTEX_POINT('',#1165);
#367=VERTEX_POINT('',#1167);
#368=VERTEX_POINT('',#1169);
#369=VERTEX_POINT('',#1171);
#370=VERTEX_POINT('',#1173);
#371=VERTEX_POINT('',#1175);
#372=VERTEX_POINT('',#1179);
#373=VERTEX_POINT('',#1181);
#374=VERTEX_POINT('',#1185);
#375=VERTEX_POINT('',#1189);
#376=VERTEX_POINT('',#1193);
#377=VERTEX_POINT('',#1197);
#378=VERTEX_POINT('',#1201);
#379=VERTEX_POINT('',#1207);
#380=VERTEX_POINT('',#1209);
#381=VERTEX_POINT('',#1213);
#382=VERTEX_POINT('',#1217);
#383=EDGE_CURVE('',#315,#316,#109,.T.);
#384=EDGE_CURVE('',#317,#315,#110,.T.);
#385=EDGE_CURVE('',#318,#317,#111,.T.);
#386=EDGE_CURVE('',#318,#319,#112,.T.);
#387=EDGE_CURVE('',#316,#319,#113,.T.);
#388=EDGE_CURVE('',#320,#317,#114,.T.);
#389=EDGE_CURVE('',#321,#320,#115,.T.);
#390=EDGE_CURVE('',#321,#318,#116,.T.);
#391=EDGE_CURVE('',#316,#322,#117,.T.);
#392=EDGE_CURVE('',#319,#321,#118,.T.);
#393=EDGE_CURVE('',#322,#320,#119,.T.);
#394=EDGE_CURVE('',#323,#324,#120,.T.);
#395=EDGE_CURVE('',#325,#324,#121,.T.);
#396=EDGE_CURVE('',#325,#326,#122,.T.);
#397=EDGE_CURVE('',#323,#326,#123,.T.);
#398=EDGE_CURVE('',#322,#327,#124,.T.);
#399=EDGE_CURVE('',#327,#328,#125,.T.);
#400=EDGE_CURVE('',#328,#315,#126,.T.);
#401=EDGE_CURVE('',#329,#330,#127,.T.);
#402=EDGE_CURVE('',#328,#329,#128,.T.);
#403=EDGE_CURVE('',#330,#327,#129,.T.);
#404=EDGE_CURVE('',#320,#331,#130,.T.);
#405=EDGE_CURVE('',#331,#332,#131,.T.);
#406=EDGE_CURVE('',#332,#330,#132,.T.);
#407=EDGE_CURVE('',#333,#334,#133,.T.);
#408=EDGE_CURVE('',#335,#333,#134,.T.);
#409=EDGE_CURVE('',#336,#335,#135,.T.);
#410=EDGE_CURVE('',#334,#336,#136,.T.);
#411=EDGE_CURVE('',#317,#337,#137,.T.);
#412=EDGE_CURVE('',#337,#331,#138,.T.);
#413=EDGE_CURVE('',#329,#338,#139,.T.);
#414=EDGE_CURVE('',#338,#337,#140,.T.);
#415=EDGE_CURVE('',#339,#340,#141,.T.);
#416=EDGE_CURVE('',#341,#339,#142,.T.);
#417=EDGE_CURVE('',#342,#341,#143,.T.);
#418=EDGE_CURVE('',#340,#342,#144,.T.);
#419=EDGE_CURVE('',#332,#338,#145,.T.);
#420=EDGE_CURVE('',#342,#343,#146,.T.);
#421=EDGE_CURVE('',#344,#343,#147,.T.);
#422=EDGE_CURVE('',#344,#340,#148,.T.);
#423=EDGE_CURVE('',#333,#345,#149,.T.);
#424=EDGE_CURVE('',#346,#345,#150,.T.);
#425=EDGE_CURVE('',#346,#335,#151,.T.);
#426=EDGE_CURVE('',#347,#341,#152,.T.);
#427=EDGE_CURVE('',#343,#347,#153,.T.);
#428=EDGE_CURVE('',#348,#346,#154,.T.);
#429=EDGE_CURVE('',#336,#348,#155,.T.);
#430=EDGE_CURVE('',#339,#349,#156,.T.);
#431=EDGE_CURVE('',#347,#349,#157,.T.);
#432=EDGE_CURVE('',#349,#344,#158,.T.);
#433=EDGE_CURVE('',#350,#334,#159,.T.);
#434=EDGE_CURVE('',#345,#350,#160,.T.);
#435=EDGE_CURVE('',#350,#348,#161,.T.);
#436=EDGE_CURVE('',#351,#352,#162,.T.);
#437=EDGE_CURVE('',#353,#352,#163,.T.);
#438=EDGE_CURVE('',#353,#354,#164,.T.);
#439=EDGE_CURVE('',#354,#355,#165,.T.);
#440=EDGE_CURVE('',#355,#356,#166,.T.);
#441=EDGE_CURVE('',#356,#357,#167,.T.);
#442=EDGE_CURVE('',#357,#351,#168,.T.);
#443=EDGE_CURVE('',#358,#353,#169,.T.);
#444=EDGE_CURVE('',#359,#358,#170,.T.);
#445=EDGE_CURVE('',#354,#359,#171,.T.);
#446=EDGE_CURVE('',#360,#359,#172,.T.);
#447=EDGE_CURVE('',#355,#360,#173,.T.);
#448=EDGE_CURVE('',#361,#360,#174,.T.);
#449=EDGE_CURVE('',#356,#361,#175,.T.);
#450=EDGE_CURVE('',#362,#361,#176,.T.);
#451=EDGE_CURVE('',#357,#362,#177,.T.);
#452=EDGE_CURVE('',#363,#362,#178,.T.);
#453=EDGE_CURVE('',#351,#363,#179,.T.);
#454=EDGE_CURVE('',#364,#363,#180,.T.);
#455=EDGE_CURVE('',#352,#364,#181,.T.);
#456=EDGE_CURVE('',#364,#358,#182,.T.);
#457=EDGE_CURVE('',#365,#366,#183,.T.);
#458=EDGE_CURVE('',#367,#366,#184,.T.);
#459=EDGE_CURVE('',#367,#368,#185,.T.);
#460=EDGE_CURVE('',#368,#369,#186,.T.);
#461=EDGE_CURVE('',#369,#370,#187,.T.);
#462=EDGE_CURVE('',#370,#371,#188,.T.);
#463=EDGE_CURVE('',#371,#365,#189,.T.);
#464=EDGE_CURVE('',#372,#367,#190,.T.);
#465=EDGE_CURVE('',#373,#372,#191,.T.);
#466=EDGE_CURVE('',#368,#373,#192,.T.);
#467=EDGE_CURVE('',#374,#373,#193,.T.);
#468=EDGE_CURVE('',#369,#374,#194,.T.);
#469=EDGE_CURVE('',#375,#374,#195,.T.);
#470=EDGE_CURVE('',#370,#375,#196,.T.);
#471=EDGE_CURVE('',#376,#375,#197,.T.);
#472=EDGE_CURVE('',#371,#376,#198,.T.);
#473=EDGE_CURVE('',#377,#376,#199,.T.);
#474=EDGE_CURVE('',#365,#377,#200,.T.);
#475=EDGE_CURVE('',#378,#377,#201,.T.);
#476=EDGE_CURVE('',#366,#378,#202,.T.);
#477=EDGE_CURVE('',#378,#372,#203,.T.);
#478=EDGE_CURVE('',#326,#379,#204,.T.);
#479=EDGE_CURVE('',#379,#380,#205,.T.);
#480=EDGE_CURVE('',#380,#323,#206,.T.);
#481=EDGE_CURVE('',#381,#325,#207,.T.);
#482=EDGE_CURVE('',#379,#381,#208,.T.);
#483=EDGE_CURVE('',#382,#381,#209,.T.);
#484=EDGE_CURVE('',#380,#382,#210,.T.);
#485=EDGE_CURVE('',#324,#382,#211,.T.);
#486=ORIENTED_EDGE('',*,*,#383,.F.);
#487=ORIENTED_EDGE('',*,*,#384,.F.);
#488=ORIENTED_EDGE('',*,*,#385,.F.);
#489=ORIENTED_EDGE('',*,*,#386,.T.);
#490=ORIENTED_EDGE('',*,*,#387,.F.);
#491=ORIENTED_EDGE('',*,*,#388,.F.);
#492=ORIENTED_EDGE('',*,*,#389,.F.);
#493=ORIENTED_EDGE('',*,*,#390,.T.);
#494=ORIENTED_EDGE('',*,*,#385,.T.);
#495=ORIENTED_EDGE('',*,*,#391,.F.);
#496=ORIENTED_EDGE('',*,*,#387,.T.);
#497=ORIENTED_EDGE('',*,*,#392,.T.);
#498=ORIENTED_EDGE('',*,*,#389,.T.);
#499=ORIENTED_EDGE('',*,*,#393,.F.);
#500=ORIENTED_EDGE('',*,*,#386,.F.);
#501=ORIENTED_EDGE('',*,*,#390,.F.);
#502=ORIENTED_EDGE('',*,*,#392,.F.);
#503=ORIENTED_EDGE('',*,*,#394,.T.);
#504=ORIENTED_EDGE('',*,*,#395,.F.);
#505=ORIENTED_EDGE('',*,*,#396,.T.);
#506=ORIENTED_EDGE('',*,*,#397,.F.);
#507=ORIENTED_EDGE('',*,*,#383,.T.);
#508=ORIENTED_EDGE('',*,*,#391,.T.);
#509=ORIENTED_EDGE('',*,*,#398,.T.);
#510=ORIENTED_EDGE('',*,*,#399,.T.);
#511=ORIENTED_EDGE('',*,*,#400,.T.);
#512=ORIENTED_EDGE('',*,*,#401,.F.);
#513=ORIENTED_EDGE('',*,*,#402,.F.);
#514=ORIENTED_EDGE('',*,*,#399,.F.);
#515=ORIENTED_EDGE('',*,*,#403,.F.);
#516=ORIENTED_EDGE('',*,*,#393,.T.);
#517=ORIENTED_EDGE('',*,*,#404,.T.);
#518=ORIENTED_EDGE('',*,*,#405,.T.);
#519=ORIENTED_EDGE('',*,*,#406,.T.);
#520=ORIENTED_EDGE('',*,*,#403,.T.);
#521=ORIENTED_EDGE('',*,*,#398,.F.);
#522=ORIENTED_EDGE('',*,*,#407,.F.);
#523=ORIENTED_EDGE('',*,*,#408,.F.);
#524=ORIENTED_EDGE('',*,*,#409,.F.);
#525=ORIENTED_EDGE('',*,*,#410,.F.);
#526=ORIENTED_EDGE('',*,*,#404,.F.);
#527=ORIENTED_EDGE('',*,*,#388,.T.);
#528=ORIENTED_EDGE('',*,*,#411,.T.);
#529=ORIENTED_EDGE('',*,*,#412,.T.);
#530=ORIENTED_EDGE('',*,*,#413,.T.);
#531=ORIENTED_EDGE('',*,*,#414,.T.);
#532=ORIENTED_EDGE('',*,*,#411,.F.);
#533=ORIENTED_EDGE('',*,*,#384,.T.);
#534=ORIENTED_EDGE('',*,*,#400,.F.);
#535=ORIENTED_EDGE('',*,*,#402,.T.);
#536=ORIENTED_EDGE('',*,*,#415,.F.);
#537=ORIENTED_EDGE('',*,*,#416,.F.);
#538=ORIENTED_EDGE('',*,*,#417,.F.);
#539=ORIENTED_EDGE('',*,*,#418,.F.);
#540=ORIENTED_EDGE('',*,*,#401,.T.);
#541=ORIENTED_EDGE('',*,*,#406,.F.);
#542=ORIENTED_EDGE('',*,*,#419,.T.);
#543=ORIENTED_EDGE('',*,*,#413,.F.);
#544=ORIENTED_EDGE('',*,*,#419,.F.);
#545=ORIENTED_EDGE('',*,*,#405,.F.);
#546=ORIENTED_EDGE('',*,*,#412,.F.);
#547=ORIENTED_EDGE('',*,*,#414,.F.);
#548=ORIENTED_EDGE('',*,*,#418,.T.);
#549=ORIENTED_EDGE('',*,*,#420,.T.);
#550=ORIENTED_EDGE('',*,*,#421,.F.);
#551=ORIENTED_EDGE('',*,*,#422,.T.);
#552=ORIENTED_EDGE('',*,*,#408,.T.);
#553=ORIENTED_EDGE('',*,*,#423,.T.);
#554=ORIENTED_EDGE('',*,*,#424,.F.);
#555=ORIENTED_EDGE('',*,*,#425,.T.);
#556=ORIENTED_EDGE('',*,*,#417,.T.);
#557=ORIENTED_EDGE('',*,*,#426,.F.);
#558=ORIENTED_EDGE('',*,*,#427,.F.);
#559=ORIENTED_EDGE('',*,*,#420,.F.);
#560=ORIENTED_EDGE('',*,*,#409,.T.);
#561=ORIENTED_EDGE('',*,*,#425,.F.);
#562=ORIENTED_EDGE('',*,*,#428,.F.);
#563=ORIENTED_EDGE('',*,*,#429,.F.);
#564=ORIENTED_EDGE('',*,*,#416,.T.);
#565=ORIENTED_EDGE('',*,*,#430,.T.);
#566=ORIENTED_EDGE('',*,*,#431,.F.);
#567=ORIENTED_EDGE('',*,*,#426,.T.);
#568=ORIENTED_EDGE('',*,*,#415,.T.);
#569=ORIENTED_EDGE('',*,*,#422,.F.);
#570=ORIENTED_EDGE('',*,*,#432,.F.);
#571=ORIENTED_EDGE('',*,*,#430,.F.);
#572=ORIENTED_EDGE('',*,*,#407,.T.);
#573=ORIENTED_EDGE('',*,*,#433,.F.);
#574=ORIENTED_EDGE('',*,*,#434,.F.);
#575=ORIENTED_EDGE('',*,*,#423,.F.);
#576=ORIENTED_EDGE('',*,*,#410,.T.);
#577=ORIENTED_EDGE('',*,*,#429,.T.);
#578=ORIENTED_EDGE('',*,*,#435,.F.);
#579=ORIENTED_EDGE('',*,*,#433,.T.);
#580=ORIENTED_EDGE('',*,*,#436,.T.);
#581=ORIENTED_EDGE('',*,*,#437,.F.);
#582=ORIENTED_EDGE('',*,*,#438,.T.);
#583=ORIENTED_EDGE('',*,*,#439,.T.);
#584=ORIENTED_EDGE('',*,*,#440,.T.);
#585=ORIENTED_EDGE('',*,*,#441,.T.);
#586=ORIENTED_EDGE('',*,*,#442,.T.);
#587=ORIENTED_EDGE('',*,*,#443,.F.);
#588=ORIENTED_EDGE('',*,*,#444,.F.);
#589=ORIENTED_EDGE('',*,*,#445,.F.);
#590=ORIENTED_EDGE('',*,*,#438,.F.);
#591=ORIENTED_EDGE('',*,*,#445,.T.);
#592=ORIENTED_EDGE('',*,*,#446,.F.);
#593=ORIENTED_EDGE('',*,*,#447,.F.);
#594=ORIENTED_EDGE('',*,*,#439,.F.);
#595=ORIENTED_EDGE('',*,*,#447,.T.);
#596=ORIENTED_EDGE('',*,*,#448,.F.);
#597=ORIENTED_EDGE('',*,*,#449,.F.);
#598=ORIENTED_EDGE('',*,*,#440,.F.);
#599=ORIENTED_EDGE('',*,*,#449,.T.);
#600=ORIENTED_EDGE('',*,*,#450,.F.);
#601=ORIENTED_EDGE('',*,*,#451,.F.);
#602=ORIENTED_EDGE('',*,*,#441,.F.);
#603=ORIENTED_EDGE('',*,*,#451,.T.);
#604=ORIENTED_EDGE('',*,*,#452,.F.);
#605=ORIENTED_EDGE('',*,*,#453,.F.);
#606=ORIENTED_EDGE('',*,*,#442,.F.);
#607=ORIENTED_EDGE('',*,*,#453,.T.);
#608=ORIENTED_EDGE('',*,*,#454,.F.);
#609=ORIENTED_EDGE('',*,*,#455,.F.);
#610=ORIENTED_EDGE('',*,*,#436,.F.);
#611=ORIENTED_EDGE('',*,*,#454,.T.);
#612=ORIENTED_EDGE('',*,*,#452,.T.);
#613=ORIENTED_EDGE('',*,*,#450,.T.);
#614=ORIENTED_EDGE('',*,*,#448,.T.);
#615=ORIENTED_EDGE('',*,*,#446,.T.);
#616=ORIENTED_EDGE('',*,*,#444,.T.);
#617=ORIENTED_EDGE('',*,*,#456,.F.);
#618=ORIENTED_EDGE('',*,*,#457,.T.);
#619=ORIENTED_EDGE('',*,*,#458,.F.);
#620=ORIENTED_EDGE('',*,*,#459,.T.);
#621=ORIENTED_EDGE('',*,*,#460,.T.);
#622=ORIENTED_EDGE('',*,*,#461,.T.);
#623=ORIENTED_EDGE('',*,*,#462,.T.);
#624=ORIENTED_EDGE('',*,*,#463,.T.);
#625=ORIENTED_EDGE('',*,*,#464,.F.);
#626=ORIENTED_EDGE('',*,*,#465,.F.);
#627=ORIENTED_EDGE('',*,*,#466,.F.);
#628=ORIENTED_EDGE('',*,*,#459,.F.);
#629=ORIENTED_EDGE('',*,*,#466,.T.);
#630=ORIENTED_EDGE('',*,*,#467,.F.);
#631=ORIENTED_EDGE('',*,*,#468,.F.);
#632=ORIENTED_EDGE('',*,*,#460,.F.);
#633=ORIENTED_EDGE('',*,*,#468,.T.);
#634=ORIENTED_EDGE('',*,*,#469,.F.);
#635=ORIENTED_EDGE('',*,*,#470,.F.);
#636=ORIENTED_EDGE('',*,*,#461,.F.);
#637=ORIENTED_EDGE('',*,*,#470,.T.);
#638=ORIENTED_EDGE('',*,*,#471,.F.);
#639=ORIENTED_EDGE('',*,*,#472,.F.);
#640=ORIENTED_EDGE('',*,*,#462,.F.);
#641=ORIENTED_EDGE('',*,*,#472,.T.);
#642=ORIENTED_EDGE('',*,*,#473,.F.);
#643=ORIENTED_EDGE('',*,*,#474,.F.);
#644=ORIENTED_EDGE('',*,*,#463,.F.);
#645=ORIENTED_EDGE('',*,*,#474,.T.);
#646=ORIENTED_EDGE('',*,*,#475,.F.);
#647=ORIENTED_EDGE('',*,*,#476,.F.);
#648=ORIENTED_EDGE('',*,*,#457,.F.);
#649=ORIENTED_EDGE('',*,*,#475,.T.);
#650=ORIENTED_EDGE('',*,*,#473,.T.);
#651=ORIENTED_EDGE('',*,*,#471,.T.);
#652=ORIENTED_EDGE('',*,*,#469,.T.);
#653=ORIENTED_EDGE('',*,*,#467,.T.);
#654=ORIENTED_EDGE('',*,*,#465,.T.);
#655=ORIENTED_EDGE('',*,*,#477,.F.);
#656=ORIENTED_EDGE('',*,*,#397,.T.);
#657=ORIENTED_EDGE('',*,*,#478,.T.);
#658=ORIENTED_EDGE('',*,*,#479,.T.);
#659=ORIENTED_EDGE('',*,*,#480,.T.);
#660=ORIENTED_EDGE('',*,*,#396,.F.);
#661=ORIENTED_EDGE('',*,*,#481,.F.);
#662=ORIENTED_EDGE('',*,*,#482,.F.);
#663=ORIENTED_EDGE('',*,*,#478,.F.);
#664=ORIENTED_EDGE('',*,*,#428,.T.);
#665=ORIENTED_EDGE('',*,*,#424,.T.);
#666=ORIENTED_EDGE('',*,*,#434,.T.);
#667=ORIENTED_EDGE('',*,*,#435,.T.);
#668=ORIENTED_EDGE('',*,*,#437,.T.);
#669=ORIENTED_EDGE('',*,*,#455,.T.);
#670=ORIENTED_EDGE('',*,*,#456,.T.);
#671=ORIENTED_EDGE('',*,*,#443,.T.);
#672=ORIENTED_EDGE('',*,*,#458,.T.);
#673=ORIENTED_EDGE('',*,*,#476,.T.);
#674=ORIENTED_EDGE('',*,*,#477,.T.);
#675=ORIENTED_EDGE('',*,*,#464,.T.);
#676=ORIENTED_EDGE('',*,*,#482,.T.);
#677=ORIENTED_EDGE('',*,*,#483,.F.);
#678=ORIENTED_EDGE('',*,*,#484,.F.);
#679=ORIENTED_EDGE('',*,*,#479,.F.);
#680=ORIENTED_EDGE('',*,*,#484,.T.);
#681=ORIENTED_EDGE('',*,*,#485,.F.);
#682=ORIENTED_EDGE('',*,*,#394,.F.);
#683=ORIENTED_EDGE('',*,*,#480,.F.);
#684=ORIENTED_EDGE('',*,*,#427,.T.);
#685=ORIENTED_EDGE('',*,*,#431,.T.);
#686=ORIENTED_EDGE('',*,*,#432,.T.);
#687=ORIENTED_EDGE('',*,*,#421,.T.);
#688=ORIENTED_EDGE('',*,*,#395,.T.);
#689=ORIENTED_EDGE('',*,*,#485,.T.);
#690=ORIENTED_EDGE('',*,*,#483,.T.);
#691=ORIENTED_EDGE('',*,*,#481,.T.);
#692=PLANE('',#786);
#693=PLANE('',#787);
#694=PLANE('',#788);
#695=PLANE('',#789);
#696=PLANE('',#790);
#697=PLANE('',#791);
#698=PLANE('',#792);
#699=PLANE('',#793);
#700=PLANE('',#794);
#701=PLANE('',#795);
#702=PLANE('',#796);
#703=PLANE('',#797);
#704=PLANE('',#798);
#705=PLANE('',#799);
#706=PLANE('',#800);
#707=PLANE('',#801);
#708=PLANE('',#802);
#709=PLANE('',#803);
#710=PLANE('',#804);
#711=PLANE('',#805);
#712=PLANE('',#806);
#713=PLANE('',#807);
#714=PLANE('',#808);
#715=PLANE('',#809);
#716=PLANE('',#810);
#717=PLANE('',#811);
#718=PLANE('',#812);
#719=PLANE('',#813);
#720=PLANE('',#814);
#721=PLANE('',#815);
#722=PLANE('',#816);
#723=PLANE('',#817);
#724=PLANE('',#818);
#725=PLANE('',#819);
#726=PLANE('',#820);
#727=PLANE('',#821);
#728=PLANE('',#822);
#729=PLANE('',#823);
#730=PLANE('',#824);
#731=PLANE('',#825);
#732=ADVANCED_FACE('',(#22),#692,.F.);
#733=ADVANCED_FACE('',(#23),#693,.F.);
#734=ADVANCED_FACE('',(#24),#694,.F.);
#735=ADVANCED_FACE('',(#25),#695,.F.);
#736=ADVANCED_FACE('',(#26,#15),#696,.T.);
#737=ADVANCED_FACE('',(#27),#697,.F.);
#738=ADVANCED_FACE('',(#28,#16),#698,.F.);
#739=ADVANCED_FACE('',(#29),#699,.F.);
#740=ADVANCED_FACE('',(#30,#17),#700,.F.);
#741=ADVANCED_FACE('',(#31),#701,.F.);
#742=ADVANCED_FACE('',(#32),#702,.F.);
#743=ADVANCED_FACE('',(#33),#703,.F.);
#744=ADVANCED_FACE('',(#34),#704,.F.);
#745=ADVANCED_FACE('',(#35),#705,.F.);
#746=ADVANCED_FACE('',(#36),#706,.F.);
#747=ADVANCED_FACE('',(#37),#707,.F.);
#748=ADVANCED_FACE('',(#38),#708,.F.);
#749=ADVANCED_FACE('',(#39),#709,.F.);
#750=ADVANCED_FACE('',(#40),#710,.F.);
#751=ADVANCED_FACE('',(#41),#711,.T.);
#752=ADVANCED_FACE('',(#42),#712,.T.);
#753=ADVANCED_FACE('',(#43),#713,.T.);
#754=ADVANCED_FACE('',(#44),#714,.T.);
#755=ADVANCED_FACE('',(#45),#715,.T.);
#756=ADVANCED_FACE('',(#46),#716,.T.);
#757=ADVANCED_FACE('',(#47),#717,.T.);
#758=ADVANCED_FACE('',(#48),#718,.T.);
#759=ADVANCED_FACE('',(#49),#719,.T.);
#760=ADVANCED_FACE('',(#50),#720,.T.);
#761=ADVANCED_FACE('',(#51),#721,.T.);
#762=ADVANCED_FACE('',(#52),#722,.T.);
#763=ADVANCED_FACE('',(#53),#723,.T.);
#764=ADVANCED_FACE('',(#54),#724,.T.);
#765=ADVANCED_FACE('',(#55),#725,.T.);
#766=ADVANCED_FACE('',(#56),#726,.T.);
#767=ADVANCED_FACE('',(#57),#727,.T.);
#768=ADVANCED_FACE('',(#58,#18,#19,#20),#728,.T.);
#769=ADVANCED_FACE('',(#59),#729,.T.);
#770=ADVANCED_FACE('',(#60,#21),#730,.T.);
#771=ADVANCED_FACE('',(#61),#731,.T.);
#772=CLOSED_SHELL('',(#732,#733,#734,#735,#736,#737,#738,#739,#740,#741,
#742,#743,#744,#745,#746,#747,#748,#749,#750,#751,#752,#753,#754,#755,#756,
#757,#758,#759,#760,#761,#762,#763,#764,#765,#766,#767,#768,#769,#770,#771));
#773=DERIVED_UNIT_ELEMENT(#775,1.);
#774=DERIVED_UNIT_ELEMENT(#1228,-3.);
#775=(
MASS_UNIT()
NAMED_UNIT(*)
SI_UNIT(.KILO.,.GRAM.)
);
#776=DERIVED_UNIT((#773,#774));
#777=MEASURE_REPRESENTATION_ITEM('density measure',
POSITIVE_RATIO_MEASURE(7850.),#776);
#778=PROPERTY_DEFINITION_REPRESENTATION(#783,#780);
#779=PROPERTY_DEFINITION_REPRESENTATION(#784,#781);
#780=REPRESENTATION('material name',(#782),#1225);
#781=REPRESENTATION('density',(#777),#1225);
#782=DESCRIPTIVE_REPRESENTATION_ITEM('Steel','Steel');
#783=PROPERTY_DEFINITION('material property','material name',#1235);
#784=PROPERTY_DEFINITION('material property','density of part',#1235);
#785=AXIS2_PLACEMENT_3D('',#1011,#826,#827);
#786=AXIS2_PLACEMENT_3D('',#1012,#828,#829);
#787=AXIS2_PLACEMENT_3D('',#1023,#835,#836);
#788=AXIS2_PLACEMENT_3D('',#1029,#840,#841);
#789=AXIS2_PLACEMENT_3D('',#1034,#845,#846);
#790=AXIS2_PLACEMENT_3D('',#1035,#847,#848);
#791=AXIS2_PLACEMENT_3D('',#1049,#856,#857);
#792=AXIS2_PLACEMENT_3D('',#1055,#861,#862);
#793=AXIS2_PLACEMENT_3D('',#1069,#870,#871);
#794=AXIS2_PLACEMENT_3D('',#1073,#874,#875);
#795=AXIS2_PLACEMENT_3D('',#1085,#882,#883);
#796=AXIS2_PLACEMENT_3D('',#1087,#885,#886);
#797=AXIS2_PLACEMENT_3D('',#1088,#887,#888);
#798=AXIS2_PLACEMENT_3D('',#1094,#892,#893);
#799=AXIS2_PLACEMENT_3D('',#1100,#897,#898);
#800=AXIS2_PLACEMENT_3D('',#1104,#901,#902);
#801=AXIS2_PLACEMENT_3D('',#1108,#905,#906);
#802=AXIS2_PLACEMENT_3D('',#1112,#909,#910);
#803=AXIS2_PLACEMENT_3D('',#1114,#912,#913);
#804=AXIS2_PLACEMENT_3D('',#1118,#916,#917);
#805=AXIS2_PLACEMENT_3D('',#1120,#919,#920);
#806=AXIS2_PLACEMENT_3D('',#1135,#928,#929);
#807=AXIS2_PLACEMENT_3D('',#1141,#933,#934);
#808=AXIS2_PLACEMENT_3D('',#1145,#937,#938);
#809=AXIS2_PLACEMENT_3D('',#1149,#941,#942);
#810=AXIS2_PLACEMENT_3D('',#1153,#945,#946);
#811=AXIS2_PLACEMENT_3D('',#1157,#949,#950);
#812=AXIS2_PLACEMENT_3D('',#1161,#953,#954);
#813=AXIS2_PLACEMENT_3D('',#1163,#956,#957);
#814=AXIS2_PLACEMENT_3D('',#1178,#965,#966);
#815=AXIS2_PLACEMENT_3D('',#1184,#970,#971);
#816=AXIS2_PLACEMENT_3D('',#1188,#974,#975);
#817=AXIS2_PLACEMENT_3D('',#1192,#978,#979);
#818=AXIS2_PLACEMENT_3D('',#1196,#982,#983);
#819=AXIS2_PLACEMENT_3D('',#1200,#986,#987);
#820=AXIS2_PLACEMENT_3D('',#1204,#990,#991);
#821=AXIS2_PLACEMENT_3D('',#1206,#993,#994);
#822=AXIS2_PLACEMENT_3D('',#1212,#998,#999);
#823=AXIS2_PLACEMENT_3D('',#1216,#1002,#1003);
#824=AXIS2_PLACEMENT_3D('',#1220,#1006,#1007);
#825=AXIS2_PLACEMENT_3D('',#1222,#1009,#1010);
#826=DIRECTION('axis',(0.,0.,1.));
#827=DIRECTION('refdir',(1.,0.,0.));
#828=DIRECTION('center_axis',(0.707106781186548,-0.707106781186548,0.));
#829=DIRECTION('ref_axis',(0.707106781186548,0.707106781186548,0.));
#830=DIRECTION('',(-0.707106781186548,-0.707106781186548,0.));
#831=DIRECTION('',(0.,0.,1.));
#832=DIRECTION('',(0.,0.,1.));
#833=DIRECTION('',(-0.707106781186547,-0.707106781186547,0.));
#834=DIRECTION('',(0.,0.,-1.));
#835=DIRECTION('center_axis',(0.,1.,0.));
#836=DIRECTION('ref_axis',(-1.,0.,0.));
#837=DIRECTION('',(1.,0.,0.));
#838=DIRECTION('',(0.,0.,1.));
#839=DIRECTION('',(1.,0.,0.));
#840=DIRECTION('center_axis',(-0.707106781186548,-0.707106781186547,0.));
#841=DIRECTION('ref_axis',(0.707106781186547,-0.707106781186548,0.));
#842=DIRECTION('',(-0.707106781186547,0.707106781186548,0.));
#843=DIRECTION('',(-0.707106781186547,0.707106781186548,0.));
#844=DIRECTION('',(0.,0.,-1.));
#845=DIRECTION('center_axis',(0.,0.,-1.));
#846=DIRECTION('ref_axis',(-1.,0.,0.));
#847=DIRECTION('center_axis',(0.,0.,1.));
#848=DIRECTION('ref_axis',(1.,0.,0.));
#849=DIRECTION('',(0.,1.,0.));
#850=DIRECTION('',(1.,0.,0.));
#851=DIRECTION('',(0.,-1.,0.));
#852=DIRECTION('',(-1.,0.,0.));
#853=DIRECTION('',(0.,1.,0.));
#854=DIRECTION('',(1.,0.,0.));
#855=DIRECTION('',(0.,-1.,0.));
#856=DIRECTION('center_axis',(0.,1.,0.));
#857=DIRECTION('ref_axis',(0.,0.,1.));
#858=DIRECTION('',(-1.,0.,0.));
#859=DIRECTION('',(0.,0.,-1.));
#860=DIRECTION('',(0.,0.,1.));
#861=DIRECTION('center_axis',(-1.,0.,0.));
#862=DIRECTION('ref_axis',(0.,0.,1.));
#863=DIRECTION('',(0.,1.,0.));
#864=DIRECTION('',(0.,0.,1.));
#865=DIRECTION('',(0.,-1.,0.));
#866=DIRECTION('',(0.,0.,1.));
#867=DIRECTION('',(0.,1.,0.));
#868=DIRECTION('',(0.,0.,-1.));
#869=DIRECTION('',(0.,-1.,0.));
#870=DIRECTION('center_axis',(0.,0.,-1.));
#871=DIRECTION('ref_axis',(-1.,0.,0.));
#872=DIRECTION('',(0.,1.,0.));
#873=DIRECTION('',(-1.,0.,0.));
#874=DIRECTION('center_axis',(1.,0.,0.));
#875=DIRECTION('ref_axis',(0.,0.,-1.));
#876=DIRECTION('',(0.,1.,0.));
#877=DIRECTION('',(0.,0.,-1.));
#878=DIRECTION('',(0.,0.,-1.));
#879=DIRECTION('',(0.,1.,0.));
#880=DIRECTION('',(0.,0.,1.));
#881=DIRECTION('',(0.,-1.,0.));
#882=DIRECTION('center_axis',(0.,0.,1.));
#883=DIRECTION('ref_axis',(1.,0.,0.));
#884=DIRECTION('',(1.,0.,0.));
#885=DIRECTION('center_axis',(0.,1.,0.));
#886=DIRECTION('ref_axis',(0.,0.,1.));
#887=DIRECTION('center_axis',(0.,0.,-1.));
#888=DIRECTION('ref_axis',(-1.,0.,0.));
#889=DIRECTION('',(1.,0.,0.));
#890=DIRECTION('',(0.,-1.,0.));
#891=DIRECTION('',(-1.,0.,0.));
#892=DIRECTION('center_axis',(0.,0.,-1.));
#893=DIRECTION('ref_axis',(-1.,0.,0.));
#894=DIRECTION('',(-1.,0.,0.));
#895=DIRECTION('',(0.,1.,0.));
#896=DIRECTION('',(1.,0.,0.));
#897=DIRECTION('center_axis',(0.,-1.,0.));
#898=DIRECTION('ref_axis',(0.,0.,-1.));
#899=DIRECTION('',(-1.,0.,0.));
#900=DIRECTION('',(0.,0.,1.));
#901=DIRECTION('center_axis',(0.,-1.,0.));
#902=DIRECTION('ref_axis',(0.,0.,-1.));
#903=DIRECTION('',(0.,0.,-1.));
#904=DIRECTION('',(-1.,0.,0.));
#905=DIRECTION('center_axis',(0.,0.,1.));
#906=DIRECTION('ref_axis',(1.,0.,0.));
#907=DIRECTION('',(1.,0.,0.));
#908=DIRECTION('',(0.,1.,0.));
#909=DIRECTION('center_axis',(0.,1.,0.));
#910=DIRECTION('ref_axis',(0.,0.,1.));
#911=DIRECTION('',(0.,0.,-1.));
#912=DIRECTION('center_axis',(0.,1.,0.));
#913=DIRECTION('ref_axis',(0.,0.,1.));
#914=DIRECTION('',(1.,0.,0.));
#915=DIRECTION('',(0.,0.,1.));
#916=DIRECTION('center_axis',(0.,0.,1.));
#917=DIRECTION('ref_axis',(1.,0.,0.));
#918=DIRECTION('',(0.,-1.,0.));
#919=DIRECTION('center_axis',(0.,-1.,0.));
#920=DIRECTION('ref_axis',(0.,0.,-1.));
#921=DIRECTION('',(1.,0.,0.));
#922=DIRECTION('',(0.,0.,-1.));
#923=DIRECTION('',(-1.,0.,0.));
#924=DIRECTION('',(0.,0.,-1.));
#925=DIRECTION('',(1.,0.,0.));
#926=DIRECTION('',(0.707106781186548,0.,0.707106781186547));
#927=DIRECTION('',(0.,0.,1.));
#928=DIRECTION('center_axis',(0.,0.,1.));
#929=DIRECTION('ref_axis',(1.,0.,0.));
#930=DIRECTION('',(0.,-1.,0.));
#931=DIRECTION('',(1.,0.,0.));
#932=DIRECTION('',(0.,1.,0.));
#933=DIRECTION('center_axis',(-1.,0.,0.));
#934=DIRECTION('ref_axis',(0.,0.,1.));
#935=DIRECTION('',(0.,0.,1.));
#936=DIRECTION('',(0.,1.,0.));
#937=DIRECTION('center_axis',(0.,0.,-1.));
#938=DIRECTION('ref_axis',(-1.,0.,0.));
#939=DIRECTION('',(-1.,0.,0.));
#940=DIRECTION('',(0.,1.,0.));
#941=DIRECTION('center_axis',(0.707106781186547,0.,-0.707106781186548));
#942=DIRECTION('ref_axis',(-0.707106781186548,0.,-0.707106781186547));
#943=DIRECTION('',(-0.707106781186548,0.,-0.707106781186547));
#944=DIRECTION('',(0.,1.,0.));
#945=DIRECTION('center_axis',(1.,0.,0.));
#946=DIRECTION('ref_axis',(0.,0.,-1.));
#947=DIRECTION('',(0.,0.,-1.));
#948=DIRECTION('',(0.,1.,0.));
#949=DIRECTION('center_axis',(0.,0.,-1.));
#950=DIRECTION('ref_axis',(-1.,0.,0.));
#951=DIRECTION('',(-1.,0.,0.));
#952=DIRECTION('',(0.,1.,0.));
#953=DIRECTION('center_axis',(0.,1.,0.));
#954=DIRECTION('ref_axis',(0.,0.,1.));
#955=DIRECTION('',(0.,0.,1.));
#956=DIRECTION('center_axis',(0.,-1.,0.));
#957=DIRECTION('ref_axis',(0.,0.,-1.));
#958=DIRECTION('',(1.,0.,0.));
#959=DIRECTION('',(0.,0.,-1.));
#960=DIRECTION('',(-1.,0.,0.));
#961=DIRECTION('',(0.,0.,-1.));
#962=DIRECTION('',(1.,0.,0.));
#963=DIRECTION('',(0.707106781186548,0.,0.707106781186547));
#964=DIRECTION('',(0.,0.,1.));
#965=DIRECTION('center_axis',(0.,0.,1.));
#966=DIRECTION('ref_axis',(1.,0.,0.));
#967=DIRECTION('',(0.,-1.,0.));
#968=DIRECTION('',(1.,0.,0.));
#969=DIRECTION('',(0.,1.,0.));
#970=DIRECTION('center_axis',(-1.,0.,0.));
#971=DIRECTION('ref_axis',(0.,0.,1.));
#972=DIRECTION('',(0.,0.,1.));
#973=DIRECTION('',(0.,1.,0.));
#974=DIRECTION('center_axis',(0.,0.,-1.));
#975=DIRECTION('ref_axis',(-1.,0.,0.));
#976=DIRECTION('',(-1.,0.,0.));
#977=DIRECTION('',(0.,1.,0.));
#978=DIRECTION('center_axis',(0.707106781186547,0.,-0.707106781186548));
#979=DIRECTION('ref_axis',(-0.707106781186548,0.,-0.707106781186547));
#980=DIRECTION('',(-0.707106781186548,0.,-0.707106781186547));
#981=DIRECTION('',(0.,1.,0.));
#982=DIRECTION('center_axis',(1.,0.,0.));
#983=DIRECTION('ref_axis',(0.,0.,-1.));
#984=DIRECTION('',(0.,0.,-1.));
#985=DIRECTION('',(0.,1.,0.));
#986=DIRECTION('center_axis',(0.,0.,-1.));
#987=DIRECTION('ref_axis',(-1.,0.,0.));
#988=DIRECTION('',(-1.,0.,0.));
#989=DIRECTION('',(0.,1.,0.));
#990=DIRECTION('center_axis',(0.,1.,0.));
#991=DIRECTION('ref_axis',(0.,0.,1.));
#992=DIRECTION('',(0.,0.,1.));
#993=DIRECTION('center_axis',(0.,-1.,0.));
#994=DIRECTION('ref_axis',(0.,0.,-1.));
#995=DIRECTION('',(0.,0.,-1.));
#996=DIRECTION('',(1.,0.,0.));
#997=DIRECTION('',(0.,0.,1.));
#998=DIRECTION('center_axis',(-1.,0.,0.));
#999=DIRECTION('ref_axis',(0.,0.,1.));
#1000=DIRECTION('',(0.,0.,1.));
#1001=DIRECTION('',(0.,1.,0.));
#1002=DIRECTION('center_axis',(0.,0.,-1.));
#1003=DIRECTION('ref_axis',(-1.,0.,0.));
#1004=DIRECTION('',(-1.,0.,0.));
#1005=DIRECTION('',(0.,1.,0.));
#1006=DIRECTION('center_axis',(1.,0.,0.));
#1007=DIRECTION('ref_axis',(0.,0.,-1.));
#1008=DIRECTION('',(0.,0.,-1.));
#1009=DIRECTION('center_axis',(0.,1.,0.));
#1010=DIRECTION('ref_axis',(0.,0.,1.));
#1011=CARTESIAN_POINT('',(0.,0.,0.));
#1012=CARTESIAN_POINT('Origin',(5.3,-3.88,34.15));
#1013=CARTESIAN_POINT('',(7.,-2.18,48.));
#1014=CARTESIAN_POINT('',(5.3,-3.88,48.));
#1015=CARTESIAN_POINT('',(6.07,-3.11,48.));
#1016=CARTESIAN_POINT('',(7.,-2.18,20.3));
#1017=CARTESIAN_POINT('',(7.,-2.18,26.7));
#1018=CARTESIAN_POINT('',(7.,-2.18,19.3));
#1019=CARTESIAN_POINT('',(7.,-2.18,34.15));
#1020=CARTESIAN_POINT('',(5.3,-3.88,19.3));
#1021=CARTESIAN_POINT('',(7.,-2.18,19.3));
#1022=CARTESIAN_POINT('',(5.3,-3.88,34.15));
#1023=CARTESIAN_POINT('Origin',(7.,-2.18,34.15));
#1024=CARTESIAN_POINT('',(3.6,-2.18,20.3));
#1025=CARTESIAN_POINT('',(3.6,-2.18,20.3));
#1026=CARTESIAN_POINT('',(3.6,-2.18,19.3));
#1027=CARTESIAN_POINT('',(3.6,-2.18,34.15));
#1028=CARTESIAN_POINT('',(3.6,-2.18,19.3));
#1029=CARTESIAN_POINT('Origin',(3.6,-2.18,34.15));
#1030=CARTESIAN_POINT('',(3.6,-2.18,48.));
#1031=CARTESIAN_POINT('',(1.03,0.390000000000001,48.));
#1032=CARTESIAN_POINT('',(5.3,-3.88,19.3));
#1033=CARTESIAN_POINT('',(3.6,-2.18,27.7));
#1034=CARTESIAN_POINT('Origin',(5.3,-3.03,19.3));
#1035=CARTESIAN_POINT('Origin',(0.,4.5,48.));
#1036=CARTESIAN_POINT('',(11.,-12.,48.));
#1037=CARTESIAN_POINT('',(11.,21.,48.));
#1038=CARTESIAN_POINT('',(11.,4.5,48.));
#1039=CARTESIAN_POINT('',(0.,21.,48.));
#1040=CARTESIAN_POINT('',(11.,21.,48.));
#1041=CARTESIAN_POINT('',(0.,-12.,48.));
#1042=CARTESIAN_POINT('',(0.,4.5,48.));
#1043=CARTESIAN_POINT('',(11.,-12.,48.));
#1044=CARTESIAN_POINT('',(3.6,5.22,48.));
#1045=CARTESIAN_POINT('',(3.6,3.01,48.));
#1046=CARTESIAN_POINT('',(7.,5.22,48.));
#1047=CARTESIAN_POINT('',(2.65,5.22,48.));
#1048=CARTESIAN_POINT('',(7.,3.01,48.));
#1049=CARTESIAN_POINT('Origin',(5.3,5.22,37.85));
#1050=CARTESIAN_POINT('',(7.,5.22,27.7));
#1051=CARTESIAN_POINT('',(3.6,5.22,27.7));
#1052=CARTESIAN_POINT('',(4.45,5.22,27.7));
#1053=CARTESIAN_POINT('',(7.,5.22,26.7));
#1054=CARTESIAN_POINT('',(3.6,5.22,49.));
#1055=CARTESIAN_POINT('Origin',(3.6,7.52,20.3));
#1056=CARTESIAN_POINT('',(3.6,17.22,20.3));
#1057=CARTESIAN_POINT('',(3.6,7.52,20.3));
#1058=CARTESIAN_POINT('',(3.6,17.22,27.7));
#1059=CARTESIAN_POINT('',(3.6,17.22,27.7));
#1060=CARTESIAN_POINT('',(3.6,7.52,27.7));
#1061=CARTESIAN_POINT('',(3.6,15.92,21.6));
#1062=CARTESIAN_POINT('',(3.6,15.92,26.4));
#1063=CARTESIAN_POINT('',(3.6,15.92,22.15));
#1064=CARTESIAN_POINT('',(3.6,-0.880000000000001,21.6));
#1065=CARTESIAN_POINT('',(3.6,7.52,21.6));
#1066=CARTESIAN_POINT('',(3.6,-0.880000000000001,26.4));
#1067=CARTESIAN_POINT('',(3.6,-0.880000000000001,22.15));
#1068=CARTESIAN_POINT('',(3.6,7.52,26.4));
#1069=CARTESIAN_POINT('Origin',(7.,7.52,20.3));
#1070=CARTESIAN_POINT('',(7.,17.22,20.3));
#1071=CARTESIAN_POINT('',(7.,7.52,20.3));
#1072=CARTESIAN_POINT('',(3.6,17.22,20.3));
#1073=CARTESIAN_POINT('Origin',(7.,7.52,27.7));
#1074=CARTESIAN_POINT('',(7.,17.22,27.7));
#1075=CARTESIAN_POINT('',(7.,7.52,27.7));
#1076=CARTESIAN_POINT('',(7.,17.22,20.3));
#1077=CARTESIAN_POINT('',(7.,15.92,26.4));
#1078=CARTESIAN_POINT('',(7.,15.92,21.6));
#1079=CARTESIAN_POINT('',(7.,15.92,25.85));
#1080=CARTESIAN_POINT('',(7.,-0.880000000000001,26.4));
#1081=CARTESIAN_POINT('',(7.,7.52,26.4));
#1082=CARTESIAN_POINT('',(7.,-0.880000000000001,21.6));
#1083=CARTESIAN_POINT('',(7.,-0.880000000000001,25.85));
#1084=CARTESIAN_POINT('',(7.,7.52,21.6));
#1085=CARTESIAN_POINT('Origin',(3.6,7.52,27.7));
#1086=CARTESIAN_POINT('',(7.,17.22,27.7));
#1087=CARTESIAN_POINT('Origin',(5.3,17.22,24.));
#1088=CARTESIAN_POINT('Origin',(12.,7.52,21.6));
#1089=CARTESIAN_POINT('',(11.,-0.880000000000001,21.6));
#1090=CARTESIAN_POINT('',(-1.,-0.880000000000001,21.6));
#1091=CARTESIAN_POINT('',(11.,15.92,21.6));
#1092=CARTESIAN_POINT('',(11.,6.01,21.6));
#1093=CARTESIAN_POINT('',(-1.,15.92,21.6));
#1094=CARTESIAN_POINT('Origin',(12.,7.52,21.6));
#1095=CARTESIAN_POINT('',(0.,15.92,21.6));
#1096=CARTESIAN_POINT('',(-1.,15.92,21.6));
#1097=CARTESIAN_POINT('',(0.,-0.880000000000001,21.6));
#1098=CARTESIAN_POINT('',(0.,6.01,21.6));
#1099=CARTESIAN_POINT('',(-1.,-0.880000000000001,21.6));
#1100=CARTESIAN_POINT('Origin',(5.5,-0.880000000000001,24.));
#1101=CARTESIAN_POINT('',(11.,-0.880000000000001,26.4));
#1102=CARTESIAN_POINT('',(12.,-0.880000000000001,26.4));
#1103=CARTESIAN_POINT('',(11.,-0.880000000000001,36.));
#1104=CARTESIAN_POINT('Origin',(5.5,-0.880000000000001,24.));
#1105=CARTESIAN_POINT('',(0.,-0.880000000000001,26.4));
#1106=CARTESIAN_POINT('',(0.,-0.880000000000001,12.));
#1107=CARTESIAN_POINT('',(12.,-0.880000000000001,26.4));
#1108=CARTESIAN_POINT('Origin',(-1.,7.52,26.4));
#1109=CARTESIAN_POINT('',(11.,15.92,26.4));
#1110=CARTESIAN_POINT('',(12.,15.92,26.4));
#1111=CARTESIAN_POINT('',(11.,6.01,26.4));
#1112=CARTESIAN_POINT('Origin',(5.5,15.92,24.));
#1113=CARTESIAN_POINT('',(11.,15.92,36.));
#1114=CARTESIAN_POINT('Origin',(5.5,15.92,24.));
#1115=CARTESIAN_POINT('',(0.,15.92,26.4));
#1116=CARTESIAN_POINT('',(12.,15.92,26.4));
#1117=CARTESIAN_POINT('',(0.,15.92,12.));
#1118=CARTESIAN_POINT('Origin',(-1.,7.52,26.4));
#1119=CARTESIAN_POINT('',(0.,6.01,26.4));
#1120=CARTESIAN_POINT('Origin',(-4.15,-1.2,12.1));
#1121=CARTESIAN_POINT('',(-3.8,-1.2,15.6));
#1122=CARTESIAN_POINT('',(0.,-1.2,15.6));
#1123=CARTESIAN_POINT('',(-3.8,-1.2,15.6));
#1124=CARTESIAN_POINT('',(0.,-1.2,20.6));
#1125=CARTESIAN_POINT('',(0.,-1.2,6.05));
#1126=CARTESIAN_POINT('',(-8.3,-1.2,20.6));
#1127=CARTESIAN_POINT('',(0.,-1.2,20.6));
#1128=CARTESIAN_POINT('',(-8.3,-1.2,3.6));
#1129=CARTESIAN_POINT('',(-8.3,-1.2,20.6));
#1130=CARTESIAN_POINT('',(-5.3,-1.2,3.6));
#1131=CARTESIAN_POINT('',(-8.3,-1.2,3.6));
#1132=CARTESIAN_POINT('',(-3.8,-1.2,5.1));
#1133=CARTESIAN_POINT('',(-5.3,-1.2,3.6));
#1134=CARTESIAN_POINT('',(-3.8,-1.2,5.1));
#1135=CARTESIAN_POINT('Origin',(-8.3,0.,20.6));
#1136=CARTESIAN_POINT('',(0.,1.2,20.6));
#1137=CARTESIAN_POINT('',(0.,2.25,20.6));
#1138=CARTESIAN_POINT('',(-8.3,1.2,20.6));
#1139=CARTESIAN_POINT('',(0.,1.2,20.6));
#1140=CARTESIAN_POINT('',(-8.3,0.,20.6));
#1141=CARTESIAN_POINT('Origin',(-8.3,0.,3.6));
#1142=CARTESIAN_POINT('',(-8.3,1.2,3.6));
#1143=CARTESIAN_POINT('',(-8.3,1.2,20.6));
#1144=CARTESIAN_POINT('',(-8.3,0.,3.6));
#1145=CARTESIAN_POINT('Origin',(-5.3,0.,3.6));
#1146=CARTESIAN_POINT('',(-5.3,1.2,3.6));
#1147=CARTESIAN_POINT('',(-8.3,1.2,3.6));
#1148=CARTESIAN_POINT('',(-5.3,0.,3.6));
#1149=CARTESIAN_POINT('Origin',(-3.8,0.,5.1));
#1150=CARTESIAN_POINT('',(-3.8,1.2,5.1));
#1151=CARTESIAN_POINT('',(-5.3,1.2,3.6));
#1152=CARTESIAN_POINT('',(-3.8,0.,5.1));
#1153=CARTESIAN_POINT('Origin',(-3.8,0.,15.6));
#1154=CARTESIAN_POINT('',(-3.8,1.2,15.6));
#1155=CARTESIAN_POINT('',(-3.8,1.2,5.1));
#1156=CARTESIAN_POINT('',(-3.8,0.,15.6));
#1157=CARTESIAN_POINT('Origin',(0.,0.,15.6));
#1158=CARTESIAN_POINT('',(0.,1.2,15.6));
#1159=CARTESIAN_POINT('',(-3.8,1.2,15.6));
#1160=CARTESIAN_POINT('',(0.,2.25,15.6));
#1161=CARTESIAN_POINT('Origin',(-4.15,1.2,12.1));
#1162=CARTESIAN_POINT('',(0.,1.2,6.05));
#1163=CARTESIAN_POINT('Origin',(-4.15,-1.2,37.5));
#1164=CARTESIAN_POINT('',(-3.8,-1.2,41.));
#1165=CARTESIAN_POINT('',(0.,-1.2,41.));
#1166=CARTESIAN_POINT('',(-3.8,-1.2,41.));
#1167=CARTESIAN_POINT('',(0.,-1.2,46.));
#1168=CARTESIAN_POINT('',(0.,-1.2,18.75));
#1169=CARTESIAN_POINT('',(-8.3,-1.2,46.));
#1170=CARTESIAN_POINT('',(0.,-1.2,46.));
#1171=CARTESIAN_POINT('',(-8.3,-1.2,29.));
#1172=CARTESIAN_POINT('',(-8.3,-1.2,46.));
#1173=CARTESIAN_POINT('',(-5.3,-1.2,29.));
#1174=CARTESIAN_POINT('',(-8.3,-1.2,29.));
#1175=CARTESIAN_POINT('',(-3.8,-1.2,30.5));
#1176=CARTESIAN_POINT('',(-5.3,-1.2,29.));
#1177=CARTESIAN_POINT('',(-3.8,-1.2,30.5));
#1178=CARTESIAN_POINT('Origin',(-8.3,0.,46.));
#1179=CARTESIAN_POINT('',(0.,1.2,46.));
#1180=CARTESIAN_POINT('',(0.,2.25,46.));
#1181=CARTESIAN_POINT('',(-8.3,1.2,46.));
#1182=CARTESIAN_POINT('',(0.,1.2,46.));
#1183=CARTESIAN_POINT('',(-8.3,0.,46.));
#1184=CARTESIAN_POINT('Origin',(-8.3,0.,29.));
#1185=CARTESIAN_POINT('',(-8.3,1.2,29.));
#1186=CARTESIAN_POINT('',(-8.3,1.2,46.));
#1187=CARTESIAN_POINT('',(-8.3,0.,29.));
#1188=CARTESIAN_POINT('Origin',(-5.3,0.,29.));
#1189=CARTESIAN_POINT('',(-5.3,1.2,29.));
#1190=CARTESIAN_POINT('',(-8.3,1.2,29.));
#1191=CARTESIAN_POINT('',(-5.3,0.,29.));
#1192=CARTESIAN_POINT('Origin',(-3.8,0.,30.5));
#1193=CARTESIAN_POINT('',(-3.8,1.2,30.5));
#1194=CARTESIAN_POINT('',(-5.3,1.2,29.));
#1195=CARTESIAN_POINT('',(-3.8,0.,30.5));
#1196=CARTESIAN_POINT('Origin',(-3.8,0.,41.));
#1197=CARTESIAN_POINT('',(-3.8,1.2,41.));
#1198=CARTESIAN_POINT('',(-3.8,1.2,30.5));
#1199=CARTESIAN_POINT('',(-3.8,0.,41.));
#1200=CARTESIAN_POINT('Origin',(0.,0.,41.));
#1201=CARTESIAN_POINT('',(0.,1.2,41.));
#1202=CARTESIAN_POINT('',(-3.8,1.2,41.));
#1203=CARTESIAN_POINT('',(0.,2.25,41.));
#1204=CARTESIAN_POINT('Origin',(-4.15,1.2,37.5));
#1205=CARTESIAN_POINT('',(0.,1.2,18.75));
#1206=CARTESIAN_POINT('Origin',(5.5,-12.,24.));
#1207=CARTESIAN_POINT('',(0.,-12.,0.));
#1208=CARTESIAN_POINT('',(0.,-12.,48.));
#1209=CARTESIAN_POINT('',(11.,-12.,0.));
#1210=CARTESIAN_POINT('',(0.,-12.,0.));
#1211=CARTESIAN_POINT('',(11.,-12.,0.));
#1212=CARTESIAN_POINT('Origin',(0.,4.5,0.));
#1213=CARTESIAN_POINT('',(0.,21.,0.));
#1214=CARTESIAN_POINT('',(0.,21.,48.));
#1215=CARTESIAN_POINT('',(0.,4.5,0.));
#1216=CARTESIAN_POINT('Origin',(11.,4.5,0.));
#1217=CARTESIAN_POINT('',(11.,21.,0.));
#1218=CARTESIAN_POINT('',(0.,21.,0.));
#1219=CARTESIAN_POINT('',(11.,4.5,0.));
#1220=CARTESIAN_POINT('Origin',(11.,4.5,48.));
#1221=CARTESIAN_POINT('',(11.,21.,0.));
#1222=CARTESIAN_POINT('Origin',(5.5,21.,24.));
#1223=UNCERTAINTY_MEASURE_WITH_UNIT(LENGTH_MEASURE(0.01),#1227,
'DISTANCE_ACCURACY_VALUE',
'Maximum model space distance between geometric entities at asserted c
onnectivities');
#1224=UNCERTAINTY_MEASURE_WITH_UNIT(LENGTH_MEASURE(0.01),#1227,
'DISTANCE_ACCURACY_VALUE',
'Maximum model space distance between geometric entities at asserted c
onnectivities');
#1225=(
GEOMETRIC_REPRESENTATION_CONTEXT(3)
GLOBAL_UNCERTAINTY_ASSIGNED_CONTEXT((#1223))
GLOBAL_UNIT_ASSIGNED_CONTEXT((#1227,#1229,#1230))
REPRESENTATION_CONTEXT('','3D')
);
#1226=(
GEOMETRIC_REPRESENTATION_CONTEXT(3)
GLOBAL_UNCERTAINTY_ASSIGNED_CONTEXT((#1224))
GLOBAL_UNIT_ASSIGNED_CONTEXT((#1227,#1229,#1230))
REPRESENTATION_CONTEXT('','3D')
);
#1227=(
LENGTH_UNIT()
NAMED_UNIT(*)
SI_UNIT(.MILLI.,.METRE.)
);
#1228=(
LENGTH_UNIT()
NAMED_UNIT(*)
SI_UNIT($,.METRE.)
);
#1229=(
NAMED_UNIT(*)
PLANE_ANGLE_UNIT()
SI_UNIT($,.RADIAN.)
);
#1230=(
NAMED_UNIT(*)
SI_UNIT($,.STERADIAN.)
SOLID_ANGLE_UNIT()
);
#1231=SHAPE_DEFINITION_REPRESENTATION(#1232,#1233);
#1232=PRODUCT_DEFINITION_SHAPE('',$,#1235);
#1233=SHAPE_REPRESENTATION('',(#785),#1225);
#1234=PRODUCT_DEFINITION_CONTEXT('part definition',#1239,'design');
#1235=PRODUCT_DEFINITION('2026-09-06-14-40-21-794',
'SKADIS Nut Bracket Left',#1236,#1234);
#1236=PRODUCT_DEFINITION_FORMATION('',$,#1241);
#1237=PRODUCT_RELATED_PRODUCT_CATEGORY('SKADIS Nut Bracket Left',
'SKADIS Nut Bracket Left',(#1241));
#1238=APPLICATION_PROTOCOL_DEFINITION('international standard',
'automotive_design',2009,#1239);
#1239=APPLICATION_CONTEXT(
'Core Data for Automotive Mechanical Design Process');
#1240=PRODUCT_CONTEXT('part definition',#1239,'mechanical');
#1241=PRODUCT('2026-09-06-14-40-21-794','SKADIS Nut Bracket Left',$,(#1240));
#1242=PRESENTATION_STYLE_ASSIGNMENT((#1243));
#1243=SURFACE_STYLE_USAGE(.BOTH.,#1244);
#1244=SURFACE_SIDE_STYLE('',(#1245));
#1245=SURFACE_STYLE_FILL_AREA(#1246);
#1246=FILL_AREA_STYLE('Steel - Satin',(#1247));
#1247=FILL_AREA_STYLE_COLOUR('Steel - Satin',#1248);
#1248=COLOUR_RGB('Steel - Satin',0.627450980392157,0.627450980392157,0.627450980392157);
ENDSEC;
END-ISO-10303-21;
